<?xml version="1.0" encoding="UTF-8"?>
<svg id="b" data-name="圖層 2" xmlns="http://www.w3.org/2000/svg" viewBox="0 0 414.94 94.42">
  <defs>
    <style>
      .d {
        fill: #fff;
        stroke-width: 0px;
      }
    </style>
  </defs>
  <g id="c" data-name="圖層 1">
    <path class="d" d="m226.15,39.48h-33.01v-1.3h33.01v1.3ZM80.08,11.13h1.83V.25h-1.83v10.88Zm13.19,0h.82V2.54h.07l7.73,8.84h.43V.25h-.8v7.96h-.08L94.3.25h-1.03v10.88ZM124.36.25v.71h3.94v10.17h1.83V.95h3.94V.25h-9.71Zm27.03,10.93c.51-.14.99-.33,1.44-.58s.85-.55,1.21-.9c.36-.35.67-.74.93-1.17.26-.43.46-.88.6-1.37s.21-1,.21-1.52-.07-1.02-.21-1.5-.34-.93-.6-1.35-.57-.79-.93-1.14-.76-.63-1.21-.88-.93-.43-1.44-.57c-.51-.13-1.05-.2-1.62-.2s-1.1.07-1.62.2c-.51.13-.99.32-1.44.57-.44.24-.85.54-1.21.88-.36.34-.67.72-.93,1.14s-.46.86-.59,1.35-.21.98-.21,1.5c0,.79.15,1.54.46,2.24s.73,1.31,1.27,1.83c.54.52,1.17.93,1.9,1.23.73.3,1.52.45,2.36.45.56,0,1.1-.07,1.62-.21Zm-3.29-.72c-.48-.26-.88-.62-1.21-1.09-.33-.47-.57-1.02-.73-1.65-.16-.64-.25-1.33-.25-2.09s.08-1.44.25-2.06c.16-.62.41-1.16.73-1.61.33-.45.73-.8,1.21-1.05.48-.25,1.04-.37,1.67-.37s1.17.12,1.65.37c.48.25.88.6,1.21,1.05.33.45.58.99.74,1.61s.25,1.31.25,2.06-.08,1.45-.25,2.09c-.17.63-.41,1.18-.74,1.65-.33.46-.73.83-1.21,1.09-.48.26-1.03.39-1.65.39s-1.19-.13-1.67-.39ZM177.34.25v.71h3.94v10.17h1.83V.95h3.94V.25h-9.71Zm27.19,5.66v5.22h1.83V.25h-1.83v4.96h-5.46V.25h-1.83v10.88h1.83v-5.22h5.46ZM217.73.25v10.88h7.57v-.71h-5.74v-4.87h3.84v-.71h-3.84V.95h5.74V.25h-7.57Zm38.09,1.14c.56.41,1.07,1.05,1.53,1.93l.79-.52c-.22-.37-.49-.72-.8-1.05-.31-.34-.67-.63-1.07-.89-.4-.26-.85-.46-1.34-.62-.49-.16-1.02-.23-1.6-.23s-1.17.07-1.71.21-1.03.34-1.48.6c-.45.26-.86.56-1.22.92-.36.36-.67.75-.92,1.18-.25.43-.44.89-.58,1.37-.13.48-.2.98-.2,1.49s.07,1.01.21,1.49.34.92.6,1.34c.26.42.58.79.95,1.14.37.34.79.64,1.25.88s.96.44,1.51.57c.54.13,1.11.2,1.71.2.57,0,1.08-.02,1.53-.07.45-.05.86-.11,1.23-.2.37-.09.72-.2,1.05-.33.32-.13.64-.28.96-.45v-4.78h-3.89v.65h2.06v3.82c-.31.24-.65.43-1.03.55-.38.13-.81.19-1.29.19-.66,0-1.27-.12-1.85-.35-.57-.23-1.07-.57-1.5-1-.42-.43-.76-.96-1-1.57-.24-.62-.37-1.31-.37-2.07s.11-1.45.34-2.06c.22-.62.54-1.14.94-1.58.4-.43.88-.77,1.44-1s1.16-.35,1.82-.35c.73,0,1.37.2,1.93.61Zm13.59,9.74h1.83v-5.11h1.28l3.78,5.11h2.12l-3.96-5.28c.39-.1.75-.23,1.08-.41.33-.17.61-.38.84-.62.23-.24.41-.5.54-.8s.19-.61.19-.95c0-.41-.08-.79-.25-1.14-.17-.35-.41-.65-.74-.9-.33-.25-.74-.45-1.23-.59s-1.06-.21-1.71-.21h-3.77v10.88Zm1.83-10.2h1.61c.33,0,.64.05.92.16.28.11.52.26.73.46.21.19.36.43.48.7.11.27.17.57.17.9,0,.36-.07.68-.21.96-.14.28-.34.53-.59.73-.25.2-.56.35-.9.46-.35.11-.73.16-1.14.16h-1.06V.93Zm17.08-.68v10.88h7.57v-.71h-5.74v-4.87h3.84v-.71h-3.84V.95h5.74V.25h-7.57Zm18.12,0v10.88h7.57v-.71h-5.74v-4.87h3.84v-.71h-3.84V.95h5.74V.25h-7.57Zm18.12,10.88h.82V2.54h.07l7.73,8.84h.43V.25h-.8v7.96h-.08l-7.13-7.96h-1.03v10.88ZM13.99,87.19c-.28.5-.61.88-.99,1.16-.38.27-.81.45-1.28.54-.47.09-1.3.13-2.47.13H3.47c.67-.62,2.36-2.44,5.07-5.46,1.8-2.01,3.11-3.91,3.91-5.71.52-1.14.78-2.28.78-3.43,0-1.6-.6-2.98-1.8-4.16-1.2-1.18-2.7-1.76-4.49-1.76-1.69,0-3.09.55-4.21,1.65-1.12,1.1-1.82,2.67-2.09,4.72h.6c.41-1.25,1.05-2.2,1.92-2.85.86-.65,1.84-.97,2.93-.97,1.2,0,2.22.46,3.08,1.38s1.29,2.1,1.29,3.53c0,1.87-.78,3.94-2.35,6.21s-4.27,5.18-8.1,8.75v.62h13.04l1.55-4.34h-.6Zm5.66-3.77c-.66.98-.99,1.97-.99,2.97,0,1.28.47,2.45,1.4,3.53,1.17,1.34,2.81,2.01,4.91,2.01,1.92,0,3.48-.56,4.66-1.69s1.78-2.48,1.78-4.07c0-1.25-.41-2.45-1.24-3.58-.62-.87-1.89-2.05-3.8-3.56,1.86-1.19,3.08-2.22,3.67-3.09.59-.88.88-1.74.88-2.58,0-1.26-.54-2.39-1.63-3.38-1.09-.99-2.52-1.48-4.3-1.48s-3.31.53-4.42,1.59c-1.11,1.06-1.66,2.32-1.66,3.78,0,.95.25,1.87.76,2.76.51.89,1.63,2.06,3.38,3.53-1.61,1.19-2.74,2.27-3.4,3.25Zm8.84,1.99c.41.63.62,1.35.62,2.15,0,.96-.35,1.79-1.06,2.46-.71.68-1.65,1.01-2.82,1.01s-2.16-.43-2.93-1.29-1.15-2-1.15-3.44c0-1.06.22-2.05.65-2.97.43-.92,1.1-1.76,2-2.54,2.35,1.9,3.91,3.43,4.68,4.61Zm-5.56-9.28c-.53-.52-.94-1.07-1.23-1.65-.29-.58-.43-1.15-.43-1.73,0-.88.35-1.64,1.04-2.3.7-.65,1.6-.98,2.71-.98s1.98.33,2.62.99c.64.66.96,1.57.96,2.74,0,.88-.17,1.66-.52,2.35s-1.17,1.64-2.48,2.84l-2.67-2.26Zm38.92.66c.09-.12.12-.31,0-.43-.81-.55-1.32-.95-2.13-1.5-.18-.12-.48-.09-.57-.03l-.96,1.1h-4.81c.81-.71,1.71-1.29,2.52-2.08.3-.12.54-.15.84-.28.12-.09.24-.31.09-.43-.36-.28-.72-.58-1.14-.77h2.1v1.38c.03.09.15.21.24.25.75-.15,1.68-.46,2.13-.77.24-.18.27-.37.27-.67l-.09-2.79c0-.28.24-.46.78-.89.09-.12.06-.37-.06-.46l-1.56-1.23c-.39-.31-.63-.46-.9-.31l-1.2,1.04h-16.07c-.93-.49-1.62-.92-2.82-1.41l.06,2.57v12.78c0,4.11-1.08,8.15-3.27,11.46.18.12.33.25.51.34.75-.89,1.44-1.84,2.07-2.76,2.25-3.34,3.12-7.36,3.18-11.65l.09-6.9h4.87c.81.92,1.41,2.54,1.59,3.59l-2.73-.03c-.93-.46-1.71-.92-2.67-1.32.18,2.91.09,6.13,0,9.07l.15.25c.39.12.72-.15,1.08-.31.3-.09.6-.34.87-.4l.06,1.78v6.9l-.09,2.15c0,.12.15.31.3.28.75-.12,1.29-.4,1.98-.77.24-.18.36-.4.33-.67v-.64h9.49v1.9c.03.15.27.31.45.28.81-.15,1.32-.31,2.01-.77.12-.12.18-.31.15-.55l-.12-6.99c0-.21.51-.58.84-.8.12-.15.12-.43,0-.55-.51-.4-.66-.46-1.11-.8.57-.15,1.11-.34,1.68-.52.15-.09.36-.18.39-.4-.12-1.56-.09-3.43-.06-5.09.18-.55.84-.83,1.23-1.17Zm-4-5.3h-16.71v-2.67h16.71v2.67Zm.39,12.23c-.63-.52-.72-.8-1.17-.49l-.96,1.1h-8.95c-.9-.46-1.83-.8-2.7-1.23.21-.12.27-.31.27-.58h13.52v1.2Zm-8.26-2.08h-5.29v-4.81h5.29v4.81Zm-1.11-1.99c-.57-1.41-2.19-1.99-3.46-2.64l-.24.31c1.05,1.01,1.59,2.42,2.1,3.74l.21.25c.21.09.48.03.63-.09.45-.37.87-.92.75-1.56Zm7.54,8.06h-9.52v-2.48h9.52v2.48Zm0,3.62h-9.52v-2.73h9.52v2.73Zm-2.4-18.94c-.36,1.29-.81,2.45-1.5,3.56h-3.7c.3-.34.57-.77.57-1.26-.24-1.26-1.38-1.81-2.37-2.3h7Zm1.2,4.44c-.51,1.66-1.44,3.46-2.25,4.81l-.6-.03v-4.78h2.85Zm3.06,0l-.03,4.81-4.69-.06c1.14-.74,2.19-1.56,3.12-2.76.27-.28,1.11,0,.9-.67l-1.74-1.32h2.43Zm34.85,14.25c-.99-1.01-1.83-1.81-2.79-2.67-.12-.18-.48-.15-.6-.03l-1.68,2.45h-7.42v-6.16h9.34c.45,0,.51-.28.33-.52-.84-.95-1.71-1.75-2.76-2.54-.15-.09-.39-.15-.57,0l-1.62,2.12h-4.72v-2.76c0-.28.81-.7,1.14-1.1.18-.12.15-.34,0-.46-1.2-.52-2.49-.77-3.7-1.17l4.93-.55,3.67-.31c.54.71,1.08,1.5,1.56,2.24.24.28.45.8.9.58.69-.55.93-1.44,1.08-2.24.15-.86-.15-1.62-.78-2.21-1.68-1.5-4.63-2.88-7.24-3.59l-.3.52c1.44.95,2.82,2.33,3.91,3.59-.27.06-.57.09-.84.09l-5.65.28-6.01.09c1.05-.58,1.95-1.23,2.88-1.96,1.56-.95,3.21-2.58,4.84-2.79l.21-.15c.09-.18.09-.37-.06-.52-.81-.52-1.59-1.07-2.46-1.59h13.67l.18-.15c.06-.12.03-.31-.03-.4-.99-.92-1.83-1.56-3-2.39-.18-.12-.42-.12-.51,0l-1.62,1.99h-19.86l.81,1.23c.81-.18,1.35-.28,1.74-.28h7.75c-1.38,1.9-3.21,3.92-4.93,5.52-.9.67-1.47,1.44-2.61,1.56-.45.21-1.5.09-1.44.58.27.77.6,1.53,1.11,2.21l.27.06c.81-.15,1.62-.43,2.43-.55l4.75-.74.48-.03c.12,1.84.18,2.85.18,5.4h-9.01l.78,1.23c.9-.18,1.38-.25,2.07-.25l6.16-.03-.03,6.16h-12.14l.93,1.2,1.83-.21h24.34c.48,0,.33-.49.12-.74Zm30.89-20.81c.03-.15.06-.31-.06-.43-.75-.74-1.62-1.44-2.55-2.18-.21-.18-.57-.15-.69,0l-1.2,1.87h-8.26c.3-.49.69-.92.84-1.47.09-.4,0-.86-.27-1.17-.93-1.01-2.76-1.26-4.33-1.5l-.24.55c.75.4,1.11,1.16,1.56,1.87.27.58.63,1.07.75,1.72h-12.95l.81,1.07c.9-.15,1.44-.18,2.01-.18h24.34l.24-.15Zm-1.98,10.42c.15-.12.03-.34-.03-.46-.78-.61-1.68-1.2-2.55-1.69-.15-.09-.36-.06-.45.06l-.96,1.29h-15.56c-1.02-.61-1.95-1.07-2.85-1.5l-.12.03c.15,1.23.24,2.51.24,3.71v6.9c0,1.56-.03,3.1-.12,4.51l.03.18c.21.37.93-.06,1.89-.46.3-.12.69-.31.69-.67l-.03-2.91v-8.89h16.16v9.17c0,.34-.03.58-.33.61-1.5.12-3.03-.15-4.54-.37l-.06.58c1.56.4,3.42,1.32,3.82,3.16l.9-.25c1.02-.46,2.73-1.1,2.73-2.54v-9.5c.21-.52.81-.58,1.14-.95Zm-4.24-7.2c.24-.21.09-.49-.06-.61l-2.16-1.53c-.18-.15-.42-.12-.57.03l-.9,1.38h-7.84c-1.17-.64-2.01-1.07-3.09-1.5.09.95.15,1.96.15,3.03v1.93c0,1.01-.06,1.99-.12,2.91.03.21.21.4.42.34l1.71-.46c.24-.06.45-.34.45-.49v-.95h8.53v1.2c0,.18.24.31.42.31.45-.03,1.14-.25,1.92-.64.24-.12.3-.28.27-.37,0-.83-.09-1.23-.09-2.42v-1.1c.09-.55.57-.67.96-1.04Zm-1.89,10.33c.21-.18.24-.43,0-.58-.6-.49-1.47-1.01-1.83-1.26-.24-.12-.45-.25-.69,0l-.96,1.26h-4.48c-.87-.49-1.77-.98-2.7-1.35.06.89.12,1.84.12,2.82v2.73c0,1.07-.06,2.12-.12,3.1.09.18.24.31.51.18l1.41-.58c.21-.06.45-.25.45-.46v-1.32h5.08v.95c0,.28.27.31.54.21l1.53-.55c.18-.06.3-.18.3-.43-.06-.89-.09-1.26-.09-1.9v-1.81c.12-.58.6-.67.93-1.01Zm-1.56-7.14h-8.53v-3.03h8.53v3.03Zm-1.65,10.73h-5.08v-3.28h5.08v3.28Zm42.25-10.48c-2.46-.34-4.84-.89-6.97-2.02,1.11-1.2,1.95-2.42,2.85-3.74.21-.25.69-.43,1.59-.7.15-.12.21-.31.12-.46-.81-.67-1.17-1.01-2.13-1.84-.18-.18-.48-.12-.57,0l-1.08,1.23h-4.15l.9-1.66c.15-.28.51-.31,1.05-.74.15-.12.15-.37,0-.46-1.02-.46-2.1-.86-3.18-1.26-.87,3.95-2.4,7.2-4.66,10.36l.33.34c1.59-1.35,2.88-2.79,4.12-4.29.51,1.16,1.23,2.36,2.01,3.4-1.86,2.15-4.33,3.77-6.7,5.09h-.12v-7.23c0-.12,1.17-.95.63-1.17-.99-.43-1.83-.71-2.76-1.01l.06,2.18v11.4l-1.62.34v-16.92c0-.09.39-.37.75-.67.18-.15.09-.43-.12-.49-.96-.34-1.77-.58-2.7-.89l.06,4.11v15.39l-1.65.34v-12.72c0-.12.57-.52.87-.83.09-.06.09-.34-.06-.43-.96-.37-1.83-.55-2.91-.89.03,1.56.06,2.18.06,3.43v11.74c0,.15-1.41.12-1.05.77.48.86.63,1.1,1.26,2.08.12.18.57.34.78-.25,2.25-1.2,4.87-2.42,6.34-3.1v2.48c0,.18.24.31.45.25.57-.25,1.08-.55,1.44-.83.18-.12.27-.31.27-.49l-.09-5.73c2.88-1.07,5.65-2.48,8.11-4.6,1.32,1.17,2.85,2.02,4.48,2.57.3.09.63.28.96.31.33-.58.75-1.26,1.41-1.5.51-.21.93-.28,1.59-.4l.03-.49Zm-.84,10.7l-1.92-1.81c-.12-.12-.39-.06-.48.03l-1.08,1.29h-3.27v-2.18h5.44c.21-.03.27-.28.21-.46-.69-.67-.99-.95-1.77-1.69-.21-.15-.51-.12-.6,0l-1.05,1.23-2.25.03v-2.08h5.59c.21,0,.24-.28.12-.4-.66-.64-1.26-1.2-2.1-1.93-.12-.09-.27-.09-.39,0l-1.05,1.41c-.75.03-1.44.03-2.16,0v-1.13c0-.46.87-.49.63-.98-.99-.34-2.01-.55-3.03-.77.06.95.09,1.93.03,2.88l-5.59.03.75,1.1c.81-.18,1.14-.21,1.59-.21h3.31l-.03,2.05h-5.17l.66,1.16c.54-.15,1.2-.25,1.53-.25h3v2.18h-6.22l.69,1.17c.63-.15,1.11-.25,1.59-.25l3.94-.03-.06,5.24c0,.18.3.31.51.25.69-.25,1.35-.46,1.59-.61.24-.09.39-.31.39-.52-.06-1.47-.09-2.88-.06-4.35l6.58.03c.18,0,.36-.31.15-.43Zm-5.68-17.32c-.54,1.23-1.29,2.48-2.19,3.49-.93-.77-1.89-1.87-2.55-2.88l.39-.61h4.36Zm20.34,16.98c.18-.09.06-.34-.09-.43l-2.73-1.44-.12.03c-2.22,2.76-4.78,4.94-7.87,7.02l.36.37c3.27-1.29,6.43-2.97,9.34-5.18.36-.12.81-.09,1.11-.37Zm16.4-9.29c-.99-1.07-1.47-1.5-2.61-2.42-.12-.09-.39-.09-.51,0l-1.53,1.93h-7.9c.21-.4.51-.64.45-1.16-.06-.74-.87-1.26-1.47-1.56h5.95v1.01c0,.21.21.34.48.25.75-.25,1.14-.46,1.83-.95.18-.12.24-.31.24-.64l-.12-4.9c.39-.4.57-.52.93-.83.12-.06.12-.37-.03-.46-.99-.8-1.32-.98-2.16-1.56-.15-.09-.48-.09-.54,0l-.9,1.29h-11.33c-.93-.52-1.89-.95-2.88-1.32l.09,2.79v3.43c0,1.5,0,1.99-.09,3.65.03.15.15.37.39.34l1.23-.52c.6-.25.96-.4.96-.74v-.83h3.85c.66.83.87,1.78,1.17,2.73h-12.53l.69,1.17c.9-.09,1.74-.31,2.67-.31h23.49c.21,0,.27-.21.18-.37Zm-4.93,2.88c.12-.09.09-.4-.06-.49l-2.31-1.5c-.18-.12-.39-.12-.57.09l-.69.89h-10.34c-.9-.4-1.65-.74-2.73-1.16.12,2.39.21,4.57.03,6.99.06.15.12.31.3.31.42,0,.96-.31,1.47-.55.36-.21.81-.4.81-.77v-.37h4.24v5.55c0,.18-.12.37-.3.43-1.29.06-2.55-.15-3.82-.34l-.06.49c.84.4,1.77.58,2.52,1.29.6.52.66,1.35.72,2.08.99-.21,1.92-.64,2.73-1.32.6-.46.69-1.07.69-2.39v-5.79h3.94v1.62c.03.18.18.31.39.28.78-.25,1.23-.31,1.92-.77.12-.09.21-.31.21-.46v-3.37c0-.28.57-.43.9-.74Zm-2.7-9.93h-11.9v-2.12h11.9v2.12Zm0,2.97h-11.9v-2.12h11.9v2.12Zm-.69,9.53h-10.76v-2.73h10.76v2.73Zm6.07,8.55c.18-1.29-.09-2.79-1.29-3.49-2.28-1.32-4.66-1.78-7.24-2.05l-.09.55c2.76.98,5.17,3.07,7.24,5.49.21.28.54.34.9.28.33-.12.48-.43.48-.77Zm48.44-14.35c-8.02-2.76-9.82-5.4-12.56-8.55.51-.55,1.35-1.26.72-1.75l-2.25-1.81-1.89,1.66h-6.28l1.2,1.23c.51-.28,1.77-.31,1.98-.31h3.55c-2.4,3.62-5.29,7.39-9.46,10.36-1.05.74-2.16,1.41-3.15,2.12l.36.4c5.5-1.81,10.97-6.13,14.15-11.43.54.74,1.02,1.66,1.47,2.42,1.86,3.19,4.93,5.73,7.93,7.54l.24.06c.99-1.04,1.98-1.35,3.7-1.41l.3-.52Zm-1.95,14.44c-1.02-.92-1.8-1.59-2.88-2.42-.12-.09-.39-.09-.51.06l-1.56,1.93h-6.04v-5.98l7.9.03c.36,0,.42-.46.03-.77l-2.55-2.15c-.18-.18-.51-.15-.6-.03l-1.32,2.02h-3.46v-5.4h6.25c.39,0,.3-.49,0-.71-.9-.8-1.14-1.07-2.1-1.81-.12-.09-.42-.12-.51,0l-1.26,1.59h-11.21l.6,1.13c.75-.12,1.32-.21,1.8-.21h3.79v5.4h-8.02l.63,1.13c.45-.12,1.17-.25,1.8-.25h5.59v5.98h-10.79l.6,1.23c.93-.21,1.71-.34,2.31-.34l21.33.03c.24,0,.3-.37.18-.49Zm24.13-7.23c0-.21.45-.49.72-.71.12-.12.12-.34-.03-.43l-2.7-1.01-.12.09.09,1.59-.03,3.25h-2.46v-6.07h6.25c.3,0,.36-.28.21-.49-.81-.86-1.05-1.07-1.77-1.69-.24-.21-.51-.18-.66-.03l-1.23,1.32-2.49.03c.9-.86,1.65-1.81,2.46-2.64.33-.25,1.05,0,1.05-.55-.66-.55-1.41-1.1-2.4-1.59h6.19v14.47c0,.28-.27.49-.51.49-1.32-.03-2.55-.31-3.79-.55l-.15.49c.93.37,1.44.58,2.07.92.87.46,1.17,1.53,1.35,2.39.99-.25,1.95-.58,2.73-1.23.87-.71.75-1.59.75-2.51v-13.64c0-.09.48-.61.75-.89.09-.12.12-.34-.03-.43-.81-.55-1.08-.74-1.98-1.32-.15-.15-.51-.06-.63.03l-.78.89h-16.49c-1.08-.43-2.13-.98-3.21-1.44l.09,3.37v11.46l-.15,5.18c-.03.18.18.18.27.28.66-.21,1.62-.61,2.13-.89.18-.12.33-.25.33-.52-.06-1.72-.18-3.34-.15-5l.06-4.9v-6.65h10.76c-.36,1.69-1.17,3.25-1.92,4.75h-7.84l.84,1.13c.63-.12,1.11-.25,1.77-.25h3.85v6.07h-2.37v-2.76c0-.46.39-.55.63-.86.21-.25.15-.43-.03-.52-.87-.28-2.07-.61-2.73-.8.06.52.09.98.09,1.66v2.15c.09.49-.42.89-.78,1.23-.06.18-.09.43.12.52l1.86,1.29c.12.12.36.06.45-.06l.69-.95h6.76v1.1c0,.12,0,.25.18.34.24.09.66,0,1.62-.46.27-.15.33-.28.36-.52,0-.52-.03-1.07-.03-1.59v-2.54Zm4.6-15.79c0-.21.24-.37.66-.74.09-.15,0-.37-.15-.43-.96-.28-1.77-.55-2.85-.83.03,1.1.06,2.48.06,4.63h-6.73v-3.86c0-.31.3-.49.78-.92.12-.12.12-.37-.03-.43-1.11-.34-2.19-.71-3.31-.98.09,2.08.09,4.2.09,6.19h-5.98v-2.51c0-.28.54-.58.87-.89.18-.15.12-.43-.03-.49-1.05-.37-2.1-.71-3.21-.95.09,1.29.09,2.82.09,4.05.03.21-.21.46-.42.67-.18.25-.3.46-.09.67.63.49,1.26.83,2.01,1.26.42.15.63-.92,1.08-.92h14.81v1.26c0,.37.48.28,1.14.09.9-.28,1.23-.34,1.23-.8-.03-.61-.03-.98-.03-1.56v-2.51Zm-15.44,7.51c.87.49,1.41,1.44,1.86,2.24.27.49.39,1.04.81,1.44.18.15.39.09.54,0,.66-.46.99-1.38.84-2.08-.63-1.29-2.46-1.62-3.85-2.02l-.21.43Zm49.1-6.81c-.96-.98-1.68-1.78-2.82-2.76-.09-.15-.48-.12-.57,0l-1.83,2.45h-21.81l.81,1.17c.96-.15,1.86-.31,2.37-.31h8.29c-.69,1.87-1.62,3.53-2.55,5.3-2.22,4.26-5.62,8-9.16,11.34.18.12.33.28.51.37,2.31-1.29,4.45-3.1,6.46-4.9v6.13c0,1.41-.06,3.07-.06,4.81-.03.21.15.4.45.34.63-.12,1.11-.37,1.68-.67.39-.15.54-.37.54-.61v-2.39h10.31v3.25c.06.15.21.37.45.28.72-.15,1.32-.28,1.95-.71.24-.15.36-.34.33-.55l-.06-6.31v-4.97c.36-.4.69-.64,1.08-.95.21-.18.24-.43.09-.58-1.08-.89-1.29-1.2-2.16-1.9-.18-.15-.48-.12-.63.06l-1.17,1.32-9.61-.06c2.13-2.7,3.52-5.55,4.9-8.58l12.05.03.12-.03c.12-.09.21-.4.06-.55Zm-7.36,19.4h-10.31v-9.35h10.31v9.35Zm26.74-.21c.84.34,1.74.98,2.52,1.47-1.26.09-1.95.12-3.79.12h-5.17c1.68-.61,2.91-1.29,4.6-2.21h12.71l.24-.09c.06-.12.09-.25.03-.37-.75-.8-1.56-1.38-2.4-2.02-.18-.15-.45-.12-.54,0l-1.32,1.59h-22.44l.6,1.17c.75-.15,1.53-.28,2.13-.28h6.67l.45.06c-.87.61-1.38,1.04-2.25,1.62-.6.4-1.77.49-2.73.43-.15-.03-.36.15-.27.34.27.64.66,1.44.96,1.99.21.4.75.46,1.05-.12l3.27-.4,9.43-.89c.78.71,1.65,1.62,2.28,2.42l.45.12c.33-.03.57-.34.69-.61.3-.83.06-1.81-.57-2.42-1.86-1.44-4.21-1.87-6.43-2.36l-.18.43Zm-3.73-4.11c2.22-1.07,4.54-2.18,6.28-4.32.45.64.75,1.23,1.11,1.9.18.25.54.25.81.18.54-.43.69-1.04.66-1.81-.15-.95-.96-1.59-1.68-2.18.33-1.01.57-2.45.69-3.68h1.83c.03,3.31-.27,7.45,2.82,9.47.72.49,1.47,1.01,2.4,1.01.69-.4.09-1.17.09-1.69-.33-1.78-.12-3.59.18-5.3l-.57-.21c-.24.8-.51,1.59-.75,2.36-.18.31-.18.74-.51.92-.15.03-.33.03-.42-.06-1.11-1.62-1.17-3.62-1.08-5.64.03-.55.69-.61.99-.98.15-.09.09-.31-.06-.46l-1.8-1.38c-.12-.12-.45-.09-.51-.03l-.84,1.1h-1.68l.06-1.01c.06-.4.48-.55.75-.74.06-.15.06-.34-.09-.43l-2.19-.83.09-1.47h8.02c.21-.03.24-.31.18-.46-.72-.74-1.32-1.2-2.1-1.87-.15-.09-.36-.09-.48.03l-1.08,1.41h-4.63v-1.04c0-.18.45-.58.66-.77.06-.21,0-.43-.18-.49-.96-.34-1.95-.64-2.91-.89.09,1.16.12,1.56.12,3.22h-4.15v-1.1c0-.21.63-.52.72-.86.03-.12-.03-.31-.21-.4-1.02-.37-1.92-.71-2.82-.92l-.27-.09c.12,1.2.12,2.08.12,3.34l-9.34.03.69,1.2c.84-.18,1.71-.34,2.4-.34h6.31v1.59c-.84-.28-1.68-.58-2.52-.71.06.89.09,1.62.06,2.54h-5.23l.6,1.07c.54-.06,1.02-.18,1.68-.18h2.97l.03,1.47h-6.7l.57,1.17c.69-.15,1.29-.28,1.68-.28h2.19c-1.14,1.9-3,3.46-4.66,4.9l.3.34c1.98-.83,3.82-2.05,5.59-3.34.27-.18.63-.18.93-.25.06,1.01.03,1.56.03,2.36h-3.82l.63,1.1c.69-.12.99-.21,1.44-.21h1.8v1.47c-1.95.18-4,.34-5.98.43.21.64.45,1.53.69,2.18.18.43.63.43.78-.06,1.95-.52,3.64-.8,5.62-1.29l5.11-1.26.54-.15-.09-.55c-1.59.12-2.43.28-4.66.52v-1.29h4.3c.27,0,.36-.28.18-.49-.39-.43-.81-.83-1.2-1.26h1.92c.45,0,.96,0,.87-.49-.03-.18-.09-.37-.21-.58-.42-.71-.72-1.17-.99-.95-.48.4-1.2.67-1.8.4-.15-.15-.18-.25-.21-.43v-1.1h2.76c.21,0,.3-.28.15-.43-.63-.58-.96-.89-1.59-1.44-.18-.12-.39-.15-.57.03l-.93.95h-2.64v-1.47h4.84c.3,0,.3-.18.21-.4-.69-.74-1.11-1.1-1.53-1.47-.18-.15-.36-.12-.51,0l-.9.98h-2.1l.03-.83c.03-.12.09-.21.21-.28.15-.03.3.15.57.12l1.53-.67c.27-.18.42-.31.42-.71v-1.07h4.12l-.06,2.15c.09.09.15.21.27.25.45-.09.84-.28,1.32-.46.12.83.06,1.75.06,2.54h-3.48l.72,1.1c.57-.09.96-.25,1.38-.25h1.35c-.03.92-.09,1.75-.3,2.57-.63-.28-1.23-.67-1.86-.89l-.27.4c.63.55,1.2,1.13,1.77,1.84-.63,1.99-3.21,4.29-5.38,5.52l.33.49Zm-5.98,1.35c.9-.18,1.65-.28,2.04-.28h14.51l.15-.15c.09-.25-.12-.4-.24-.55-.75-.67-1.08-.98-2.04-1.72-.18-.15-.51-.12-.63.03l-1.32,1.5h-13.13l.66,1.17Zm4.12-9.93c0,1.93-.15,2.7.9,2.97l.36.09c-.18.34-.57.61-.75.95h-1.44v-1.23c0-.15.18-.34.33-.52.12-.21.24-.4.03-.52-.72-.28-1.29-.49-2.46-.8l-.03.15c-.57-.37-1.17-.71-1.68-1.13l4.75.03Zm32.54-3.19l-.03,11.53-.03,6.25c0,.8-.06,1.72-.09,2.51.06.12.18.21.3.21.6-.12,1.14-.34,1.65-.61.18-.12.51-.28.48-.55.03-1.66-.12-3.25-.12-4.87v-14.47h7c.3,0,.33-.31.24-.46-.54-.61-1.2-1.13-1.92-1.75-.27-.25-.42-.18-.6-.03l-1.08,1.32h-3.67v-4.32c0-.21.27-.46.48-.71.21-.25.36-.52.12-.71-.99-.4-1.83-.64-2.88-.92v.15c0,2.08.15,1.69.15,3.77v2.73h-4.27l.24.8c-.69-.49-1.32-.86-2.04-1.17-1.11,4.44-3.64,8.4-6.28,12.11.12.12.21.31.39.34,1.32-1.26,2.52-2.58,3.67-4.05.03,0,.09-.03.12.03l-.03,6.25-.03,5.09c0,.58-.06,1.35-.09,2.05l.18.18c.33.18.99-.21,2.04-.71.15-.06.33-.28.33-.46l-.06-3.98v-9.32c0-.52.63-.49.72-.95-.3-.43-.93-.43-1.35-.71.69-1.07,1.44-2.24,2.04-3.37.24-.49,1.11-.31,1.02-.95.54-.09,1.14-.28,1.59-.28h1.8Zm-5.65-7.6c-1.56,3.16-4.09,5.89-6.58,8.34l.33.37,1.77-1.1c2.13-1.32,4.15-3.31,5.98-5,.36-.28,1.32.03,1.17-.61-.99-.83-1.68-1.29-2.55-1.96l-.12-.03Zm.63,23.67c.6-.71,1.14-1.56,1.59-2.36,1.5-2.64,1.98-5.73,2.07-8.86-.06-.46.36-.58.6-.89.12-.18.03-.4-.09-.46-.9-.31-1.74-.64-2.82-.86.09,1.56.18,3.16.18,4.6-.03,3.1-.66,5.98-2.01,8.55l.48.28Zm7.6-21.21c.57.67.96,1.32,1.26,2.08.36.58.3,1.41.75,1.93.27.09.57.06.78-.15.45-.55.66-1.32.54-1.99-.63-1.26-1.98-1.66-3.09-2.18l-.24.31Zm2.64,22.87c.84.21,1.65.49,2.4.98.69.49.93,1.32,1.08,2.08,1.23-.4,2.85-.89,3.25-2.42l.03-11.25v-3.43h3.31c.18,0,.3-.28.21-.43-.96-.95-1.59-1.47-2.4-2.18-.15-.09-.36-.09-.45.06l-1.05,1.59-5.74.03.6,1.07c-.9-.28-1.77-.67-2.73-.86.06,1.32.09,2.58.09,3.95l.03,5.27c0,.46.33.86.66,1.13,1.23.77,3.15.58,4.45.06.21-.12.36-.34.3-.61-.36-.58-.78-1.16-1.2-1.66l-.24-.06c-.45.31-.93.74-1.53.67-.18-.09-.36-.28-.42-.46l-.03-6.25c-.09-.64.84-.49.75-1.1.51-.15,1.11-.28,1.68-.28h1.41v13.18c-.06.21-.18.46-.39.52-1.38.18-2.67-.15-4-.31l-.06.67Zm5.8-22.41h-5.02l.87,1.23,1.35-.31h6.46l.24-.12c.03-.18.06-.34-.09-.46-.72-.77-1.47-1.38-2.25-2.08-.18-.09-.42-.03-.51.09l-1.05,1.66Zm34.76,8.52c-.69-.64-1.32-1.29-2.19-2.02-.06-.09-.42-.12-.51.03l-1.23,1.53h-3.67v-2.67l6.25-.03c.18-.09.18-.31.09-.4-.66-.58-1.44-1.38-2.34-1.99-.15-.15-.42-.09-.48,0l-1.26,1.53h-2.25v-2.7l7.27-.03c.18-.03.24-.28.21-.43-.66-.74-1.62-1.53-2.49-2.3-.21-.15-.45-.09-.51,0l-1.08,1.87h-3.43v-1.59c-.06-.67,1.29-.86.6-1.41-1.05-.31-2.01-.55-3.09-.8l.03,2.85v.95h-5.14l.81,1.13c.63-.09,1.14-.25,1.89-.25h2.49l-.09,2.7h-4.93l.81,1.13c.6-.15,1.26-.25,1.71-.25h2.46v2.7h-5.44l-.3-.06c-.51-.49-1.08-1.17-1.68-1.69-.12-.09-.42-.09-.51.06-.33.49-.66,1.04-.99,1.59l-.84-.03v-8.55c0-.31.66-.61.93-.83.21-.12.12-.43,0-.49-1.05-.4-2.22-.61-3.31-.86l.09,3.62v6.93l-.03.18h-5.02l.75,1.13c.66-.09,1.38-.28,2.13-.28h1.17c-.66,3.99-2.4,7.51-4.57,10.91.18.06.3.31.51.31.72-.74,1.38-1.53,1.98-2.33,1.38-1.84,2.43-3.59,3.03-5.46v7.82c0,1.53-.09,2.85-.12,4.72,0,.18.03.37.21.43.51.09,1.26-.4,1.98-.83.18-.15.33-.31.3-.55l-.09-4.2v-7.66c1.11,1.07,1.62,2.85,1.92,4.11l.24.28c.15.09.45.12.6-.03.66-.61,1.08-1.44,1.11-2.36-.12-1.59-2.43-2.33-3.85-2.94v-2.21h4c.15-.03.24-.18.27-.34.24.12.3.49.51.71.72-.18,1.47-.25,1.8-.25h13.13c.18,0,.24-.28.12-.43Zm-22.8-4.23c-.45-1.66-1.98-2.76-3.37-3.74l-.45.21c.96,1.72,1.35,3.62,1.56,5.58.06.28.27.43.45.55.24.12.48,0,.69-.12.72-.58,1.23-1.5,1.11-2.48Zm8.08-2.15c.09-.15,0-.37-.15-.49-.87-.49-1.56-.83-2.67-1.32-.39,2.02-.96,4.23-1.89,6.16l.36.18c1.29-1.1,2.49-2.61,3.48-4.02.15-.4.63-.28.87-.52Zm12.68,9.2c-.75-.61-1.05-.86-1.8-1.41-.18-.12-.42-.18-.57-.03l-1.05,1.1h-6.91c-.84-.46-1.71-.92-2.61-1.23l.09,1.84.03,6.99-.12,6.44.18.25c.42.06,1.11-.34,1.53-.55.6-.31.81-.43.81-.77l-.03-4.87v-.64h7.21v2.79c0,.43.03.89-.45,1.04-1.41,0-2.79-.25-4.15-.4l-.09.49c1.44.55,3.54,1.1,3.6,3.16,1.38-.37,3.58-1.01,3.58-2.64l-.03-10.36c.12-.58,1.11-.67.78-1.2Zm-3.24,2.67h-7.21v-2.15h7.21v2.15Zm0,3.59h-7.21v-2.7h7.21v2.7Zm21.48,3.62h1.98v1.35c.03.25.21.4.48.34.36-.15.63-.25,1.05-.46.12-.09.3-.18.3-.4l-.03-2.12v-2.73c0-.15.51-.49.81-.64l.75.95c.42-.09.75-.25,1.2-.25h2.4v5.15c-.12.25-.33.4-.6.37-1.14-.09-2.19-.37-3.3-.46l-.15.49c1.14.55,3.09.74,3.12,2.51.66-.09,1.23-.37,1.83-.71.63-.34,1.14-1.13,1.14-1.84v-5.52h3.67c.18,0,.24-.21.12-.37-.69-.74-1.02-1.04-1.71-1.62-.15-.15-.39-.09-.45,0l-.78,1.13h-.84v-.67c0-.12.99-.71.54-.89l-2.25-.86h5.2c.21-.03.27-.28.12-.43l-1.95-1.53c-.09-.09-.36-.09-.48.03l-.81,1.07h-13.76l.81,1.13c.42-.15,1.08-.28,1.44-.28h9.07v2.42h-4.18l-.03-.25-1.8-1.29c-.24-.12-.45-.09-.54,0l-.84,1.04h-1.38c-.66-.34-1.32-.67-1.95-1.04.12-.09-.03-.18-.06-.28-.72-.58-1.44-1.13-2.19-1.62-.39,1.44-.96,2.82-1.86,3.98v-5.61h4.06c.15-.03.27-.28.09-.46-.6-.7-.96-1.01-1.71-1.72-.09-.18-.48-.15-.63,0l-.99,1.29h-.84v-3.62l3.64.03c.18-.03.36-.28.21-.46l-1.8-1.69c-.06-.15-.42-.15-.54-.03l-1.14,1.32h-4.03c1.14-1.81,2.19-3.77,3.21-5.67,1.29.8,2.4,2.08,3.12,3.4.18.15.33.28.57.21.27-.09.45-.31.6-.52.27-.49.45-1.13.15-1.78-.96-1.29-2.25-1.5-3.76-1.75l-.54-.09.21-.55c0-.15.63-.49.96-.67.15-.09.12-.4-.03-.46-.87-.49-1.77-.98-2.7-1.35-.42,2.05-1.17,4.26-1.95,6.13-1.05,2.45-1.98,4.69-3.25,6.99l.51.25c.93-1.2,1.77-2.36,2.58-3.59l.36.49c.3-.09.75-.18.96-.18h.6v3.62h-4.03l.72,1.07c.54-.15.78-.25,1.35-.25l1.98.03v9.1c-1.59.37-2.85.71-4.81,1.04l1.08,2.18c.09.15.51.37.72-.15,2.91-1.41,4.96-2.33,8.53-3.74l-.15-.52c-1.11.28-2.07.49-3.33.71v-1.62c1.17-.98,2.31-2.15,3.4-3.25l.57-.06c.18,2.79.24,5.64.06,8.43,0,.15.12.28.24.31.42-.09.84-.21,1.32-.43.24-.12.33-.21.33-.49v-1.62Zm-11.54-7.88l-.42.31c1.05,1.32,1.47,2.94,1.65,4.66l.21.25c.12.09.54.09.69,0,.42-.34.72-.67.93-1.23.21-1.07-.57-1.75-1.26-2.51l-1.8-1.47Zm22.08-11.22c-.15-.12-.48-.09-.54.03l-.96,1.26h-2.91v-1.87h7.87c.18-.03.24-.25.15-.43l-1.86-1.66c-.12-.15-.51-.12-.63,0l-.99,1.23-4.54-.06v-1.5c0-.15.51-.58.81-.83.15-.15.06-.37-.09-.43-.99-.37-1.98-.8-3.03-1.04.09.55.15,1.5.15,2.08l-.03,1.78h-6.1l.75,1.1c.6-.18,1.35-.25,1.74-.25h3.61v1.87h-5.02l.78,1.1c.45-.15,1.08-.25,1.53-.25h10.97c.21,0,.27-.28.18-.4l-1.83-1.75Zm.42,3.56h-13.01l.78,1.16c.54-.12.99-.28,1.41-.28h10.97c-.21.86-.6,1.69-.87,2.58l.54.25c.33-.43.66-.86,1.02-1.26.33-.4.6-.64,1.29-1.13.27-.15,1.56-.31,1.23-.67-.87-.77-1.08-.92-1.83-1.59-.18-.18-.51-.09-.6,0l-.93.95Zm-5.2,5.12v-2.15h4.12c.18,0,.27-.25.12-.4l-1.59-1.41c-.12-.15-.45-.12-.57,0l-.81.95h-7.99l.87,1.1,1.38-.25,2.43.03v2.12h-5.14l.87,1.07c.48-.15.87-.21,1.23-.21h11.3c.18,0,.3-.28.21-.4-.63-.58-1.17-.98-1.8-1.59-.15-.12-.42-.12-.54.03l-1.02,1.07-3.06.03Zm-3.82,9.56h-1.98v-3.59h1.98v3.59Zm2.97-2.51l-.21.37c.81.89,1.29,1.96,1.41,3.19.06.21.33.4.57.37.72-.18.99-.83,1.08-1.44-.06-1.41-1.11-1.69-2.52-2.36l-.33-.12Z"/>
  </g>
</svg>