<svg xmlns="http://www.w3.org/2000/svg" width="121.743" height="57.391" viewBox="0 0 121.743 57.391">
  <g id="Group_333" data-name="Group 333" transform="translate(-719.5 -1076)">
    <g id="Group_332" data-name="Group 332" transform="translate(-26 20.696)">
      <g id="icons" transform="translate(745.51 1055.404)">
        <g id="chart" transform="translate(-0.01 -0.1)">
          <path id="Path_166" data-name="Path 166" d="M44.527,27.819H29.769A6.3,6.3,0,0,1,23.58,21.63V7.11a2.675,2.675,0,0,0-3.095-3.095A23.873,23.873,0,0,0,.49,32.58,23.661,23.661,0,0,0,19.057,51.147a23.986,23.986,0,0,0,28.565-20A2.943,2.943,0,0,0,44.527,27.819Z" transform="translate(0.01 5.745)" fill="#0fd9fe"/>
          <path id="Path_167" data-name="Path 167" d="M40.565,25.371A28.53,28.53,0,0,0,32.234,8.231,29.228,29.228,0,0,0,15.095-.1,3.151,3.151,0,0,0,12,2.995V26.323a2.385,2.385,0,0,0,2.38,2.38H37.709A2.893,2.893,0,0,0,40.565,25.371Z" transform="translate(16.588 0.1)" fill="#0fd9fe"/>
        </g>
      </g>
      <g id="Group_331" data-name="Group 331" transform="translate(80 -26)">
        <rect id="Rectangle_58" data-name="Rectangle 58" width="41" height="18" rx="2" transform="translate(702 1086)" fill="#fff"/>
        <text id="Salary" transform="translate(706.5 1099)" fill="#0fd9fe" font-size="10" font-family="SourceHanSansCN-Bold, Source Han Sans CN" font-weight="700" letter-spacing="0.01em"><tspan x="0" y="0">Salary</tspan></text>
      </g>
    </g>
    <g id="_8666800_trending_up_arrow_icon" data-name="8666800_trending_up_arrow_icon" transform="translate(787.33 1085.226)">
      <path id="Path_170" data-name="Path 170" d="M49.67,6,28.653,27.017,17.592,15.955,1,32.547" transform="translate(0)" fill="none" stroke="#0fd9fe" stroke-linecap="round" stroke-linejoin="round" stroke-width="6"/>
      <path id="Path_171" data-name="Path 171" d="M17,6H30.274V19.274" transform="translate(19.396)" fill="none" stroke="#0fd9fe" stroke-linecap="round" stroke-linejoin="round" stroke-width="6"/>
    </g>
  </g>
</svg>
