<?xml version="1.0" encoding="UTF-8"?>
<svg id="b" data-name="圖層 2" xmlns="http://www.w3.org/2000/svg" viewBox="0 0 248.93 312.18">
  <defs>
    <style>
      .d {
        fill: #fff;
        stroke-width: 0px;
      }
    </style>
  </defs>
  <g id="c" data-name="圖層 1">
    <path class="d" d="m57.01,209.93H.39c-.22,0-.39.18-.39.39v4.63c0,.22.18.39.39.39h16.93v11.91H.39c-.22,0-.39.18-.39.39v21.96c0,.22.18.39.39.39h16.93v11.91H.39c-.22,0-.39.18-.39.39v4.63c0,.22.18.39.39.39h56.62c.22,0,.39-.18.39-.39v-4.63c0-.22-.18-.39-.39-.39h-16.93v-11.91h16.93c.22,0,.39-.18.39-.39v-21.96c0-.22-.18-.39-.39-.39h-16.93v-11.91h16.93c.22,0,.39-.18.39-.39v-4.63c0-.22-.18-.39-.39-.39Zm-5.03,22.75v11.91h-16.94c-.22,0-.39.18-.39.39v16.93h-11.91v-16.93c0-.22-.18-.39-.39-.39H5.42v-11.91h16.94c.22,0,.39-.18.39-.39v-16.93h11.91v16.93c0,.22.18.39.39.39h16.94Zm39.18-22.36c0-.22-.18-.39-.39-.39h-22.73c-.22,0-.39.18-.39.39v56.62c0,.22.18.39.39.39h22.73c.22,0,.39-.18.39-.39v-2.19s0-.03,0-.04v-51.84s0-.03,0-.04v-2.51Zm-5.42,51.59h-12.68v-21.31h12.68v21.31Zm0-26.74h-12.68v-19.83h12.68v19.83Zm39.31-24.86v4.63c0,.22-.18.39-.39.39h-24.54v11.91h24.54c.22,0,.39.18.39.39v4.63c0,.22-.18.39-.39.39h-3.54v34.26c0,.22-.18.39-.39.39h-4.63c-.22,0-.39-.18-.39-.39v-34.26h-15.58v34.26c0,.22-.18.39-.39.39h-4.63c-.22,0-.39-.18-.39-.39v-56.62c0-.22.18-.39.39-.39h29.57c.22,0,.39.18.39.39Zm7.91,4.63v-4.63c0-.22.18-.39.39-.39h56.62c.22,0,.39.18.39.39v4.63c0,.22-.18.39-.39.39h-56.62c-.22,0-.39-.18-.39-.39Zm45.2,17.29c.22,0,.39.18.39.39v4.63c0,.22-.18.39-.39.39h-32.99c-.22,0-.39-.18-.39-.39v-4.63c0-.22.18-.39.39-.39h32.99Zm-45.2,34.69v-4.63c0-.22.18-.39.39-.39h56.62c.22,0,.39.18.39.39v4.63c0,.22-.18.39-.39.39h-56.62c-.22,0-.39-.18-.39-.39Zm115.97-30.65v4.68c0,.22-.18.39-.39.39h-25.62v25.58c0,.22-.18.39-.39.39h-4.63c-.22,0-.39-.18-.39-.39v-25.58h-25.62c-.22,0-.39-.18-.39-.39v-4.68c0-.22.18-.39.39-.39h25.62v-25.57c0-.22.18-.39.39-.39h4.63c.22,0,.39.18.39.39v25.57h25.62c.22,0,.39.18.39.39ZM7.36,296.87h-1.29c-.27,1.47-1.19,2.92-3.43,3.85-.29-.45-.94-1.16-1.41-1.55,1.64-.55,2.31-1.43,2.58-2.3H1.08v-1.9h2.87v-2.02l2.75.14c-.02.18-.17.31-.52.37v1.51h1.19v-1.98l2.68.14c-.02.18-.17.31-.52.37v1.47h1.77v-1.98l2.79.14c-.02.18-.17.31-.52.37v1.47h1.19v-2.04l2.75.16c-.02.18-.17.31-.52.35v1.53h2.81v1.9h-2.81v1c0,.53.04.59.27.59h.6c.25,0,.33-.22.37-1.43.42.31,1.29.61,1.87.75-.21,1.92-.73,2.49-2,2.49h-1.27c-1.73,0-2.08-.57-2.08-2.38v-1.02h-1.19v3.2h-6.2v-3.2Zm-6.01,8.44v-4.46h18.26v4.46h-2v3.22c0,2.12-1.08,2.32-4.41,2.32-.1-.63-.46-1.53-.77-2.1.54.02,1.14.04,1.62.04,1.02,0,1.1-.02,1.1-.31v-2.18h-3.64v5.69h-2.45v-5.69h-3.24v4.42h-2.43v-5.42H1.35Zm7.72-2.49H3.66v1.55h5.41v-1.55Zm2.23-5.95h-1.77v1.41h1.77v-1.41Zm5.89,7.5v-1.55h-5.1c-.04.18-.19.31-.56.37v1.18h5.66Zm39.1,2h-2.52v-.82h-2.81v.84h-2.54v-6.36h-2.85v8.26h13.1v2.37h-13.1v1.3h-2.58v-11.93h-2.99v-2.37h2.99v-4.32l3.14.16c-.02.2-.17.33-.56.39v3.77h2.85v-4.77l3.08.16c-.02.22-.17.33-.54.41v4.2h2.81v-4.57l3.08.16c-.02.22-.19.33-.56.41v4h3.12v2.37h-3.12v6.34Zm-5.32-3.1h2.81v-3.24h-2.81v3.24Zm45.58-1.02h-3.35c1.41,1.35,3.45,2.45,5.62,3.04-.56.49-1.29,1.43-1.66,2.06-1.44-.49-2.79-1.22-3.97-2.14v6.77h-2.48v-7.71l1.48.08c-.69-.65-1.31-1.35-1.83-2.1h-2.72c-.54.71-1.16,1.41-1.85,2.04l2,.1c-.02.2-.17.33-.54.39v.94c0,2.08-.56,4.81-4.72,6.46-.31-.57-1.1-1.45-1.62-1.88,3.93-1.41,3.93-3.51,3.93-5.22-1.25.96-2.66,1.75-4.12,2.3-.37-.57-1.08-1.49-1.62-1.96,2.1-.65,4.16-1.81,5.59-3.18h-3.16v-8.85h15.04v8.85Zm-12.6-6.87v1.51h3.72v-1.51h-3.72Zm0,3.34v1.55h3.72v-1.55h-3.72Zm10.07-1.83v-1.51h-3.91v1.51h3.91Zm0,3.38v-1.55h-3.91v1.55h3.91Zm24.43,11.74c.52-1.55,1-3.61,1.25-5.22l3.37-.24c-.62,1.81-1.52,3.91-2.39,5.26l-2.23.2Zm29.84-18.16h17.66v17.9h-2.64v-1.33h-12.48v1.33h-2.54v-17.9Zm2.54,14.17h12.48v-11.76h-12.48v11.76Zm2.18-9.4h8.03v7.01h-8.03v-7.01Zm5.7,5.01v-3.04h-3.49v3.04h3.49Zm37.83-9.95c-.08.18-.31.29-.65.29-.75,1.51-1.89,3.34-2.97,4.89,2.48-.04,5.18-.12,7.84-.2-.75-.71-1.54-1.39-2.29-1.98l1.93-1.49c2.12,1.59,4.72,3.91,5.87,5.63l-2.14,1.71c-.29-.51-.73-1.08-1.25-1.67-5.59.26-11.46.47-15.2.59-.06.2-.25.31-.44.33l-.87-2.77,3.6-.06c1.27-1.85,2.66-4.36,3.47-6.38l3.1,1.12Zm-7.07,18.27v-8.87h13.69v8.79h-2.62v-.61h-8.57v.69h-2.5Zm11.06-6.52h-8.57v3.44h8.57v-3.44Zm36.25-9.15h7.47v10.27h-2.62v-1.04h-4.85v6.42h-2.62v-6.42h-4.66v1.14h-2.52v-10.38h7.18v-3.57l3.2.18c-.02.2-.17.33-.58.39v3Zm-7.28,6.83h4.66v-4.42h-4.66v4.42Zm7.28,0h4.85v-4.42h-4.85v4.42Zm-114.24-149.77h-1V0h1v153.34Z"/>
  </g>
</svg>