<?xml version="1.0" encoding="UTF-8"?>
<svg id="b" data-name="圖層 2" xmlns="http://www.w3.org/2000/svg" viewBox="0 0 350.85 21.87">
  <defs>
    <style>
      .d {
        fill: #fff;
        stroke-width: 0px;
      }
    </style>
  </defs>
  <g id="c" data-name="圖層 1">
    <g>
      <path class="d" d="m0,15.27c1.34-1.84,2.5-3.54,3.48-5.43l-.07-2.07c.36.14.51.21.83.37.31-.76.54-1.59.8-2.37H1.92c-.45,0-.78.11-1.21.21l-.56-.9,4.75.02h.09l.87-.9c.07-.09.25-.11.4,0,.33.28,1.23.85,1.49,1.08.16.14.09.39-.07.46-.36.21-.71.39-.8.58-.56,1.03-1.09,2.34-1.7,3.36v1.56l.51.21c.67-1.1,1.29-2.18,1.72-3.38.62.3,1.16.69,1.78,1.15.09.11.09.18-.02.3-.2.09-.56.21-.71.25-.6.53-.74.71-1.47,1.29l-.76.6c.78.41,1.85.9,2.1,1.88.11.71-.18,1.43-.69,1.79-.11.07-.27.07-.36,0l-.16-.21c-.4-1.2-.94-2.35-1.85-3.29-.04,0-.07.02-.09.05l.02,6.09.04,2.35c.02.18-.11.32-.4.48-.18.12-.42.23-.74.34-.2.02-.38.14-.56.05l-.11-.16.04-3.38v-5.5c-1.07,1.2-2.07,2.25-3.17,3.38l-.33-.28ZM2.54.09c1.07.23,2.28.62,2.97,1.29.42.39.56.99.38,1.52-.13.41-.49,1.04-1,1.04-.2,0-.36-.14-.45-.34-.45-1.17-.91-2.39-2.03-3.17l.13-.32Zm14.57,12.37c.11-.12.29-.12.42,0,.33.25.69.51,1.16.9l.4.32c.07.11.04.25,0,.32-.54.3-1.14.48-1.54,1.08-.76.87-1.52,1.59-2.39,2.3,1.78.97,3.73,1.66,5.8,1.93l-.09.39c-.71.09-1.52.05-1.99.74l-.4.6c-1.72-.62-3.32-1.36-4.77-2.62-2.36,1.36-4.91,2.3-7.58,2.92l-.22-.32c2.36-.99,4.75-2,6.8-3.7-.69-.87-1.23-1.82-1.7-2.81-1.36,1.26-2.74,2.42-4.19,3.47l-.36-.25c1.87-1.86,3.52-3.86,4.66-6.14-.47.18-.85.37-1.32.44-.13.02-.31-.05-.29-.16.02-2.25.02-4.19.02-6.12l-2.03,2.05-.36-.25c1.56-2.3,2.94-4.74,3.66-7.4.6.3,1.52.8,2.23,1.29.07.07.04.18,0,.28-.4.25-.6.32-.71.44-.11.14-.69.76-.78.92l6.25.05.89-1.08c.11-.09.36-.14.49,0l1.38,1.33c.16.16.07.37-.07.44h-9.44c-.31.39-.58.8-.94,1.17l1.34.6h5.38l.83-.8c.07-.09.25-.12.4-.02.58.44.83.6,1.34,1.01.09.07.07.25,0,.37-.38.23-.74.51-.74.62l.02,2.18.04,2.44c.02.16-.07.23-.16.28-.29.16-1.14.41-1.47.44-.09-.02-.18-.07-.18-.18v-.69h-5.69l.22.09,1.74.97c.09.07.13.21.09.32-.33.28-.87.16-1.09.62h4.04l.87-.74Zm-.16-6.23h-5.67v1.7h5.67v-1.7Zm0,2.39h-5.67v1.89h5.67v-1.89Zm-5.38,5.24l-.11.12c.65.87,1.36,1.77,2.21,2.41l.11.05c.85-.85,1.61-1.63,2.25-2.58h-4.46Z"/>
      <path class="d" d="m41.16,9.52c-.02,1.24-.04,2.64.04,3.82-.02.16-.18.23-.29.3-.42.14-.83.28-1.25.39.33.25.45.3.83.6.09.09.09.3,0,.41-.25.16-.62.44-.62.6l.09,5.24c.02.18-.02.32-.11.41-.51.34-.89.46-1.5.57-.13.02-.31-.09-.33-.21v-1.42h-7.05v.48c.02.21-.07.37-.25.51-.51.28-.91.48-1.47.58-.11.02-.22-.12-.22-.21l.07-1.61v-5.17l-.04-1.33c-.2.05-.42.23-.65.3-.27.12-.51.32-.8.23l-.11-.18c.07-2.21.13-4.62,0-6.81.71.3,1.29.64,1.99.99l2.03.02c-.13-.78-.58-2-1.18-2.69h-3.61l-.07,5.17c-.04,3.22-.69,6.23-2.36,8.74-.47.69-.98,1.4-1.54,2.07-.13-.07-.25-.16-.38-.25,1.63-2.48,2.43-5.52,2.43-8.6V2.88l-.04-1.93c.89.37,1.41.69,2.1,1.06h11.94l.89-.78c.2-.11.38,0,.67.23l1.16.92c.09.07.11.25.04.34-.4.32-.58.46-.58.67l.07,2.09c0,.23-.02.37-.2.51-.33.23-1.03.46-1.58.57-.07-.02-.16-.12-.18-.18v-1.04h-1.56c.31.14.58.37.85.58.11.09.02.25-.07.32-.22.09-.4.11-.62.21-.6.6-1.27,1.04-1.87,1.56h3.57l.71-.83c.07-.05.29-.07.42.02.6.41.98.71,1.58,1.13.09.09.07.23,0,.32-.29.25-.78.46-.91.87Zm-2.05-6.85h-12.4v2h12.4v-2Zm.29,10.28h-10.04c0,.21-.04.34-.2.44.65.32,1.34.57,2.01.92h6.65l.71-.83c.33-.23.4-.02.87.37v-.9Zm-6.13-4.28h-3.93v3.61h3.93v-3.61Zm-1.38,3.29c-.11.09-.31.14-.47.07l-.16-.18c-.38-.99-.78-2.05-1.56-2.81l.18-.23c.94.48,2.14.92,2.57,1.98.09.48-.22.9-.56,1.17Zm6.16,3.01h-7.07v1.86h7.07v-1.86Zm0,2.53h-7.07v2.05h7.07v-2.05Zm-6.98-12.16c.74.37,1.58.78,1.76,1.72,0,.37-.2.69-.42.94h2.74c.51-.83.85-1.7,1.12-2.67h-5.2Zm3.97,3.33v3.59l.45.02c.6-1.01,1.29-2.37,1.67-3.61h-2.12Zm2.59,0l1.29.99c.16.51-.47.3-.67.51-.69.9-1.47,1.52-2.32,2.07l3.48.05.02-3.61h-1.81Z"/>
      <path class="d" d="m64.43,21.5c-1.78.14-3.23-.71-4.57-1.7-3.03-2.23-4.19-5.73-4.73-9.4-.18-1.22-.4-2.53-.49-3.77h-8.25c-.45.09-.89.12-1.29.25l-.62-1.01h10.13l-.02-.09c-.18-1.72-.27-3.66-.31-5.61,1,.23,1.87.48,2.79.8.29.48-.45.53-.6.87-.16.64-.11,1.22-.09,1.91l.02.78.11,1.31h4.33l1.03-1.52c.09-.12.29-.14.38-.02.65.55,1.29,1.2,1.83,1.82.09.14.11.34-.09.41l-.13.02h-7.29c.07,2.64.87,8.74,4.4,11.47.4.3.83.62,1.32.74.18,0,.33-.14.42-.28.25-.74.54-1.95.91-3.63l.45.07c-.13,2-.45,4.39.54,6.14.07.16.04.39-.13.44Zm-12.51-4.16l-3.5,1.49c-.83.34-1.34.58-2.07.99-.13.48-.6.48-.71.23-.38-.8-.69-1.59-.96-2.23,1.61-.28,2.9-.55,4.46-.94l.02-6.05h-2.41c-.2,0-.83.09-1.2.23l-.49-.99h6.71l.98-1.2c.04-.09.33-.14.47,0,.58.51,1.03.99,1.54,1.54.09.16.04.37-.2.37h-3.57v5.66l.83-.16,2.92-.78.78-.21.09.46-3.68,1.59Zm8.28-12.23c-.25,0-.45-.12-.58-.32-.47-1.22-1.23-2.39-2.25-3.22l.2-.28c1.07.3,2.21.41,3.12,1.08.4.44.74.99.47,1.59-.2.44-.47,1.04-.96,1.15Z"/>
      <path class="d" d="m86.34,19.84h-18.47c-.16,0-.87.07-1.58.21l-.42-.87h4.97v-10.88l-.07-2.21c.8.32,1.41.69,2.34,1.22h5.78l.8-.97c.09-.11.31-.11.42-.02.74.53.98.71,1.72,1.29.36.23-.47.85-.74,1.2v10.37h1.78l1.05-1.66c.11-.12.36-.21.51-.05.76.64,1.18,1.1,1.99,1.95.16.14.07.41-.09.41Zm-.11-14.72c-.85.14-1.7.32-2.32,1.08-.45.44-.85.85-1.25,1.33l-.4-.21c.38-.85.67-1.77.98-2.71h-13.85c-.02,1.24-.16,2.62-1.25,3.33-.4.25-.98.18-1.41,0-.27-.21-.67-.41-.65-.83l.11-.34c1.25-1.1,2.19-2.42,2.39-4.02h.51l.22,1.2h6.07c-.07-.55-.33-1.06-.54-1.59-.25-.62-.69-1.24-1.23-1.7l.31-.41c1.12.23,2.03.58,2.99,1.2.38.25.74.78.58,1.29-.13.46-.47.87-.83,1.22h6.51l.8-1.08c.04-.07.29-.12.4.02.8.64,1.23,1.06,2.05,1.89.04.16-.09.32-.22.34Zm-7.03,2.85h-6.47v3.24h6.47v-3.24Zm0,3.91h-6.47v3.24h6.47v-3.24Zm0,3.91h-6.47v3.38h6.47v-3.38Z"/>
      <path class="d" d="m107.85,10.44h-7.43l-.16,3.01h2.79l.71-.85c.11-.12.27,0,.38.05l1.74,1.13c.16.18.02.37-.11.46-.27.18-.71.25-.71.58v3.45c0,.44.04,1.52.04,2.02,0,.11-.04.14-.09.16-.56.35-1.16.58-1.81.58l-.04-.12.02-.85v-1.31h-7.18v.6c0,.3.07.6,0,.76-.04.12-.13.18-.29.3-.42.32-.96.46-1.45.62-.11.05-.25,0-.22-.12.07-1.31.09-2.62.09-3.86v-2.58l-.18-2.16c.89.3,1.72.76,2.57,1.15h1.94l.16-3.01h-5.76c-.31,2.78-1.05,5.4-2.74,7.59-.65.83-1.29,1.63-2.07,2.37-.18-.02-.33-.16-.49-.23,2.12-2.92,3.3-6.28,3.46-9.98l.11-2.83.02-4.05-.11-2.48c.85.3,1.61.69,2.45,1.1h10.06l.74-.83c.07-.14.22-.07.31-.02l1.87,1.36c.07.07.09.28-.02.37-.29.25-.69.21-.87.6v2.48l.11,1.22c.04.37.02.37-.22.53-.47.21-1.05.44-1.58.53-.13,0-.25-.02-.25-.18,0-.12.04-.55.04-.8v-.78h-10.64l-.13,3.36h5.76c.07-1.15.09-2.02.02-3.04.89.16,1.61.44,2.43.69.18.16.07.32-.02.41-.18.16-.54.25-.56.58l-.09,1.36h4.13l.96-1.33c.09-.14.27-.14.38-.02.8.6,1.36,1.01,1.99,1.7.11.16.09.35-.04.35Zm-4.17-7.82h-10.62v3.1h10.62v-3.1Zm-.51,11.52h-7.16v3.93l7.16-.02v-3.91Z"/>
      <path class="d" d="m112.84,17.04c0,1.17.02,2.12.07,3.33.02.12-.09.28-.22.34-.47.23-.83.44-1.34.58-.11.05-.22-.07-.25-.16l.09-7.15V3.98c0-1.01-.07-1.86-.09-2.87.65.23,1.21.51,1.81.83h2.72l.69-.87c.07-.09.29-.09.38,0,.6.46,1.05.87,1.61,1.36.29.48-.54.53-.74.78l-.22.23c-.87,1.43-1.87,2.74-2.72,4.18l-.07.12c1.27,1.22,2.54,3.04,2.5,5.06-.04,1.54-1.05,2.64-2.34,3.08-.13.05-.27.14-.29,0-.18-1.04-.78-1.75-1.58-2v3.17Zm0-14.44l-.02,10.76c.65.14,1.49.28,2.01-.09.36-.25.49-.62.49-1.06-.04-1.68-.71-3.15-1.56-4.51.78-1.61,1.41-3.36,1.85-5.11h-2.77Zm2.92,13.84c1.76-1.77,3.3-3.82,3.88-6.19l-.69-.02c-.67-.02-1.09.11-1.56.21l-.6-.83h10.28l.96-1.5c.07-.09.29-.09.36,0,.67.58,1.38,1.13,1.99,1.79.02.12.02.23-.07.32l-.13.02h-8.45c-.27.64-.6,1.33-.96,1.93h5.91l.78-1.01c.07-.07.2-.05.29-.02l1.67,1.08c.33.39-.62.58-.74,1.06l-.22,2.46-.47,3.4c0,.62-.33,1.15-.85,1.47-.6.39-1.32.58-2.01.71-.11-.8-.49-1.68-1.29-2.07l-1-.48.13-.39c.91.25,1.87.37,2.86.41.22.05.38-.09.47-.28l.29-1.98.38-3.61c.04-.12-.07-.12-.13-.12h-.6c-.71,1.91-1.52,3.77-3.32,5.31-1.81,1.56-3.79,2.41-6.09,2.92l-.16-.3c2.7-1.15,5.42-2.97,6.85-6,.29-.62.58-1.29.78-1.91l-.98-.02c-.94,1.96-2.36,3.89-4.26,4.99-.91.55-1.87,1.04-2.88,1.4l-.27-.35c1.94-1.15,4.02-2.8,4.98-4.99.18-.32.33-.69.47-1.06h-.91c-1.23,1.52-2.68,2.92-4.33,3.91l-.33-.3Zm5.02-8.3c-.02.12-.07.21-.18.25-.2.16-.94.53-1.25.64-.16.05-.42.02-.42-.16l.04-4.32c.02-1.2-.07-2.48-.09-3.66.74.23,1.41.62,2.1.94h4.33l.69-.92c.09-.12.31-.12.42-.02.42.32.83.55,1.36.94.13.09.16.25.07.37-.11.21-.6.37-.6.78l-.02,2.99.09,1.86c.04.16-.07.3-.13.37-.4.28-1,.51-1.45.6-.18,0-.29-.12-.29-.25v-.74h-4.66v.32Zm4.66-5.63h-4.66v1.98h4.66v-1.98Zm0,2.64h-4.66v2h4.66v-2Z"/>
      <path class="d" d="m149.83,11.18c-.18.05-.38.02-.51-.12-.54-.71-.87-1.54-1.45-2.23l-5.22.67c-2.86.37-5.71.6-7.83,1.24-.45.46-.78.25-.92-.07l-.65-1.59c-.04-.11.02-.23.07-.3.33-.16.78-.02,1.14-.16.4-.05.76-.21,1.07-.44,1.85-2.53,3.64-5.27,4.95-8.07.85.44,1.96,1.04,2.74,1.56.11.09.16.23.11.34l-.16.14c-.47.11-1.07-.05-1.36.44-1.72,2.09-3.59,4.28-5.6,6.05,1.7.02,3.12.02,5.06-.09l4.66-.3c.45-.02.94-.05,1.38-.14-1.2-1.52-2.68-2.78-4.17-3.93l.2-.32c1.85.74,3.57,1.7,5.29,2.74.76.62,1.67,1.2,1.9,2.46.04,1.03,0,1.7-.71,2.12Zm-2.28,2.21l-.07.21v3.54c0,1.45.02,1.75.04,3.01,0,.18-.02.3-.22.44-.36.21-.67.32-1.25.51-.16.05-.42.09-.42-.21v-1.7h-8.19v1.4c0,.16-.07.32-.29.41-.33.18-.83.44-1.2.57-.18.05-.38-.02-.4-.21l.04-3.84v-3.93l-.04-2.25c1.07.37,1.58.6,2.41.92h7.32l.85-1.17c.09-.12.31-.12.49,0,.62.39,1.41.94,1.65,1.13.16.11.2.23.07.39-.31.3-.58.51-.78.78Zm-1.94-.44h-8.14v5.54h8.14v-5.54Z"/>
      <path class="d" d="m179.77,3.5c.36-.51.56-.97.98-1.42.13-.18.29-.05.36,0,.69.48,1.27,1.01,1.87,1.61.07.09.11.32.04.44l-.13.02-1.85.05h-3.39v2.48h3.3l1-1.36c.09-.09.31-.14.45.02.67.46,1.23,1.04,1.87,1.61.09.14.11.37-.11.41h-4.8v1.84c.07.28.27.44.67.51,1.09.05,2.12-.3,3.08-.62l.11.16c.31.46.85.85,1.09,1.38.04.23-.07.41-.25.48-1.61.23-3.44.39-5.06.09-.49-.09-1.05-.28-1.29-.78l-.07-.51.02-2.55h-5.31l-2.03.21-.29-.51-1.36,3.77c-.45,1.22-.85,2.35-.6,4.02.2,1.26.47,3.33.33,3.77-.04.23-.16.51-.42.6-.6.18-1.23-.05-1.61-.55-.31-.32-.42-.55-.31-1.22.16-.9.29-1.72.27-2.78,0-.62-.47-1.2-1.03-1.45l-.8-.37.11-.46c.6.07,1.41.21,1.87-.32.96-1.03,1.52-2.39,2.16-3.63.54-1.04,1.03-2.12,1.49-3.2l.4.21-.42,1.22h5.64v-2.48h-2.36c-.62,0-1.14.12-1.72.23-.18-.28-.31-.62-.45-.92h4.53v-1.24l-.04-2.07c.83.25,1.61.41,2.39.8.11.07.13.25.09.37-.18.25-.51.37-.62.67v1.47h2.19Zm-14.32-1.1c.89.37,2.12.78,2.9,2.16.22.37.29,1.1.11,1.56-.27.64-.62.92-.96,1.08-.2.05-.4,0-.54-.16-.2-.37-.22-.8-.25-1.22-.09-1.1-.58-2.3-1.47-3.17l.2-.25Zm12.85,10.23c.27-.28.54-.62.85-.87.13-.09.18-.07.4.05.47.23.91.46,1.36.85.16.09.38.25.42.37.07.3-.33.32-.49.46l-.49.32c-.62,1.36-1.38,2.67-2.43,3.82,1.92,1.26,4.19,1.66,6.51,1.93l-.09.34c-1,.14-1.96.67-2.48,1.59-1.85-.62-3.52-1.52-5.06-2.81-.78.51-1.58.97-2.41,1.31-1.94.83-4.02,1.29-6.16,1.61l-.07-.48c2.7-.74,5.29-1.77,7.52-3.66-.74-.9-1.09-2.02-1.47-3.1-1.32,1.42-2.77,2.94-4.31,4.12l-.38-.3c2.14-2.46,4.06-5.01,5.35-7.89.71.23,1.38.57,2.05.94.07.07.09.21.02.28-.18.21-.47.21-.69.34l-.69.78h2.72Zm-8.86,0c1.9-1.61,3.41-3.27,4.64-5.22.67.28,1.45.64,2.07,1.01.16.09.25.39,0,.46l-.11.05c-.45.11-.78.14-.91.21-.51.39-1.03.81-1.85,1.43-1.16.9-2.39,1.7-3.64,2.39l-.2-.32Zm5.62.69l-.31.39c.42,1.06.94,2.02,1.76,2.85.83-.94,1.45-2.07,1.85-3.24h-3.3Z"/>
      <path class="d" d="m205.74,20.19h-16.69c-.67,0-.94.16-1.74.3l-.69-1.06h8.66v-4.92h-3.5l-1.29.25-.67-1.01h10.13l1.16-1.36c.07-.09.22-.12.33,0,.62.55,1.43,1.26,1.83,1.79.07.11,0,.25-.11.3l-.2.02h-5.78v4.94h5.35l1.09-1.59c.04-.09.27-.09.38-.02.83.78,1.16,1.1,1.87,1.89.07.09.13.3,0,.39l-.13.07Zm.58-15.02c-.67.14-1.32.23-1.87.6-.8.53-1.49,1.15-2.19,1.93l-.42-.3c.36-.87.74-1.59.98-2.46l-13.01-.02c-.04,1.01-.16,2.02-1.05,2.64-.47.34-1.23.55-1.76.21-.2-.14-.31-.34-.33-.6-.02-.37.27-.6.49-.85.94-1.01,1.9-2.16,1.85-3.75l.45.02.33,1.54h6.27c-.56-1.26-1.14-2.58-2.21-3.61l.22-.34c1.03.34,2.07.71,2.99,1.38.36.25.69.71.65,1.15-.04.58-.38,1.03-.78,1.4l5.87.02.98-1.13c.13-.14.36-.09.49,0,.71.53,1.47,1.13,2.12,1.82.07.12.02.25-.07.34Zm-11.89,3.15c-.83.37-1.45,1.04-2.19,1.54-1.58,1.1-3.12,2.23-4.89,2.92l-.29-.34c2.28-1.72,4.57-3.96,6.05-6.42l.13.05c.69.55,1.36,1.15,2.01,1.77.09.09.07.18.04.3-.2.28-.6.07-.87.18Zm10.71,3.15c-1.05.41-1.96.37-4.62.37-1.14,0-2.57.18-3.08-1.13-.16-.55-.2-.76-.2-1.77s0-2.23-.04-3.22c1.05.23,1.72.44,2.57.71.18.12.13.28.07.41-.25.18-.62.25-.74.6v2.32c0,.09.11.23.29.25,1.03.16,2.16.09,3.23.02.56-.05,1.05-.39,1.54-.64.2-.12.29.02.49.34.42.64.58.87.83,1.36.04.23-.11.25-.33.37Z"/>
      <path class="d" d="m209.86,4.78l3.91-1.96h.39v13.98c0,.93.04,1.51.11,1.73.08.23.23.4.47.52s.72.19,1.44.21v.45h-6.04v-.45c.76-.02,1.25-.08,1.47-.2.22-.12.38-.28.46-.48.09-.2.13-.8.13-1.79V7.85c0-1.2-.04-1.98-.12-2.32-.06-.26-.16-.45-.3-.57-.15-.12-.32-.18-.53-.18-.29,0-.7.13-1.22.38l-.18-.38Z"/>
      <path class="d" d="m219.53,11.53c0-1.89.28-3.51.83-4.88.55-1.36,1.29-2.38,2.2-3.05.71-.53,1.44-.79,2.2-.79,1.23,0,2.34.65,3.32,1.94,1.22,1.6,1.84,3.78,1.84,6.52,0,1.92-.27,3.55-.81,4.9-.54,1.34-1.22,2.32-2.05,2.92-.83.61-1.64.91-2.41.91-1.53,0-2.81-.93-3.82-2.79-.86-1.57-1.29-3.46-1.29-5.68Zm2.32.31c0,2.28.27,4.14.82,5.58.45,1.21,1.12,1.82,2.01,1.82.43,0,.87-.2,1.33-.59.46-.39.81-1.06,1.04-1.98.36-1.4.54-3.37.54-5.92,0-1.89-.19-3.46-.57-4.72-.28-.94-.65-1.6-1.1-1.99-.32-.27-.71-.4-1.17-.4-.54,0-1.01.25-1.43.75-.57.67-.96,1.74-1.16,3.19-.21,1.45-.31,2.88-.31,4.29Z"/>
      <path class="d" d="m240.82,3.15l-.92,2.08h-4.83l-1.05,2.22c2.09.32,3.75,1.12,4.97,2.4,1.05,1.11,1.57,2.41,1.57,3.91,0,.87-.17,1.68-.52,2.42-.34.74-.78,1.37-1.3,1.89-.52.52-1.1.94-1.74,1.26-.91.45-1.84.67-2.79.67s-1.66-.17-2.1-.51c-.44-.34-.66-.71-.66-1.12,0-.23.09-.43.27-.6s.41-.26.69-.26c.21,0,.38.03.54.1s.42.23.79.5c.59.42,1.19.63,1.8.63.92,0,1.73-.36,2.43-1.08.7-.72,1.05-1.6,1.05-2.63s-.31-1.93-.94-2.8c-.62-.87-1.48-1.54-2.58-2.01-.86-.37-2.03-.58-3.52-.63l3.08-6.43h5.75Z"/>
      <path class="d" d="m263.17,17.45c-1.27-.05-2.45.23-3.32,1.22l-.16-.05c-2.83-2.23-4.89-5.22-5.73-8.55l-.13.02.02,5.96.07,4.67c.04.25-.07.32-.47.51-.49.23-.89.37-1.34.39-.16,0-.27-.21-.25-.32l.09-5.61v-4.48c-1.74,2.53-3.7,5.24-6.27,7.08-.78.58-1.58,1.15-2.43,1.61l-.27-.32c3.08-2.69,5.38-6.05,7.18-9.5h-5.2c-.27,0-.85.12-1.36.23l-.65-.92,8.99.02V3.66l-.04-3.47c1.03.32,1.58.51,2.41.78.11.05.27.14.27.25.02.35-.76.78-.76,1.04v7.13l1.07.02-.27-.28c.36-.64.8-1.24,1.2-1.88.94-1.5,1.76-3.01,2.39-4.65l.16.02c.74.41,1.52.85,2.25,1.36.11.09.09.25.02.37-.2.11-.47.11-.69.21-1.67,1.61-3.26,3.33-5,4.81l4.39.02,1.09-1.38c.09-.09.33-.09.42-.02.8.67,1.16.97,1.83,1.66.04.12.04.23,0,.32l-.18.12h-7.65c.33.62.54.97.96,1.63,1.47,2.32,3.73,3.96,6.05,4.83l1.47.55-.18.37Zm-13.81-8.83c-.16.18-.38.37-.67.3-.29-.12-.36-.51-.51-.9-.78-1.86-1.43-3.52-2.88-5.08l.22-.34.33.18c1.47.81,3.39,1.86,4.1,3.47.36.83-.18,1.86-.6,2.37Z"/>
      <path class="d" d="m272.01,16.79c-2.16,1.66-4.51,2.92-6.94,3.89l-.27-.28c2.3-1.56,4.19-3.2,5.84-5.27l.09-.02,2.03,1.08c.11.07.2.25.07.32-.22.21-.56.18-.83.28Zm12.87-6.97h-17.45c-.69,0-1.32.16-1.99.23l-.51-.87h9.3c-.22-.71-.38-1.43-.87-2.05h-2.86v.62c0,.25-.27.37-.71.55l-.91.39c-.18.02-.27-.14-.29-.25.07-1.24.07-1.61.07-2.74v-2.58l-.07-2.09c.74.28,1.45.6,2.14.99h8.41l.67-.97c.04-.07.29-.07.4,0,.62.44.87.58,1.61,1.17.11.07.11.3.02.35-.27.23-.4.32-.69.62l.09,3.68c0,.25-.04.39-.18.48-.51.37-.8.53-1.36.71-.2.07-.36-.02-.36-.18v-.76h-4.42c.45.23,1.05.62,1.09,1.17.04.39-.18.57-.33.87h5.87l1.14-1.45c.09-.07.29-.07.38,0,.85.69,1.2,1.01,1.94,1.82.07.12.02.28-.13.28Zm-4.19,2.44v2.53c0,.12-.07.28-.16.34-.51.34-.85.39-1.43.58-.16.02-.27-.07-.29-.21v-1.22h-2.92v4.35c0,.99-.07,1.45-.51,1.79-.6.51-1.29.83-2.03.99-.04-.55-.09-1.17-.54-1.56-.56-.53-1.25-.67-1.87-.97l.04-.37c.94.14,1.87.3,2.83.25.13-.05.22-.18.22-.32v-4.16h-3.15v.28c0,.28-.33.41-.6.58-.38.18-.78.41-1.09.41-.13,0-.18-.12-.22-.23.13-1.82.07-3.45-.02-5.24.8.32,1.36.58,2.03.87h7.67l.51-.67c.13-.16.29-.16.42-.07l1.72,1.13c.11.07.13.3.04.37-.25.23-.67.34-.67.55Zm-1.34-9.59h-8.83v1.59h8.83v-1.59Zm0,2.23h-8.83v1.59h8.83v-1.59Zm-.51,6.69h-7.99v2.05h7.99v-2.05Zm4.15,9.04c-.27.05-.51,0-.67-.21-1.54-1.82-3.32-3.38-5.38-4.12l.07-.41c1.92.21,3.68.55,5.38,1.54.89.53,1.09,1.66.96,2.62,0,.25-.11.48-.36.58Z"/>
      <path class="d" d="m305.94,20.54c-.87.34-1.96.23-2.74.16-.54-.05-1.12-.53-1.32-1.08-.09-.21-.11-.58-.11-.67v-5.84h-.38c-.22,2.48-.94,4.85-3.08,6.35-1.25.87-2.61,1.47-4.06,1.86l-.2-.37c1.12-.51,2.23-1.06,3.15-1.93h-6.96v1.2c0,.09-.07.23-.27.37-.31.18-.69.34-1.14.53-.13.05-.25-.05-.25-.16v-7.52c-.62.67-1.18,1.15-1.78,1.66l-.33-.25c1.38-1.68,2.45-3.54,3.28-5.43.07-.25.18-.51.25-.76.09-.07.36.09.6.23v-.39h-1.25v.51c0,.14-1.25.69-1.41.46l-.04-.14.02-.83v-2.67l-.07-1.04c.51.21,1,.46,1.52.69h1.12l.74-.69c.02-.09.25-.07.27-.02l1.23.9c.13.14.07.32-.02.37-.25.18-.49.21-.6.55v2.05c.33.09.74.25,1.05.37l.02-.76v-2.37l-.02-.97c.47.16.89.37,1.52.67h1.03l.54-.71c.11-.12.27-.07.38-.02l1.34.9c.09.09.09.23.02.35-.11.14-.65.37-.65.53,0,.71-.02,1.47,0,2.28,0,.12-.11.14-.18.21-.45.14-1.25.41-1.25.16v-.74h-1.2c-.02.18-.18.32-.33.39-.29.12-.6.18-.91.28.22.16.45.41.54.69.07.44-.16.83-.47,1.1h1.36l.78-1.2c.04-.07.29-.09.33-.02l1.61,1.5c.04.07.04.23,0,.3l-.13.12h-3.68v1.52h1.12l.67-.97c.07-.09.22-.07.33,0,.47.37,1,.83,1.43,1.31.07.16.04.32-.11.32h-3.46v1.75h.89l.8-1.06c.07-.05.2-.05.25.02.56.37,1.03.87,1.54,1.29.09.12.16.23.09.37l-.13.14h-3.44v1.98h1.18l.69-1.08c.11-.11.27-.07.38,0l1.61,1.5c1.56-1.36,2.19-3.38,2.23-5.38-.33.23-.74.34-1.23.48-.2.07-.45-.02-.45-.3,0-.23.02-.99.02-1.22,0-1.17.04-1.77.04-2.94V3.52h-2.97v.71c0,.12-.04.21-.2.28-.33.16-.87.28-1.23.34-.13.02-.29-.02-.29-.21l.02-1.13h-1.96v.83c0,.18-1.38.6-1.58.55-.09,0-.18-.09-.18-.18v-1.2h-1.81c-.25,0-.65.07-1.14.16l-.62-.85h3.61v-.99c0-1.15-.22-1.82-.07-1.75.76.21,1.52.41,2.25.69.11.05.11.25.02.32-.16.14-.49.37-.49.41v1.31h1.99v-1.61c0-.34-.04-.69-.11-1.06l2.25.67c.11.07.11.23.07.34-.18.16-.45.21-.56.44v1.22h.47c.4-.46.56-.67.89-1.06.07-.05.31-.05.38.02.54.55.78.78,1.23,1.2.04-.64-.04-1.36-.07-1.98.87.37,1.32.67,2.03,1.06h3.17l.83-.87c.13-.18.31-.18.58.02.4.3.87.71,1.38,1.15.11.48-.51.57-.74.9l-.07.25v8.16l.07,1.36c.02.37-.38.37-1.14.6-.18.07-.49.21-.49-.05v-.48h-.51v5.17c.02.18.07.44.22.58.25.25.54.25,1.2.25s.74-.74,1-2.88l.13-1.1.45.05c0,.99.02,2.69.18,2.97.18.32.49.53.83.78-.25.48-.58,1.01-1,1.36l-.31.25Zm-15.3-14.4h-1.29v1.66h1.29v-1.66Zm1.49,5.52h-1.87v1.52h1.87v-1.52Zm-1.87,2.18v1.82h1.9v-1.82h-1.9Zm1.9,2.51h-1.9v1.98h1.9v-1.98Zm-.36-6.78l.09.07c.09.12.04.32-.07.39-.16.07-.31.07-.47.12-.33.18-.45.53-.71.83h2.16c-.16-.74-.38-1.38-.85-1.98-.31.02-.58.14-.89.14l.74.44Zm4.13-1.72v-1.59h-1.29v1.59h1.29Zm7.79-5.08h-3.88v2.62h3.88v-2.62Zm-3.88,3.31v2.74h3.93v-2.74h-3.93Zm0,6.37h3.93v-2.97h-3.93v2.97Z"/>
      <path class="d" d="m310.96,15.08c0,.41-.31.55-.62.74-.29.11-.54.32-.87.25-.18,0-.25-.07-.22-.23l.13-3.33v-6.51l-.11-1.86,1.76.94h1.07v-2.62l-.11-2.09,2.16.69c.13.12.13.3.04.44-.2.18-.51.21-.58.55v3.04h1.12l.71-.85c.13-.14.27-.14.38,0l1.14.99c.11.09.13.3.04.39-.27.28-.49.41-.54.64l-.04.23v7.56c0,.97-.96,1.38-1.61,1.63-.11-1.17-.65-1.43-1.2-1.77v2.62l.09,3.63c-.02.32-.16.34-.56.6-.27.16-1.05.37-1.09.14l-.04-.11.09-4.6V5.77h-1.2v6.65l.07,2.67Zm2.65-1.75c.4.11.69.11,1,.09.2-.05.27-.12.29-.34v-7.31h-1.29v7.57Zm10.69,4.87h2.1l.78-1.33c.09-.21.25-.21.4-.05.65.64.91.92,1.65,1.77.09.16.07.3-.11.3h-8.72v1.36c-.04.3-.16.32-.45.53-.45.23-1.09.71-1.43.6-.13-.05-.16-.12-.16-.28l.25-5.45V7.29c-.18.3-.51.9-.69,1.13-.38.55-.6.9-1.05,1.36l-.36-.21c.6-1.22,1.05-2.18,1.36-3.31l.62-2.18c.33-1.15.56-2.53.62-3.98.94.41,1.74.71,2.59,1.15.18.12.16.32.04.41-.31.18-.62.11-.8.48-.47.99-.78,2-1.29,2.94h5.84l.96-1.52c.11-.18.25-.09.36,0,.69.64,1.23,1.17,1.76,1.89.07.14-.02.28-.13.3h-4.15v3.36h.98c.33-.48.51-.83.91-1.4.11-.18.27-.12.38,0,.62.67.94,1.15,1.49,1.79.04.09.02.25-.09.28h-3.68v3.59h1.25c.33-.58.54-.94.8-1.4.13-.18.27-.09.38.05l1.49,1.66c.16.18.09.34-.09.37h-3.84v4.18Zm-3.9-9.11h2.12v-3.36h-2.12v3.36Zm0,4.25h2.12v-3.59l-2.12.02v3.56Zm0,4.85h2.12v-4.18h-2.12v4.18Zm2.01-17.48c.96.48,1.74.74,2.45,1.63.22.3.25.76.16,1.13-.13.53-.56,1.01-1,1.15-.27.07-.47.07-.6-.09-.22-.37-.27-.78-.33-1.2-.25-1.4-.2-1.43-.89-2.32l.22-.3Z"/>
      <path class="d" d="m346.12,18.92c0,.78-1.43,1.4-2.28,1.72-.09-.57-.27-1.13-.8-1.45-.38-.3-.87-.34-1.34-.46l.07-.46c.76.12,1.52.21,2.28.18.16.02.27-.14.33-.25v-2.99l-3.46-.02v2.64l.04,2.74c.02.16-.11.3-.22.37-.42.18-.76.37-1.29.57-.16.07-.33-.07-.33-.21v-6.09h-2.97l-.02,4c0,.25-.16.32-.27.39-.6.3-.76.39-1.23.55-.16.02-.29-.16-.29-.25.09-1.5.11-3.04.04-4.51-.58.32-1,.57-1.63.9-.8.41-1.63.8-2.43,1.17l-.29-.37c2.19-1.38,4.31-2.97,6.18-5.01h-3.93c-.54,0-.89.07-1.49.18l-.49-.83h6.47c.4-.55.91-1.22,1.25-1.72l-1.81-.05v.23c0,.09-.09.23-.27.32-.45.18-.71.37-1.16.53-.16.02-.36-.07-.36-.21.02-2.02,0-4.32-.07-6.21.78.3,1.25.51,1.99.83h5.82l-.16-.18c-.02-.48.04-1.13.02-1.68h-3.3v.99c0,.14-.11.25-.25.32-.33.18-.56.28-1.2.44-.16,0-.27-.09-.29-.23l.02-1.49-4.48-.02c-.49,0-.83.07-1.41.18l-.47-.83h6.36c0-.85.02-1.84-.07-2.67.78.21,1.54.41,2.28.67.11.05.16.21.04.32-.22.25-.54.51-.54.69v.99h3.3c.02-.87-.04-1.7-.07-2.55.83.16,1.38.37,2.28.67.29.23-.49.76-.49.94l.02.94h3.23l.91-1.15c.09-.09.36-.05.45.05.56.55.74.8,1.23,1.45.07.09.04.3-.13.3h-5.69v1.04c-.02.16-.09.3-.29.37-.36.18-.74.32-1.12.41l2.12.05.65-.57c.11-.14.33-.09.42,0l1.25.71c.11.07.13.18.04.37-.38.41-.51.53-.51.67v1.91l.04,1.61c-.02.21-.18.28-.33.37-.27.11-.76.34-1.18.44-.16.05-.33-.05-.33-.18v-.78h-4.26l-1.36,1.75h8.43l.89-1.31c.04-.09.31-.12.42,0,.56.51,1.07,1.03,1.54,1.59.11.14.09.37-.09.37h-6.47c2.07,1.84,4.57,2.78,7.21,3.29l-.16.41c-.96.05-1.9.51-2.36,1.4-.76-.41-1.47-.97-2.21-1.43v3.15Zm-7.85-6.83c-.74.71-1.52,1.5-2.21,2.09l.38.34h2.72c0-.85-.07-1.59-.09-2.44h-.8Zm6.29-5.1v-1.15h-8.34v1.15h8.34Zm0,2.07v-1.43h-8.34v1.43h8.34Zm-3.64,5.5h3.26l.2-.28c-.69-.71-1.2-1.4-1.78-2.18h-2.88l1.54.6c.13.02.25.14.25.28-.04.16-.47.44-.58.51v1.08Z"/>
    </g>
  </g>
</svg>