<?xml version="1.0" encoding="UTF-8"?>
<svg id="b" data-name="圖層 2" xmlns="http://www.w3.org/2000/svg" viewBox="0 0 817.62 827.11">
  <defs>
    <style>
      .d {
        fill: #fff;
        stroke-width: 0px;
      }
    </style>
  </defs>
  <g id="c" data-name="圖層 1">
    <path class="d" d="m493.44,827.11c-15.34-2.54-30.84-4.35-45.99-7.75-49.64-11.13-91.86-35.96-127.71-71.65-73.25-72.93-146.33-146.03-219.29-219.25-30.71-30.81-28.39-75.9,5.09-101.55,18.17-13.92,39.06-15.91,60.63-10.7,9.58,2.31,19.03,5.88,27.92,10.16,27.84,13.42,55.39,27.46,83.06,41.24,2.34,1.17,4.75,2.18,8.31,3.81,0-4.24,0-7.37,0-10.5,0-128.66.04-257.31-.03-385.97-.01-24.85,7.76-46.09,28.36-61.08,21.03-15.31,44.32-18.06,67.98-7.73,23.59,10.29,39.09,28.81,40.39,54.9,1.82,36.51,1.06,73.15,1.4,109.74.03,3.16,0,6.33,0,9.69,52.17-15.1,72.33-7.46,99.84,37.37,45.44-21.51,72.78-12.47,103.7,34.6,14.68-8.89,30.49-12.1,47.76-10.17,27.86,3.11,55.3,30.19,57.66,58.19.72,8.56,1.14,17.18,1.15,25.77.08,90.17.14,180.33,0,270.5-.04,28.12-3.4,55.79-13.62,82.28-28.45,73.7-80.84,120.93-157.13,141.33-12.13,3.24-24.77,4.56-37.17,6.77h-32.31Zm-173.27-544.67c0,70.51.02,141.02-.01,211.53,0,20.68-11.51,27.9-29.84,18.76-36.8-18.35-73.39-37.13-110.48-54.89-9.97-4.77-21.22-7.98-32.19-9.28-20.26-2.41-35.66,14.09-33.99,34.44.76,9.2,5.84,15.9,12.06,22.12,72.35,72.29,144.64,144.65,217.05,216.88,7.23,7.21,14.84,14.11,22.86,20.42,39.69,31.21,84.77,47.89,135.36,49.76,50.43,1.87,95.01-13.24,132.86-46.48,44.2-38.82,65.27-88.27,65.2-147.01-.12-94.19-.03-188.39-.05-282.58,0-3.49-.02-7.01-.4-10.48-1.68-15.46-15.11-28.27-30.64-29.4-20.61-1.5-36.96,12.55-37.4,33.3-.56,26.36-.2,52.74-.23,79.12-.02,16.51-6.04,25.04-17.56,24.86-11.32-.17-17.13-8.45-17.14-24.47-.01-19.11.02-38.22,0-57.32-.02-19.11.39-38.23-.27-57.32-.77-22.05-20.47-36.66-42-31.96-15.95,3.48-26.28,17.23-26.35,35.86-.15,37.14-.02,74.28-.1,111.42,0,3.73-.29,7.55-1.12,11.18-1.65,7.21-8.5,12.43-15.85,12.61-7.55.19-14.87-5.21-16.53-12.75-.86-3.89-1.1-7.99-1.11-11.99-.07-48.44.16-96.89-.13-145.33-.17-28.69-27.88-45.53-51.56-31.64-12.63,7.41-17.17,19.05-17.11,33.33.19,47.9.09,95.81.03,143.71,0,3.74-.24,7.55-.98,11.2-1.58,7.77-8.29,13.24-15.94,13.46-7.83.23-15.11-5.42-16.72-13.48-.78-3.91-.98-8-.98-12-.05-103.61-.04-207.23-.05-310.84,0-3.5,0-7-.24-10.49-1.17-17.1-13.55-29.72-30.98-31.7-15.87-1.8-31.13,8.19-35.68,24.04-1.45,5.06-1.69,10.59-1.7,15.91-.11,69.16-.07,138.33-.07,207.49ZM817.62,51.99L732.76,3v30.61h-244.86v39h244.86v28.37l84.85-48.99ZM224.9,33.61H84.85V3L0,51.99l84.85,48.99v-28.37h140.05v-39Z"/>
  </g>
</svg>