<?xml version="1.0" encoding="UTF-8"?>
<svg id="b" data-name="圖層 2" xmlns="http://www.w3.org/2000/svg" viewBox="0 0 337.31 57.24">
  <defs>
    <style>
      .d {
        fill: #fff;
        stroke-width: 0px;
      }
    </style>
  </defs>
  <g id="c" data-name="圖層 1">
    <path class="d" d="m57.37,22.31c-.54.86-1.02.83-1.63.73-.31-.13-.59-.44-.43-.99l.1-.23c1.32-1.48,2.04-3.35,2.32-5.3l.51.08c.08,1.92.15,4.11-.87,5.72Zm6.42-15.52c-1.63,2.37-3.26,4.58-5.35,6.66,1.48-.05,3.01-.21,4.41-.39-.2-.68-.66-1.35-1.12-1.95l.31-.23c1.07.75,3.39,2.08,2.75,3.87-.18.47-.46.75-.92.83-.2.03-.38,0-.46-.23-.18-.55-.28-1.12-.41-1.61-2.09.44-4.51.91-5.73,1.64-.15.05-.25.03-.41-.23-.36-.65-.56-1.01-.56-1.35,0-.29.64-.29.92-.49.61-.44,1.07-1.07,1.5-1.69.94-1.38,1.5-2.31,2.19-3.43l-.2.05c-1.1.29-1.81.44-2.6.73-.36.13-.61.34-.92.52-.13.1-.25.1-.31-.05l-.56-1.53c-.18-.47.41-.29.87-.83,1.35-2.16,2.52-4.19,3.29-6.6.76.36,1.48.73,2.22,1.14.25.16.2.42-.03.52-.43.21-.76.21-1.07.68-1.12,1.66-2.11,3.07-3.39,4.68-.2.29,2.01.03,3.06-.08.59-.94.99-1.87,1.43-2.86.71.42,1.33.83,2.09,1.27.1.1.18.23.05.31-.41.29-.87.47-1.04.68Zm-3.24,15.44c-.23.16-.51.18-.76.16-.15-.03-.31-.21-.38-.34-.28-.68.59-1.95.28-4.58l-.13-1.09.43-.05c.69,1.4,1.38,2.81,1.4,4.47-.08.57-.38,1.09-.84,1.43Zm18.07-2.03c-1.1-.26-1.96.47-2.5,1.33l-.15-.08c-2.22-2.03-3.47-4.71-4.28-7.49l-.08,6.89c0,1.12.08,2.18-.87,2.78-.54.36-1.27.62-1.96.83-.15-.81-.38-1.69-1.1-2.21-.54-.31-1.1-.52-1.68-.73l.13-.55c.99.18,1.94.44,3.01.44.18-.03.25-.13.33-.26.08-.18.13-.31.13-.55v-5.33c-1.27,1.48-2.65,2.96-3.85,4.47-.1.1-.25.16-.38.1l-1.4-1.4c.23.75.82,1.9.28,2.68-.38.39-.71.6-1.17.57-.28-.1-.41-.29-.41-.52-.08-1.25-.1-2.31-.36-3.54-.13-.6-.31-1.2-.59-1.69l.43-.23c.64.75,1.25,1.66,1.71,2.55l.33-.18c1.91-1.04,3.62-2.34,5.4-3.87v-4.42h-3.8c-.64,0-1.27.13-1.91.23l-.64-.99h8.79c.1-.6.25-1.3.38-2.05h-4.43c-.41.16-.56,1.4-.94,1.14l-.1-.05c-.51-.39-1.38-.88-1.83-1.33-.38-.36.66-.42.79-.94.23-.99.41-2.08.56-3.09.1-.78.13-1.69.18-2.52.89.21,1.73.42,2.55.78.18.08.08.31-.03.39-.13.1-.36.18-.41.34-.1.31-.15.55-.23.96h4.1l.92-.96c.08-.08.2-.08.31,0l1.73,1.2c.1.1.1.26.08.39-.25.29-.64.31-.82.7-.36,1.77-.59,3.41-.89,4.97l1.22.08,1.25-1.53c.23-.18.51.1.74.34.54.57.92.88,1.61,1.59.1.16.1.36-.18.36h-6.98c-.1,1.22-.1,1.51.54,3.12.15.42.36.78.59,1.2,1.1-.96,2.09-2.13,2.96-3.3.71.52,1.27,1.01,1.94,1.61.13.16,0,.34-.13.34l-.89.1c-1.15.73-2.29,1.46-3.49,1.98.48.81.97,1.48,1.58,2.13,1.17,1.25,2.65,2.11,4.08,2.78l-.15.44Zm-11.42-5.07c-.23.05-.41-.05-.51-.23-.28-.65-.23-1.46-.46-2.16-.23-.73-.54-1.33-.97-1.95l.36-.23c.79.55,1.78,1.33,2.4,2.08.31.39.56.99.33,1.48-.28.55-.82.94-1.15,1.01Zm1.2-11.67c-.2.91-.36,1.79-.56,2.76h4.71c.18-.88.33-1.82.48-2.76h-4.64Zm15.34,3.3c1.27.31,2.52.7,3.54,1.51.46.36.61.91.46,1.48-.23.55-.54,1.17-1.07,1.48-.28.08-.43-.16-.59-.34-.59-1.33-1.35-2.65-2.52-3.67l.18-.47Zm5.35,4.68c-.38,1.9-1.1,3.61-1.17,5.64-.05,1.9.25,3.74.33,5.56.03.31-.23.52-.46.65-.74.23-1.43-.26-1.94-.78-.59-.57-.36-1.38-.23-2.08.23-1.27,1.04-2.99-.38-3.95-.43-.29-.99-.36-1.5-.49,0-.18.08-.36.05-.57.71.05,1.63.29,2.22-.21.53-.42.82-1.04,1.04-1.64l2.27-5.75c.41-1.07.84-2.08,1.17-3.2l.56.16-1.96,6.66Zm-3.57-10.27c1.4.39,2.93.73,3.9,2,.28.49.25,1.17,0,1.64-.25.36-.51,1.14-1.1.99l-.25-.16c-.66-1.46-1.48-2.96-2.75-4l.2-.47Zm9.48,6.79c.94,1.27,1.89,2.65,2.19,4.24.08.83-.31,1.56-.82,2.16-.18.13-.36.29-.61.26-.18,0-.33-.16-.36-.34.18-2.03,0-3.9-.64-5.64l-.1,4.63c-.05,2.18-.31,4.39-1.4,6.24-1.1,1.87-3.01,3.43-4.84,4.52-.15.08-.28.18-.43.21l-.33-.36c1.91-1.56,3.69-3.54,4.33-5.9.38-1.48.59-3.02.74-4.65l-.03-9.54-.1-2.89c.94.31,1.86.68,2.75,1.09.15.08.18.31.1.44-.25.23-.61.34-.76.68v4.97l.31-.1Zm-3.52,5.77c-.54.7-1.3,1.12-2.14.94-.15-.05-.36-.23-.38-.42-.25-.65.46-.99.69-1.51.97-1.33,1.58-2.81,1.61-4.55.18-.05.33-.1.51-.13.31,1.77.61,4.08-.28,5.67Zm8.23-5.62c1.07,1.33,2.12,2.65,2.45,4.26.2.96-.38,1.79-1.12,2.29-.2,0-.43-.05-.51-.26-.18-1.27-.18-2.57-.43-3.82-.15-.68-.33-1.33-.61-1.92l-.08,2.55.03,8.11.05,2.65c.03.16-.05.36-.2.42-.51.29-.97.39-1.4.57-.18.08-.33-.08-.38-.23l.05-3.41-.03-7.51-.03-7.18-.08-2.52c.97.36,1.73.65,2.57.99.15.08.18.36.05.47-.28.26-.64.47-.64.78v3.93l.31-.16Zm2.91,8.5V4.26l-.05-3.15c.89.29,1.78.6,2.65.99.15.08.23.26.1.44-.23.18-.64.49-.64.68v13.62l.05,6.42c0,.26-.1.47-.46.62-.51.21-.87.39-1.35.47-.18.05-.33-.13-.33-.29l.03-7.46Zm31.37,7.85c-1.3.18-2.29-.57-3.24-1.4-1.02-.91-2.01-2-2.57-3.25-2.32,2.13-5.02,3.64-7.93,4.5l-.2-.39c2.7-1.38,5.43-3.25,7.36-5.85-.38-1.25-.64-2.57-.79-3.9l-.59-5.3-.13-1.17h-4.56v3.43l1.68.03.76-.91c.13-.1.31-.13.48,0l1.63,1.14c.08.1.1.29.03.39-.31.23-.74.47-.71.88-.08,1.9-.18,3.69-.38,5.51-.03,1.25-1.27,2.08-2.27,2.5-.13-.94-.94-1.82-1.78-2.11,0-.16.1-.31.1-.47.56.1,1.15.31,1.76.26.33-.16.33-.49.38-.78l.36-4.42.05-1.22h-2.06c-.23,3.72-.48,7.51-3.49,9.93-1.35,1.09-2.85,1.87-4.36,2.6l-.28-.52c2.11-1.22,4.31-3.2,5.17-5.54.28-.78.51-1.61.66-2.44l-2.47,1.17-3.95,2.16c-.13.52-.48.57-.74.21l-.05-.1c-.31-.65-.59-1.3-.84-1.95,1.27-.34,2.22-.6,3.34-.94h.1l-.03-6.55h-1.27c-.33,0-.89.1-1.38.21l-.56-1.01c.99.03,2.17,0,3.19.03V3.85c0-.52-.13-1.46-.13-2.21,1.04.29,1.86.47,2.75.86.13.08.15.29.03.42-.28.23-.56.49-.66.91v5.36l.48-.03.89-1.22c.18-.23.43-.1.54.03l.99,1.04c0-1.01.03-2.34-.08-3.41.89.34,1.73.86,2.6,1.3h4.03l-.31-5.64c-.03-.13-.03-.31,0-.39.99.26,1.94.49,2.98.83.1.08.08.29,0,.42-.28.23-.64.31-.84.7,0,1.22.05,2.83.18,4.08h2.7l.92-1.48c.13-.1.31-.16.43-.05l1.99,1.77c.1.1.18.29.08.44l-.15.13h-5.91l.05.65.56,5.12c.08.7.23,1.43.31,2.13.54-.96.79-2.16,1.15-3.22.15-.94.38-1.85.38-2.83.89.34,1.76.75,2.57,1.2.1.08.13.23.05.34-.23.18-.59.18-.69.52-.64,2-1.2,3.87-2.29,5.85l-.33.6c.59,1.09,1.2,2.18,2.24,3.02.1.08.31.05.41,0l.28-.26c.43-1.14.82-2.29,1.2-3.43l.43.16c-.36,2.47-.79,4.45.08,6.4,0,.23-.1.44-.33.55Zm-17.58-14.51v6.01c.92-.23,1.86-.49,2.75-.75.15-1.74.2-3.41.18-5.25h-2.93Zm14.24-4.29c-.61-.03-.54-.73-.87-1.3-.33-.55-.61-1.04-1.2-1.38l.13-.44c.97.13,1.96.18,2.7.86.23.29.36.7.23,1.09-.2.47-.48,1.09-.99,1.17Zm31.31.31h-10.12v3.46l4.26-.03.87-1.07c.1-.13.31-.1.43-.03.79.47,1.48.91,2.12,1.43.08.08.05.23,0,.34l-.97,1.01c-.08,2.6-.03,5.59-.05,8.11,0,1.17-1.68,1.61-2.73,2.03-.25-.99-.74-1.9-1.66-2.34-.38-.18-.82-.36-1.22-.52l.03-.47c1.04.21,2.29.36,3.21.26l.18-.29v-7.64h-4.43v7.57l.05,5.28c0,.21,0,.36-.28.57-.54.31-1.27.6-1.78.65-.18,0-.31-.13-.31-.29l.03-4.13v-9.62l-4.41-.03-.03,5.36.05,4.26c0,.44-1.25.81-1.94,1.04-.15,0-.36-.05-.36-.23l.05-3.3-.03-6.92-.1-2.37c.94.36,1.76.88,2.65,1.35h4.08v-3.46h-7.49c-.82,0-1.07.18-1.73.29l-.82-1.12h11.11c-.64-1.64-1.33-3.12-2.75-4.37l.25-.34c1.07.31,2.62.73,3.57,1.3.56.36.92.78.99,1.3.05.88-.46,1.51-1.02,2.11h6.29l1.25-1.79c.08-.05.33-.08.43.03.92.7,1.66,1.38,2.42,2.18.1.16,0,.36-.1.42Zm22.6,10.63c-.56-.96-.99-1.56-1.73-2.31l.25-.34c1.6.78,3.34,1.74,4.43,3.33.56.81.25,2-.23,2.73-.2.34-.59.78-.99.78-.82-.1-.69-1.01-.82-1.59-.13-.62-.23-1.01-.48-1.59h-.13l-1.04.91-3.06,2.44-1.25,1.12c-.1.08-.25.03-.33-.05-.54-.73-1.07-1.56-1.43-2.34-.18-.39.92-.6.92-1.09V4.86l-.1-3.69c.84.36,1.61.78,2.4,1.22h3.82l1.12-1.17c.05-.08.31-.08.41-.03.59.49,1.15.94,1.66,1.46.28.29,0,.44-.64,1.01-.13.13-.2.29-.25.44l.03,5.93.05,2.24c.05.42-.92.88-1.68,1.17-.15.08-.33.1-.43.03l-.1-.18.03-1.51h-4.2v6.6l3.8-1.64v-.13Zm.41-9.28l-4.2-.03v3.69h4.2v-3.67Zm.03-4.16h-4.2v3.38h4.2v-3.38Zm12.56,11.31c0,1.59.08,2.18-.56,2.96-.59.68-1.33,1.12-2.17,1.25-.13-.73-.31-1.53-.99-1.98-.54-.34-1.15-.44-1.73-.6l.05-.52c.33,0,.66.1,1.02.13.61.08,1.33.16,1.96.08.31-.13.36-.68.36-1.33V3.2h-3.8v1.61l.03,15.76c0,.91,0,1.79.08,2.7-.03.16-.15.26-.28.34-.59.31-1.15.7-1.83.7-.33-.23-.13-.68-.15-1.01l.1-4.6-.03-12.95-.13-4.39.2.03c.74.31,1.45.68,2.17,1.07h3.36l.99-.99c.1-.13.38-.13.54,0,.64.52.97.78,1.66,1.38.13.08.13.29,0,.36-.48.36-.71.55-.84,1.01v10.27Zm16-2.05c3.77-1.48,7.64-4.45,9.71-8.22h-.1l-5.12-.03-.46.42c.97.57,2.8.88,2.6,2.5-.05.49-.31.88-.56,1.27-.18.13-.41.16-.61.13-.59-.36-.41-1.14-.71-1.69-.28-.65-.51-1.33-1.02-1.87-.76.57-1.5,1.25-2.24,1.79.84.36,1.76.78,2.29,1.56.31.65.15,1.51-.33,2-.08.13-.31.34-.56.34-.2,0-.41-.13-.48-.34-.31-1.14-.59-2.26-1.3-3.22l-.13.05c-.38.26-.84.57-1.25.78l-.36-.18-.03.47.03,10.14.15,4.55c0,.31-.05.49-.23.62-.46.39-1.17.62-1.48.73-.13.03-.33,0-.43-.1l-.13-.18.03-5.02v-5.15h-1.61c-.05,2.86-.64,5.64-2.47,7.83-.66.78-1.38,1.4-2.14,2.13-.15-.05-.28-.13-.43-.23,1.12-1.56,2.01-3.09,2.5-4.97.43-1.77.48-3.17.43-4.76h-.66c-.48.05-.94.21-1.4.31l-.71-1.12h6.47v-3.85h-2.22c-.13.21-.25.39-.48.75-.25.31-1.45-.57-2.24-1.07-.05-.13-.13-.31,0-.44.69-.6.61-.86.61-1.59v-3.64l-.15-1.46c.92.18,1.86.52,2.65.83.18.08.18.26.08.42-.18.18-.46.29-.59.52l.03,4.86h2.32V2.39l-.05-2c.87.23,1.71.42,2.68.78.18.08.15.29.1.42-.2.23-.54.34-.64.62l.03,5.36s.31-.26.33-.26c2.09-2.29,3.9-4.42,5.22-7.15.94.34,1.76.73,2.62,1.22.13.05.18.26.08.36-.25.21-.64.26-.92.36-.54.55-.92.88-1.38,1.3l4.46-.03c.36-.36.66-.62.94-.99.1-.08.25-.1.36,0,.69.42,1.27.86,1.89,1.35.13.13.1.31,0,.42-.41.29-.79.29-1.1.75-.99,1.43-2.09,2.73-3.29,3.77l.13.03c.87.36,1.2.47,2.01.86.51.26-.43.94-.43,1.22v2.52h.43l.99-1.59c.05-.13.33-.08.41,0,.76.6,1.35,1.2,2.04,1.9.08.1.03.26-.03.36l-.18.13h-3.64l-.03,4.76v2.86c0,1.38-1.71,2.11-2.75,2.55-.36-.78-.71-1.85-1.63-2.21-.54-.23-1.1-.47-1.66-.57l.08-.47c1.15.13,2.34.29,3.54.23.25-.05.38-.26.38-.88v-6.24l-.33-.03h-6.09c-.51,0-.99.1-1.55.21l-.59-1.01h8.49v-2.76l-.05-1.51c-2.24,1.72-5.07,2.94-7.67,3.85l-.46-.47Zm2.32,1.92c.56.23,1.12.62,1.63.99.66.62,1.35,1.43,1.1,2.44-.18.75-.48,1.12-.79,1.43-.23.16-.36.18-.54.1-.18,0-.31-.18-.38-.34-.25-1.51-.54-3.09-1.3-4.42l.28-.21Zm26.47,6.79c-.18.08-.38.08-.54.03l-.2-.21-.28-1.79-4.92,1.48c-.51.16-1.2.47-2.24.81-.23.34-.59.21-.66.05l-.84-2.08,2.09-.23,2.57-.31v-5.38h-1.38v1.46c0,.23-.13.39-.33.47-.41.23-.92.42-1.27.57-.15.03-.31-.08-.31-.23l.03-3.64v-4.65c0-.91-.03-1.79-.08-2.68.74.34,1.4.73,2.11,1.07h1.2v-3.64c0-.7-.03-1.4-.08-2.16l2.8.86c.18.05.15.36.03.44-.33.26-.89.73-.89.86v3.64h1.1l.66-.94c.13-.1.31-.08.41,0l1.76,1.3c.08.1.08.29-.03.39-.25.23-.76.62-.76.75l-.03,1.25.05,5.23c0,.16-.13.34-.2.36-.46.23-.76.36-1.27.55-.15.08-.31,0-.31-.1v-1.14h-1.38l-.03,5.2,1.99-.23c-.25-1.04-.64-2.08-1.25-2.96l.31-.26c1.12.96,1.99,1.72,2.73,2.63.41.52.64,1.33.36,1.95-.23.49-.51.91-.92,1.33Zm-5.05-14.56h-1.35v6.16h1.35v-6.16Zm3.24,0h-1.4v6.16h1.4v-6.16Zm15.09,15.57c-.36.42-.87.81-1.4.94-1.35.13-2.78.18-4.08,0-.56-.08-1.04-.49-1.3-1.04l-.08-.34v-8.29h-.82l-.13,1.14c-.33,2.91-1.17,5.9-3.82,7.57-1.43.88-2.98,1.53-4.59,2.03-.1-.1-.2-.31-.25-.47,2.29-.99,4.89-2.81,5.78-5.38.48-1.35.76-3.22.87-4.68-.1.26-.28.39-.43.44-.38.21-.76.42-1.17.55-.13-.03-.31-.05-.33-.21l.08-2.47-.03-5.23v-.62c.82.29,1.55.68,2.34,1.01h2.06c1.15-2.18,1.81-4.58,2.32-7.1,1.07.36,2.04.94,3.08,1.38.13.1.18.26.1.42l-.15.13-.89.31c-.43.6-.71,1.04-1.1,1.59-.79,1.07-1.63,2.24-2.52,3.28h1.71l.84-1.01c.1-.13.36-.1.51,0l1.89,1.35c.13.08.1.31.03.39-.36.36-1.02.86-1.02,1.04l.03,4.5c0,.18-.1.36-.25.47-.36.16-.84.34-1.33.49-.2.08-.46-.05-.46-.21l-.03-.7h-.38l-.03,7.44c0,.31.51.36,1.4.36.43,0,.89.08,1.22-.21.61-.52.56-.88.71-2.11l.25-2.08.46.03c0,1.38.18,2.63.46,3.2.18.47.56.88,1.02,1.09-.1.34-.38.68-.59,1.01Zm-8.61-16.12c-.13.16-.43.23-.66.13-.28-.21-.38-.7-.54-1.01-.66-1.48-1.35-2.76-2.45-4l.2-.34c.94.44,2.17,1.04,2.98,1.66.56.42,1.12.96,1.2,1.69,0,.75-.36,1.4-.74,1.87Zm4.1,1.82h-5.25v4.81h5.25v-4.81Zm11.77,3.33c0,1.46.23,3.17-1.07,4.11-.23.16-.51.23-.82.21-.28-.05-.56-.18-.61-.47-.2-.91.69-1.12,1.2-1.64.43-.62.74-1.46.84-2.18l.46-.03Zm21.05,11.67c-1.02.1-2.17.78-2.62,1.74-3.01-.57-5.89-1.43-8.51-2.91-3.52,1.92-7.54,2.55-11.75,2.78l-.1-.47c3.69-.55,7.24-1.35,10.35-3.38-1.12-.94-2.04-2.24-2.75-3.51h-.1c-1.68,1.77-3.72,3.38-5.78,4.58l-.33-.34c2.34-1.9,4.36-4.34,5.53-7.07.41.18.61.26.92.42l.46.23c.03-.86.05-1.2.05-1.64v-1.74c0-.47,0-.7-.05-1.72.84.29,1.2.39,1.91.73h1.83l.66-.88c.13-.16.31-.16.43-.05l1.53,1.17c.1.08.08.23-.03.34-.2.21-.56.34-.66.6-.03.99-.08,2.03.03,2.83.03.16-.05.29-.13.36-.23.21-.82.36-1.27.49-.25.08-.33-.03-.33-.18v-.86h-2.27c0,.31-.08.34-.48.49-.23.1-.46.18-.79.23.38.21.79.36.54.68-.25.13-.54.05-.76.26-.1.13-.2.23-.28.31h8.71l.94-1.07c.1-.16.33-.18.51-.03.51.39.94.81,1.68,1.4.15.21.03.44-.18.44h-3.21c-.94,1.2-1.94,2.63-3.26,3.56l.13.13c2.91,1.2,6.22,1.46,9.56,1.64l-.1.42Zm-19.06-16.69c-.89.13-1.43.23-2.29.55-.03.31-.43.36-.54.1l-.56-1.33c-.03-.1.05-.23.2-.23.99-.16,1.12-.65,1.66-1.64.54-.99.97-2.05,1.27-3.15.54.26.99.52,1.66.91.18.1.31.21.28.36-.03.21-.31.18-.51.29-.56.65-.79.99-1.22,1.51-.51.62-.87,1.12-1.43,1.72l2.14-.03c.43-.6.82-1.25,1.17-1.87.66.34,1.2.81,1.81,1.25.08.1.08.21,0,.31-.2.1-.51.08-.74.18-1.38,1.33-2.85,2.73-4.41,3.85,1.15.03,2.24,0,3.29-.16-.13-.44-.31-.81-.59-1.2l.23-.26c.84.44,1.96,1.01,2.14,2.08.03.83-.28,1.4-.92,1.46-.74-.13-.59-.86-.69-1.51-1.35.34-2.88.68-4.23,1.07-.05.42-.46.42-.59.18-.33-.6-.46-.86-.66-1.33-.05-.18-.03-.34.18-.36,1.17-.21,1.55-.7,2.52-1.82l.82-.94Zm-.51,4.71c.61.96,1.66,2.18.89,3.41-.23.34-.56.62-.97.62-.13-.03-.25-.13-.31-.26-.2-.65.25-2.55-.03-3.69l.41-.08Zm1.81-.26c.82.6,2.04,1.4,1.78,2.57-.15.39-.48.73-.89.94-.25.05-.41-.08-.54-.26-.13-1.09-.15-2.18-.71-3.12l.36-.13Zm10.7-6.84c.15.18.05.42-.15.44h-6.47c-.59,0-.79.13-1.48.26l-.74-.99h3.49c-.23-.94-.54-1.82-1.25-2.55l.2-.29c.97.26,2.06.47,2.65,1.4.23.47-.05,1.04-.36,1.43l1.27-.03.87-1.14c.03-.05.25-.1.36,0l1.61,1.46Zm-3.26,3.25c.08-.08.25-.05.36,0,.56.49.99.88,1.5,1.4.1.16,0,.39-.18.39h-4.31c-.31,0-.89.13-1.3.23l-.74-.99h3.85l.82-1.04Zm.18-2.26c.08-.08.28-.08.38,0,.56.49.99.88,1.5,1.4.1.16,0,.39-.18.39h-4.31c-.33,0-.89.13-1.33.21l-.71-.96h3.85l.79-1.04Zm-4.28,12.35c.79,1.07,1.78,2.03,2.96,2.65.92-.65,1.83-1.72,2.45-2.65h-5.4Zm3.69-5.8h-2.27v2.34h2.27v-2.34Zm4.46-.29c.2,1.2.51,3.22-.79,4-.36.21-.92.26-1.27-.03-.15-.18-.25-.42-.15-.65.13-.47.59-.6.92-1.01.56-.7.74-1.22.92-2.34l.38.03Zm1.71-4.86c-.89.13-1.43.23-2.29.55-.03.31-.46.36-.54.1l-.56-1.33c-.03-.1.03-.23.2-.23.97-.16,1.12-.65,1.66-1.64.51-.99.94-2.05,1.27-3.15.53.26.99.52,1.66.91.15.1.31.21.28.36-.05.21-.33.18-.51.29-.56.65-.79.99-1.22,1.51-.51.62-.89,1.12-1.45,1.72l2.17-.03c.43-.6.79-1.25,1.17-1.87.66.34,1.2.81,1.81,1.25.05.1.05.21,0,.31-.23.1-.51.08-.74.18-1.38,1.33-2.85,2.73-4.43,3.85,1.17.03,2.27,0,3.31-.16-.13-.44-.33-.81-.59-1.2l.23-.26c.84.44,1.96,1.01,2.14,2.08.03.83-.31,1.4-.92,1.46-.74-.13-.59-.86-.71-1.51-1.35.34-2.85.68-4.2,1.07-.05.42-.48.42-.61.18-.31-.6-.43-.86-.64-1.33-.05-.18-.05-.34.18-.34,1.15-.21,1.55-.73,2.52-1.85l.82-.94Zm-.03,4.63c.64.99,1.63,2.05,1.12,3.3-.18.34-.48.73-.87.75-1.02-.21-.41-1.09-.38-1.95,0-.68,0-1.38-.2-2l.33-.1Zm1.81.05c.87.68,2.17,1.53,2.17,2.5,0,.57-.2,1.14-.64,1.48-.18.08-.46.08-.64-.05l-.18-.26c-.13-1.25-.38-2.44-1.02-3.51l.31-.16ZM9.3,46.57v.68h-3.77v9.75h-1.75v-9.75H0v-.68h9.3Zm8.3,5.43v5h-1.75v-10.43h1.75v4.75h5.24v-4.75h1.75v10.43h-1.75v-5h-5.24Zm21.91-5.43v.68h-5.5v3.73h3.68v.68h-3.68v4.67h5.5v.68h-7.25v-10.43h7.25Zm23.16,0h1.75v9.75h5.25v.68h-7.01v-10.43Zm17.48-.24l4.91,10.66h-1.79l-1.59-3.48h-4.47l-1.64,3.48h-.88l5.02-10.66h.44Zm-2.63,6.51h3.84l-1.9-4.13-1.95,4.13Zm13.82-6.27h.98l6.83,7.63h.08v-7.63h.77v10.67h-.41l-7.41-8.48h-.06v8.23h-.79v-10.43Zm16.33,0h3.48c1.07,0,1.99.1,2.76.3.77.2,1.41.52,1.93.96.59.5,1.03,1.08,1.32,1.73.3.65.44,1.36.44,2.13s-.13,1.42-.4,2.07c-.26.64-.65,1.21-1.16,1.69-.51.48-1.14.86-1.9,1.14-.75.28-1.61.42-2.58.42h-3.89v-10.43Zm1.75,9.66h1.86c.59,0,1.14-.1,1.66-.29.52-.19.97-.48,1.36-.86.39-.38.69-.85.91-1.41.22-.56.33-1.2.33-1.94,0-.64-.1-1.24-.31-1.77-.21-.54-.5-1-.88-1.39-.38-.39-.83-.69-1.35-.9-.52-.22-1.09-.32-1.71-.32h-1.87v8.89Zm15.37-9.66h1.79l4.06,8h.09l3.98-8h1.76v10.43h-1.76v-8.55h-.06l-4.27,8.55h-.36l-4.32-8.48h-.12v8.48h-.79v-10.43Zm23.42-.24l4.91,10.66h-1.79l-1.59-3.48h-4.47l-1.64,3.48h-.88l5.02-10.66h.44Zm-2.63,6.51h3.84l-1.9-4.13-1.95,4.13Zm13.82-6.27h3.62c.62,0,1.17.07,1.64.2s.86.32,1.18.56c.31.24.55.53.71.86.16.33.24.7.24,1.09,0,.33-.06.63-.19.91-.12.28-.3.54-.52.77-.22.23-.49.42-.81.59s-.66.29-1.04.39l3.8,5.06h-2.04l-3.62-4.9h-1.23v4.9h-1.75v-10.43Zm1.75,5h1.01c.39,0,.76-.05,1.09-.16.33-.1.62-.25.87-.44.24-.19.43-.42.57-.7s.2-.58.2-.92c0-.31-.05-.6-.16-.87-.11-.26-.26-.49-.46-.67-.2-.19-.43-.33-.7-.44-.27-.1-.56-.16-.88-.16h-1.54v4.35Zm13.14-5h1.75v4.62l5.49-4.62h1.14l-5.21,4.39,6.6,6.04h-2.23l-5.79-5.29v5.29h-1.75v-10.43Zm32.32,0h1.75v10.43h-1.75v-10.43Zm12.83,10.01c.26,0,.51-.04.76-.11.25-.07.48-.18.68-.31s.36-.31.48-.51c.12-.2.18-.44.18-.7,0-.32-.08-.6-.25-.85s-.38-.48-.65-.68c-.27-.21-.57-.4-.92-.59-.34-.18-.69-.37-1.05-.55s-.71-.38-1.05-.58c-.34-.2-.65-.43-.92-.68-.27-.25-.48-.53-.65-.83s-.25-.66-.25-1.06.07-.77.22-1.11.37-.64.66-.88c.29-.25.64-.44,1.07-.59s.91-.21,1.45-.21c.49,0,.93.05,1.32.16.39.1.73.26,1.02.46s.54.46.75.75.37.64.5,1.04l-.9.41c-.1-.32-.24-.61-.4-.88-.16-.26-.36-.49-.58-.68-.23-.19-.49-.33-.78-.44-.3-.1-.63-.15-1-.15-.33,0-.62.05-.86.14-.25.09-.45.21-.62.36-.17.15-.29.32-.37.5s-.12.38-.12.57c0,.27.08.52.25.75.17.23.39.44.67.65.28.2.59.4.95.59.35.19.71.38,1.08.57.37.19.73.4,1.08.61.35.21.67.44.95.69s.5.52.67.82c.17.3.25.63.25,1,0,.41-.08.8-.24,1.17-.16.36-.39.68-.71.95-.31.27-.71.48-1.17.64-.47.16-1.01.24-1.63.24-.5,0-.95-.06-1.34-.17s-.74-.27-1.04-.48c-.3-.21-.56-.46-.77-.77-.21-.3-.39-.65-.53-1.03l.94-.39c.11.34.26.64.44.91s.4.49.65.68.52.33.82.43c.3.1.62.15.96.15Zm28.8-4.76c0,.73.11,1.38.33,1.96s.52,1.07.91,1.47.84.71,1.36.92c.52.21,1.09.32,1.71.32.37,0,.72-.07,1.06-.21s.66-.33.95-.55c.29-.23.55-.49.78-.77.23-.29.42-.58.57-.87l.74.47c-.21.35-.47.69-.76,1.01-.29.32-.63.61-1.02.86-.39.25-.82.45-1.31.59s-1.03.22-1.62.22c-.86,0-1.65-.14-2.35-.43-.71-.29-1.31-.68-1.81-1.17-.5-.49-.89-1.07-1.17-1.73-.28-.66-.41-1.35-.41-2.09,0-.49.06-.96.19-1.43.13-.46.31-.9.55-1.31.24-.41.53-.78.87-1.12.34-.34.73-.63,1.16-.87.43-.24.91-.43,1.42-.57s1.06-.2,1.64-.2,1.07.07,1.54.22c.47.15.9.35,1.28.59.39.25.73.53,1.03.85.3.32.56.66.77,1.01l-.76.5c-.44-.84-.92-1.46-1.46-1.85-.54-.39-1.16-.59-1.86-.59-.6,0-1.17.11-1.69.33-.52.22-.98.53-1.37.94-.39.41-.7.91-.92,1.49-.22.58-.33,1.24-.33,1.98Zm20.96,5.42c-.81,0-1.56-.14-2.26-.43-.7-.29-1.31-.68-1.82-1.18-.52-.5-.92-1.08-1.22-1.75-.3-.67-.44-1.38-.44-2.14,0-.5.07-.98.2-1.44.13-.46.32-.89.57-1.29.25-.4.54-.76.89-1.09.35-.33.74-.61,1.16-.84.42-.23.88-.41,1.38-.54.49-.13,1.01-.19,1.55-.19s1.06.06,1.55.19c.49.13.95.31,1.38.54.43.23.81.51,1.16.84.35.33.64.69.89,1.09.25.4.44.83.57,1.29.13.46.2.94.2,1.44s-.07.99-.2,1.46-.33.91-.57,1.32c-.25.41-.55.78-.89,1.12-.35.34-.73.62-1.16.87-.43.24-.89.43-1.38.56-.49.13-1.01.2-1.55.2Zm0-.51c.6,0,1.13-.12,1.58-.37.46-.25.85-.6,1.16-1.04.31-.45.55-.97.71-1.58.16-.61.24-1.27.24-2s-.08-1.38-.24-1.98c-.16-.6-.4-1.11-.71-1.55-.31-.43-.7-.77-1.16-1.01-.46-.24-.99-.36-1.58-.36s-1.14.12-1.6.36-.84.57-1.16,1.01c-.31.43-.55.95-.7,1.55-.16.6-.24,1.26-.24,1.98s.08,1.39.24,2,.39,1.14.7,1.58c.31.45.7.79,1.16,1.04.46.25.99.37,1.6.37Zm12.95-10.16h1.79l4.06,8h.09l3.98-8h1.76v10.43h-1.76v-8.55h-.06l-4.27,8.55h-.36l-4.32-8.48h-.12v8.48h-.79v-10.43Zm19.34,0h1.75v10.43h-1.75v-10.43Zm9.42,0h.98l6.83,7.63h.08v-7.63h.77v10.67h-.41l-7.41-8.48h-.06v8.23h-.79v-10.43Zm22.26.51c-.63,0-1.21.11-1.74.33-.53.22-.99.54-1.38.96-.39.42-.69.92-.9,1.51-.22.59-.32,1.25-.32,1.98s.12,1.4.35,1.99c.23.59.55,1.09.96,1.51s.88.73,1.44.96c.55.22,1.14.33,1.77.33.46,0,.87-.06,1.23-.19.37-.12.7-.3.99-.53v-3.66h-1.97v-.62h3.73v4.58c-.3.16-.61.31-.92.43s-.64.23-1,.31c-.36.08-.75.15-1.18.19-.43.04-.92.07-1.46.07-.58,0-1.12-.06-1.64-.19-.52-.13-1-.31-1.44-.55-.44-.24-.84-.52-1.2-.85-.36-.33-.66-.69-.91-1.09s-.44-.83-.58-1.28-.2-.93-.2-1.42.06-.96.19-1.43.31-.9.55-1.31c.24-.41.53-.79.88-1.13.35-.34.74-.63,1.17-.88.44-.25.91-.44,1.42-.57.51-.14,1.06-.2,1.64-.2s1.06.07,1.53.22c.47.15.9.35,1.28.59.39.25.73.53,1.03.85s.56.66.77,1.01l-.75.5c-.44-.84-.93-1.46-1.47-1.85-.54-.39-1.15-.59-1.85-.59Z"/>
  </g>
</svg>