<?xml version="1.0" encoding="UTF-8"?>
<svg id="b" data-name="圖層 2" xmlns="http://www.w3.org/2000/svg" viewBox="0 0 320.82 232.32">
  <defs>
    <style>
      .d {
        fill: #ff491b;
        stroke-width: 0px;
      }
    </style>
  </defs>
  <g id="c" data-name="圖層 1">
    <path class="d" d="m123.04,5.45c0,.72.11,1.37.33,1.95.22.58.52,1.06.9,1.46s.83.7,1.36.91c.52.21,1.09.32,1.7.32.36,0,.72-.07,1.05-.21.34-.14.65-.32.94-.55s.55-.48.78-.77c.23-.28.42-.57.56-.86l.73.47c-.21.35-.47.68-.76,1-.29.32-.63.6-1.01.85-.38.25-.82.44-1.3.59-.48.15-1.02.22-1.61.22-.86,0-1.64-.14-2.34-.43-.7-.29-1.3-.67-1.8-1.16-.5-.49-.89-1.06-1.16-1.71-.27-.65-.41-1.34-.41-2.07,0-.48.06-.96.19-1.42s.31-.89.54-1.3c.24-.4.53-.77.87-1.11.34-.34.73-.62,1.16-.87s.9-.43,1.41-.56c.51-.13,1.05-.2,1.63-.2s1.06.07,1.53.22c.47.15.89.35,1.27.59.38.24.72.53,1.02.85.3.32.56.66.77,1l-.76.5c-.43-.84-.92-1.45-1.45-1.84-.54-.39-1.15-.58-1.85-.58-.6,0-1.16.11-1.68.33-.52.22-.98.53-1.36.94-.39.41-.69.9-.91,1.48-.22.58-.33,1.24-.33,1.96ZM137.01.23h3.59c.62,0,1.16.07,1.63.2s.86.32,1.17.56c.31.24.55.52.71.86.16.33.24.69.24,1.08,0,.32-.06.62-.18.91-.12.28-.29.54-.52.76-.22.23-.49.42-.8.59s-.66.29-1.03.39l3.77,5.02h-2.02l-3.6-4.87h-1.22v4.87h-1.74V.23Zm1.74,4.97h1.01c.39,0,.75-.05,1.08-.16.33-.1.62-.25.86-.44.24-.19.43-.42.57-.69.14-.27.2-.58.2-.91,0-.31-.05-.6-.16-.86-.11-.26-.26-.48-.45-.67-.2-.18-.43-.33-.7-.43-.27-.1-.56-.16-.88-.16h-1.53v4.32ZM157.41.23v.67h-5.46v3.7h3.66v.67h-3.66v4.64h5.46v.67h-7.2V.23h7.2Zm9.3-.23l4.88,10.59h-1.77l-1.58-3.45h-4.45l-1.63,3.45h-.88l4.99-10.59h.44Zm-2.62,6.47h3.82l-1.88-4.1-1.94,4.1ZM184.37.23v.67h-3.75v9.69h-1.74V.91h-3.75V.23h9.24Zm12.11,0v.67h-5.46v3.7h3.66v.67h-3.66v4.64h5.46v.67h-7.2V.23h7.2ZM50.89,32.74l9.05,19.06,8.4-19.06h1.92l-10.88,24.52h-1.05l-11.69-24.52h4.25Zm26.39,0h4.03v23.96h-4.03v-23.96Zm22.09,23c.59,0,1.17-.08,1.75-.24s1.1-.4,1.55-.72c.46-.32.82-.71,1.1-1.17.28-.46.42-1,.42-1.62,0-.73-.19-1.39-.57-1.96-.38-.57-.88-1.1-1.49-1.57-.61-.48-1.32-.92-2.1-1.35-.79-.42-1.59-.84-2.41-1.26-.82-.42-1.62-.86-2.41-1.33-.79-.46-1.49-.98-2.1-1.55-.61-.57-1.11-1.21-1.49-1.92-.38-.7-.57-1.51-.57-2.43s.17-1.76.52-2.55c.34-.78.85-1.46,1.51-2.03.66-.57,1.48-1.02,2.45-1.35.97-.33,2.08-.49,3.33-.49,1.13,0,2.14.12,3.04.36.89.24,1.67.6,2.35,1.07.67.47,1.25,1.05,1.72,1.73s.85,1.48,1.14,2.38l-2.06.94c-.24-.73-.55-1.41-.92-2.01-.37-.61-.82-1.13-1.34-1.56-.52-.43-1.12-.77-1.8-1-.68-.23-1.45-.35-2.3-.35-.76,0-1.42.11-1.99.32-.57.21-1.04.49-1.42.83-.38.34-.66.73-.85,1.16-.19.43-.28.86-.28,1.31,0,.63.19,1.2.58,1.73.39.52.9,1.02,1.54,1.48.64.46,1.36.91,2.18,1.35.81.43,1.64.87,2.48,1.32.84.45,1.67.91,2.48,1.39.81.48,1.54,1.01,2.18,1.58.64.57,1.15,1.2,1.54,1.88.39.68.58,1.44.58,2.29,0,.95-.18,1.85-.54,2.68-.36.84-.9,1.57-1.63,2.19-.72.62-1.62,1.11-2.69,1.47-1.07.36-2.32.54-3.74.54-1.16,0-2.19-.13-3.09-.38s-1.7-.62-2.39-1.1c-.69-.48-1.29-1.07-1.78-1.76-.49-.69-.9-1.48-1.21-2.38l2.15-.89c.25.78.59,1.48,1.02,2.1.43.61.92,1.14,1.49,1.56.57.43,1.2.76,1.89.98.69.23,1.43.34,2.21.34Zm17.61-23h4.03v23.96h-4.03v-23.96Zm26.39,24.52c-1.85,0-3.59-.33-5.19-.99-1.61-.66-3-1.57-4.19-2.72-1.19-1.15-2.12-2.49-2.8-4.03-.68-1.54-1.02-3.18-1.02-4.92,0-1.14.15-2.25.46-3.31.31-1.06.74-2.05,1.31-2.96.57-.92,1.25-1.75,2.05-2.5.8-.75,1.69-1.4,2.67-1.93.98-.54,2.03-.95,3.16-1.25,1.13-.29,2.32-.44,3.56-.44s2.43.15,3.56.44c1.13.3,2.19.71,3.17,1.25.98.54,1.87,1.18,2.67,1.93.79.75,1.48,1.59,2.05,2.5.57.92,1.01,1.9,1.32,2.96.31,1.06.46,2.16.46,3.31s-.15,2.27-.46,3.35c-.31,1.08-.75,2.09-1.32,3.03-.57.94-1.26,1.79-2.05,2.57-.79.77-1.68,1.43-2.67,1.99-.98.55-2.04.98-3.17,1.28-1.13.3-2.32.45-3.56.45Zm0-1.17c1.37,0,2.59-.29,3.64-.86,1.05-.57,1.94-1.37,2.66-2.4.72-1.02,1.27-2.24,1.64-3.63.37-1.4.55-2.93.55-4.59s-.18-3.16-.55-4.54c-.37-1.37-.91-2.56-1.64-3.55-.72-.99-1.61-1.77-2.66-2.31-1.05-.55-2.27-.82-3.64-.82s-2.62.27-3.68.82c-1.05.55-1.94,1.32-2.66,2.31-.72.99-1.26,2.18-1.62,3.55s-.54,2.89-.54,4.54.18,3.19.54,4.59.9,2.61,1.62,3.63c.72,1.02,1.6,1.82,2.66,2.4,1.05.57,2.28.86,3.68.86Zm22.34-23.34h2.26l15.7,17.52h.18v-17.52h1.77v24.52h-.94l-17.02-19.48h-.15v18.92h-1.81v-23.96Zm39.49-.54l11.27,24.5h-4.1l-3.65-7.99h-10.28l-3.78,7.99h-2.02l11.54-24.5h1.01Zm-6.05,14.96h8.83l-4.35-9.48-4.48,9.48Zm24.35-14.42h8.31c1.43,0,2.69.15,3.78.46s1.99.74,2.71,1.29c.72.55,1.27,1.21,1.64,1.98.37.76.55,1.6.55,2.5,0,.75-.14,1.45-.42,2.1-.28.65-.68,1.24-1.19,1.76-.51.52-1.13.98-1.85,1.35s-1.52.68-2.38.89l8.73,11.62h-4.68l-8.33-11.26h-2.82v11.26h-4.03v-23.96Zm4.03,11.49h2.33c.9,0,1.74-.12,2.5-.36.77-.24,1.43-.58,1.99-1.02.56-.44,1-.97,1.31-1.6.31-.63.47-1.33.47-2.11,0-.72-.12-1.39-.37-1.99-.25-.6-.6-1.12-1.05-1.54-.45-.43-.99-.76-1.61-1-.62-.24-1.3-.36-2.03-.36h-3.54v9.99Zm23.7-11.49l8.31,12.14,8.27-12.14h2.19l-9.29,13.6v10.35h-4.03v-9.97l-9.58-13.98h4.12Zm-171.57,45.25l4.88,10.59h-1.77l-1.58-3.45h-4.45l-1.63,3.45h-.88l4.99-10.59h.44Zm-2.62,6.47h3.82l-1.88-4.1-1.94,4.1Zm12.13-6.23h3.59c.62,0,1.16.07,1.63.2s.86.32,1.17.56c.31.24.55.52.71.86.16.33.24.69.24,1.08,0,.32-.06.62-.18.91s-.29.54-.52.76-.49.42-.8.59-.66.29-1.03.39l3.77,5.02h-2.02l-3.6-4.87h-1.22v4.87h-1.74v-10.36Zm1.74,4.97h1.01c.39,0,.75-.05,1.08-.16.33-.1.62-.25.86-.44.24-.19.43-.42.57-.69.14-.27.2-.58.2-.91,0-.31-.05-.6-.16-.86-.11-.26-.26-.48-.45-.67-.2-.18-.43-.33-.7-.43-.27-.1-.56-.16-.88-.16h-1.53v4.32Zm13.1.25c0,.72.11,1.37.33,1.95.22.58.52,1.06.9,1.46s.83.7,1.36.91c.52.21,1.09.32,1.7.32.36,0,.72-.07,1.05-.21.34-.14.65-.32.94-.55s.55-.48.78-.77c.23-.28.42-.57.56-.86l.73.47c-.21.35-.47.68-.76,1-.29.32-.63.6-1.01.85-.38.25-.82.44-1.3.59-.48.15-1.02.22-1.61.22-.86,0-1.64-.14-2.34-.43-.7-.29-1.3-.67-1.8-1.16-.5-.49-.89-1.06-1.16-1.71-.27-.65-.41-1.34-.41-2.07,0-.48.06-.96.19-1.42s.31-.89.54-1.3c.24-.4.53-.77.87-1.11.34-.34.73-.62,1.16-.87s.9-.43,1.41-.56c.51-.13,1.05-.2,1.63-.2s1.06.07,1.53.22c.47.15.89.35,1.27.59.38.24.72.53,1.02.85.3.32.56.66.77,1l-.76.5c-.43-.84-.92-1.45-1.45-1.84-.54-.39-1.15-.58-1.85-.58-.6,0-1.16.11-1.68.33-.52.22-.98.53-1.36.94-.39.41-.69.9-.91,1.48-.22.58-.33,1.24-.33,1.96Zm15.72.17v4.97h-1.74v-10.36h1.74v4.72h5.2v-4.72h1.74v10.36h-1.74v-4.97h-5.2Zm12.96-5.39h1.74v10.36h-1.74v-10.36Zm15.9,0v.67h-3.75v9.69h-1.74v-9.69h-3.75v-.67h9.24Zm12.11,0v.67h-5.46v3.7h3.66v.67h-3.66v4.64h5.46v.67h-7.2v-10.36h7.2Zm6.89,5.22c0,.72.11,1.37.33,1.95.22.58.52,1.06.9,1.46s.83.7,1.36.91c.52.21,1.09.32,1.7.32.36,0,.72-.07,1.05-.21.34-.14.65-.32.94-.55s.55-.48.78-.77c.23-.28.42-.57.56-.86l.73.47c-.21.35-.47.68-.76,1-.29.32-.63.6-1.01.85-.38.25-.82.44-1.3.59-.48.15-1.02.22-1.61.22-.86,0-1.64-.14-2.34-.43-.7-.29-1.3-.67-1.8-1.16-.5-.49-.89-1.06-1.16-1.71-.27-.65-.41-1.34-.41-2.07,0-.48.06-.96.19-1.42s.31-.89.54-1.3c.24-.4.53-.77.87-1.11.34-.34.73-.62,1.16-.87s.9-.43,1.41-.56c.51-.13,1.05-.2,1.63-.2s1.06.07,1.53.22c.47.15.89.35,1.27.59.38.24.72.53,1.02.85.3.32.56.66.77,1l-.76.5c-.43-.84-.92-1.45-1.45-1.84-.54-.39-1.15-.58-1.85-.58-.6,0-1.16.11-1.68.33-.52.22-.98.53-1.36.94-.39.41-.69.9-.91,1.48-.22.58-.33,1.24-.33,1.96Zm22.11-5.22v.67h-3.75v9.69h-1.74v-9.69h-3.75v-.67h9.24Zm4.75,0h1.74v6.73c0,.44.08.86.23,1.25.15.39.37.73.65,1.02.28.29.62.52,1.02.69.4.17.84.25,1.33.25s.94-.08,1.34-.25c.4-.17.73-.4,1.01-.69.28-.29.49-.63.64-1.02.15-.39.22-.8.22-1.25v-6.73h.77v6.73c0,.53-.09,1.03-.26,1.5s-.44.88-.81,1.23-.84.63-1.41.84-1.26.31-2.06.31c-.71,0-1.34-.1-1.89-.31s-1.01-.49-1.38-.84c-.37-.35-.65-.77-.84-1.25s-.29-.99-.29-1.53v-6.68Zm14.79,0h3.59c.62,0,1.16.07,1.63.2s.86.32,1.17.56c.31.24.55.52.71.86.16.33.24.69.24,1.08,0,.32-.06.62-.18.91s-.29.54-.52.76-.49.42-.8.59-.66.29-1.03.39l3.77,5.02h-2.02l-3.6-4.87h-1.22v4.87h-1.74v-10.36Zm1.74,4.97h1.01c.39,0,.75-.05,1.08-.16.33-.1.62-.25.86-.44.24-.19.43-.42.57-.69.14-.27.2-.58.2-.91,0-.31-.05-.6-.16-.86-.11-.26-.26-.48-.45-.67-.2-.18-.43-.33-.7-.43-.27-.1-.56-.16-.88-.16h-1.53v4.32Zm18.66-4.97v.67h-5.46v3.7h3.66v.67h-3.66v4.64h5.46v.67h-7.2v-10.36h7.2Zm8.64,9.95c.25,0,.51-.04.76-.11s.47-.17.67-.31c.2-.14.36-.31.48-.51.12-.2.18-.43.18-.7,0-.32-.08-.6-.25-.85-.16-.25-.38-.47-.64-.68-.27-.21-.57-.4-.91-.58-.34-.18-.69-.36-1.04-.55-.35-.18-.7-.37-1.04-.57-.34-.2-.64-.42-.91-.67-.27-.25-.48-.52-.64-.83s-.25-.65-.25-1.05.07-.76.22-1.1c.15-.34.37-.63.65-.88.29-.25.64-.44,1.06-.58.42-.14.9-.21,1.44-.21.49,0,.93.05,1.31.16.38.1.72.26,1.02.46.29.2.54.45.74.75s.37.64.49,1.03l-.89.41c-.1-.32-.24-.61-.4-.87-.16-.26-.35-.49-.58-.68-.22-.19-.48-.33-.78-.43-.29-.1-.63-.15-1-.15-.33,0-.62.05-.86.14-.25.09-.45.21-.61.36s-.29.32-.37.5c-.08.19-.12.37-.12.57,0,.27.08.52.25.75.17.23.39.44.66.64.28.2.59.39.94.58s.71.38,1.07.57c.36.19.72.39,1.07.6.35.21.67.44.94.68.28.25.5.52.66.81.17.29.25.62.25.99,0,.41-.08.8-.23,1.16-.16.36-.39.68-.7.95-.31.27-.7.48-1.16.64-.46.16-1,.23-1.62.23-.5,0-.95-.05-1.34-.16s-.74-.27-1.04-.48c-.3-.21-.56-.46-.77-.76-.21-.3-.39-.64-.52-1.03l.93-.38c.11.34.26.64.44.91.18.27.4.49.64.68.24.19.52.33.82.43.3.1.62.15.96.15ZM8.66,213.33v13.71l.07,4c0,.14-.04.18-.11.25-.51.34-1.12.62-1.65.74-.09,0-.25-.12-.27-.21l.04-4.62v-1.45l-.09-.07-3.23,2.07-1.9,1.22c0,.41-.42.46-.54.23l-.94-2.09.09-.07,2.01-.62,3.39-1.17,1.18-.44.02-.14v-5.75H2.32c-.6,0-1.2.14-1.76.25l-.56-.94h6.74v-4.81l-.07-2c.96.32,1.78.57,2.52.9.16.09.2.32.04.48-.22.18-.58.41-.58.53Zm10.22,17.34c-1.7.44-3.73.23-5.51.12-.65-.14-1.38-.23-1.67-.94l-.13-.58v-15.15l-.11-2.76c1,.32,1.72.55,2.57.9.16.07.2.32.09.39-.47.41-.65.53-.65.69v7.29c1.67-1.52,3.23-3.38,4.4-5.27.74.6,1.34,1.2,2.01,1.89.11.09.11.25.07.37-.18.23-.42-.02-.65.09l-.54.28c-1.72,1.33-3.44,2.62-5.29,3.63v6.94c0,.23.2.37.38.39,1.18.12,2.45.18,3.66.07.27-.09.49-.3.58-.58.36-1.29.51-2.46.74-4l.45.05c0,.97.07,2.21.31,3.2.13.53.69.94,1.16,1.13-.29.78-.96,1.72-1.85,1.86Zm21.37-9.01c-.18.05-.38.02-.51-.12-.54-.71-.87-1.54-1.45-2.23l-5.22.67c-2.86.37-5.71.6-7.83,1.24-.45.46-.78.25-.92-.07l-.65-1.59c-.04-.11.02-.23.07-.3.33-.16.78-.02,1.14-.16.4-.05.76-.21,1.07-.44,1.85-2.53,3.64-5.27,4.95-8.07.85.44,1.96,1.04,2.74,1.56.11.09.16.23.11.34l-.16.14c-.47.11-1.07-.05-1.36.44-1.72,2.09-3.59,4.28-5.6,6.05,1.7.02,3.12.02,5.06-.09l4.66-.3c.45-.02.94-.05,1.38-.14-1.2-1.52-2.68-2.78-4.17-3.93l.2-.32c1.85.74,3.57,1.7,5.29,2.74.76.62,1.67,1.2,1.9,2.46.04,1.03,0,1.7-.71,2.12Zm-2.28,2.21l-.07.21v3.54c0,1.45.02,1.75.04,3.01,0,.18-.02.3-.22.44-.36.21-.67.32-1.25.51-.16.05-.42.09-.42-.21v-1.7h-8.19v1.4c0,.16-.07.32-.29.41-.33.18-.83.44-1.2.57-.18.05-.38-.02-.4-.21l.04-3.84v-3.93l-.04-2.25c1.07.37,1.58.6,2.41.92h7.32l.85-1.17c.09-.12.31-.12.49,0,.62.39,1.41.94,1.65,1.13.16.11.2.23.07.39-.31.3-.58.51-.78.78Zm-1.94-.44h-8.14v5.54h8.14v-5.54Zm8.26-7.22c.89.18,1.81.48,2.54,1.04.51.39.65.9.49,1.47-.11.39-.45.85-.87.9-.27.02-.4-.25-.54-.41-.4-.99-.89-2-1.78-2.69l.16-.3Zm-.09,8.92c.62-.05,1.34.14,1.76-.41.49-1.22.87-2.44,1.21-3.73l1.07-4.12c.27-1.06.54-2.14.8-3.2l.42.16c-.42,2.14-.89,4.32-1.23,6.46l-.71,4.69c-.13,2.09.38,4.09.47,6.19-.02.21-.18.41-.36.53-.65.25-1.23-.25-1.65-.67-.6-.87-.07-1.89,0-2.83.04-.78.2-1.82-.56-2.28-.38-.23-.83-.3-1.23-.39v-.41Zm1.29-13.87c1.03.44,2.16.67,2.9,1.63.27.67-.02,1.38-.45,1.89-.13.11-.36.18-.51.07-.36-.39-.42-.87-.67-1.31-.4-.69-.8-1.43-1.47-1.91l.2-.37Zm4.39,8.74c.04.16.02.18.02.3.09,1.03.25,2.51-.78,3.06-.29.11-.67.14-.89-.05-.16-.14-.22-.32-.16-.53.18-.3.49-.58.69-.9.38-.58.69-1.22.8-1.93l.31.05Zm5.13-8.95c.71.25,1.67.76,1.72,1.68-.09.34-.25.76-.62.85l1.05.05.74-.94c.07-.05.22-.07.31-.02.36.37.62.74,1.03,1.2.07.16-.02.32-.16.32l-4.6.02c.04.09.09.23,0,.37-.65.11-1.05.71-1.72,1.36-.74.74-1.52,1.47-2.3,2.12.78,0,1.56.05,2.28-.07-.04-.37-.11-.74-.27-1.08l.25-.14c.62.57,1.54,1.33,1.16,2.32-.18.46-.38.76-.78.74-.13-.02-.22-.14-.29-.25-.09-.32.04-.67-.04-.99-1.03.3-1.83.39-2.83.74-.09.3-.33.23-.4.07-.18-.37-.31-.78-.42-1.15-.02-.09,0-.14.11-.16.47-.07.69-.14.83-.25.49-.64,1-1.26,1.43-1.96-.62.09-.89.23-1.43.39-.04.21-.31.25-.38.09l-.36-1.2c.02-.23.22-.11.45-.23.2-.14.25-.23.38-.46.58-1.08.87-2.35,1.16-3.54.62.28,1.14.62,1.72.97.04.07.04.18,0,.25-.16.11-.36.11-.54.21-.58.94-1.27,1.82-2.03,2.71.71,0,1.03.02,1.54,0,.4-.71.65-1.2.94-1.82.31.16.49.3.65.39h1.99c-.2-.46-.18-.87-.31-1.38-.09-.37-.27-.67-.47-.99l.25-.21Zm1.16,18.63c1.05.18,2.1.51,3.26.37.38-.09.69-.97.96-1.5l.27-.74-8.99-.07-.71.71c-.29.16-.47-.14-1.14-.71-.2-.16-.27-.25-.29-.41.04-.18.4-.21.6-.44.49-.74.87-1.52,1.2-2.3.45.18.85.55,1.27.8h7.14v-1.13h-8.12l-1.36.18-.45-.74h9.77l.69-.62c.07-.09.22-.07.38,0,.51.32.94.55,1.38.8.11.09.13.3.09.37-.25.3-.4.44-.67.69v1.06c0,.23-.07.37-.31.44-.4.14-.76.35-1.23.32-.25-.07-.18-.34-.18-.83h-7.23l-.71,1.24h8.86l.83-.76c.07-.07.25-.09.36,0l1.23,1.03c.07.07.11.21.04.32-.27.23-.62.3-.83.62-.49,1.26-.83,2.92-2.28,3.47-.4.16-.89.23-1.32.35-.16-.67-.54-1.4-1.25-1.66-.47-.16-.85-.34-1.38-.55l.11-.34Zm-5.11-9.82c.36.81,1,1.54.74,2.53-.18.37-.42.67-.83.71-.18.05-.33-.05-.4-.18l-.07-.23c-.02-.16.47-1.86.29-2.76l.27-.07Zm1.47-.11c.62.71,1.61,1.45,1.12,2.48-.16.32-.45.69-.85.67-.18-.05-.2-.25-.27-.41.04-.9.04-1.77-.25-2.62l.25-.11Zm2.79-3.79c-.38,0-.71.09-1.09.16l-.36-.74h2.5l.58-.69c.07-.05.22-.09.33.02l.87.9c.07.12.09.18.02.28l-.09.07h-2.77Zm.16,1.77c-.38,0-.71.09-1.09.16l-.36-.71h2.5l.56-.64c.07-.07.22-.16.36-.02l.87.87c.07.12.09.18.02.28l-.09.07h-2.77Zm-1.2,2.55c0-.62-.02-1.22-.07-1.89.54.21.98.46,1.49.71h.98l.51-.55c.09-.07.18-.09.31-.02.36.3.49.41.8.69.16.12.13.28.04.37l-.33.37v1.52c0,.32.02.62.04.87l.11-.02c.6-.71,1.09-1.52,1.18-2.48l.38.02c.04,1.13.31,2.58-.71,3.24-.25.07-.56.18-.8.05-.16-.07-.2-.25-.22-.41-.67.37-.96.51-1.18.44-.13-.07-.13-.18-.13-.37v-.57h-1.05v.44c0,.12-.02.23-.13.3-.33.23-.71.34-1.12.41-.09-.02-.09-.09-.16-.14.02-.53.04-1.04.04-1.52v-1.45Zm2.43-.62h-1.07v2.02h1.07v-2.02Zm5.35-2.9c.4.23.76.6,1.09.9.36.34.62.8.58,1.31-.09.37-.22.62-.58.87-.11.07-.36.05-.49,0-.29-.28-.18-.83-.27-1.17-1.18.12-1.92.39-3.06.71-.07.21-.33.28-.42.07-.18-.46-.31-.78-.45-1.17,0-.23.62-.05.85-.3.54-.64,1-1.29,1.41-2-.45.02-.96.21-1.41.32-.07.23-.38.3-.47.11-.22-.44-.38-.74-.49-1.1.02-.28.38-.14.54-.25.31-.18.29-.46.47-.74.51-1.04.87-2.16,1.18-3.27.56.3,1.09.6,1.65.97.04.12,0,.28-.13.32-.54.02-.69.64-1,.97-.45.62-.96,1.29-1.52,1.84.62.02,1.16.07,1.7-.02.36-.64.69-1.26.98-1.93h.09c.49.34,1.05.6,1.49.99.07.35-.33.3-.51.44-.96,1.13-2.01,2.39-3.15,3.38l-.13.12c.8,0,1.54,0,2.25-.09-.07-.37-.22-.76-.4-1.08l.2-.18Zm-.25,5.31c-.02.53-.4.83-.78,1.01-.13.07-.27-.02-.38-.07-.36-.37.02-.8,0-1.26.07-.67.02-1.29-.16-1.86.11-.05.2-.09.33-.09.49.69,1,1.43.98,2.28Zm.38-2.32c.67.57,1.45,1.13,1.65,2.02.07.51-.29.94-.67,1.22-.22.05-.47-.05-.49-.3-.13-.97-.31-1.98-.8-2.81l.31-.14Zm21.98,3.91c-.2.14-.51.34-.65.48l-.13.16v4.48c0,.71.04,1.33.09,2.05-.2.39-1.07.74-1.74.87-.11,0-.22-.07-.25-.23l.02-2.09h-8.46v1.72c0,.14-.09.21-.2.3-.38.23-.98.51-1.47.6-.13,0-.22-.09-.25-.21l.04-2.85v-3.98l-.16.07c-1.52.67-3.1,1.1-4.71,1.54l-.25-.39c1.67-.8,3.48-1.61,5.11-2.64l-.07-1.33,1.38.51c3.12-1.95,5.44-5.01,7.34-8.12l-5.87-.02c-.49.71-1.03,1.29-1.56,1.95,1.03.48,2.32,1.04,2.88,1.96.22.46.04,1.06-.16,1.47-.13.25-.38.6-.6.6-.74-.02-.74-.74-.96-1.33-.29-.83-.8-1.66-1.52-2.28-1.38,1.43-2.92,2.78-4.51,3.77l-.25-.28c2.83-2.87,5.09-6.19,6.49-9.77.78.39,1.65.67,2.36,1.2.07.09.09.23,0,.32-.31.25-.74.28-1,.67l-.65.94-.09.09h5.26l1.18-1.15c.09-.09.22-.02.31.02.67.53,1.34,1.04,1.94,1.7.07.07.11.3-.04.39-.31.23-.71.25-1.09.51-.83.78-1.27,1.61-2.05,2.6-1.49,1.93-3.3,3.66-5.24,5.08l6.54.05.85-1.01c.07-.09.18-.12.31-.02.65.41,1.23.76,1.85,1.24.11.12.07.25-.07.37Zm-2.65.09l-7.92.02-.54.25v4.67h8.46v-4.94Zm17.98-4.16h-4.31c.07,1.17.22,2.23.49,3.43.38,1.72.89,3.33,2.19,4.55.2.11.31-.05.33-.14.33-.83.6-1.7.91-2.62l.4.14c-.13,1.7-.65,3.5.04,5.13.11.28-.11.48-.33.51-.4,0-.8-.23-1.2-.39-2.41-1.5-3.55-4.28-4.08-6.97-.22-1.15-.4-2.53-.47-3.63h-2.59v7.5l3.06-1.54.22.37-3.77,3.7c-.02.35-.31.46-.42.48l-.2-.05-1.45-1.45c-.29-.28.02-.46.6-.83.13-.07.18-.37.18-.74v-11.43l-.13-2.62c.8.34,1.36.62,2.01.97,2.03-.51,3.9-1.31,5.76-2.25h.11c.78.69,1.29,1.22,2.05,1.93.07.12,0,.32-.13.32l-1.58-.07-2.14.34-.02,1.52.04,2.53.07.64h1.49l.94-1.38c.07-.12.27-.12.38,0,.56.58.94.99,1.65,1.72.09.14.07.28-.09.32Zm-7.18,11.01c-.29,0-.71.05-1,.21l-.51-.85h3.7l1.07-1.08c.42.51,1.76,1.72,1.23,1.72h-4.48Zm1.05-13.08l-.07-3.06c-.91.05-1.56.12-2.41.14v4.32h2.54l-.07-1.4Zm12.81-2.6c-.8,1.63-1.56,3.31-2.39,4.94.45.41,1,.81,1.45,1.29,1.2,1.26,2.34,2.78,1.92,4.62-.31,1.31-1.43,2.46-2.7,2.71-.04-.78-.4-1.63-1.21-1.93l-.89-.32.07-.46c.94-.05,2.23.32,2.68-.78.25-.87-.04-1.7-.36-2.46-.42-.99-1.12-1.82-1.85-2.6l.87-3.47c.2-.81.38-1.5.54-2.32l-2.5-.02.02,11.98.07,4.58c.04.21-.07.39-.25.46-.31.12-.8.35-1.34.55-.16.02-.33-.07-.33-.23l.02-5.17-.02-11.52-.07-2.16c.62.25,1.18.48,1.9.85h2.41l.78-1.06c.07-.07.31-.07.42.02.71.48,1.03.76,1.83,1.38.09.05.07.23,0,.3-.38.28-.85.37-1.07.83Zm6.6,7.66c-.74.53-1.14.92-1.99,1.66.04.37-.45.46-.56.28-.4-.6-.78-1.22-1.07-1.89,1.2-.51,2.41-1.06,3.59-1.61v-4.05h-1.52c-.27,0-.67.07-1.09.18l-.49-.85h3.08c0-2.3-.02-3.79-.11-5.63.92.23,1.9.53,2.72.83.13.09.18.25.09.37-.25.28-.85.53-.85.83v3.59l.51.02.58-1.15c.07-.11.29-.14.42-.02l1.49,1.47c.07.09.04.23-.04.32l-.11.05h-2.86v3.15l.18-.07,1.87-.97c.04.14.13.28.16.41l-2.19,1.59v6.28c0,2.48,0,3.26-.54,3.84-.56.39-1.18.67-1.85.83-.09-.99-.91-1.75-1.78-2.05l-.6-.21.02-.44,2.36.3c.22.02.58-.14.58-.37l-.02-6.69Zm2.94.07c-.13-.02-.2-.16-.31-.23,1.99-3.1,3.06-6.65,3.55-10.32l.09-.67c.04-.14.04-.34.07-.55.87.3,1.85.71,2.52,1.2.09.09.07.3-.02.37-.2.14-.54.28-.6.46-.36.9-.67,1.84-1,2.74h6.09l1.09-1.68c.04-.09.25-.14.38,0,.76.64,1.29,1.26,1.96,2.02.09.16.04.37-.18.37h-4.95v3.22l1.61-.02.67-1.22c.09-.16.31-.12.42-.02.71.51,1.16.92,1.81,1.56.07.07.09.23.02.3l-.16.11h-4.37v3.4h1.23l1.05-1.45c.09-.09.38-.09.45,0,.78.64,1.2,1.08,1.83,1.7.07.12.11.25.02.37l-.16.09h-4.42v4.02h2.21l.96-1.26c.07-.12.31-.16.49,0,.71.57,1.12.83,1.74,1.52.04.12.09.23.02.34l-.11.12h-9.88l-.02,1.77c0,.28-.13.37-.54.53l-.98.39c-.13,0-.29-.09-.27-.21.02-1.06.07-2.12.07-3.15l.02-8.46c-1.07,1.15-1.29,1.4-2.39,2.64Zm6.96-6.3h-2.86v3.22h2.86v-3.22Zm0,3.91h-2.86v3.43h2.86v-3.43Zm0,4.14h-2.86v4.02h2.86v-4.02Zm-.2-13.18c1.05.53,2.3.99,2.88,2.09.18.85-.56,1.54-1.2,1.95-.22.05-.49.02-.67-.12-.31-.39-.18-.92-.31-1.36-.16-.83-.36-1.7-.94-2.25l.25-.32Zm11.38,11.84c-.6,0-1.05.12-1.56.21l-.42-.92h8.81v-3.52h-4.69c-.47,0-.8.07-1.49.21l-.51-.92h6.69v-3.63l-4.46.32-3.21.09-.2-.48c4.51-.55,8.92-1.38,12.96-3.04l.89-.37c.58.41.96.69,1.41,1.22l.85.99c.07.16,0,.32-.16.37-.51-.12-1.07-.18-1.63-.14-1.47.34-2.99.55-4.51.83v3.84h3.12l.98-1.4c.11-.16.4-.18.58-.05.71.53,1.07,1.01,1.72,1.79.04.12,0,.23-.09.32l-.22.05h-6.09v3.52h5.33l1.07-1.59c.09-.09.36-.16.47-.02.74.64,1.18,1.13,1.83,1.89.11.16.04.39-.11.44h-8.57l-.02,1.13v5.57c0,1.1-1.29,1.49-2.12,1.93l-.54.21c-.11-.16-.2-.57-.27-.78-.62-1.31-1.63-1.75-2.74-2.02l.09-.53c1.07.14,2.14.28,3.26.25.16-.02.38-.18.38-.37v-5.38h-6.83Zm43.75-4.78c-.22,0-.42-.12-.51-.3-.49-1.31-1.23-2.97-2.34-4.16-.89,1.66-1.76,3.06-2.99,4.76-.65.87-1.36,1.7-2.16,2.48-.11-.05-.22-.12-.33-.21,1.99-3.17,3.59-6.74,4.31-10.19.91.28,1.49.51,2.43.92.11.07.16.25.09.39-.11.12-.29.09-.42.16-.42.28-.49.74-.71,1.13l.13.09c1.34.92,3.66,1.79,3.3,3.91-.13.51-.31.92-.78,1.01Zm.09,4.3c-1.09,1.22-2.07,2.48-3.08,3.77.78.76,1.56,1.63,1.29,2.8-.09.44-.38.92-.78,1.08-.18.02-.36.02-.51-.12-.31-.51-.45-1.08-.71-1.63-.67-1.36-1.54-2.71-2.68-3.84l.13-.37c.98.37,1.83,1.01,2.72,1.59.62-1.2,1.23-2.6,1.67-3.7h-3.39c-.45,0-.96.12-1.41.25l-.65-.94h5.44l.69-.92c.11-.18.33-.18.54.02l1.23,1.26c.27.28-.25.46-.51.74Zm-2.63-1.68c-.13.09-.36.12-.51.07-.45-.32-.36-.97-.54-1.45-.27-.74-.36-1.2-1.05-2.07l.2-.34c1.05.48,2.43,1.17,2.57,2.51,0,.55-.31.99-.67,1.29Zm7.16,8l-.29.12c-1.96,1.2-3.99,2.23-6.18,2.87l-.25-.32c2.14-1.26,4.08-2.64,5.84-4.71.71.39,1.43,1.1,1.9,1.68.04.46-.71.21-1.03.37Zm7.14-15.71h-5.13c-.62.99-1.27,1.95-2.01,2.9l3.41.05.69-1.1c.16-.14.33.02.47.07.58.39,1.2.76,1.7,1.26.09.41-.42.44-.65.67l-.09.23v5.29l.04,3.5c0,.46,0,.62-.11.71-.49.39-.96.51-1.49.74-.38.07-.27-.37-.27-1.04h-5.13c0,.44-.13.48-.38.62-.42.18-.83.48-1.32.51-.09,0-.16-.12-.18-.21l.07-3.4-.02-3.79c0-1.84.04-3.27-.09-5.06.74.32,1.38.6,2.1,1.01h.42c.31-.94.47-1.98.6-2.94h-2.97c-.54,0-.96.07-1.47.21l-.56-.92h9.21l1.09-1.2c.09-.09.27-.09.42.05.33.25,1.23.92,1.81,1.52.13.18-.02.32-.18.34Zm-3.44,3.63h-5.13v2.23h5.13v-2.23Zm0,2.94h-5.13v2.35h5.13v-2.35Zm0,3.04h-5.13v2.94h5.13v-2.94Zm2.81,8.99c-.18.07-.36.02-.51-.09-1.36-1.7-3.03-3.29-4.97-4.05l.09-.48c1.54.25,2.99.69,4.31,1.43.76.41,1.52,1.06,1.54,2.09.02.55,0,.97-.45,1.1Zm10.98-15.91v13.89c0,.69-.42,1.59-1.18,1.91-.36.14-.67.34-1.07.39-.29-1.01-.8-1.61-1.87-1.96-.18-.07-.38-.11-.56-.16,0-.16.02-.3.02-.46.87.07,1.78.21,2.68.14.13-.07.2-.18.2-.34v-7.43l-3.26-.07c0,2.48-.33,5.45-1.49,7.7-.51,1.01-1.23,1.93-1.99,2.83l-.31-.21c1.61-2.76,1.9-5.7,1.99-8.85l.04-1.49c-.69,0-1.16.12-1.67.28l-.56-.92h2.21v-4.05l-.16-3.38c.69.21,1.32.44,1.96.74.16.05.22-.09.22-.16.13-1.17.16-2.12.16-3.45.85.21,1.67.53,2.45.87.09.07.09.28,0,.37-.29.18-.78.34-.91.6-.38.78-.65,1.29-.94,1.77l2.07-.02.71-.92c.09-.07.33-.07.42,0,.6.41,1.12.85,1.63,1.38.07.07.07.21,0,.28-.29.28-.8.48-.8.74Zm-1.78-.78h-3.23v6.03h3.23v-6.03Zm-1.32,5.22c-.11.09-.27.12-.4.07-.16-.07-.27-.18-.31-.34-.13-1.31-.51-2.51-.96-3.7l.38-.23,1.29,1.29c.42.58.87,1.17.65,1.95-.16.37-.36.67-.65.97Zm-.07,7.04c-.18,0-.33-.12-.42-.25-.22-1.36-.45-2.67-1-3.86l.36-.23c.89.85,2.23,1.79,1.96,3.22-.18.44-.42.94-.89,1.13Zm13.94,3.4c-.54.18-1.61.16-3.12.16-.49-.05-.98-.18-1.27-.69-.13-.39-.16-.83-.16-1.26l-.02-5.7-.02-3.45h-2.07c-.04,2.46-.11,4.92-.54,7.29-.31,1.79-1.41,3.15-2.79,4.32l-.96.67-.33-.34c1.45-1.49,2.43-3.29,2.57-5.52l.13-2.12v-3.86l-.07-2.12c.74.23,1.41.67,2.1,1.01h1.74l.85-1.08c.09-.09.29-.07.38,0,.71.48,1.16.83,1.76,1.33.07.16-.02.32-.16.37-.29.28-.8.34-.91.78v8.21c0,.18.13.39.4.39.51.02,1.14.09,1.41-.46.31-1.06.4-2.18.58-3.31l.45.02c-.04,1.17-.16,2.51.85,3.4l.36.32c-.2.62-.47,1.38-1.14,1.63Zm.54-14.4h-8.3c-.71,0-1.34.07-2.07.3l-.6-.97h7.63l1.16-1.66c.09-.09.31-.05.4.02.76.62,1.41,1.29,1.94,1.93.11.16,0,.37-.16.37Zm-5-1.89c-.29.39-.6,1.01-1.14.97-.67-.14-.51-.94-.76-1.42-.29-1.01-.71-1.96-1.38-2.83l.27-.37c1.09.44,2.32.87,3.1,1.95.29.51.22,1.24-.09,1.7Zm27.49,15.02c-1.09.21-2.43.64-2.77,1.93l-3.5-.16c-3.61-.16-7.23-.67-9.93-3.27-.36.39-.76.9-1.16,1.31-.96.97-1.99,1.79-3.06,2.53l-.31-.23c1.36-1.47,2.65-3.08,3.52-4.81-.89-1.5-1.47-3.15-1.87-4.88.11-.02.22-.12.36-.14.56,1.26,1.2,2.46,2.05,3.61.58-1.54.78-3.29.89-5.04h-1.61c-.45.55-.58.97-.91.78-.51-.3-.89-.55-1.36-.94-.11-.05-.11-.28.09-.41.27-.21.42-.34.54-.51,1.09-1.82,2.05-3.29,2.92-5.01l-2.32-.02c-.42,0-1.05.12-1.52.28l-.56-.94h4.22l.91-1.08c.02-.07.22-.07.33,0,.56.48.96.92,1.47,1.45.07.09.09.21.04.3-.36.37-.91.41-1.2.94-.96,1.75-1.61,2.99-2.45,4.48l1.38.02.54-.74c.09-.12.25-.12.4-.02l1.56,1.08c.11.05.16.28.04.37-.25.21-.58.51-.62.71-.31,1.95-.69,3.82-1.56,5.54,3.1,2.39,7.14,2.62,11.18,2.6,1.47-.02,2.92-.14,4.35-.28-.04.18-.07.34-.09.53Zm-.29-12.05h-2.99l.02,2.53c0,.12-.11.21-.29.28l-1.32.44c-.13,0-.27-.07-.27-.28v-.3h-2.54v1.96h2.25l.87-1.04c.07-.09.29-.09.4,0l1.45,1.31c.04.09.09.25,0,.32l-.09.09-4.89-.02v2.07h2.77l.89-1.29c.11-.09.25-.09.36-.02.62.53,1.18,1.01,1.67,1.66.07.14-.02.28-.16.32h-5.53c0,1.22.04,1.61.04,2.41.02.09-.04.21-.13.25-.4.21-1.16.51-1.47.58-.16.05-.27-.12-.29-.28.02-.46.04-.76.04-1.13v-1.82l-3.26-.02c-.49,0-1.07.12-1.36.21l-.49-.87,5.11-.02v-2.05l-2.28.02c-.38,0-.69.05-1.52.21l-.45-.9h4.24v-1.96h-1.87c-.49,0-.96.12-1.49.28l-.54-.94h3.9v-2h-3.57c-.38,0-1.09.14-1.61.25l-.56-.92h5.73v-1.91h-1.58c-.62,0-1.12.16-1.65.28l-.62-.97,3.86.02c.04-1.2-.09-2.18-.16-3.33.87.18,1.72.41,2.52.78.04.09.09.23.02.32-.18.18-.51.25-.56.55v1.61l2.41.05.62-.85c.07-.07.27-.12.38-.02l1.56,1.03c.31.3-.6.87-.6,1.06v1.38h.31l.89-1.29c.09-.07.29-.07.38-.02.51.55,1.12,1.01,1.56,1.63.02.14,0,.32-.16.34Zm-4.82-2.58h-2.52v1.91h2.52v-1.91Zm0,2.58h-2.52v2h2.52v-2Zm26.93,12.14c-1.07-.02-1.94.48-2.45,1.43-2.68-.99-5.33-2.88-6.8-5.57-.07,2.25-.02,3.89,0,5.82-.09.28-.27.3-.6.44l-1.12.34c-.11,0-.2-.07-.25-.18.07-1.61.11-3.4.07-5.04h-.09c-2.59,2.35-5.73,3.4-8.9,4.3l-.22-.34c.67-.3,1.12-.48,1.67-.76,2.21-1.06,4.39-2.55,6.07-4.62h-5.47l-1.2.18-.58-.83h8.7l.02-1.33c-.91.32-1.81.6-2.79.76l-.22-.34c1.83-.6,3.73-1.45,4.77-3.33-.69-.55-1.43-1.01-2.19-1.33l.18-.37c.83.21,1.61.44,2.39.74.13-.58.2-1.2.22-1.77h-.49c-.31,0-.65.14-.94.21l-.49-.85h4.97l.18-.21c-.31-.44-.31-1.01-.56-1.49-.16-.34-.22-.58-.49-.99h-1.72c-.83,1.08-1.81,1.98-2.81,2.9.22.32.38.44.27.58l-.11.07h-2.88l-.02,2.92c1.09-.07,2.19-.3,3.23-.51.07.12.13.28.07.41l-2.34.76-4.24,1.26-1.36.41c-.04.37-.47.32-.58.14l-.6-1.72c1.34-.18,2.77-.34,4.13-.51v-3.17l-1.49-.02c-.38.05-.78.09-1.14.16l-.49-.78h5.47l.8-.9c.09-.07.31-.07.42.02l.54.51.09-.09c.62-.78,1.23-1.66,1.67-2.46-.04-.02-.09-.05-.16-.05h-4.13c.54.37,1.29.8,1.25,1.63-.09.44-.47.83-.87,1.01-.11.05-.31.05-.4-.05-.22-.25-.27-.87-.4-1.27-.13-.44-.31-.92-.6-1.33h-1.16c-1.12,1.29-2.32,2.37-3.66,3.33l-.25-.3c1.81-1.89,3.26-4.19,4.04-6.67l.13-.02c.65.37,1.41.8,2.05,1.15.09.12.09.25-.07.39-.29.14-.67.28-.87.51l-.8.97h3.26l.83-1.08s.2-.09.27,0c.54.41,1.07.97,1.52,1.43.04.05.09.09.09.16.6-1.03,1-2.25,1.34-3.4.71.28,1.41.55,2.07.92.09.05.2.21.11.32-.27.16-.62.14-.8.48-.27.41-.56.85-.89,1.24l4.26.02.78-1.2c.11-.07.27-.12.38-.02.58.46,1.16.99,1.67,1.47.09.14.07.34-.09.37h-4.91c.51.35,1.14.6,1.36,1.22.11.44-.18.71-.4.94.67.39,1.09.55,1.34.83.27.39-.58.51-.65.94v2.99c0,.46.51.32,1.25.32.22-.02.42-.16.56-.39.33-.83.45-1.68.56-2.6l.45.05c-.07,1.06-.11,2.28.94,2.83-.18.8-.76,1.47-1.56,1.59-2.14,0-2.97.14-3.48-.37-.22-.18-.38-.44-.38-.74v-4.21l-1.45-.07c-.09.8-.13,1.66-.42,2.39.62.46,1.72.94,1.58,1.98-.02.28-.13.6-.38.74-.13.12-.31.05-.42,0l-1.41-1.4c-.2.05-.22.25-.36.37-.4.39-.8.64-1.25.94.36.16.71.23,1.07.39.25.58-.58.69-.58.92v.67h5.73l.98-1.13c.09-.07.25-.07.33-.02.58.48,1.12.92,1.65,1.45.09.09.07.32-.09.32l-.13.02h-7.65c.25.39.65.67.96.99,2.19,1.79,4.57,2.48,7.58,2.85l-.02.34Zm1.16.28c1.16-1.89,2.1-3.84,2.7-6.02l.13-.05,1.83,1.15c.13.09.11.3-.02.37-.33.18-.69.18-.85.6-.96,1.59-2.1,3.08-3.46,4.3l-.33-.35Zm6.96-2.28c0,1.24.07,2.28.04,3.66,0,.3-.16.46-.85.71l-.67.25-.2.05c-.13,0-.22-.07-.25-.23l.09-2.6.02-6.21h-2.16c-.2,0-.85.07-1.52.25l-.67-.97h4.35l-.02-2.28-2.65.02c-.42,0-.98.09-1.45.21l-.69-.92h5.87c.51-1.4.87-2.88,1.07-4.42h-4.46c-.36,0-.83.12-1.54.25l-.71-.97h4.55c-.07-1.08-.31-2.28-1.14-3.06l.22-.37c1,.35,2.23.62,2.74,1.72.25.53-.11,1.04-.42,1.45l-.25.25h2.01l.94-1.43c.09-.14.29-.16.4-.07.76.67,1.27,1.22,1.85,1.79.07.09.11.18.07.28-.02.11-.11.14-.31.14h-3.59l1.83.97c.11.05.11.25.07.34-.18.23-.56.09-.76.32-.54.92-1.09,1.88-1.76,2.76h1.72l.96-1.4s.22-.12.38-.02c.51.48,1.2,1.2,1.67,1.75.13.14.04.39-.13.39h-4.66v2.28h1.47l.94-1.22c.11-.14.31-.11.42-.02.27.25,1.07,1.01,1.56,1.47.18.21.2.32.11.41l-.13.07h-4.35v4.37Zm-4.35-12.14c.89.37,1.83.78,2.41,1.63.27.41.27,1.13.02,1.52-.22.35-.49.76-.91.76-.76-.09-.42-.92-.69-1.63-.27-.74-.4-1.17-1.05-2l.22-.28Zm4.89,8.51c.96.62,2.16,1.1,2.86,2.14.25.39.2,1.13-.02,1.49-.29.46-.65.76-.94.67-.47-.16-.47-.71-.69-1.33-.33-.94-.74-1.7-1.47-2.67l.27-.3Zm10.28,5.56l.02,1.77c.04.23-.04.37-.31.53-.71.34-1.03.46-1.47.48-.09-.07-.18-.18-.18-.37.04-1.13.04-1.4.04-2.21l.04-4.12v-6l-2.05-.02-.25,4.05c-.16,2.6-1.23,5.04-3.12,6.78-.49.46-.96.97-1.52,1.36-.09-.14-.29-.25-.27-.44,1.85-2.12,3.06-4.62,3.21-7.54l.09-1.59.02-5.33c0-1.29-.07-2.64-.13-3.93.71.28,1.45.62,2.14.94,1.58-.71,3.19-1.61,4.6-2.74.56.74,1.05,1.38,1.54,2.18.02.07.02.16-.02.23-.29.18-.58-.14-.91-.09-.42,0-.76.18-1.14.28-1.38.37-2.77.69-4.24.92v4.25h3.81l.94-1.52c.09-.09.31-.14.42,0,.45.44,1.09,1.17,1.52,1.7.09.12.07.25.02.35-.11.18-.62.16-.94.16h-1.9v4.71l.02,5.2Zm24.94.07c-.91.16-1.76.55-2.21,1.4l-.18.34-4.02-.11-3.88-.28c-1.76-.12-3.61-.18-5.06-1.26-1.18-.87-2.03-2.16-2.61-3.47-.69,2.05-1.43,3.77-2.57,5.45l-.36-.16c.96-2.62,1.74-5.4,1.83-8.28.02-.69-.02-1.49-.09-2.12.8.25,1.45.46,2.21.78.27.25-.27.51-.42.78-.11.28-.16.71-.2,1.04l-.11.69c-.04.32-.07.55-.13.83.36.71.76,1.38,1.29,1.98l.02.09.04-7.73-2.28-.02c-.47,0-.87.07-1.41.21l-.49-.87h3.73v-3.38l-1.43.02c-.4,0-.8.09-1.2.16l-.4-.85h3.06c.02-1.38-.02-2.67-.07-4,.76.21,1.58.37,2.32.69.11.02.13.25.02.34-.22.21-.54.32-.67.6l-.02,2.37h.33l.65-1.1c.09-.07.18-.09.27-.05.58.46,1.12.9,1.65,1.43.91-1.43,1.54-2.8,1.99-4.44l1.83.87c.13.05.16.28.02.32-.25.16-.47.23-.71.41-.16.28-.31.51-.54.83l6.11.02.65-.74c.11-.09.36-.07.42,0,.51.32.8.57,1.29.97.27.21-.33.57-.54.85l-.11.21c-.11,1.54-.31,2.99-.62,4.46-.2.9-1.43,1.43-2.34,1.66-.09-.32-.2-.62-.45-.87-.49-.48-1.14-.62-1.72-.87l.11-.37c.76.16,1.58.28,2.41.34.47-.09.47-.64.54-1.01.25-1.29.45-2.53.45-3.86v-.09h-6.67l-.65.9,1.2.39c.13.07.18.18.13.3-.16.28-.36.44-.36.67v1.1h.83c.16-.94.11-2.09-.02-3.17l1.99.58c.13.05.22.21.11.32-.45.34-.45.85-.58,1.79-.02.16-.02.28-.07.48h1.25v-1.26c0-.37-.02-.83-.04-1.22.67.09,1.32.32,1.96.53.07.05.13.18.02.25-.18.16-.49.25-.49.55-.02.57.02,1.22.04,1.79,0,.21-.36.3-.76.44-.38.11-.71.25-.71-.02v-.37h-1.45c-.11.39-.38,1.08-1.03,1.66.38.23.76.39,1.2.64.07.07.04.23,0,.3-.27.16-.62.14-.89.44h4.91c.27-.32.49-.55.74-.9.09-.09.25-.07.33,0,.56.32,1.09.69,1.58,1.1.13.48-.54.48-.67.85-.18.92-.11,1.86-.25,2.83-.13,1.06-.18,2-.47,3.04-.49,1.04-1.65,1.2-2.63,1.45-.2-1.13-1.34-1.5-2.25-1.79,0-.14.04-.28.09-.41.96.18,1.96.39,2.97.28.2-.12.33-.35.36-.55.27-1.73.51-3.5.49-5.2h-5.69c-.42.55-.8.85-1.34,1.43.29.18.67.28,1,.41.09.05.04.16.04.23-.13.16-.38.16-.45.39v.94h.98c.11-.99.16-2.07.02-3.13.71.12,1.34.35,1.99.6.13.09.11.21.04.3-.2.16-.47.25-.47.57,0,.62-.11,1.08-.11,1.66h1.14c.11-.87.02-1.63,0-2.48.69.21,1.27.44,1.92.67.18.3-.27.39-.4.57v1.08c0,.37.07.71.07,1.06,0,.21-.27.32-.62.46-.56.23-.89.32-.89.14v-.8h-1.32c-.2,1.04-.67,2.05-1.67,2.6-.87.48-1.81.76-2.79.94l-.22-.3c1.32-.69,2.99-1.54,3.21-3.24h-.83c-.4.48-.51.78-.78.64-.45-.32-.8-.62-1.16-1.08-.16-.25.49-.39.49-.76v-.69c-.54.46-1.23,1.1-1.87,1.52-.11,0-.2-.16-.29-.21.4-.51.94-1.01,1.34-1.54-.11,0-.2.02-.27.05l-2.52-.02v5.01c1.18.94,2.86.78,4.37.8l4.08.05,5.04-.18,1.41-.09-.09.44Zm-9.88-11.75c-.38.55-.49.64-.76.55-.47-.28-.85-.51-1.27-.85-.33-.25.54-.62.54-1.01v-1.22l-.09.07c-.56.67-1.2,1.36-1.83,1.93l-.36-.23c.45-.62.74-.99,1.05-1.59h-2.65v3.38h.89l.8-1.17c.11-.12.33-.12.42-.02.6.44,1.03.9,1.58,1.49l.04.16c0,.16-.07.21-.2.21h-3.1v3.38h.25l.74-.92c.07-.11.33-.16.47-.02.36.28.45.39.94.8.29.23.51.39.4.67.8-.94,1.43-1.93,1.9-2.97-.89.41-1.83.8-2.83,1.06l-.27-.34c.71-.34,1.41-.74,2.07-1.2.76-.55,1.58-1.33,1.9-2.16h-.62Zm21.22,4.23c-2.83.83-5.49,1.22-8.3,2.12-.07.34-.51.39-.6.12l-.58-1.77c1.54-.05,3.01-.12,4.46-.25l-.02-1.77h-1.38c-.4,0-.76.14-1.14.23l-.54-.87,3.08.02c.02-.74-.02-1.33-.02-2.12.71.18,1.45.37,2.14.64.31.32-.4.51-.4.71v.76l1-.02.65-.87c-.45-.12-.94-.28-1.12-.78-.09-.64-.02-1.52-.04-2.16h-3.15c.49.37.98.71,1.45,1.13.02.07.09.18.02.25-.29.23-.78,0-1.03.35-1.29.85-2.65,1.54-4.04,2.16l-.31-.3c1.34-1.06,2.61-2.12,3.48-3.59h-1.41c-.42,0-.8.11-1.2.18l-.4-.85,4.42.02v-1.59h-1.92c-.36,0-.83.07-1.2.16l-.54-.83h3.64l-.04-2.25,2.25.69c.09.05.13.21.07.3-.2.16-.58.37-.58.53v.74h1.52l.67-.94c.09-.18.29-.11.42.02.25.23.74.69,1.23,1.24.07.09.02.35-.16.35l-3.68-.02v1.59l1.65.02.76-1.06c.07-.07.18-.05.27-.02.51.48,1.05.85,1.49,1.4.09.12,0,.32-.13.32h-2.03c0,1.26-.07,1.7.29,1.7.6,0,.87-.07,1.2-.37.18-.18.33.05.85.78.09.14.22.3.16.48-.13.3-.45.39-.91.39h-1.41c.42.41.71.64,1.18,1.15.11.14.02.34-.16.34l-3.21-.02v1.56c1.41-.16,2.12-.23,3.21-.39l.09.39Zm.07,7.4c1.07.21,2.14.44,3.26.51.25.05.38-.14.49-.3.33-1.22.65-2.44.74-3.75l-4.31.02c-.74,1.66-1.81,3.29-3.46,4.16-1.96,1.04-4.08,1.63-6.38,1.89l-.09-.44c2.28-.48,4.28-1.13,6.07-2.78.85-.76,1.43-1.75,1.83-2.81l-4.48-.05-1.34.25-.51-.9h6.58c.16-.41.25-.85.31-1.31-.29.14-.58.25-1.14.46l-.27-.34c2.05-1.15,4.06-3.01,4.86-5.08-.49-.74-.83-1.22-1.56-2.05l.27-.28c.49.44,1.07.87,1.56,1.31.27-.83.31-1.63.4-2.51-1.03,0-1.16.02-1.92.16l-.36-.83h2.28c.09-1.31.02-2.48,0-3.84.78.28,1.65.39,2.41.78.09.09.07.25-.02.32-.16.16-.4.23-.47.46-.02.74-.11,1.49-.11,2.28h1l.74-.94c.07-.09.31-.14.47-.02.65.53.78.64,1.36,1.2.13.09.13.28.04.37-.27.25-.65.39-.76.76-.11,2.09-.31,4.21.83,5.96.09.07.25.07.36.02.4-.67.56-1.45.83-2.16l.2-.8.4.05c-.13,1.72-.65,3.75.09,5.36-.02.14-.07.3-.2.34-.96.14-1.72-.41-2.45-.92-1.78-1.63-1.96-4.09-1.83-6.39l.09-1.59.02-.53h-1.23c-.11.78-.16,1.22-.29,1.84-.13.64-.31,1.26-.54,1.86.6.64,1.27,1.45,1.61,2.3.13.53-.09,1.13-.42,1.52-.13.14-.38.14-.54.05-.31-.21-.36-.6-.54-.92-.25-.55-.47-1.1-.76-1.63l-.09.02c-.6.76-1.92,1.98-3.1,2.71l1.32.55c.07.07.13.18.07.3-.18.25-.54.14-.67.44l-.25.74h4.02l.85-1.01c.07-.07.25-.11.38,0,.51.44,1,.81,1.45,1.33.07.09.07.23,0,.3-.29.25-.67.25-.83.67-.16,1.15-.33,2.16-.62,3.27-.2.74-.4,1.2-.89,1.54-.71.48-1.41.64-2.25.78-.22-.74-.6-1.29-1.54-1.84l-1.07-.44.11-.41Zm-149.78-112.41h-1v71.81h1v-71.81Z"/>
  </g>
</svg>