<?xml version="1.0" encoding="UTF-8"?>
<svg id="b" data-name="圖層 2" xmlns="http://www.w3.org/2000/svg" viewBox="0 0 286.86 212.84">
  <defs>
    <style>
      .d {
        fill: #ff4214;
        stroke-width: 0px;
      }
    </style>
  </defs>
  <g id="c" data-name="圖層 1">
    <path class="d" d="m95.77,7c0,.93.14,1.76.42,2.5.28.74.67,1.36,1.16,1.88s1.07.9,1.74,1.17c.67.27,1.39.41,2.18.41.47,0,.92-.09,1.35-.27.44-.18.84-.42,1.21-.71.37-.29.7-.62,1-.98.29-.36.54-.73.72-1.11l.94.6c-.27.45-.6.88-.97,1.29-.38.41-.81.78-1.3,1.09-.49.32-1.05.57-1.67.76-.62.19-1.31.28-2.07.28-1.1,0-2.1-.18-3-.55-.9-.37-1.67-.87-2.31-1.5s-1.14-1.36-1.49-2.2c-.35-.84-.53-1.73-.53-2.66,0-.62.08-1.23.24-1.82.16-.59.39-1.15.7-1.67.3-.52.68-.99,1.11-1.42.44-.43.93-.8,1.48-1.11s1.16-.55,1.81-.72c.66-.17,1.35-.26,2.1-.26s1.36.1,1.96.29c.6.19,1.14.44,1.64.76.49.31.93.68,1.31,1.09.38.41.71.84.99,1.29l-.97.64c-.56-1.08-1.18-1.86-1.87-2.36-.69-.5-1.48-.75-2.38-.75-.77,0-1.49.14-2.16.42-.67.28-1.25.68-1.75,1.2-.5.52-.89,1.16-1.17,1.9-.28.75-.43,1.59-.43,2.52ZM113.72.3h4.62c.8,0,1.5.08,2.1.26.6.17,1.1.41,1.51.72.4.31.7.67.91,1.1s.31.89.31,1.39c0,.41-.08.8-.24,1.16-.16.36-.38.69-.66.98s-.63.54-1.03.75c-.4.21-.84.38-1.32.5l4.85,6.45h-2.6l-4.63-6.25h-1.56v6.25h-2.24V.3Zm2.24,6.38h1.29c.5,0,.96-.07,1.39-.2.42-.13.79-.32,1.1-.57s.55-.54.73-.89c.17-.35.26-.74.26-1.17,0-.4-.07-.77-.21-1.1-.14-.33-.33-.62-.58-.86-.25-.24-.55-.42-.89-.56-.34-.13-.72-.2-1.13-.2h-1.97v5.55ZM139.92.3v.86h-7.01v4.76h4.7v.86h-4.7v5.96h7.01v.86h-9.25V.3h9.25Zm11.95-.3l6.26,13.6h-2.28l-2.03-4.44h-5.71l-2.1,4.44h-1.12l6.41-13.6h.56Zm-3.36,8.31h4.91l-2.42-5.27-2.49,5.27ZM174.54.3v.86h-4.82v12.44h-2.24V1.16h-4.82V.3h11.87Zm15.55,0v.86h-7.01v4.76h4.7v.86h-4.7v5.96h7.01v.86h-9.25V.3h9.25ZM5.45,42.05l11.62,24.48,10.79-24.48h2.46l-13.97,31.49h-1.35L0,42.05h5.45Zm33.89,0h5.17v30.77h-5.17v-30.77Zm28.37,29.54c.76,0,1.51-.1,2.25-.31.74-.21,1.41-.52,2-.93.59-.41,1.06-.91,1.42-1.51.36-.6.53-1.29.53-2.08,0-.94-.24-1.78-.73-2.52-.49-.73-1.12-1.41-1.91-2.02-.79-.61-1.69-1.19-2.7-1.73-1.01-.54-2.05-1.08-3.1-1.62-1.05-.54-2.08-1.11-3.1-1.71s-1.91-1.26-2.7-2c-.79-.73-1.43-1.55-1.91-2.46-.49-.9-.73-1.94-.73-3.12s.22-2.27.66-3.27c.44-1.01,1.09-1.88,1.94-2.61.85-.73,1.9-1.31,3.14-1.73,1.24-.42,2.67-.63,4.28-.63,1.45,0,2.75.16,3.9.46,1.14.31,2.15.77,3.02,1.37.87.6,1.6,1.35,2.2,2.23.6.88,1.09,1.9,1.46,3.06l-2.65,1.21c-.31-.94-.7-1.81-1.18-2.59-.48-.78-1.05-1.45-1.72-2.01-.67-.56-1.43-.99-2.31-1.29s-1.86-.45-2.96-.45c-.97,0-1.83.14-2.55.41-.73.27-1.33.63-1.82,1.07-.49.44-.85.94-1.09,1.49s-.36,1.11-.36,1.68c0,.8.25,1.54.74,2.22s1.15,1.31,1.97,1.9c.82.6,1.75,1.17,2.8,1.73,1.04.56,2.11,1.12,3.19,1.69,1.08.57,2.15,1.17,3.19,1.79,1.04.62,1.98,1.3,2.8,2.03.82.74,1.48,1.54,1.97,2.41.49.87.74,1.85.74,2.94,0,1.22-.23,2.37-.7,3.45-.46,1.08-1.16,2.01-2.09,2.81s-2.08,1.43-3.46,1.89c-1.38.46-2.98.7-4.8.7-1.49,0-2.81-.16-3.97-.49-1.16-.33-2.19-.8-3.07-1.42-.89-.62-1.65-1.37-2.29-2.26-.63-.89-1.15-1.91-1.55-3.05l2.76-1.14c.33,1.01.76,1.9,1.31,2.69.55.79,1.19,1.46,1.91,2.01s1.54.97,2.42,1.26c.89.29,1.84.44,2.84.44Zm22.62-29.54h5.17v30.77h-5.17v-30.77Zm33.89,31.49c-2.38,0-4.61-.43-6.67-1.28s-3.86-2.01-5.38-3.49c-1.52-1.48-2.72-3.2-3.6-5.17s-1.31-4.08-1.31-6.32c0-1.47.2-2.88.59-4.25.39-1.36.96-2.63,1.68-3.81s1.6-2.25,2.63-3.21c1.03-.97,2.17-1.79,3.42-2.48,1.25-.69,2.61-1.22,4.06-1.6,1.45-.38,2.98-.57,4.57-.57s3.12.19,4.57.57c1.45.38,2.81.91,4.07,1.6,1.26.69,2.4,1.52,3.42,2.48,1.02.97,1.9,2.04,2.63,3.21.73,1.18,1.3,2.44,1.69,3.81.39,1.36.59,2.78.59,4.25s-.2,2.92-.59,4.3c-.39,1.38-.96,2.68-1.69,3.89-.73,1.21-1.61,2.3-2.63,3.29-1.02.99-2.16,1.84-3.42,2.55-1.26.71-2.62,1.26-4.07,1.65-1.45.39-2.98.58-4.57.58Zm0-1.51c1.76,0,3.32-.37,4.68-1.1s2.49-1.76,3.42-3.08,1.63-2.87,2.1-4.67c.47-1.8.71-3.76.71-5.9s-.24-4.06-.71-5.83c-.47-1.76-1.17-3.29-2.1-4.56-.93-1.28-2.07-2.27-3.42-2.97-1.35-.71-2.91-1.06-4.68-1.06s-3.37.35-4.72,1.06c-1.35.7-2.49,1.69-3.41,2.97-.92,1.28-1.61,2.8-2.08,4.56-.46,1.77-.7,3.71-.7,5.83s.23,4.1.7,5.9c.46,1.8,1.16,3.35,2.08,4.67s2.06,2.34,3.41,3.08,2.93,1.1,4.72,1.1Zm28.7-29.98h2.9l20.16,22.51h.23v-22.51h2.27v31.49h-1.21l-21.85-25.01h-.19v24.29h-2.32v-30.77Zm50.72-.7l14.48,31.46h-5.27l-4.69-10.25h-13.2l-4.85,10.25h-2.6l14.83-31.46h1.3Zm-7.77,19.21h11.35l-5.59-12.18-5.75,12.18Zm31.27-18.52h10.67c1.84,0,3.46.2,4.85.59s2.55.95,3.48,1.66c.93.71,1.63,1.56,2.1,2.54.47.98.71,2.05.71,3.21,0,.96-.18,1.86-.55,2.69-.36.83-.87,1.59-1.53,2.26-.66.67-1.45,1.25-2.38,1.74-.93.49-1.95.87-3.06,1.15l11.21,14.92h-6.01l-10.7-14.45h-3.62v14.45h-5.17v-30.77Zm5.17,14.76h2.99c1.16,0,2.23-.15,3.21-.46.98-.31,1.83-.75,2.55-1.31.72-.56,1.28-1.25,1.68-2.05.4-.8.6-1.71.6-2.71,0-.93-.16-1.78-.48-2.55-.32-.77-.77-1.43-1.35-1.98s-1.27-.98-2.06-1.29c-.8-.31-1.67-.46-2.61-.46h-4.55v12.83Zm30.44-14.76l10.67,15.59,10.63-15.59h2.81l-11.93,17.47v13.29h-5.17v-12.81l-12.3-17.96h5.29ZM40.07,100.17l6.26,13.61h-2.28l-2.03-4.44h-5.71l-2.1,4.44h-1.12l6.41-13.61h.56Zm-3.36,8.31h4.91l-2.42-5.27-2.49,5.27Zm15.58-8.01h4.62c.8,0,1.5.09,2.1.26.6.17,1.1.41,1.51.72s.7.67.91,1.1.31.89.31,1.39c0,.41-.08.8-.24,1.16-.16.36-.38.69-.66.98-.28.29-.63.54-1.03.75s-.84.38-1.32.5l4.85,6.45h-2.6l-4.63-6.25h-1.56v6.25h-2.24v-13.3Zm2.24,6.38h1.29c.5,0,.96-.07,1.39-.2.42-.13.79-.32,1.1-.57s.55-.54.73-.89c.17-.35.26-.74.26-1.17,0-.4-.07-.77-.21-1.1-.14-.33-.33-.62-.58-.86s-.55-.42-.89-.56c-.34-.13-.72-.2-1.13-.2h-1.97v5.55Zm16.82.32c0,.93.14,1.76.42,2.5.28.74.67,1.36,1.16,1.88s1.07.9,1.74,1.17c.67.27,1.39.41,2.18.41.47,0,.92-.09,1.35-.27.44-.18.84-.42,1.21-.71.37-.29.7-.62,1-.98.29-.36.54-.73.72-1.11l.94.6c-.27.45-.6.88-.97,1.29-.38.41-.81.78-1.3,1.09s-1.05.57-1.67.76c-.62.19-1.31.28-2.07.28-1.1,0-2.1-.18-3-.55-.9-.37-1.67-.87-2.31-1.5-.64-.63-1.14-1.36-1.49-2.2-.35-.84-.53-1.73-.53-2.66,0-.62.08-1.23.24-1.82.16-.59.39-1.15.7-1.67.3-.52.68-.99,1.11-1.42.44-.43.93-.8,1.48-1.11.55-.31,1.16-.55,1.81-.72.66-.17,1.35-.26,2.1-.26s1.36.1,1.96.29,1.14.44,1.64.76c.49.31.93.68,1.31,1.09.38.41.71.84.99,1.29l-.97.64c-.56-1.08-1.18-1.86-1.87-2.36-.69-.5-1.48-.75-2.38-.75-.77,0-1.49.14-2.16.42s-1.25.68-1.75,1.2c-.5.52-.89,1.16-1.17,1.9s-.43,1.59-.43,2.52Zm20.18.22v6.38h-2.24v-13.3h2.24v6.06h6.68v-6.06h2.24v13.3h-2.24v-6.38h-6.68Zm16.65-6.92h2.24v13.3h-2.24v-13.3Zm20.42,0v.86h-4.82v12.44h-2.24v-12.44h-4.82v-.86h11.87Zm15.55,0v.86h-7.01v4.76h4.7v.86h-4.7v5.96h7.01v.86h-9.25v-13.3h9.25Zm8.85,6.7c0,.93.14,1.76.42,2.5.28.74.67,1.36,1.16,1.88s1.07.9,1.74,1.17c.67.27,1.39.41,2.18.41.47,0,.92-.09,1.35-.27.44-.18.84-.42,1.21-.71.37-.29.7-.62,1-.98.29-.36.54-.73.72-1.11l.94.6c-.27.45-.6.88-.97,1.29-.38.41-.81.78-1.3,1.09s-1.05.57-1.67.76c-.62.19-1.31.28-2.07.28-1.1,0-2.1-.18-3-.55-.9-.37-1.67-.87-2.31-1.5-.64-.63-1.14-1.36-1.49-2.2-.35-.84-.53-1.73-.53-2.66,0-.62.08-1.23.24-1.82.16-.59.39-1.15.7-1.67.3-.52.68-.99,1.11-1.42.44-.43.93-.8,1.48-1.11.55-.31,1.16-.55,1.81-.72.66-.17,1.35-.26,2.1-.26s1.36.1,1.96.29,1.14.44,1.64.76c.49.31.93.68,1.31,1.09.38.41.71.84.99,1.29l-.97.64c-.56-1.08-1.18-1.86-1.87-2.36-.69-.5-1.48-.75-2.38-.75-.77,0-1.49.14-2.16.42s-1.25.68-1.75,1.2c-.5.52-.89,1.16-1.17,1.9s-.43,1.59-.43,2.52Zm28.4-6.7v.86h-4.82v12.44h-2.24v-12.44h-4.82v-.86h11.87Zm6.1,0h2.24v8.64c0,.57.1,1.1.29,1.6.19.5.47.93.83,1.31.36.37.8.67,1.31.89.51.22,1.08.33,1.71.33s1.21-.11,1.72-.33c.51-.22.94-.51,1.3-.89.36-.38.63-.81.82-1.31.19-.5.29-1.03.29-1.6v-8.64h.98v8.64c0,.68-.11,1.32-.33,1.93-.22.6-.57,1.13-1.04,1.58-.47.45-1.08.81-1.81,1.07-.74.26-1.62.4-2.65.4-.92,0-1.73-.13-2.43-.4s-1.3-.62-1.78-1.08c-.48-.46-.84-.99-1.08-1.6-.24-.61-.37-1.27-.37-1.96v-8.58Zm19,0h4.62c.8,0,1.5.09,2.1.26.6.17,1.1.41,1.51.72s.7.67.91,1.1.31.89.31,1.39c0,.41-.08.8-.24,1.16-.16.36-.38.69-.66.98-.28.29-.63.54-1.03.75s-.84.38-1.32.5l4.85,6.45h-2.6l-4.63-6.25h-1.56v6.25h-2.24v-13.3Zm2.24,6.38h1.29c.5,0,.96-.07,1.39-.2.42-.13.79-.32,1.1-.57s.55-.54.73-.89c.17-.35.26-.74.26-1.17,0-.4-.07-.77-.21-1.1-.14-.33-.33-.62-.58-.86s-.55-.42-.89-.56c-.34-.13-.72-.2-1.13-.2h-1.97v5.55Zm23.97-6.38v.86h-7.01v4.76h4.7v.86h-4.7v5.96h7.01v.86h-9.25v-13.3h9.25Zm11.09,12.77c.33,0,.65-.04.97-.14.32-.09.61-.22.86-.4.25-.18.46-.39.61-.65.15-.26.23-.56.23-.9,0-.41-.11-.77-.32-1.09-.21-.32-.49-.61-.83-.87-.34-.26-.73-.51-1.17-.75-.44-.23-.88-.47-1.34-.7-.45-.23-.9-.48-1.34-.74-.44-.26-.83-.54-1.17-.86-.34-.32-.62-.67-.83-1.06-.21-.39-.32-.84-.32-1.35s.1-.98.29-1.41c.19-.44.47-.81.84-1.13.37-.32.82-.57,1.36-.75.54-.18,1.16-.27,1.85-.27.63,0,1.19.07,1.69.2.49.13.93.33,1.3.59.37.26.69.58.95.96s.47.82.63,1.32l-1.14.52c-.13-.41-.3-.78-.51-1.12s-.45-.63-.74-.87c-.29-.24-.62-.43-1-.56s-.8-.2-1.28-.2c-.42,0-.79.06-1.1.18s-.58.27-.79.46c-.21.19-.37.4-.47.64-.1.24-.16.48-.16.73,0,.35.11.67.32.96.21.29.5.56.85.82.35.26.76.51,1.21.75s.91.48,1.38.73.93.51,1.38.77c.45.27.85.56,1.21.88.35.32.64.67.85,1.04.21.38.32.8.32,1.27,0,.53-.1,1.02-.3,1.49-.2.47-.5.87-.9,1.21-.4.34-.9.62-1.5.82s-1.29.3-2.08.3c-.64,0-1.21-.07-1.72-.21-.5-.14-.94-.34-1.33-.61-.38-.27-.71-.59-.99-.98-.27-.38-.5-.82-.67-1.32l1.19-.49c.14.44.33.82.57,1.16.24.34.51.63.83.87s.66.42,1.05.55c.38.13.79.19,1.23.19Zm-99.72,26.64h-1v72.96h1v-72.96Z"/>
  </g>
</svg>