<?xml version="1.0" encoding="UTF-8"?>
<svg id="b" data-name="圖層 2" xmlns="http://www.w3.org/2000/svg" viewBox="0 0 460.99 30.24">
  <defs>
    <style>
      .d {
        fill: #ff4214;
        stroke-width: 0px;
      }
    </style>
  </defs>
  <g id="c" data-name="圖層 1">
    <g>
      <path class="d" d="m12.17,3.81v19.07l.09,5.57c0,.19-.06.26-.16.35-.72.48-1.57.86-2.32,1.02-.12,0-.34-.16-.38-.29l.06-6.43v-2.02l-.13-.1-4.55,2.88-2.67,1.7c0,.58-.6.64-.75.32L.06,22.97l.13-.1,2.82-.86,4.77-1.63,1.66-.61.03-.19v-8H3.26c-.85,0-1.69.19-2.48.35l-.78-1.31h9.47V3.94l-.09-2.78c1.35.45,2.51.8,3.54,1.25.22.13.28.45.06.67-.31.26-.82.58-.82.74Zm14.36,24.13c-2.38.61-5.24.32-7.75.16-.91-.19-1.94-.32-2.35-1.31l-.19-.8V4.9l-.16-3.84c1.41.45,2.41.77,3.61,1.25.22.1.28.45.12.54-.66.58-.91.74-.91.96v10.14c2.35-2.11,4.55-4.7,6.18-7.33,1.03.83,1.88,1.66,2.82,2.62.16.13.16.35.09.51-.25.32-.6-.03-.91.13l-.75.38c-2.41,1.86-4.83,3.65-7.43,5.06v9.66c0,.32.28.51.53.54,1.66.16,3.45.26,5.14.1.38-.13.69-.42.81-.8.5-1.79.72-3.42,1.04-5.57l.63.06c0,1.34.09,3.07.44,4.45.19.74.97,1.31,1.63,1.57-.41,1.09-1.35,2.4-2.6,2.59Z"/>
      <path class="d" d="m57.2,15.39c-.25.06-.53.03-.72-.16-.75-.99-1.22-2.14-2.04-3.1l-7.34.93c-4.01.51-8.03.83-11.01,1.73-.63.64-1.1.35-1.29-.1l-.91-2.21c-.06-.16.03-.32.09-.42.47-.22,1.1-.03,1.6-.22.56-.06,1.07-.29,1.5-.61,2.6-3.52,5.11-7.33,6.96-11.23,1.19.61,2.76,1.44,3.86,2.18.16.13.22.32.16.48l-.22.19c-.66.16-1.5-.06-1.91.61-2.41,2.91-5.05,5.95-7.87,8.42,2.38.03,4.39.03,7.12-.13l6.55-.42c.63-.03,1.32-.06,1.94-.19-1.69-2.11-3.76-3.87-5.86-5.47l.28-.45c2.6,1.02,5.02,2.37,7.43,3.81,1.07.86,2.35,1.66,2.67,3.42.06,1.44,0,2.37-1,2.94Zm-3.2,3.07l-.09.29v4.93c0,2.02.03,2.43.06,4.19,0,.26-.03.42-.31.61-.5.29-.94.45-1.76.7-.22.06-.6.13-.6-.29v-2.37h-11.51v1.95c0,.22-.09.45-.41.58-.47.26-1.16.61-1.69.8-.25.06-.53-.03-.56-.29l.06-5.34v-5.47l-.06-3.14c1.51.51,2.23.83,3.39,1.28h10.29l1.19-1.63c.13-.16.44-.16.69,0,.88.54,1.98,1.31,2.32,1.57.22.16.28.32.09.54-.44.42-.82.7-1.1,1.09Zm-2.73-.61h-11.45v7.71h11.45v-7.71Z"/>
      <path class="d" d="m63.5,7.81c1.25.26,2.54.67,3.57,1.44.72.54.91,1.25.69,2.05-.16.54-.63,1.18-1.22,1.25-.38.03-.56-.35-.75-.58-.56-1.38-1.25-2.78-2.51-3.74l.22-.42Zm-.13,12.42c.88-.06,1.88.19,2.48-.58.69-1.7,1.22-3.39,1.69-5.18l1.5-5.73c.38-1.47.75-2.98,1.13-4.45l.6.22c-.6,2.98-1.25,6.02-1.72,8.99l-1,6.53c-.19,2.91.53,5.7.66,8.61-.03.29-.25.58-.5.74-.91.35-1.73-.35-2.32-.93-.85-1.22-.09-2.62,0-3.94.06-1.09.28-2.53-.78-3.17-.53-.32-1.16-.42-1.72-.54v-.58Zm1.82-19.29c1.44.61,3.04.93,4.08,2.27.38.93-.03,1.92-.63,2.62-.19.16-.5.26-.72.1-.5-.54-.6-1.22-.94-1.82-.56-.96-1.13-1.98-2.07-2.66l.28-.51Zm6.18,12.16c.06.22.03.26.03.42.13,1.44.34,3.49-1.1,4.26-.41.16-.94.19-1.25-.06-.22-.19-.31-.45-.22-.74.25-.42.69-.8.97-1.25.53-.8.97-1.7,1.13-2.69l.44.06Zm7.21-12.45c1,.35,2.35,1.06,2.41,2.34-.13.48-.35,1.06-.88,1.18l1.47.06,1.03-1.31c.09-.06.31-.1.44-.03.5.51.88,1.02,1.44,1.66.09.22-.03.45-.22.45l-6.46.03c.06.13.13.32,0,.51-.91.16-1.47.99-2.41,1.89-1.03,1.02-2.13,2.05-3.23,2.94,1.1,0,2.2.06,3.2-.1-.06-.51-.16-1.02-.38-1.5l.34-.19c.88.8,2.16,1.86,1.63,3.23-.25.64-.53,1.06-1.1,1.02-.19-.03-.31-.19-.41-.35-.13-.45.06-.93-.06-1.38-1.44.42-2.57.54-3.98,1.02-.13.42-.47.32-.56.1-.25-.51-.44-1.09-.6-1.6-.03-.13,0-.19.16-.22.66-.1.97-.19,1.16-.35.69-.9,1.41-1.76,2.01-2.72-.88.13-1.25.32-2.01.54-.06.29-.44.35-.53.13l-.5-1.66c.03-.32.31-.16.63-.32.28-.19.35-.32.53-.64.82-1.5,1.22-3.26,1.63-4.93.88.38,1.6.86,2.41,1.34.06.1.06.26,0,.35-.22.16-.5.16-.75.29-.82,1.31-1.79,2.53-2.85,3.78,1,0,1.44.03,2.16,0,.56-.99.91-1.66,1.32-2.53.44.22.69.42.91.54h2.79c-.28-.64-.25-1.22-.44-1.92-.13-.51-.38-.93-.66-1.38l.34-.29Zm1.63,25.92c1.47.26,2.95.7,4.58.51.53-.13.97-1.34,1.35-2.08l.38-1.02-12.64-.1-1,.99c-.41.22-.66-.19-1.6-.99-.28-.22-.38-.35-.41-.58.06-.26.56-.29.85-.61.69-1.02,1.22-2.11,1.69-3.2.63.26,1.19.77,1.79,1.12h10.03v-1.57h-11.41l-1.91.26-.63-1.02h13.73l.97-.86c.09-.13.31-.1.53,0,.72.45,1.32.77,1.94,1.12.16.13.19.42.13.51-.35.42-.56.61-.94.96v1.47c0,.32-.09.51-.44.61-.56.19-1.07.48-1.72.45-.34-.1-.25-.48-.25-1.15h-10.16l-1,1.73h12.45l1.16-1.06c.09-.1.35-.13.5,0l1.72,1.44c.09.1.16.29.06.45-.38.32-.88.42-1.16.86-.69,1.76-1.16,4.06-3.2,4.83-.56.22-1.25.32-1.85.48-.22-.93-.75-1.95-1.76-2.3-.66-.22-1.19-.48-1.94-.77l.16-.48Zm-7.18-13.66c.5,1.12,1.41,2.14,1.03,3.52-.25.51-.6.93-1.16.99-.25.06-.47-.06-.56-.26l-.09-.32c-.03-.22.66-2.59.41-3.84l.38-.1Zm2.07-.16c.88.99,2.26,2.02,1.57,3.46-.22.45-.63.96-1.19.93-.25-.06-.28-.35-.38-.58.06-1.25.06-2.46-.35-3.65l.35-.16Zm3.92-5.28c-.53,0-1,.13-1.54.22l-.5-1.02h3.51l.82-.96c.09-.06.31-.13.47.03l1.22,1.25c.09.16.13.26.03.38l-.13.1h-3.89Zm.22,2.46c-.53,0-1,.13-1.54.22l-.5-.99h3.51l.78-.9c.09-.1.31-.22.5-.03l1.22,1.22c.09.16.13.26.03.38l-.12.1h-3.89Zm-1.69,3.55c0-.86-.03-1.7-.09-2.62.75.29,1.38.64,2.1.99h1.38l.72-.77c.13-.1.25-.13.44-.03.5.42.69.58,1.13.96.22.16.19.38.06.51l-.47.51v2.11c0,.45.03.86.06,1.22l.16-.03c.85-.99,1.54-2.11,1.66-3.46l.53.03c.06,1.57.44,3.58-1,4.51-.34.1-.78.26-1.13.06-.22-.1-.28-.35-.31-.58-.94.51-1.35.7-1.66.61-.19-.1-.19-.26-.19-.51v-.8h-1.47v.61c0,.16-.03.32-.19.42-.47.32-1,.48-1.57.58-.13-.03-.13-.13-.22-.19.03-.74.06-1.44.06-2.11v-2.02Zm3.42-.86h-1.51v2.82h1.51v-2.82Zm7.53-4.03c.56.32,1.07.83,1.54,1.25.5.48.88,1.12.81,1.82-.12.51-.31.86-.81,1.22-.16.1-.5.06-.69,0-.41-.38-.25-1.15-.38-1.63-1.66.16-2.7.54-4.3.99-.09.29-.47.38-.6.1-.25-.64-.44-1.09-.63-1.63,0-.32.88-.06,1.19-.42.75-.9,1.41-1.79,1.98-2.78-.63.03-1.35.29-1.98.45-.09.32-.53.42-.66.16-.31-.61-.53-1.02-.69-1.54.03-.38.53-.19.75-.35.44-.26.41-.64.66-1.02.72-1.44,1.22-3.01,1.66-4.54.78.42,1.54.83,2.32,1.34.06.16,0,.38-.19.45-.75.03-.97.9-1.41,1.34-.63.86-1.35,1.79-2.13,2.56.88.03,1.63.1,2.38-.03.5-.9.97-1.76,1.38-2.69h.12c.69.48,1.47.83,2.1,1.38.09.48-.47.42-.72.61-1.35,1.57-2.82,3.33-4.42,4.7l-.19.16c1.13,0,2.16,0,3.17-.13-.09-.51-.31-1.06-.56-1.5l.28-.26Zm-.34,7.39c-.03.74-.56,1.15-1.1,1.41-.19.1-.38-.03-.53-.1-.5-.51.03-1.12,0-1.76.09-.93.03-1.79-.22-2.59.16-.06.28-.13.47-.13.69.96,1.41,1.98,1.38,3.17Zm.53-3.23c.94.8,2.04,1.57,2.32,2.82.09.7-.41,1.31-.94,1.7-.31.06-.66-.06-.69-.42-.19-1.34-.44-2.75-1.13-3.9l.44-.19Z"/>
      <path class="d" d="m120.2,18.17c-.28.19-.72.48-.91.67l-.19.22v6.24c0,.99.06,1.86.13,2.85-.28.54-1.51,1.02-2.45,1.22-.16,0-.31-.1-.35-.32l.03-2.91h-11.88v2.4c0,.19-.13.29-.28.42-.53.32-1.38.7-2.07.83-.19,0-.31-.13-.34-.29l.06-3.97v-5.54l-.22.1c-2.13.93-4.36,1.54-6.62,2.14l-.34-.54c2.35-1.12,4.89-2.24,7.18-3.68l-.09-1.86,1.94.7c4.39-2.72,7.65-6.98,10.32-11.29l-8.25-.03c-.69.99-1.44,1.79-2.19,2.72,1.44.67,3.26,1.44,4.04,2.72.31.64.06,1.47-.22,2.05-.19.35-.53.83-.85.83-1.03-.03-1.03-1.02-1.35-1.86-.41-1.15-1.13-2.3-2.13-3.17-1.94,1.98-4.11,3.87-6.33,5.25l-.34-.38c3.98-4,7.15-8.61,9.12-13.6,1.1.54,2.32.93,3.32,1.66.09.13.13.32,0,.45-.44.35-1.03.38-1.41.93l-.91,1.31-.13.13h7.4l1.66-1.6c.13-.13.31-.03.44.03.94.74,1.88,1.44,2.73,2.37.09.1.16.42-.06.54-.44.32-1,.35-1.54.7-1.16,1.09-1.79,2.24-2.88,3.62-2.1,2.69-4.64,5.09-7.37,7.07l9.19.06,1.19-1.41c.09-.13.25-.16.44-.03.91.58,1.72,1.06,2.6,1.73.16.16.09.35-.09.51Zm-3.73.13l-11.13.03-.75.35v6.5h11.88v-6.88Z"/>
      <path class="d" d="m142.37,12.51h-6.05c.09,1.63.31,3.1.69,4.77.53,2.4,1.25,4.64,3.07,6.34.28.16.44-.06.47-.19.47-1.15.85-2.37,1.29-3.65l.56.19c-.19,2.37-.91,4.86.06,7.14.16.38-.16.67-.47.7-.56,0-1.13-.32-1.69-.54-3.39-2.08-4.99-5.95-5.74-9.7-.31-1.6-.56-3.52-.66-5.06h-3.64v10.43l4.3-2.14.31.51-5.3,5.15c-.03.48-.44.64-.6.67l-.28-.06-2.04-2.02c-.41-.38.03-.64.85-1.15.19-.1.25-.51.25-1.02V6.98l-.19-3.65c1.13.48,1.91.86,2.82,1.34,2.85-.7,5.49-1.82,8.09-3.14h.16c1.1.96,1.82,1.7,2.88,2.69.09.16,0,.45-.19.45l-2.23-.1-3.01.48-.03,2.11.06,3.52.09.9h2.1l1.32-1.92c.09-.16.38-.16.53,0,.78.8,1.32,1.38,2.32,2.4.13.19.09.38-.13.45Zm-10.1,15.33c-.41,0-1,.06-1.41.29l-.72-1.18h5.21l1.51-1.5c.6.7,2.48,2.4,1.72,2.4h-6.3Zm1.47-18.21l-.09-4.26c-1.29.06-2.2.16-3.39.19v6.02h3.57l-.09-1.95Zm18-3.62c-1.13,2.27-2.2,4.61-3.36,6.88.63.58,1.41,1.12,2.04,1.79,1.69,1.76,3.29,3.87,2.7,6.43-.44,1.82-2.01,3.42-3.79,3.78-.06-1.09-.56-2.27-1.69-2.69l-1.25-.45.09-.64c1.32-.06,3.14.45,3.76-1.09.35-1.22-.06-2.37-.5-3.42-.6-1.38-1.57-2.53-2.6-3.62l1.22-4.83c.28-1.12.53-2.08.75-3.23l-3.51-.03.03,16.67.09,6.37c.06.29-.09.54-.35.64-.44.16-1.13.48-1.88.77-.22.03-.47-.1-.47-.32l.03-7.2-.03-16.03-.09-3.01c.88.35,1.66.67,2.67,1.18h3.39l1.1-1.47c.09-.1.44-.1.6.03,1,.67,1.44,1.06,2.57,1.92.13.06.09.32,0,.42-.53.38-1.19.51-1.5,1.15Z"/>
      <path class="d" d="m161.66,16.67c-1.03.74-1.6,1.28-2.79,2.3.06.51-.63.64-.78.38-.56-.83-1.1-1.7-1.5-2.62,1.69-.7,3.39-1.47,5.05-2.24v-5.63h-2.13c-.38,0-.94.1-1.54.26l-.69-1.18h4.33c0-3.2-.03-5.28-.16-7.84,1.29.32,2.67.74,3.83,1.15.19.13.25.35.13.51-.34.38-1.19.74-1.19,1.15v4.99l.72.03.82-1.6c.09-.16.41-.19.6-.03l2.1,2.05c.09.13.06.32-.06.45l-.16.06h-4.01v4.38l.25-.1,2.63-1.34c.06.19.19.38.22.58l-3.07,2.21v8.74c0,3.46,0,4.54-.75,5.34-.78.54-1.66.93-2.6,1.15-.13-1.38-1.29-2.43-2.51-2.85l-.85-.29.03-.61,3.32.42c.31.03.81-.19.81-.51l-.03-9.31Zm4.14.1c-.19-.03-.28-.22-.44-.32,2.79-4.32,4.3-9.25,4.99-14.37l.13-.93c.06-.19.06-.48.09-.77,1.22.42,2.6.99,3.54,1.66.13.13.09.42-.03.51-.28.19-.75.38-.85.64-.5,1.25-.94,2.56-1.41,3.81h8.56l1.54-2.34c.06-.13.35-.19.53,0,1.07.9,1.82,1.76,2.76,2.82.13.22.06.51-.25.51h-6.96v4.48l2.26-.03.94-1.7c.13-.22.44-.16.6-.03,1,.7,1.63,1.28,2.54,2.18.09.1.13.32.03.42l-.22.16h-6.15v4.74h1.72l1.47-2.02c.13-.13.53-.13.63,0,1.1.9,1.69,1.5,2.57,2.37.09.16.16.35.03.51l-.22.13h-6.21v5.6h3.1l1.35-1.76c.09-.16.44-.22.69,0,1,.8,1.57,1.15,2.45,2.11.06.16.13.32.03.48l-.16.16h-13.89l-.03,2.46c0,.38-.19.51-.75.74l-1.38.54c-.19,0-.41-.13-.38-.29.03-1.47.09-2.94.09-4.38l.03-11.78c-1.5,1.6-1.82,1.95-3.35,3.68Zm9.78-8.77h-4.01v4.48h4.01v-4.48Zm0,5.44h-4.01v4.77h4.01v-4.77Zm0,5.76h-4.01v5.6h4.01v-5.6Zm-.28-18.33c1.47.74,3.23,1.38,4.05,2.91.25,1.18-.78,2.14-1.69,2.72-.31.06-.69.03-.94-.16-.44-.54-.25-1.28-.44-1.89-.22-1.15-.5-2.37-1.32-3.14l.34-.45Z"/>
      <path class="d" d="m191.92,17.34c-.85,0-1.47.16-2.19.29l-.6-1.28h12.39v-4.9h-6.58c-.66,0-1.13.1-2.1.29l-.72-1.28h9.41v-5.06l-6.27.45-4.52.13-.28-.67c6.33-.77,12.54-1.92,18.22-4.22l1.25-.51c.82.58,1.35.96,1.98,1.7l1.19,1.38c.09.22,0,.45-.22.51-.72-.16-1.51-.26-2.29-.19-2.07.48-4.2.77-6.33,1.15v5.34h4.39l1.38-1.95c.16-.22.56-.26.81-.06,1,.74,1.51,1.41,2.41,2.5.06.16,0,.32-.13.45l-.31.06h-8.56v4.9h7.49l1.5-2.21c.13-.13.5-.22.66-.03,1.03.9,1.66,1.57,2.57,2.62.16.22.06.54-.16.61h-12.04l-.03,1.57v7.74c0,1.54-1.82,2.08-2.98,2.69l-.75.29c-.16-.22-.28-.8-.38-1.09-.88-1.82-2.29-2.43-3.86-2.82l.13-.74c1.5.19,3.01.38,4.58.35.22-.03.53-.26.53-.51v-7.49h-9.6Z"/>
      <path class="d" d="m255.93,10.69c-.31,0-.6-.16-.72-.42-.69-1.82-1.73-4.13-3.29-5.79-1.25,2.3-2.48,4.26-4.2,6.62-.91,1.22-1.91,2.37-3.04,3.46-.16-.06-.31-.16-.47-.29,2.79-4.42,5.05-9.38,6.05-14.17,1.29.38,2.1.7,3.42,1.28.16.1.22.35.13.54-.16.16-.41.13-.6.22-.6.38-.69,1.02-1,1.57l.19.13c1.88,1.28,5.14,2.5,4.64,5.44-.19.7-.44,1.28-1.1,1.41Zm.12,5.98c-1.54,1.7-2.92,3.46-4.33,5.25,1.1,1.06,2.2,2.27,1.82,3.9-.13.61-.53,1.28-1.1,1.5-.25.03-.5.03-.72-.16-.44-.7-.63-1.5-1-2.27-.94-1.89-2.16-3.78-3.76-5.34l.19-.51c1.38.51,2.57,1.41,3.83,2.21.88-1.66,1.72-3.62,2.35-5.15h-4.77c-.63,0-1.35.16-1.98.35l-.91-1.31h7.65l.97-1.28c.16-.26.47-.26.75.03l1.72,1.76c.38.38-.34.64-.72,1.02Zm-3.7-2.34c-.19.13-.5.16-.72.1-.63-.45-.5-1.34-.75-2.02-.38-1.02-.5-1.66-1.47-2.88l.28-.48c1.47.67,3.42,1.63,3.61,3.49,0,.77-.44,1.38-.94,1.79Zm10.07,11.13l-.41.16c-2.76,1.66-5.61,3.1-8.69,4l-.34-.45c3.01-1.76,5.74-3.68,8.22-6.56,1,.54,2.01,1.54,2.67,2.34.06.64-1,.29-1.44.51Zm10.03-21.85h-7.21c-.88,1.38-1.79,2.72-2.82,4.03l4.8.06.97-1.54c.22-.19.47.03.66.1.81.54,1.69,1.06,2.38,1.76.13.58-.6.61-.91.93l-.13.32v7.36l.06,4.86c0,.64,0,.86-.16.99-.69.54-1.35.7-2.1,1.02-.53.1-.38-.51-.38-1.44h-7.21c0,.61-.19.67-.53.86-.6.26-1.16.67-1.85.7-.13,0-.22-.16-.25-.29l.09-4.74-.03-5.28c0-2.56.06-4.54-.13-7.04,1.03.45,1.94.83,2.95,1.41h.6c.44-1.31.66-2.75.85-4.1h-4.17c-.75,0-1.35.1-2.07.29l-.78-1.28h12.95l1.54-1.66c.13-.13.38-.13.6.06.47.35,1.72,1.28,2.54,2.11.19.26-.03.45-.25.48Zm-4.83,5.06h-7.21v3.1h7.21v-3.1Zm0,4.1h-7.21v3.26h7.21v-3.26Zm0,4.22h-7.21v4.1h7.21v-4.1Zm3.95,12.51c-.25.1-.5.03-.72-.13-1.91-2.37-4.26-4.58-6.99-5.63l.13-.67c2.16.35,4.2.96,6.05,1.98,1.07.58,2.13,1.47,2.16,2.91.03.77,0,1.34-.63,1.54Z"/>
      <path class="d" d="m287.63,7.36v19.33c0,.96-.6,2.21-1.66,2.66-.5.19-.94.48-1.5.54-.41-1.41-1.13-2.24-2.63-2.72-.25-.1-.53-.16-.78-.22,0-.22.03-.42.03-.64,1.22.1,2.51.29,3.76.19.19-.1.28-.26.28-.48v-10.33l-4.58-.1c0,3.46-.47,7.58-2.1,10.72-.72,1.41-1.72,2.69-2.79,3.94l-.44-.29c2.26-3.84,2.67-7.94,2.79-12.32l.06-2.08c-.97,0-1.63.16-2.35.38l-.78-1.28h3.1v-5.63l-.22-4.7c.97.29,1.85.61,2.76,1.02.22.06.31-.13.31-.22.19-1.63.22-2.94.22-4.8,1.19.29,2.35.74,3.45,1.22.12.1.12.38,0,.51-.41.26-1.1.48-1.29.83-.53,1.09-.91,1.79-1.32,2.46l2.92-.03,1-1.28c.13-.1.47-.1.6,0,.85.58,1.57,1.18,2.29,1.92.09.1.09.29,0,.38-.41.38-1.13.67-1.13,1.02Zm-2.51-1.09h-4.55v8.38h4.55V6.27Zm-1.85,7.26c-.16.13-.38.16-.56.1-.22-.1-.38-.26-.44-.48-.19-1.82-.72-3.49-1.35-5.15l.53-.32,1.82,1.79c.6.8,1.22,1.63.91,2.72-.22.51-.5.93-.91,1.34Zm-.09,9.79c-.25,0-.47-.16-.6-.35-.31-1.89-.63-3.71-1.41-5.38l.5-.32c1.25,1.18,3.14,2.5,2.76,4.48-.25.61-.6,1.31-1.25,1.57Zm19.6,4.74c-.75.26-2.26.22-4.39.22-.69-.06-1.38-.26-1.79-.96-.19-.54-.22-1.15-.22-1.76l-.03-7.93-.03-4.8h-2.92c-.06,3.42-.16,6.85-.75,10.14-.44,2.5-1.98,4.38-3.92,6.02l-1.35.93-.47-.48c2.04-2.08,3.42-4.58,3.61-7.68l.19-2.94v-5.38l-.09-2.94c1.03.32,1.98.93,2.95,1.41h2.45l1.19-1.5c.13-.13.41-.1.53,0,1,.67,1.63,1.15,2.48,1.86.09.22-.03.45-.22.51-.41.38-1.13.48-1.29,1.09v11.42c0,.26.19.54.56.54.72.03,1.6.13,1.98-.64.44-1.47.56-3.04.82-4.61l.63.03c-.06,1.63-.22,3.49,1.19,4.74l.5.45c-.28.86-.66,1.92-1.6,2.27Zm.75-20.03h-11.67c-1,0-1.88.1-2.92.42l-.85-1.34h10.72l1.63-2.3c.13-.13.44-.06.56.03,1.07.86,1.98,1.79,2.73,2.69.16.22,0,.51-.22.51Zm-7.02-2.62c-.41.54-.85,1.41-1.6,1.34-.94-.19-.72-1.31-1.07-1.98-.41-1.41-1-2.72-1.94-3.94l.38-.51c1.54.61,3.26,1.22,4.36,2.72.41.7.31,1.73-.13,2.37Z"/>
      <path class="d" d="m335.77,26.3c-1.54.29-3.42.9-3.89,2.69l-4.92-.22c-5.08-.22-10.16-.93-13.95-4.54-.5.54-1.07,1.25-1.63,1.82-1.35,1.34-2.79,2.5-4.3,3.52l-.44-.32c1.91-2.05,3.73-4.29,4.95-6.69-1.25-2.08-2.07-4.38-2.63-6.78.16-.03.31-.16.5-.19.78,1.76,1.69,3.42,2.89,5.02.81-2.14,1.1-4.58,1.25-7.01h-2.26c-.63.77-.82,1.34-1.29,1.09-.72-.42-1.25-.77-1.91-1.31-.16-.06-.16-.38.13-.58.38-.29.6-.48.75-.7,1.54-2.53,2.89-4.58,4.11-6.98l-3.26-.03c-.6,0-1.47.16-2.13.38l-.78-1.31h5.93l1.29-1.5c.03-.1.31-.1.47,0,.78.67,1.35,1.28,2.07,2.02.09.13.13.29.06.42-.5.51-1.29.58-1.69,1.31-1.35,2.43-2.26,4.16-3.45,6.24l1.94.03.75-1.02c.13-.16.35-.16.56-.03l2.2,1.5c.16.06.22.38.06.51-.34.29-.82.7-.88.99-.44,2.72-.97,5.31-2.19,7.71,4.36,3.33,10.03,3.65,15.71,3.62,2.07-.03,4.11-.19,6.11-.38-.06.26-.09.48-.13.74Zm-.41-16.77h-4.2l.03,3.52c0,.16-.16.29-.41.38l-1.85.61c-.19,0-.38-.1-.38-.38v-.42h-3.57v2.72h3.17l1.22-1.44c.09-.13.41-.13.56,0l2.04,1.82c.06.13.12.35,0,.45l-.13.13-6.87-.03v2.88h3.89l1.25-1.79c.16-.13.34-.13.5-.03.88.74,1.66,1.41,2.35,2.3.09.19-.03.38-.22.45h-7.78c0,1.7.06,2.24.06,3.36.03.13-.06.29-.19.35-.56.29-1.63.7-2.07.8-.22.06-.38-.16-.41-.38.03-.64.06-1.06.06-1.57v-2.53l-4.58-.03c-.69,0-1.5.16-1.91.29l-.69-1.22,7.18-.03v-2.85l-3.2.03c-.53,0-.97.06-2.13.29l-.63-1.25h5.96v-2.72h-2.63c-.69,0-1.35.16-2.1.38l-.75-1.31h5.49v-2.78h-5.02c-.53,0-1.54.19-2.26.35l-.78-1.28h8.06v-2.66h-2.23c-.88,0-1.57.22-2.32.38l-.88-1.34,5.42.03c.06-1.66-.13-3.04-.22-4.64,1.22.26,2.41.58,3.54,1.09.06.13.13.32.03.45-.25.26-.72.35-.78.77v2.24l3.39.06.88-1.18c.09-.1.38-.16.53-.03l2.2,1.44c.44.42-.85,1.22-.85,1.47v1.92h.44l1.25-1.79c.13-.1.41-.1.53-.03.72.77,1.57,1.41,2.2,2.27.03.19,0,.45-.22.48Zm-6.77-3.58h-3.54v2.66h3.54v-2.66Zm0,3.58h-3.54v2.78h3.54v-2.78Z"/>
      <path class="d" d="m367.07,26.43c-1.51-.03-2.73.67-3.45,1.98-3.76-1.38-7.49-4-9.56-7.74-.09,3.14-.03,5.41,0,8.1-.13.38-.38.42-.85.61l-1.57.48c-.16,0-.28-.1-.34-.26.09-2.24.16-4.74.09-7.01h-.13c-3.64,3.26-8.06,4.74-12.51,5.98l-.31-.48c.94-.42,1.57-.67,2.35-1.06,3.1-1.47,6.18-3.55,8.53-6.43h-7.68l-1.69.26-.81-1.15h12.23l.03-1.86c-1.29.45-2.54.83-3.92,1.06l-.31-.48c2.57-.83,5.24-2.02,6.71-4.64-.97-.77-2.01-1.41-3.07-1.86l.25-.51c1.16.29,2.26.61,3.35,1.02.19-.8.28-1.66.31-2.46h-.69c-.44,0-.91.19-1.32.29l-.69-1.18h6.99l.25-.29c-.44-.61-.44-1.41-.78-2.08-.22-.48-.31-.8-.69-1.38h-2.41c-1.16,1.5-2.54,2.75-3.95,4.03.31.45.53.61.38.8l-.16.1h-4.04l-.03,4.06c1.54-.1,3.07-.42,4.55-.7.09.16.19.38.09.58l-3.29,1.06-5.96,1.76-1.91.58c-.06.51-.66.45-.82.19l-.85-2.4c1.88-.26,3.89-.48,5.8-.7v-4.42l-2.1-.03c-.53.06-1.1.13-1.6.22l-.69-1.09h7.68l1.13-1.25c.13-.1.44-.1.6.03l.75.7.13-.13c.88-1.09,1.72-2.3,2.35-3.42-.06-.03-.12-.06-.22-.06h-5.8c.75.51,1.82,1.12,1.76,2.27-.13.61-.66,1.15-1.22,1.41-.16.06-.44.06-.56-.06-.31-.35-.38-1.22-.56-1.76-.19-.61-.44-1.28-.85-1.86h-1.63c-1.57,1.79-3.26,3.3-5.14,4.64l-.34-.42c2.54-2.62,4.58-5.82,5.68-9.28l.19-.03c.91.51,1.98,1.12,2.88,1.6.13.16.13.35-.09.54-.41.19-.94.38-1.22.7l-1.13,1.34h4.58l1.16-1.5c.06-.06.28-.13.38,0,.75.58,1.51,1.34,2.13,1.98.06.06.13.13.13.22.85-1.44,1.41-3.14,1.88-4.74,1,.38,1.98.77,2.92,1.28.12.06.28.29.16.45-.38.22-.88.19-1.13.67-.38.58-.78,1.18-1.25,1.73l5.99.03,1.1-1.66c.16-.1.38-.16.53-.03.82.64,1.63,1.38,2.35,2.05.12.19.09.48-.13.51h-6.9c.72.48,1.6.83,1.91,1.7.16.61-.25.99-.56,1.31.94.54,1.54.77,1.88,1.15.38.54-.82.7-.91,1.31v4.16c0,.64.72.45,1.76.45.31-.03.6-.22.78-.54.47-1.15.63-2.34.78-3.62l.63.06c-.09,1.47-.16,3.17,1.32,3.94-.25,1.12-1.07,2.05-2.19,2.21-3.01,0-4.17.19-4.89-.51-.31-.26-.53-.61-.53-1.02v-5.86l-2.04-.1c-.13,1.12-.19,2.3-.6,3.33.88.64,2.41,1.31,2.23,2.75-.03.38-.19.83-.53,1.02-.19.16-.44.06-.6,0l-1.98-1.95c-.28.06-.31.35-.5.51-.56.54-1.13.9-1.76,1.31.5.22,1,.32,1.51.54.34.8-.82.96-.82,1.28v.93h8.06l1.38-1.57c.13-.1.34-.1.47-.03.82.67,1.57,1.28,2.32,2.02.13.13.09.45-.13.45l-.19.03h-10.76c.34.54.91.93,1.35,1.38,3.07,2.5,6.43,3.46,10.66,3.97l-.03.48Z"/>
      <path class="d" d="m369.33,26.81c1.63-2.62,2.95-5.34,3.79-8.38l.19-.06,2.57,1.6c.19.13.16.42-.03.51-.47.26-.97.26-1.19.83-1.35,2.21-2.95,4.29-4.86,5.98l-.47-.48Zm9.78-3.17c0,1.73.09,3.17.06,5.09,0,.42-.22.64-1.19.99l-.94.35-.28.06c-.19,0-.31-.1-.34-.32l.13-3.62.03-8.64h-3.04c-.28,0-1.19.1-2.13.35l-.94-1.34h6.11l-.03-3.17-3.73.03c-.6,0-1.38.13-2.04.29l-.97-1.28h8.25c.72-1.95,1.22-4,1.51-6.14h-6.27c-.5,0-1.16.16-2.16.35l-1-1.34h6.4c-.09-1.5-.44-3.17-1.6-4.26l.31-.51c1.41.48,3.14.86,3.86,2.4.34.74-.16,1.44-.6,2.02l-.34.35h2.82l1.32-1.98c.13-.19.41-.22.56-.1,1.07.93,1.79,1.7,2.6,2.5.09.13.16.26.09.38-.03.16-.16.19-.44.19h-5.05l2.57,1.34c.16.06.16.35.09.48-.25.32-.78.13-1.07.45-.75,1.28-1.54,2.62-2.48,3.84h2.41l1.35-1.95c.06-.06.31-.16.53-.03.72.67,1.69,1.66,2.35,2.43.19.19.06.54-.19.54h-6.55v3.17h2.07l1.32-1.7c.16-.19.44-.16.6-.03.38.35,1.51,1.41,2.2,2.05.25.29.28.45.16.58l-.19.1h-6.11v6.08Zm-6.11-16.89c1.25.51,2.57,1.09,3.39,2.27.38.58.38,1.57.03,2.11-.31.48-.69,1.06-1.29,1.06-1.07-.13-.6-1.28-.97-2.27-.38-1.02-.56-1.63-1.47-2.78l.31-.38Zm6.87,11.84c1.35.86,3.04,1.54,4.01,2.98.34.54.28,1.57-.03,2.08-.41.64-.91,1.06-1.32.93-.66-.22-.66-.99-.97-1.86-.47-1.31-1.03-2.37-2.07-3.71l.38-.42Zm14.46,7.74l.03,2.46c.06.32-.06.51-.44.74-1,.48-1.44.64-2.07.67-.13-.1-.25-.26-.25-.51.06-1.57.06-1.95.06-3.07l.06-5.73v-8.35l-2.88-.03-.35,5.63c-.22,3.62-1.72,7.01-4.39,9.44-.69.64-1.35,1.34-2.13,1.89-.13-.19-.41-.35-.38-.61,2.6-2.94,4.3-6.43,4.52-10.5l.12-2.21.03-7.42c0-1.79-.09-3.68-.19-5.47,1,.38,2.04.86,3.01,1.31,2.23-.99,4.48-2.24,6.46-3.81.78,1.02,1.47,1.92,2.16,3.04.03.1.03.22-.03.32-.41.26-.81-.19-1.29-.13-.6,0-1.07.26-1.6.38-1.94.51-3.89.96-5.96,1.28v5.92h5.36l1.32-2.11c.13-.13.44-.19.6,0,.63.61,1.54,1.63,2.13,2.37.13.16.09.35.03.48-.16.26-.88.22-1.32.22h-2.67v6.56l.03,7.23Z"/>
      <path class="d" d="m430,26.43c-1.29.22-2.48.77-3.1,1.95l-.25.48-5.64-.16-5.46-.38c-2.48-.16-5.08-.26-7.12-1.76-1.66-1.22-2.85-3.01-3.67-4.83-.97,2.85-2.01,5.25-3.61,7.58l-.5-.22c1.35-3.65,2.45-7.52,2.57-11.52.03-.96-.03-2.08-.13-2.94,1.13.35,2.04.64,3.1,1.09.38.35-.38.7-.6,1.09-.16.38-.22.99-.28,1.44l-.16.96c-.06.45-.09.77-.19,1.15.5.99,1.07,1.92,1.82,2.75l.03.13.06-10.75-3.2-.03c-.66,0-1.22.1-1.98.29l-.69-1.22h5.24v-4.7l-2.01.03c-.56,0-1.13.13-1.69.22l-.56-1.18h4.3c.03-1.92-.03-3.71-.09-5.57,1.07.29,2.23.51,3.26.96.16.03.19.35.03.48-.31.29-.75.45-.94.83l-.03,3.3h.47l.91-1.54c.13-.1.25-.13.38-.06.82.64,1.57,1.25,2.32,1.98,1.29-1.98,2.16-3.9,2.79-6.18l2.57,1.22c.19.06.22.38.03.45-.34.22-.66.32-1,.58-.22.38-.44.7-.75,1.15l8.59.03.91-1.02c.16-.13.5-.1.6,0,.72.45,1.13.8,1.82,1.34.38.29-.47.8-.75,1.18l-.16.29c-.16,2.14-.44,4.16-.88,6.21-.28,1.25-2.01,1.98-3.29,2.3-.13-.45-.28-.86-.63-1.22-.69-.67-1.6-.86-2.41-1.22l.16-.51c1.07.22,2.23.38,3.39.48.66-.13.66-.9.75-1.41.35-1.79.63-3.52.63-5.38v-.13h-9.38l-.91,1.25,1.69.54c.19.1.25.26.19.42-.22.38-.5.61-.5.93v1.54h1.16c.22-1.31.16-2.91-.03-4.42l2.79.8c.19.06.31.29.16.45-.63.48-.63,1.18-.81,2.5-.03.22-.03.38-.09.67h1.76v-1.76c0-.51-.03-1.15-.06-1.7.94.13,1.85.45,2.76.74.09.06.19.26.03.35-.25.22-.69.35-.69.77-.03.8.03,1.7.06,2.5,0,.29-.5.42-1.07.61-.53.16-1,.35-1-.03v-.51h-2.04c-.16.54-.53,1.5-1.44,2.3.53.32,1.07.54,1.69.9.09.1.06.32,0,.42-.38.22-.88.19-1.25.61h6.9c.38-.45.69-.77,1.03-1.25.13-.13.35-.1.47,0,.78.45,1.54.96,2.23,1.54.19.67-.75.67-.94,1.18-.25,1.28-.16,2.59-.35,3.94-.19,1.47-.25,2.78-.66,4.22-.69,1.44-2.32,1.66-3.7,2.02-.28-1.57-1.88-2.08-3.17-2.5,0-.19.06-.38.13-.58,1.35.26,2.76.54,4.17.38.28-.16.47-.48.5-.77.38-2.4.72-4.86.69-7.23h-8c-.6.77-1.13,1.18-1.88,1.98.41.26.94.38,1.41.58.13.06.06.22.06.32-.19.22-.53.22-.63.54v1.31h1.38c.16-1.38.22-2.88.03-4.35,1,.16,1.88.48,2.79.83.19.13.16.29.06.42-.28.22-.66.35-.66.8,0,.86-.16,1.5-.16,2.3h1.6c.16-1.22.03-2.27,0-3.46.97.29,1.79.61,2.7.93.25.42-.38.54-.56.8v1.5c0,.51.09.99.09,1.47,0,.29-.38.45-.88.64-.78.32-1.25.45-1.25.19v-1.12h-1.85c-.28,1.44-.94,2.85-2.35,3.62-1.22.67-2.54,1.06-3.92,1.31l-.31-.42c1.85-.96,4.2-2.14,4.52-4.51h-1.16c-.56.67-.72,1.09-1.1.9-.63-.45-1.13-.86-1.63-1.5-.22-.35.69-.54.69-1.06v-.96c-.75.64-1.72,1.54-2.63,2.11-.16,0-.28-.22-.41-.29.56-.7,1.32-1.41,1.88-2.14-.16,0-.28.03-.38.06l-3.54-.03v6.98c1.66,1.31,4.01,1.09,6.15,1.12l5.74.06,7.09-.26,1.98-.13-.13.61Zm-13.89-16.35c-.53.77-.69.9-1.07.77-.66-.38-1.19-.7-1.79-1.18-.47-.35.75-.86.75-1.41v-1.7l-.13.1c-.78.93-1.69,1.89-2.57,2.69l-.5-.32c.63-.86,1.03-1.38,1.47-2.21h-3.73v4.7h1.25l1.13-1.63c.16-.16.47-.16.6-.03.85.61,1.44,1.25,2.23,2.08l.06.22c0,.22-.09.29-.28.29h-4.36v4.7h.34l1.03-1.28c.09-.16.47-.22.66-.03.5.38.63.54,1.32,1.12.41.32.72.54.56.93,1.13-1.31,2.01-2.69,2.67-4.13-1.25.58-2.57,1.12-3.98,1.47l-.38-.48c1-.48,1.98-1.02,2.92-1.66,1.07-.77,2.23-1.86,2.67-3.01h-.88Z"/>
      <path class="d" d="m446.56,15.97c-3.98,1.15-7.71,1.7-11.67,2.94-.09.48-.72.54-.85.16l-.82-2.46c2.16-.06,4.23-.16,6.27-.35l-.03-2.46h-1.94c-.56,0-1.07.19-1.6.32l-.75-1.22,4.33.03c.03-1.02-.03-1.86-.03-2.94,1,.26,2.04.51,3.01.9.44.45-.56.7-.56.99v1.06l1.41-.03.91-1.22c-.63-.16-1.32-.38-1.57-1.09-.13-.9-.03-2.11-.06-3.01h-4.42c.69.51,1.38.99,2.04,1.57.03.1.13.26.03.35-.41.32-1.1,0-1.44.48-1.82,1.18-3.73,2.14-5.68,3.01l-.44-.42c1.88-1.47,3.67-2.94,4.89-4.99h-1.98c-.6,0-1.13.16-1.69.26l-.56-1.18,6.21.03v-2.21h-2.7c-.5,0-1.16.1-1.69.22l-.75-1.15h5.11l-.06-3.14,3.17.96c.13.06.19.29.09.42-.28.22-.82.51-.82.74v1.02h2.13l.94-1.31c.13-.26.41-.16.6.03.34.32,1.03.96,1.72,1.73.09.13.03.48-.22.48l-5.17-.03v2.21l2.32.03,1.07-1.47c.09-.1.25-.06.38-.03.72.67,1.47,1.18,2.1,1.95.13.16,0,.45-.19.45h-2.85c0,1.76-.09,2.37.41,2.37.85,0,1.22-.1,1.69-.51.25-.26.47.06,1.19,1.09.13.19.31.42.22.67-.19.42-.63.54-1.29.54h-1.98c.6.58,1,.9,1.66,1.6.16.19.03.48-.22.48l-4.52-.03v2.18c1.98-.22,2.98-.32,4.52-.54l.13.54Zm.09,10.3c1.51.29,3.01.61,4.58.7.35.06.53-.19.69-.42.47-1.7.91-3.39,1.03-5.22l-6.05.03c-1.03,2.3-2.54,4.58-4.86,5.79-2.76,1.44-5.74,2.27-8.97,2.62l-.13-.61c3.2-.67,6.02-1.57,8.53-3.87,1.19-1.06,2.01-2.43,2.57-3.9l-6.3-.06-1.88.35-.72-1.25h9.25c.22-.58.34-1.18.44-1.82-.41.19-.82.35-1.6.64l-.38-.48c2.88-1.6,5.71-4.19,6.84-7.07-.69-1.02-1.16-1.7-2.2-2.85l.38-.38c.69.61,1.51,1.22,2.19,1.82.38-1.15.44-2.27.56-3.49-1.44,0-1.63.03-2.7.22l-.5-1.15h3.2c.13-1.82.03-3.46,0-5.34,1.1.38,2.32.54,3.39,1.09.13.13.09.35-.03.45-.22.22-.56.32-.66.64-.03,1.02-.16,2.08-.16,3.17h1.41l1.03-1.31c.09-.13.44-.19.66-.03.91.74,1.1.9,1.91,1.66.19.13.19.38.06.51-.38.35-.91.54-1.07,1.06-.16,2.91-.44,5.86,1.16,8.29.13.1.34.1.5.03.56-.93.78-2.02,1.16-3.01l.28-1.12.56.06c-.19,2.4-.91,5.21.12,7.46-.03.19-.09.42-.28.48-1.35.19-2.41-.58-3.45-1.28-2.51-2.27-2.76-5.7-2.57-8.9l.13-2.21.03-.74h-1.72c-.16,1.09-.22,1.7-.41,2.56-.19.9-.44,1.76-.75,2.59.85.9,1.79,2.02,2.26,3.2.19.74-.13,1.57-.6,2.11-.19.19-.53.19-.75.06-.44-.29-.5-.83-.75-1.28-.35-.77-.66-1.54-1.07-2.27l-.13.03c-.85,1.06-2.7,2.75-4.36,3.78l1.85.77c.09.1.19.26.09.42-.25.35-.75.19-.94.61l-.35,1.02h5.64l1.19-1.41c.09-.1.35-.16.53,0,.72.61,1.41,1.12,2.04,1.86.09.13.09.32,0,.42-.41.35-.94.35-1.16.93-.22,1.6-.47,3.01-.88,4.54-.28,1.02-.56,1.66-1.25,2.14-1,.67-1.98.9-3.17,1.09-.31-1.02-.85-1.79-2.16-2.56l-1.51-.61.16-.58Z"/>
    </g>
  </g>
</svg>