<?xml version="1.0" encoding="UTF-8"?>
<svg id="c" data-name="圖層 3" xmlns="http://www.w3.org/2000/svg" viewBox="0 0 500 500">
  <defs>
    <style>
      .d {
        fill: #606060;
        stroke-width: 0px;
      }
    </style>
  </defs>
  <path class="d" d="m499.23,102.8c-4.78,19.87-20.29,31.64-33.36,44.78-37.83-37.84-75.42-75.43-113.15-113.16,13.85-13.73,26.17-30.56,48.07-33.96h13.65c16.33,2.94,28.01,13.07,38.85,24.73,7.16,7.7,14.63,15.14,22.31,22.32,10.79,10.07,20.14,20.96,23.63,35.8v19.49Zm-161.95-51.05c-90.77,90.77-181.86,181.86-272.39,272.39,37.01,37.01,74.5,74.49,111.65,111.65,90.67-90.67,181.68-181.68,272.39-272.39-37.48-37.48-74.98-74.98-111.65-111.65ZM.77,499.54c52.38-17.45,103.74-34.56,155.03-51.65-34.53-34.53-68.72-68.71-103.4-103.39-17.15,51.5-34.22,102.76-51.63,155.04Z"/>
</svg>