<?xml version="1.0" encoding="UTF-8"?>
<svg id="c" data-name="圖層 3" xmlns="http://www.w3.org/2000/svg" viewBox="0 0 500 500">
  <defs>
    <style>
      .d {
        fill: #606060;
        stroke-width: 0px;
      }
    </style>
  </defs>
  <path class="d" d="m.32,226.69c0-8.12,0-16.24,0-24.37,1.48-8.6,2.47-17.31,4.51-25.77,11.61-48.18,39.81-85.03,79.21-113.79,39.16-28.58,83.37-44.3,131.38-49.72,47.76-5.38,94.34-.33,139.29,16.9,49.56,19,91.05,48.74,118.73,94.86,30.92,51.54,34.9,105.43,9.99,160.63-11.72,25.96-29.72,47.56-49.56,67.62-31.99,32.36-68.22,59.54-105.62,85.21-24.35,16.72-48.96,33.08-75.6,46.03-4.59,2.23-9.71,3.8-14.76,4.53-7,1.01-10.3-2.43-10.32-9.48,0-1.61.3-3.23.48-4.84,1.45-13.04,3.18-26.05,4.23-39.13.56-7-3.08-12.4-9.66-14.85-6.33-2.36-12.89-4.51-19.54-5.57-48.57-7.77-92.78-25.53-130.94-56.99-32.68-26.95-56.03-60.26-66.55-101.72-2.46-9.68-3.55-19.71-5.27-29.58Zm296.3,2.09c-.33.11-.67.22-1,.34-5.86-7.97-11.72-15.94-17.58-23.91-10.67-14.52-21.25-29.11-32.06-43.54-6.75-9.01-18.75-7.89-22.7,1.98-.7,1.75-1,3.79-1,5.69-.06,32.81-.04,65.62-.03,98.43,0,.81.07,1.62.18,2.43.82,6.49,6.09,11.19,12.6,11.26,7.81.08,13.12-5.46,13.18-14.26.12-17.87.04-35.73.04-53.6,0-1.63,0-3.26,0-4.89,2.2,1.25,3.3,2.63,4.34,4.05,14.96,20.44,29.91,40.88,44.87,61.32,4.88,6.66,9.95,8.82,16.16,6.91,6.11-1.87,9.25-7.07,9.25-15.42.01-22.9,0-45.8,0-68.71,0-8.93.06-17.87-.02-26.8-.08-8.57-5.51-14.52-13.08-14.54-7.65-.03-13.04,5.86-13.13,14.43-.06,5.03-.01,10.07-.01,15.11,0,14.57,0,29.14,0,43.72Zm70.22-46.96c12.12,0,23.94.11,35.75-.04,7.82-.1,13.42-5.75,13.42-13.13,0-7.35-5.68-13.05-13.43-13.1-16.24-.1-32.47-.11-48.71,0-8.05.05-13.42,5.4-13.44,13.51-.08,32.96-.08,65.92,0,98.88.02,8.21,5.22,13.46,13.38,13.53,16.24.13,32.48.18,48.71-.09,2.87-.05,6.09-1.22,8.5-2.84,4.57-3.07,6.05-9.11,4.3-14.38-1.74-5.24-6.37-8.73-12.72-8.87-10.22-.21-20.46-.06-30.69-.09-1.71,0-3.41-.15-5.02-.22v-23.28c2.06,0,3.81,0,5.55,0,10.23-.01,20.46.15,30.69-.09,8.82-.21,14.54-8.04,12.41-16.49-1.49-5.91-6.57-9.7-13.49-9.76-11.65-.09-23.29-.02-35.21-.02v-23.51Zm-251.25,73.39c0-18.71,0-36.54,0-54.37,0-10.87.13-21.75-.12-32.61-.16-7.17-5.46-12.37-12.24-12.68-6.99-.32-12.65,4.6-13.56,11.87-.22,1.76-.22,3.56-.22,5.34-.01,30.5-.02,61.01,0,91.51,0,2.26.05,4.56.44,6.78,1,5.67,5.62,10.21,11.35,10.28,17.36.22,34.72.25,52.08,0,6.5-.09,11.44-5.6,11.78-12.04.35-6.61-3.7-12.2-10.1-13.54-2.35-.49-4.83-.53-7.25-.54-10.51-.05-21.03-.02-32.17-.02Zm87.81-36.57c0-.97,0-1.95,0-2.92-.02-15.76.09-31.51-.12-47.27-.09-6.88-4.81-11.97-11.09-12.83-5.95-.82-11.99,2.62-13.88,8.35-.79,2.4-.92,5.1-.92,7.67-.06,31.19-.04,62.37-.03,93.56,0,1.62.02,3.26.21,4.86.8,6.75,6.2,11.47,12.94,11.41,7.55-.07,12.78-5.61,12.84-14.11.12-16.24.04-32.49.05-48.73Z"/>
</svg>