<?xml version="1.0" encoding="UTF-8"?>
<svg id="c" data-name="圖層 3" xmlns="http://www.w3.org/2000/svg" viewBox="0 0 500 500">
  <defs>
    <style>
      .d {
        fill: #606060;
        stroke-width: 0px;
      }
    </style>
  </defs>
  <path class="d" d="m246.17,499.45c-4.18-3.45-8.98-6.37-12.46-10.42-41.67-48.48-79.91-99.48-111.82-154.98-18.55-32.26-34.79-65.61-44.85-101.66-15.09-54.09-8.11-105.16,23.22-151.73C130.01,36.41,172.02,9.89,225.1,2.48c51.91-7.25,98.72,6.01,139.24,39.04,35.73,29.13,57.01,67.04,64.26,112.81,5.65,35.6-1.15,69.44-13.45,102.56-16.48,44.38-40.06,85.04-66.21,124.27-25.15,37.74-52.86,73.56-82.52,107.86-3.49,4.04-8.27,6.97-12.46,10.42h-7.8Zm3.34-227.33c49.23.85,90.43-39.65,91.33-89.8.9-49.99-39.4-91.25-89.98-92.12-49.57-.85-90.84,39.73-91.58,90.04-.74,50.03,39.5,91,90.23,91.88Z"/>
</svg>