<?xml version="1.0" encoding="UTF-8"?>
<svg id="c" data-name="圖層 3" xmlns="http://www.w3.org/2000/svg" viewBox="0 0 500 500">
  <defs>
    <style>
      .d {
        fill: #606060;
        stroke-width: 0px;
      }
    </style>
  </defs>
  <path class="d" d="m365.96,468.48c-24.26-2.55-45.49-8.88-66.14-17.36-42.16-17.32-79.58-42.26-114.23-71.56-47.68-40.32-87.89-86.96-118.55-141.52-16.14-28.73-28.38-58.97-34.33-91.61-1.79-9.84-.69-18.23,5.17-26.61,19.78-28.31,41.33-55.06,66.76-78.53,2.73-2.52,5.73-4.8,8.82-6.87,6.24-4.18,10.59-3.88,16.24,1.18,2.52,2.26,4.95,4.76,6.9,7.52,19.9,28.12,38.32,57.16,53.12,88.34,7.74,16.31,6.92,19.42-6.5,31.45-9.43,8.45-18.89,16.87-28.4,25.22-2.23,1.96-2.68,3.86-1.82,6.8,12.84,43.5,37.27,79.39,71.73,108.47,23.44,19.78,49.69,34.66,79.39,43.12,3.51,1,5.73.42,8.02-2.22,7.56-8.7,15.32-17.23,22.88-25.93,13.64-15.71,16.46-16.54,35.24-7.46,30.02,14.52,58.27,32.1,85.33,51.52,15.68,11.26,16.33,17.72,3.48,31.76-24.69,26.97-52.71,50.06-83.37,69.93-3.41,2.21-7.49,3.38-9.72,4.36ZM265.7,32.09v30.47c47.22,1.09,87.84,17.44,121.04,50.76,33.16,33.27,49.3,73.99,50.36,120.76h30.86c-.36-120.49-102.57-205.14-202.26-201.99Zm-.35,77.96v30.36c53.1,1.33,93.21,42.91,94.02,93.65h30.37c1.33-69.69-59.74-126.32-124.39-124.01Z"/>
</svg>