<?xml version="1.0" encoding="UTF-8"?>
<svg id="b" data-name="圖層 2" xmlns="http://www.w3.org/2000/svg" viewBox="0 0 793.58 394.8">
  <defs>
    <style>
      .d {
        fill: #ff4214;
        stroke-width: 0px;
      }
    </style>
  </defs>
  <g id="c" data-name="圖層 1">
    <path class="d" d="m336.65,123.82h3.28c.54,0,1.05.07,1.52.2.47.13.89.32,1.24.57.35.25.63.56.83.93.2.37.3.79.3,1.26s-.1.88-.29,1.23c-.2.35-.45.64-.77.87-.32.23-.68.4-1.09.51-.41.11-.82.17-1.24.17-.18,0-.37,0-.57-.01-.2,0-.39-.02-.57-.04-.18-.02-.35-.03-.51-.05-.16-.02-.28-.04-.38-.06v4.79h-1.74v-10.36Zm1.74,4.99c.2.07.41.12.63.17.22.04.45.07.69.07.38,0,.7-.06.98-.17.28-.11.52-.27.7-.46.19-.2.33-.43.42-.69.09-.26.14-.54.14-.84,0-.35-.06-.67-.18-.95-.12-.28-.29-.52-.5-.72-.21-.2-.46-.36-.74-.47-.28-.11-.59-.16-.91-.16h-1.23v4.23Zm10.71-4.99h3.59c.62,0,1.16.07,1.63.2s.86.32,1.17.56c.31.24.55.52.71.86.16.33.24.69.24,1.08,0,.32-.06.62-.18.91-.12.28-.29.54-.52.76-.22.23-.49.42-.8.59s-.66.29-1.03.39l3.77,5.02h-2.02l-3.6-4.87h-1.22v4.87h-1.74v-10.36Zm1.74,4.97h1.01c.39,0,.75-.05,1.08-.16.33-.1.62-.25.86-.44.24-.19.43-.42.57-.69.14-.27.2-.58.2-.91,0-.31-.05-.6-.16-.86-.11-.26-.26-.48-.45-.67-.2-.18-.43-.33-.7-.43-.27-.1-.56-.16-.88-.16h-1.53v4.32Zm16.71,5.63c-.8,0-1.55-.14-2.25-.43s-1.3-.68-1.81-1.18c-.51-.5-.92-1.08-1.21-1.74-.29-.66-.44-1.37-.44-2.13,0-.49.07-.97.2-1.43.13-.46.32-.89.57-1.28.24-.4.54-.76.89-1.08.35-.33.73-.6,1.15-.84.42-.23.88-.41,1.37-.54.49-.13,1-.19,1.54-.19s1.05.06,1.54.19c.49.13.95.31,1.37.54.42.23.81.51,1.15.84.34.33.64.69.89,1.08.25.4.44.82.57,1.28.13.46.2.94.2,1.43s-.07.98-.2,1.45c-.13.47-.32.9-.57,1.31-.25.41-.54.78-.89,1.11-.34.33-.73.62-1.15.86-.42.24-.88.42-1.37.55-.49.13-1,.2-1.54.2Zm0-.51c.59,0,1.12-.12,1.57-.37.46-.25.84-.59,1.15-1.04.31-.44.55-.97.71-1.57.16-.6.24-1.27.24-1.99s-.08-1.37-.24-1.96c-.16-.59-.39-1.11-.71-1.54-.31-.43-.7-.76-1.15-1-.46-.24-.98-.36-1.57-.36s-1.13.12-1.59.36c-.46.24-.84.57-1.15,1-.31.43-.54.94-.7,1.54s-.23,1.25-.23,1.96.08,1.38.23,1.99c.16.6.39,1.13.7,1.57.31.44.69.79,1.15,1.04.46.25.99.37,1.59.37Zm11.26-10.09h1.78l4.03,7.95h.09l3.95-7.95h1.75v10.36h-1.75v-8.49h-.05l-4.25,8.49h-.36l-4.29-8.42h-.12v8.42h-.78v-10.36Zm17.61,0h1.74v10.36h-1.74v-10.36Zm11.15,9.95c.25,0,.51-.04.76-.11s.47-.17.67-.31c.2-.14.36-.31.48-.51.12-.2.18-.43.18-.7,0-.32-.08-.6-.25-.85-.16-.25-.38-.47-.64-.68-.27-.21-.57-.4-.91-.58-.34-.18-.69-.36-1.04-.55-.35-.18-.7-.37-1.04-.57-.34-.2-.64-.42-.91-.67-.27-.25-.48-.52-.64-.83s-.25-.65-.25-1.05.07-.76.22-1.1c.15-.34.37-.63.65-.88.29-.25.64-.44,1.06-.58.42-.14.9-.21,1.44-.21.49,0,.93.05,1.31.16.39.1.72.26,1.02.46.29.2.54.45.74.75s.37.64.49,1.03l-.89.41c-.1-.32-.24-.61-.4-.87-.16-.26-.35-.49-.58-.68-.22-.19-.48-.33-.78-.43-.29-.1-.63-.15-1-.15-.33,0-.61.05-.86.14-.25.09-.45.21-.61.36s-.29.32-.37.5c-.08.19-.12.37-.12.57,0,.27.08.52.25.75.17.23.39.44.66.64.28.2.59.39.94.58s.71.38,1.07.57c.36.19.72.39,1.07.6.35.21.67.44.94.68.28.25.5.52.66.81.17.29.25.62.25.99,0,.41-.08.8-.23,1.16-.16.36-.39.68-.7.95-.31.27-.7.48-1.16.64-.46.16-1,.23-1.62.23-.5,0-.95-.05-1.34-.16s-.74-.27-1.04-.48c-.3-.21-.56-.46-.77-.76-.21-.3-.39-.64-.52-1.03l.93-.38c.11.34.26.64.44.91.18.27.4.49.64.68.24.19.52.33.82.43.3.1.62.15.96.15Zm16.42-9.95v.67h-5.46v3.7h3.66v.67h-3.66v4.64h5.46v.67h-7.2v-10.36h7.2Zm16.98,10.6c-.8,0-1.55-.14-2.25-.43s-1.3-.68-1.81-1.18c-.51-.5-.92-1.08-1.21-1.74-.29-.66-.44-1.37-.44-2.13,0-.49.07-.97.2-1.43.13-.46.32-.89.57-1.28.24-.4.54-.76.89-1.08.35-.33.73-.6,1.15-.84.42-.23.88-.41,1.37-.54.49-.13,1-.19,1.54-.19s1.05.06,1.54.19c.49.13.95.31,1.37.54.42.23.81.51,1.15.84.34.33.64.69.89,1.08.25.4.44.82.57,1.28.13.46.2.94.2,1.43s-.07.98-.2,1.45c-.13.47-.32.9-.57,1.31-.25.41-.54.78-.89,1.11-.34.33-.73.62-1.15.86-.42.24-.88.42-1.37.55-.49.13-1,.2-1.54.2Zm0-.51c.59,0,1.12-.12,1.57-.37.46-.25.84-.59,1.15-1.04.31-.44.55-.97.71-1.57.16-.6.24-1.27.24-1.99s-.08-1.37-.24-1.96c-.16-.59-.39-1.11-.71-1.54-.31-.43-.7-.76-1.15-1-.46-.24-.98-.36-1.57-.36s-1.13.12-1.59.36c-.46.24-.84.57-1.15,1-.31.43-.54.94-.7,1.54s-.23,1.25-.23,1.96.08,1.38.23,1.99c.16.6.39,1.13.7,1.57.31.44.69.79,1.15,1.04.46.25.99.37,1.59.37Zm17.95-10.09v.67h-5.05v3.7h3.66v.67h-3.66v5.31h-1.74v-10.36h6.8Zm-88.54,31v.67h-5.05v3.7h3.66v.67h-3.66v5.31h-1.74v-10.36h6.8Zm4.54,0h1.74v6.73c0,.44.08.86.23,1.25.15.39.37.73.65,1.02.28.29.62.52,1.02.69.4.17.84.25,1.33.25s.94-.08,1.34-.25c.4-.17.73-.4,1.01-.69.28-.29.49-.63.64-1.02.15-.39.22-.8.22-1.25v-6.73h.77v6.73c0,.53-.09,1.03-.26,1.5s-.44.88-.81,1.23-.84.63-1.41.84c-.57.21-1.26.31-2.06.31-.71,0-1.35-.1-1.89-.31-.55-.21-1.01-.49-1.38-.84-.37-.35-.65-.77-.84-1.25-.19-.48-.29-.99-.29-1.53v-6.68Zm22.93,0v.67h-3.75v9.69h-1.74v-9.69h-3.75v-.67h9.24Zm4.75,0h1.74v6.73c0,.44.08.86.23,1.25.15.39.37.73.65,1.02.28.29.62.52,1.02.69.4.17.84.25,1.33.25s.94-.08,1.34-.25c.4-.17.73-.4,1.01-.69.28-.29.49-.63.64-1.02.15-.39.22-.8.22-1.25v-6.73h.77v6.73c0,.53-.09,1.03-.26,1.5s-.44.88-.81,1.23-.84.63-1.41.84c-.57.21-1.26.31-2.06.31-.71,0-1.35-.1-1.89-.31-.55-.21-1.01-.49-1.38-.84-.37-.35-.65-.77-.84-1.25-.19-.48-.29-.99-.29-1.53v-6.68Zm14.79,0h3.59c.62,0,1.16.07,1.63.2s.86.32,1.17.56c.31.24.55.52.71.86.16.33.24.69.24,1.08,0,.32-.06.62-.18.91-.12.28-.29.54-.52.76-.22.23-.49.42-.8.59s-.66.29-1.03.39l3.77,5.02h-2.02l-3.6-4.87h-1.22v4.87h-1.74v-10.36Zm1.74,4.97h1.01c.39,0,.75-.05,1.08-.16.33-.1.62-.25.86-.44.24-.19.43-.42.57-.69.14-.27.2-.58.2-.91,0-.31-.05-.6-.16-.86-.11-.26-.26-.48-.45-.67-.2-.18-.43-.33-.7-.43-.27-.1-.56-.16-.88-.16h-1.53v4.32Zm18.66-4.97v.67h-5.46v3.7h3.66v.67h-3.66v4.64h5.46v.67h-7.2v-10.36h7.2Zm-226.8,31.86l11.27,24.5h-4.1l-3.65-7.99h-10.28l-3.78,7.99h-2.02l11.54-24.5h1.01Zm-6.05,14.96h8.83l-4.35-9.48-4.48,9.48Zm28.14-2.35c0,1.67.25,3.18.76,4.51s1.2,2.46,2.09,3.38c.88.92,1.93,1.63,3.13,2.11,1.2.49,2.51.73,3.92.73.84,0,1.66-.16,2.44-.49.78-.33,1.51-.75,2.18-1.27.67-.52,1.27-1.11,1.8-1.77.53-.66.96-1.32,1.3-2l1.7,1.08c-.49.81-1.08,1.58-1.75,2.32-.67.74-1.45,1.4-2.34,1.97-.88.57-1.88,1.03-3,1.36-1.11.34-2.36.51-3.73.51-1.99,0-3.79-.33-5.41-.99-1.62-.66-3.01-1.56-4.16-2.69s-2.05-2.45-2.68-3.97c-.63-1.51-.95-3.11-.95-4.8,0-1.12.14-2.21.43-3.28.29-1.07.71-2.07,1.26-3,.55-.93,1.22-1.79,2.01-2.57.79-.78,1.68-1.45,2.67-2,.99-.56,2.08-.99,3.26-1.3,1.18-.31,2.44-.46,3.78-.46s2.45.17,3.53.51c1.08.34,2.06.8,2.95,1.36.88.57,1.67,1.22,2.37,1.96.69.74,1.29,1.51,1.78,2.32l-1.75,1.16c-1-1.94-2.12-3.36-3.36-4.25-1.24-.9-2.67-1.35-4.28-1.35-1.39,0-2.68.25-3.88.76-1.2.51-2.26,1.23-3.15,2.17-.9.94-1.6,2.08-2.11,3.42-.51,1.34-.77,2.86-.77,4.54Zm32.41,0c0,1.67.25,3.18.76,4.51s1.2,2.46,2.09,3.38c.88.92,1.93,1.63,3.13,2.11,1.2.49,2.51.73,3.92.73.84,0,1.66-.16,2.44-.49.78-.33,1.51-.75,2.18-1.27.67-.52,1.27-1.11,1.8-1.77.53-.66.96-1.32,1.3-2l1.7,1.08c-.49.81-1.08,1.58-1.75,2.32-.67.74-1.45,1.4-2.34,1.97-.88.57-1.88,1.03-3,1.36-1.11.34-2.36.51-3.73.51-1.99,0-3.79-.33-5.41-.99-1.62-.66-3.01-1.56-4.16-2.69s-2.05-2.45-2.68-3.97c-.63-1.51-.95-3.11-.95-4.8,0-1.12.14-2.21.43-3.28.29-1.07.71-2.07,1.26-3,.55-.93,1.22-1.79,2.01-2.57.79-.78,1.68-1.45,2.67-2,.99-.56,2.08-.99,3.26-1.3,1.18-.31,2.44-.46,3.78-.46s2.45.17,3.53.51c1.08.34,2.06.8,2.95,1.36.88.57,1.67,1.22,2.37,1.96.69.74,1.29,1.51,1.78,2.32l-1.75,1.16c-1-1.94-2.12-3.36-3.36-4.25-1.24-.9-2.67-1.35-4.28-1.35-1.39,0-2.68.25-3.88.76-1.2.51-2.26,1.23-3.15,2.17-.9.94-1.6,2.08-2.11,3.42-.51,1.34-.77,2.86-.77,4.54Zm40.75,12.45c-1.85,0-3.59-.33-5.19-.99-1.61-.66-3-1.57-4.19-2.72-1.19-1.15-2.12-2.49-2.8-4.03-.68-1.54-1.02-3.18-1.02-4.92,0-1.14.15-2.25.46-3.31.31-1.06.74-2.05,1.31-2.96.57-.92,1.25-1.75,2.05-2.5.8-.75,1.69-1.4,2.67-1.93s2.03-.95,3.16-1.25c1.13-.29,2.32-.44,3.56-.44s2.43.15,3.56.44c1.13.3,2.19.71,3.17,1.25.98.54,1.87,1.18,2.67,1.93.79.75,1.48,1.59,2.05,2.5.57.92,1.01,1.9,1.32,2.96.31,1.06.46,2.16.46,3.31s-.15,2.27-.46,3.35c-.31,1.08-.75,2.09-1.32,3.03-.57.94-1.26,1.79-2.05,2.57s-1.68,1.43-2.67,1.99c-.98.55-2.04.98-3.17,1.28-1.13.3-2.32.45-3.56.45Zm0-1.17c1.37,0,2.59-.29,3.64-.86,1.05-.57,1.94-1.37,2.66-2.4s1.27-2.24,1.64-3.63c.37-1.4.55-2.93.55-4.59s-.18-3.16-.55-4.54c-.37-1.37-.91-2.56-1.64-3.55s-1.61-1.77-2.66-2.31c-1.05-.55-2.27-.82-3.64-.82s-2.62.27-3.68.82c-1.05.55-1.94,1.32-2.66,2.31-.72.99-1.26,2.18-1.62,3.55s-.54,2.89-.54,4.54.18,3.19.54,4.59.9,2.61,1.62,3.63c.72,1.02,1.6,1.82,2.66,2.4,1.05.57,2.28.86,3.68.86Zm22.34-23.34h4.12l9.32,18.37h.2l9.14-18.37h4.05v23.96h-4.05v-19.64h-.13l-9.82,19.64h-.83l-9.93-19.48h-.27v19.48h-1.81v-23.96Zm37.03,0h7.59c1.25,0,2.43.15,3.52.45,1.1.3,2.05.74,2.86,1.33.81.58,1.45,1.3,1.92,2.15.46.85.7,1.82.7,2.92s-.23,2.03-.68,2.84c-.45.81-1.05,1.48-1.79,2.01-.74.53-1.58.92-2.52,1.18-.94.26-1.9.39-2.87.39-.42,0-.86,0-1.32-.03-.46-.02-.9-.04-1.32-.08-.42-.04-.81-.08-1.17-.13s-.66-.1-.89-.14v11.07h-4.03v-23.96Zm4.03,11.54c.46.16.95.29,1.46.39.52.1,1.05.15,1.59.15.87,0,1.63-.13,2.28-.39.65-.26,1.19-.62,1.63-1.07.43-.45.76-.98.97-1.59.21-.61.32-1.26.32-1.95,0-.81-.14-1.54-.42-2.19-.28-.65-.66-1.21-1.15-1.67-.49-.46-1.06-.82-1.72-1.08-.66-.25-1.36-.38-2.1-.38h-2.85v9.77Zm21.06-11.54h4.03v22.4h12.07v1.55h-16.1v-23.96Zm23.39,0h4.03v23.96h-4.03v-23.96Zm22.09,23c.59,0,1.17-.08,1.75-.24.58-.16,1.1-.4,1.55-.72.46-.32.82-.71,1.1-1.17.28-.46.42-1,.42-1.62,0-.73-.19-1.39-.57-1.96-.38-.57-.88-1.1-1.49-1.57s-1.32-.92-2.1-1.35c-.79-.42-1.59-.84-2.41-1.26-.82-.42-1.62-.86-2.41-1.33-.79-.46-1.49-.98-2.1-1.55s-1.11-1.21-1.49-1.92c-.38-.71-.57-1.51-.57-2.43s.17-1.76.52-2.55c.34-.78.85-1.46,1.51-2.03.66-.57,1.48-1.02,2.45-1.35.97-.33,2.08-.49,3.33-.49,1.13,0,2.14.12,3.04.36.89.24,1.67.6,2.35,1.07.67.47,1.25,1.05,1.72,1.73s.85,1.48,1.14,2.38l-2.06.94c-.24-.73-.55-1.41-.92-2.01-.37-.61-.82-1.13-1.34-1.56-.52-.43-1.12-.77-1.8-1-.68-.24-1.45-.35-2.3-.35-.76,0-1.42.11-1.99.32-.57.21-1.04.49-1.42.83-.38.34-.66.73-.85,1.16-.19.43-.28.86-.28,1.31,0,.63.19,1.2.58,1.73.39.52.9,1.02,1.54,1.48.64.46,1.36.91,2.18,1.35.81.43,1.64.87,2.48,1.32.84.45,1.67.91,2.48,1.39.81.48,1.54,1.01,2.18,1.58.64.57,1.15,1.2,1.54,1.88.39.68.58,1.44.58,2.29,0,.95-.18,1.85-.54,2.68-.36.84-.9,1.57-1.63,2.19s-1.62,1.11-2.69,1.47c-1.07.36-2.32.54-3.74.54-1.16,0-2.19-.13-3.09-.38s-1.7-.62-2.39-1.1c-.69-.48-1.29-1.07-1.78-1.76-.49-.69-.9-1.48-1.21-2.38l2.15-.89c.25.78.59,1.48,1.02,2.1.43.61.92,1.14,1.49,1.56.57.43,1.2.76,1.89.98.69.23,1.43.34,2.21.34Zm21.64-10.53v11.49h-4.03v-23.96h4.03v10.91h12.03v-10.91h4.03v23.96h-4.03v-11.49h-12.03Zm26.28-12.47h4.12l9.32,18.37h.2l9.14-18.37h4.05v23.96h-4.05v-19.64h-.13l-9.82,19.64h-.83l-9.93-19.48h-.27v19.48h-1.81v-23.96Zm53.69,0v1.55h-12.63v8.56h8.46v1.55h-8.46v10.73h12.63v1.55h-16.66v-23.96h16.66Zm8.43,0h2.26l15.7,17.52h.18v-17.52h1.77v24.52h-.94l-17.02-19.48h-.15v18.92h-1.81v-23.96Zm48.94,0v1.55h-8.67v22.4h-4.03v-22.4h-8.67v-1.55h21.37ZM7.9,392.97c0,.2-.07.37-.27.44-.7.37-1.4.71-2.1.88-.27,0-.37-.2-.4-.37l.07-10.91v-7.17c-.03-.07,0-.1-.03-.17-1.43,2.18-2.83,4.25-4.53,6.26l-.63-.41,1.13-1.97,2.37-4.96c1.73-3.64,2.73-7.55,3.77-11.49,1.4.58,2.53,1.12,3.57,1.56.1.14.17.27.13.48-.1.17-.6.54-1.43,1.16l-.13.27c-.8,2.07-1.73,4.11-2.7,6.09l.17.07,1.43.71c.17.07.23.27.17.44-.27.37-.4.51-.7.92v12.41l.13,5.78Zm17.4-7.79c.27,0,.53-.2.53-.44v-7.48h-4.27v7.89l.17,7.72c.07.34-.17.51-.37.68-.47.27-1.13.44-1.87.71-.23.1-.57,0-.63-.27l.1-7.24.03-9.49h-4.23v7.65l.1,3.3c0,.41-.3.58-1,.85l-1,.37c-.3.1-.73.17-.73-.2l.1-6.29v-4.93l-.23.27c-1.13,1.33-2.2,2.52-3.4,3.88l-.47-.34,2.97-4.96c1.3-2.18,2.33-4.45,3.13-6.83h-2.3c-.47,0-.87.17-1.87.37l-1.03-1.39h5.56c.73-2.04,1.27-4.25,1.83-6.36,1.47.54,2.37.99,3.6,1.53.37.17.23.58,0,.75l-1.23.95c-.33,1.05-.73,2.07-1.13,3.06l8.73.07,1.73-2.04c.1-.14.47-.17.6,0,.97.78,1.87,1.63,2.6,2.45.13.14.1.41-.07.54l-.3.07h-13.76c-.93,2.04-2.13,3.98-3.23,5.68.3.24.67.41,1,.54h4.03c0-2.86-.03-4.01-.2-5.81,1.2.41,2.37.71,3.53,1.19.23.07.3.48.07.65-.37.31-.6.51-.87.78v3.2h4.13l1.1-1.22c.13-.17.43-.14.67-.03.83.58,1.2.71,2.07,1.39.17.14.13.37-.03.51-.37.41-.63.75-1.1,1.19v.95l.03,6.6c0,1.77-1.87,2.52-3.17,3.13l-.3.07c-.17-.95-.27-2.14-1.3-2.55l-1.33-.71.13-.51,2.87.14Zm36.42-11.08c.03-.14.43-.2.63,0,.87.61,1.47,1.12,2.27,1.84.3.24-.67.85-.77,1.46-.2,4.59-.53,10.17-1.2,13.53-.4,2.11-2.97,2.86-4.73,3.5-.2-1.39-1.17-2.72-2.5-3.23-.6-.31-1.2-.58-1.9-.71l.1-.78c1.7.24,3.43.44,5.27.48,1.43-.14,1.23-1.16,1.43-2.72.47-3.5.63-7.28.73-10.74h-17.76c-.17,2.92-.67,5.24-1.3,7.89l-.07.27c-.83,3.4-3.23,6.29-5.67,8.87-.23,0-.43-.24-.6-.37,1.9-3.47,3.6-7,4.2-11.01.3-2.11.57-4.18.57-6.43v-8.26l-.1-3.71c1.2.51,2.33,1.16,3.47,1.84h13.96l1.1-1.73c.13-.2.47-.2.63-.03.93.58,1.8,1.12,2.63,1.8.3.44-.57.75-.9,1.19l-.23.31c-.03,1.67-.03,3.47.07,5.1,0,.27-.23.48-.43.58l-2.07.65c-.37,0-.47-.14-.47-.41l-.03-1.26h-14.7l-.03,3.71h17.3l1.1-1.6Zm-3.63-7.28h-14.7v4.15h14.7v-4.15Zm-9.83,21.35c0,.27-.2.37-.93.68-.43.2-.9.37-1.37.54-.17-.03-.33-.17-.37-.31l.07-2.31v-6.36l-.1-1.9c1.07.41,2.03.92,3.1,1.43h5.3l1.07-1.39c.1-.1.4-.17.6,0l1.93,1.56c.3.24.27.51.1.61-.63.61-.9.61-.9,1.19l.03,3.03c0,.85.03,1.56.1,2.28,0,.27-.33.41-.8.58l-1.43.54c-.23.03-.47-.1-.47-.27v-1.73h-5.93v1.84Zm5.93-7.21h-5.9v4.32h5.9v-4.32Zm47.22-3.98c-1.9.07-3,.41-4.1,1.56l-.27-.07c-3.33-2.01-6.73-4.83-8.8-8.36-.5-.85-1.03-1.87-1.63-2.69-3.53,5.88-9.6,10.67-15.7,12.68l-.4-.44c1.1-.78,2.33-1.53,3.5-2.35,4.63-3.3,7.83-7.48,10.5-11.49h-3.93c-.23,0-1.63.03-2.2.34l-1.33-1.36h6.96l2.1-1.84,2.5,2.01c.7.54-.23,1.33-.8,1.94,3.03,3.5,5.03,6.43,13.93,9.49l-.33.58Zm-2.03,15.98l-23.66-.03c-.67,0-1.53.14-2.57.37l-.67-1.36h11.96v-6.63h-6.2c-.7,0-1.5.14-2,.27l-.7-1.26h8.9v-5.98h-4.2c-.53,0-1.17.1-2,.24l-.67-1.26h12.43l1.4-1.77c.1-.14.43-.1.57,0,1.07.82,1.33,1.12,2.33,2.01.33.24.43.78,0,.78h-6.93v5.98h3.83l1.47-2.24c.1-.14.47-.17.67.03l2.83,2.38c.43.34.37.85-.03.85l-8.76-.03v6.63h6.7l1.73-2.14c.13-.17.43-.17.57-.07,1.2.92,2.07,1.67,3.2,2.69.13.14.07.54-.2.54Zm33.65-13.77c-.27.07-.57.03-.77-.17-.8-1.05-1.3-2.28-2.17-3.3l-7.8.99c-4.27.54-8.53.88-11.7,1.84-.67.68-1.17.37-1.37-.1l-.97-2.35c-.07-.17.03-.34.1-.44.5-.24,1.17-.03,1.7-.24.6-.07,1.13-.31,1.6-.65,2.77-3.74,5.43-7.79,7.4-11.93,1.27.65,2.93,1.53,4.1,2.31.17.14.23.34.17.51l-.23.2c-.7.17-1.6-.07-2.03.65-2.57,3.09-5.37,6.32-8.36,8.94,2.53.03,4.67.03,7.56-.14l6.96-.44c.67-.03,1.4-.07,2.07-.2-1.8-2.24-4-4.11-6.23-5.81l.3-.48c2.77,1.09,5.33,2.52,7.9,4.05,1.13.92,2.5,1.77,2.83,3.64.07,1.53,0,2.52-1.07,3.13Zm-3.4,3.26l-.1.31v5.24c0,2.14.03,2.58.07,4.45,0,.27-.03.44-.33.65-.53.31-1,.48-1.87.75-.23.07-.63.14-.63-.31v-2.52h-12.23v2.07c0,.24-.1.48-.43.61-.5.27-1.23.65-1.8.85-.27.07-.57-.03-.6-.31l.07-5.68v-5.81l-.07-3.33c1.6.54,2.37.88,3.6,1.36h10.93l1.27-1.73c.13-.17.47-.17.73,0,.93.58,2.1,1.39,2.47,1.67.23.17.3.34.1.58-.47.44-.87.75-1.17,1.16Zm-2.9-.65h-12.16v8.19h12.16v-8.19Zm17.2-13.29l6.16-3.07h.62v21.8c0,1.45.06,2.35.18,2.7.12.36.36.63.74.82.37.19,1.13.3,2.28.32v.7h-9.52v-.7c1.19-.03,1.97-.13,2.31-.31.35-.18.59-.43.73-.74.14-.31.21-1.24.21-2.79v-13.94c0-1.88-.06-3.08-.19-3.62-.09-.41-.25-.7-.48-.9-.23-.19-.51-.29-.83-.29-.46,0-1.1.2-1.92.59l-.28-.59Zm17.92,10.53c0-2.95.44-5.48,1.31-7.61.87-2.13,2.03-3.71,3.47-4.75,1.12-.83,2.28-1.24,3.47-1.24,1.94,0,3.68,1.01,5.23,3.03,1.93,2.5,2.89,5.89,2.89,10.17,0,3-.42,5.54-1.27,7.64s-1.93,3.62-3.24,4.56c-1.31.95-2.58,1.42-3.8,1.42-2.41,0-4.42-1.45-6.03-4.36-1.36-2.45-2.03-5.4-2.03-8.85Zm3.66.48c0,3.55.43,6.46,1.29,8.7.71,1.89,1.77,2.84,3.17,2.84.67,0,1.37-.31,2.09-.92.72-.62,1.27-1.65,1.64-3.09.57-2.18.86-5.26.86-9.24,0-2.94-.3-5.4-.9-7.37-.45-1.46-1.03-2.49-1.74-3.1-.51-.42-1.13-.63-1.85-.63-.85,0-1.6.39-2.26,1.16-.9,1.05-1.51,2.71-1.83,4.97-.32,2.26-.49,4.49-.49,6.68Zm17.36-.48c0-2.95.44-5.48,1.31-7.61.87-2.13,2.03-3.71,3.47-4.75,1.12-.83,2.28-1.24,3.47-1.24,1.94,0,3.68,1.01,5.23,3.03,1.93,2.5,2.89,5.89,2.89,10.17,0,3-.42,5.54-1.27,7.64s-1.93,3.62-3.24,4.56c-1.31.95-2.58,1.42-3.8,1.42-2.41,0-4.42-1.45-6.03-4.36-1.36-2.45-2.03-5.4-2.03-8.85Zm3.66.48c0,3.55.43,6.46,1.29,8.7.71,1.89,1.77,2.84,3.17,2.84.67,0,1.37-.31,2.09-.92.72-.62,1.27-1.65,1.64-3.09.57-2.18.86-5.26.86-9.24,0-2.94-.3-5.4-.9-7.37-.45-1.46-1.03-2.49-1.74-3.1-.51-.42-1.13-.63-1.85-.63-.85,0-1.6.39-2.26,1.16-.9,1.05-1.51,2.71-1.83,4.97-.32,2.26-.49,4.49-.49,6.68Zm17.36-.48c0-2.95.44-5.48,1.31-7.61.87-2.13,2.03-3.71,3.47-4.75,1.12-.83,2.28-1.24,3.47-1.24,1.94,0,3.68,1.01,5.23,3.03,1.93,2.5,2.89,5.89,2.89,10.17,0,3-.42,5.54-1.27,7.64s-1.93,3.62-3.24,4.56c-1.31.95-2.58,1.42-3.8,1.42-2.41,0-4.42-1.45-6.03-4.36-1.36-2.45-2.03-5.4-2.03-8.85Zm3.66.48c0,3.55.43,6.46,1.29,8.7.71,1.89,1.77,2.84,3.17,2.84.67,0,1.37-.31,2.09-.92.72-.62,1.27-1.65,1.64-3.09.57-2.18.86-5.26.86-9.24,0-2.94-.3-5.4-.9-7.37-.45-1.46-1.03-2.49-1.74-3.1-.51-.42-1.13-.63-1.85-.63-.85,0-1.6.39-2.26,1.16-.9,1.05-1.51,2.71-1.83,4.97-.32,2.26-.49,4.49-.49,6.68Zm26.68-13.69c-.2.07-.23.31-.3.48-1,2.41-1.9,4.56-3.13,6.66.6.31,1.3.44,1.93.68.5.65-.6.78-.87,1.22l-.07.99v14.45c0,1.33.33,2.58.03,2.82-.57.54-1.23.95-2.23,1.43-.33.17-.57-.07-.6-.44l-.03-.27.1-4.76.03-11.93v-1.46l-.17.27c-1.03,1.67-2.27,3.2-3.5,4.73l-.63-.34c.9-1.8,1.77-3.33,2.43-4.9l2.43-5.85c.67-1.63,1.53-4.66,1.9-6.6,1.2.48,2.4,1.05,3.57,1.6.33.17.37.41.23.68-.33.31-.77.27-1.13.54Zm1.2,26.08c-.57.61-1.53.68-2.37.51-.33-.1-.7-.41-.73-.82-.1-.27,0-.48.07-.75.13-.48,2.13-1.63,2.87-2.79.43-.68.67-1.46.87-2.24h.67c.13,2.07.1,4.56-1.37,6.09Zm19.7-18.6h-19c-.7,0-1.77.1-2.7.34l-.87-1.29h6.9c-.23-1.53-.63-2.92-1.7-3.98-.93,0-1.93.17-2.83.41l-.97-1.39h8.56c-.4-1.46-1.07-3.03-2.5-3.64l.2-.75c1.63.34,2.77.51,3.97,1.19.77.44,1.1,1.19,1,2.01-.07.48-.27.85-.53,1.19h4.37l1.43-1.97c.13-.2.53-.1.63,0,.93.82,1.47,1.33,2.5,2.48.1.2,0,.44-.27.44h-5.17c.5.24,1.03.48,1.53.75.13.1.07.27.07.41-.3.27-.73.17-1.03.41-.87.88-1.37,1.29-2.37,2.45h4.3l1.53-1.77c.13-.17.37-.2.53.03.7.61,1.77,1.5,2.53,2.18.2.2.13.51-.13.51Zm-4.43,4.08v3.81c0,.88.1,1.29.13,2.41.07.48-.47.68-1.27.95-.43.14-.97.27-1.3.37-.17,0-.3-.14-.3-.37v-1.6h-9.43v.68c0,.14-.03.31-.3.48-.7.44-1.57.88-2.17,1.05-.23.07-.4-.07-.4-.31.23-3.37.2-7.17.03-10.64,1.13.34,2.2.88,3.27,1.43h8.9l1.23-1.29c.1-.1.43-.14.57.03,1,.82,1.2,1.05,1.87,1.67.23.44-.83.65-.83,1.33Zm-2.3,15.5c-2.23.41-4.87.34-7.27.27-1.4-.03-2.3-.31-2.8-1.5l-.23-.85v-6.05c1.2.17,2.1.48,3.27.99.13.07.2.34.07.51-.3.27-.6.34-.8.71v3.16c0,.27.2.48.4.54,1.87.2,3.87.2,5.77,0,.2-.14.5-.31.53-.58l.7-3.94.57.07c.07,1.36-.17,3.13,1.17,3.84l.7.37c-.33,1.02-.9,2.24-2.07,2.45Zm-.33-16.28h-9.53v2.04h9.53v-2.04Zm0,2.99h-9.53v2.41h9.53v-2.41Zm-8.7-11.25c1,.48,2.27.95,2.8,2.14.2.71-.3,1.36-.67,1.87h3.37c.5-1.29.97-2.58,1.4-4.01h-6.9Zm5.23,20.94c-.23.07-.47,0-.67-.1-.43-.58-.47-1.29-.7-1.9-.43-1.12-.83-2.24-1.7-3.13l.33-.44c1.17.34,2.33.88,3.33,1.73.47.41.77,1.05.7,1.7-.07.82-.4,1.77-1.3,2.14Zm9.23,3.03c-.23.17-.57.2-.8.07l-.33-.31c-.73-2.24-1.57-4.39-3.03-6.29l.37-.37c1.6.92,3.7,1.8,4.6,3.71.5,1.05-.13,2.48-.8,3.2Zm23.22-5.34v.58c0,.24-.2.41-.63.58-.33.14-.77.27-1.6.54-.33.1-.67.1-.67-.24l.13-5.64c.03-1.77.03-3.88,0-5.75l-1.07.03c-1.33,1.09-2.37,2.24-3.53,3.6l-.6-.2c.17-.51.5-1.26.7-1.77.4-.99.57-1.5.8-2.41h-2.4v13.19c0,1.46-.17,2.11-.9,2.69-.8.65-1.73.92-2.63,1.29l-.13-.03c-.1-1.36-1.23-2.65-2.5-3.09l-1.3-.44.13-.71c1.33.31,2.73.51,4.1.58.27,0,.37-.2.5-.37l.03-.61v-12.48l-2.9.03c-.77,0-1.53.1-2.27.27l-.73-1.29h10.86l.93-1.26c.13-.17.43-.17.6,0,.8.61,1.5,1.29,2.23,2.01.1-2.04,0-4.08-.03-6.22,1.1.48,1.77.71,2.77,1.19h1.03c.27-1.12.47-2.72.57-4.08h-2.53c-.7,0-1.4.1-2.1.27l-.93-1.29h12.83l1.5-2.04c.13-.14.37-.17.53-.03.93.82,1.73,1.6,2.67,2.52.07.14.13.44-.03.51l-.13.07h-8.53c-.9,1.36-1.67,2.79-2.7,4.08h5.1l.87-1.22c.2-.27.43-.2.7-.03.83.44,1.43.85,2.2,1.43.67.41-.5,1.26-.8,1.53l-.17.31.03,8.84.07,5.61c.03.31-.3.44-.5.54l-1.77.58c-.3.1-.57-.07-.57-.27v-1.36h-7.23Zm-13.9-17.71c1.37.41,2.73.78,4.03,1.43.87-1.16,1.43-2.45,2-3.71h-5.83c-.57,0-1.1.07-2.13.24l-.57-1.22h8.53l1.1-1.22c.17-.1.47-.1.67.03,1.03.85,1.4,1.16,2.47,2.07.13.14.1.34-.03.44-.4.2-.83.31-1.27.48-1.43,1.02-2.77,2.21-4.07,3.47.53.44.67.82.73,1.29.03.88-.37,1.77-1.03,2.38-.2.17-.6.14-.83-.03-.7-.61-.83-1.6-1.5-2.62-.63-1.02-1.53-1.9-2.57-2.58l.3-.44Zm14.83,18.32l.13.03,2.53,1.97c.1.14.1.27.03.41l-.17.14c-1.93.17-2.67.75-4.37,1.46-2.3.95-5.63,2.11-8.06,2.75l-.33-.54c3.67-1.56,7.3-3.4,10.23-6.22Zm6.33-15.54h-7.27v3.71h7.27v-3.71Zm0,4.69h-7.27v3.71h7.27v-3.71Zm0,4.73h-7.27v4.49h7.27v-4.49Zm-3.1,6.97c2.9.34,5.83.75,7.96,2.75.67.65.63,1.87.3,2.65-.13.44-.43.54-.73.58l-.6-.14c-2.07-2.11-4.37-4.11-7.06-5.13l.13-.71Zm26.25-19.58l1.33-1.9c.1-.17.37-.17.53,0l2.5,2.14c.17.14.3.37.17.61l-.27.14h-13.73c-.6,0-1.03.07-2.37.34l-.87-1.33h12.7Zm-2.4,4.25l1.27-1.9c.1-.17.43-.17.57,0l2.5,2.14c.17.14.3.37.17.58l-.23.17h-9.36c-.6,0-1.03.03-2.37.31l-.87-1.29h8.33Zm0,4.62l1.27-1.9c.1-.17.43-.17.57,0l2.5,2.14c.17.14.3.37.17.61l-.23.14h-9.36c-.6,0-1.03.07-2.37.34l-.83-1.33h8.3Zm3,13.94c.03.68-.53.82-1.93,1.36-.5.17-.97.2-.97-.24l.03-2.72h-4.57v2.69c0,.27-.03.44-.47.61-.63.27-1.27.68-1.97.85-.27.03-.4-.27-.37-.41.03-.99.1-1.84.1-2.79l.03-5.54-.17-4.22.03-.17c1.1.34,2.07.78,3.1,1.12h4.17l1-1.43c.1-.17.5-.24.73,0,.93.68,1.3.99,2.1,1.7.27.44-.8.85-.97,1.56l-.03,4.49.13,3.13Zm-8-28.93c1.57.61,3.2,1.02,4.53,2.28.27.34.43.75.37,1.22-.17.88-.7,1.87-1.57,2.24-.2.07-.43-.03-.6-.2-.8-1.8-1.5-3.67-3.07-5.07l.33-.48Zm5.13,20.5h-4.53v5.85h4.53v-5.85Zm17.2-10.3c.07-.1.43-.1.5.03.9.82,1.6,1.46,2.37,2.35.1.14.03.34-.07.44l-7.5.07v11.25c0,2.04.13,3.77.23,6.12.03.37-.27.54-1.1.82l-1.6.54c-.27.1-.47-.2-.43-.44l.13-6.77v-11.52h-3.73c-.63,0-1.43.24-2.17.41l-.87-1.39h6.77v-6.32c0-1.73-.07-3.67-.13-5.58,1.27.41,2.43.78,3.6,1.36.2.14.23.34.17.54-.3.37-.73.51-.87,1.02v8.98h3.4l1.3-1.9Zm12.36,7.62c-1.1.78-1.7,1.36-2.97,2.45.07.54-.67.68-.83.41-.6-.88-1.17-1.8-1.6-2.79,1.8-.75,3.6-1.56,5.37-2.38v-5.98h-2.27c-.4,0-1,.1-1.63.27l-.73-1.26h4.6c0-3.4-.03-5.61-.17-8.33,1.37.34,2.83.78,4.07,1.22.2.14.27.37.13.54-.37.41-1.27.78-1.27,1.22v5.3l.77.03.87-1.7c.1-.17.43-.2.63-.03l2.23,2.18c.1.14.07.34-.07.48l-.17.07h-4.27v4.66l.27-.1,2.8-1.43c.07.2.2.41.23.61l-3.27,2.35v9.28c0,3.67,0,4.83-.8,5.68-.83.58-1.77.99-2.77,1.22-.13-1.46-1.37-2.58-2.67-3.03l-.9-.31.03-.65,3.53.44c.33.03.87-.2.87-.54l-.03-9.89Zm4.4.1c-.2-.03-.3-.24-.47-.34,2.97-4.59,4.57-9.82,5.3-15.26l.13-.99c.07-.2.07-.51.1-.82,1.3.44,2.77,1.05,3.77,1.77.13.14.1.44-.03.54-.3.2-.8.41-.9.68-.53,1.33-1,2.72-1.5,4.05h9.1l1.63-2.48c.07-.14.37-.2.57,0,1.13.95,1.93,1.87,2.93,2.99.13.24.07.54-.27.54h-7.4v4.76l2.4-.03,1-1.8c.13-.24.47-.17.63-.03,1.07.75,1.73,1.36,2.7,2.31.1.1.13.34.03.44l-.23.17h-6.53v5.03h1.83l1.57-2.14c.13-.14.57-.14.67,0,1.17.95,1.8,1.6,2.73,2.52.1.17.17.37.03.54l-.23.14h-6.6v5.95h3.3l1.43-1.87c.1-.17.47-.24.73,0,1.07.85,1.67,1.22,2.6,2.24.07.17.13.34.03.51l-.17.17h-14.76l-.03,2.62c0,.41-.2.54-.8.78l-1.47.58c-.2,0-.43-.14-.4-.31.03-1.56.1-3.13.1-4.66l.03-12.51c-1.6,1.7-1.93,2.07-3.57,3.91Zm10.4-9.31h-4.27v4.76h4.27v-4.76Zm0,5.78h-4.27v5.07h4.27v-5.07Zm0,6.12h-4.27v5.95h4.27v-5.95Zm-.3-19.48c1.57.78,3.43,1.46,4.3,3.09.27,1.26-.83,2.28-1.8,2.89-.33.07-.73.03-1-.17-.47-.58-.27-1.36-.47-2.01-.23-1.22-.53-2.52-1.4-3.33l.37-.48Zm46.18,27.54c-1.4.14-2.87.68-3.57,2.04l-.23-.03c-3.77-1.5-7.56-3.74-9.63-7.92h-.73l.03,5,.07,2.69c0,.44-.33.65-1.17,1.05-.73.37-1.23.58-1.67.51-.17-.03-.3-.2-.27-.37l.1-2.86v-4.45c-3.8,3.47-8.2,5.44-13.1,6.19l-.3-.58c3.97-1.43,7.83-3.74,10.83-7.17h-7.33c-.4,0-1.7.17-2.77.37l-.83-1.39h13.43c.03-1.94-.07-2.31-.17-3.47-.73.2-1.23.37-1.87.54-2.93.82-6.17,1.09-9.43.88l-.3-.54c4.17-.41,8.36-1.33,11.86-3.43-2.27-.65-4.9-.92-7.46-.85,1-1.19,2.1-2.45,2.97-3.67l-5.93-.03c-.53,0-1.63.2-2.9.48l-.93-1.46h10.36c.83-1.33,1.6-2.72,2.17-4.15h-7.03c.03,1.46-.33,3.06-1.77,3.77-.63.31-1.5.27-2.17.03-.2-.17-.47-.34-.53-.61-.23-1.02.93-1.19,1.43-1.87,1.03-1.09,1.93-2.35,2.13-3.84l.67-.03.2,1.56h9.76l-.13-.34c-.9-1.29-1.77-2.75-3.1-3.81l.23-.44c1.53.27,3.13.41,4.43,1.22.37.31.8.61.87,1.09.1.92-.47,1.6-.97,2.28h8.53l1.23-1.56c.17-.07.33-.07.5,0,1,.82,1.9,1.63,2.83,2.62.2.2.23.51-.07.61l-.2.03c-.87-.03-1.87.2-2.47.41-1.3.71-2.57,1.29-3.73,2.24l-.57-.44c.83-.92,1.6-1.97,2.3-2.92h-11.86c.83.54,1.73.95,2.6,1.53.23.14.47.37.3.65l-.23.17c-.47.1-1.03.03-1.43.37l-.93,1.43h12.2l1.3-2.04c.17-.17.4-.17.57-.03.87.65,1.83,1.63,2.73,2.55.07.24-.07.51-.3.51h-7.3c-.93,1.29-1.9,2.52-3.03,3.64,1.63.44,4,1.02,5.43,2.62.53.71.9,1.67.4,2.48-.23.27-.57.41-1,.2-2.3-1.39-4.3-2.52-7.03-3.47-.93.61-2,1.02-3,1.39l.13.07c1.37.34,2.33.61,3.43.99.2.1.33.34.27.54-.43.44-1.1.58-1.1,1.46v.65h8.4l1.57-1.94c.17-.24.4-.17.6,0,1.07.85,1.63,1.29,2.8,2.41.1.14.07.54-.27.54l-10.76-.03c3.3,3.91,7.5,4.69,12,5.3l-.1.65Zm-17.6-17.51h-1.03l-2.17,2.69c1.97-.03,3.9.07,5.73.31,1.07-.71,1.8-1.8,2.7-2.99h-5.23Zm52.38-1.7c-.33,1.26-.93,2.86-1.2,3.77l-2.33,8.33c-.23,2.07-.03,4.15.3,6.19.13.88.37,1.97-.3,2.65-.5.48-1.43.41-1.97.17-.67-.31-.87-.58-1-1.46-.03-1.7.57-3.23.33-4.96-.17-1.09-.6-2.11-1.57-2.72l-1.77-.61.1-.61c1.1.07,2.4.58,3.33-.14.73-.54,1.43-1.84,1.9-2.86l2.3-4.93,1.3-3.16.57.34Zm-8.63-.68c1.23.58,2.63,1.36,3.47,2.01.67.51,1.2,1.26,1.23,2.14-.1.95-.67,1.84-1.47,2.38-.27.1-.7.07-.87-.17l-.27-.37c-.47-2.01-1.07-4.01-2.53-5.54l.43-.44Zm2.33-8.3c1.93.65,4.23,1.5,4.9,3.13.37,1.19-.3,2.21-1.03,3.03-.2.17-.43.31-.73.24-.33,0-.53-.34-.67-.61-.67-1.9-1.4-3.84-2.9-5.3l.43-.48Zm14.5,19.96c-2.07,3.64-6.43,7.21-10.23,9.69l-.43-.51c3.5-3.4,6.93-7.31,9-11.52h-4.67c-.53,0-1.1.03-2,.2l-.67-1.16h8.96c.07-1.56-.07-3.13-.07-4.69,1.23.24,2.4.61,3.57,1.09.1.1.13.31.1.48-.27.34-.8.37-.87.85v2.28h4.8l1.47-1.94c.13-.1.33-.03.47.03.9.71,1.7,1.43,2.5,2.24.1.14.13.34.03.51l-.2.1h-7.2c1.07,4.15,4.5,7.82,8.43,9.52l-.13.51c-1.47-.1-3.03.27-4,1.43-3.1-3.23-5.03-7.11-5.37-11.46h-.87l.03,1.39.03,7.07.07,3.43c.07.41-.3.65-.57.82-.63.34-1.3.65-2,.78-.2,0-.3-.2-.37-.34l.13-7.34.03-3.47Zm7.33-12.99c.4-1.26.77-2.24.97-3.4l.07-.17h-12.06c-.17,1.97-.13,4.25-1.93,5.41-.57.37-1.4.44-2,.03-.4-.24-.6-.68-.57-1.12l.1-.41c1.73-1.9,3.17-3.91,3.5-6.43l.53.07.2,1.43,12.16.07,1.2-1.46c.2-.1.47-.03.6.07.97.88,2,1.7,2.77,2.62.3.37,0,.54-.2.58-.77.17-1.53.14-2.17.58-.93.71-1.87,1.56-2.63,2.48l-.53-.34Zm-5.67.75c-.47.2-1.07.1-1.43.54-2.3,2.69-5,5.2-7.93,6.83-.27-.03-.37-.37-.43-.54,2.8-2.58,5.27-5.85,6.63-9.35,1.1.58,2.23,1.22,3.2,2.01.07.17.07.37-.03.51Zm4.03,2.72c.13.61.8.51,1.27.58,1.13-.1,1.87-.17,3.13-.95.4-.17.6.24.97.82.3.51,1,1.36.67,1.7-1.2.75-2.73.68-4.23.75-1.33-.07-2.77.03-3.8-.78-.33-.41-.57-.82-.57-1.36,0-3.06.07-4.05-.07-6.09,1.33.31,2.33.65,3.5,1.02.27.17.13.48,0,.61-.3.27-1,.34-.9.95l.03,2.75Zm25.49,5.1h-5.47c-.03.54,0,1.02,0,1.56,1.6.78,4.3,1.16,4.3,3.5-.07.65-.3,1.29-.9,1.67-.3.1-.67.17-.9-.07-.67-1.36-1.2-2.86-2.43-3.94l-.07,5.71c-.03,1.8.03,3.5.1,5.27,0,.31-.23.51-.4.58-.37.17-1.13.51-1.87.71-.27.07-.5-.07-.5-.31l.13-6.7v-3.5c-1.47,2.38-3.43,4.9-5.63,6.8l-.57-.34c2.47-3.33,4.33-7,5.43-10.95h-2.63c-.4,0-1.07.07-1.8.24l-.67-1.22,5.9-.03v-3.06h-2.13c-.5,0-1.1.14-1.87.27l-.67-1.29h4.67v-3.13c-1.73.07-3.47.24-5.23.17l-.33-.75c1.9-.2,3.7-.58,5.5-.99l.03-2.89c-.07-.78-.03-1.63-.13-2.72,1.2.31,2.33.78,3.6,1.26.13.1.17.31.03.51-.37.34-.97.75-.97.85v2.24c1-.24,1.97-.68,2.93-1.12l.17.03c.7.92,1.5,1.8,2.1,2.79,0,.14-.13.31-.27.31-.73-.14-1.4-.41-2.17-.31-.97.14-1.83.24-2.77.37v3.37h1.2l1.03-1.5c.1-.17.43-.1.53,0,.77.78,1.3,1.36,2.07,2.07.17.17-.03.44-.2.44h-4.63v3.06h1.83l1.2-1.46c.23-.17.43-.14.6.03l1.93,1.94c.17.14.17.51-.1.51Zm15.76,2.72h-5.73v6.32l.07,4.59c0,.27-.13.44-.37.51-.7.37-1.07.54-1.77.82-.2.07-.47-.03-.5-.24l.1-5.81v-6.19h-3.43c-.33,3.37-1.33,6.43-3.87,8.84-1.37,1.29-2.83,2.38-4.43,3.13l-.53-.37c3.8-2.79,6.17-6.94,6.33-11.59h-1.57c-.43,0-1.13.2-1.67.27l-.73-1.26h4l.03-3.91c0-1.43.03-2.45-.03-3.71h-1.27c-.4,0-.83.2-1.23.31l-.83-1.33h3.3v-3.71l-.13-4.52c1.23.34,2.43.82,3.6,1.29.13.07.17.24.1.37-.3.34-1,.82-1,.92v5.64h3.37l-.07-5.75-.1-2.79c1.2.37,2.4.75,3.53,1.26.47.58-.57.71-.8,1.09l-.07.58v5.61h1.2l1.43-1.9c.1-.14.4-.17.53,0l2.5,2.38c.13.17.03.54-.2.54h-5.47v7.62h1.3l1.47-1.94c.17-.17.53-.14.67,0l2.47,2.45c.1.14-.03.48-.2.48Zm-8.26-8.6h-3.27l-.03,3.77-.07,3.84h3.37v-7.62Zm40.55,6.43c-.27.07-.57.03-.77-.17-.8-1.05-1.3-2.28-2.17-3.3l-7.8.99c-4.27.54-8.53.88-11.7,1.84-.67.68-1.17.37-1.37-.1l-.97-2.35c-.07-.17.03-.34.1-.44.5-.24,1.17-.03,1.7-.24.6-.07,1.13-.31,1.6-.65,2.77-3.74,5.43-7.79,7.4-11.93,1.27.65,2.93,1.53,4.1,2.31.17.14.23.34.17.51l-.23.2c-.7.17-1.6-.07-2.03.65-2.57,3.09-5.37,6.32-8.36,8.94,2.53.03,4.67.03,7.56-.14l6.97-.44c.67-.03,1.4-.07,2.07-.2-1.8-2.24-4-4.11-6.23-5.81l.3-.48c2.77,1.09,5.33,2.52,7.9,4.05,1.13.92,2.5,1.77,2.83,3.64.07,1.53,0,2.52-1.07,3.13Zm-3.4,3.26l-.1.31v5.24c0,2.14.03,2.58.07,4.45,0,.27-.03.44-.33.65-.53.31-1,.48-1.87.75-.23.07-.63.14-.63-.31v-2.52h-12.23v2.07c0,.24-.1.48-.43.61-.5.27-1.23.65-1.8.85-.27.07-.57-.03-.6-.31l.07-5.68v-5.81l-.07-3.33c1.6.54,2.37.88,3.6,1.36h10.93l1.27-1.73c.13-.17.47-.17.73,0,.93.58,2.1,1.39,2.47,1.67.23.17.3.34.1.58-.47.44-.87.75-1.17,1.16Zm-2.9-.65h-12.16v8.19h12.16v-8.19Zm39.15-13.05c.1-.24.33-.17.57,0,.5.34,2,1.39,2.87,2.11.17.17.23.41.13.61-.47.48-1.4.88-1.4,1.43,0,4.52.03,6.09.13,9.04.07.54-1,.85-1.53,1.05-.73.27-1.6.61-1.6-.07l.03-1.53h-7.8v11.29c0,.71-1.73,1.26-2.73,1.5-.2.07-.43-.14-.43-.37l.17-8.06v-4.35h-7.36v1.26c0,.58-1.67,1.16-2.5,1.43-.23.03-.5.07-.5-.24v-8.53c0-2.86,0-3.81-.13-6.32,1.43.58,2.2.88,3.43,1.6h7.1c0-4.08,0-5.27-.3-7.79-.07-.41,1.9.24,4.23,1.16.5.2.37.61.07.85-.2.24-1.13.65-1.13,1.26v4.52h7.56l1.13-1.84Zm-18.93,11.56h7.3v-8.63h-7.33l.03,8.63Zm18.13,0v-8.63h-7.86v8.63h7.86Zm31.76-1.27c0-2.95.44-5.48,1.31-7.61.87-2.13,2.03-3.71,3.47-4.75,1.12-.83,2.28-1.24,3.47-1.24,1.94,0,3.68,1.01,5.23,3.03,1.93,2.5,2.89,5.89,2.89,10.17,0,3-.42,5.54-1.27,7.64s-1.93,3.62-3.24,4.56c-1.31.95-2.58,1.42-3.8,1.42-2.41,0-4.42-1.45-6.03-4.36-1.36-2.45-2.03-5.4-2.03-8.85Zm3.66.48c0,3.55.43,6.46,1.29,8.7.71,1.89,1.77,2.84,3.17,2.84.67,0,1.37-.31,2.09-.92.72-.62,1.27-1.65,1.64-3.09.57-2.18.86-5.26.86-9.24,0-2.94-.3-5.4-.9-7.37-.45-1.46-1.03-2.49-1.74-3.1-.51-.42-1.13-.63-1.85-.63-.85,0-1.6.39-2.26,1.16-.9,1.05-1.51,2.71-1.83,4.97-.32,2.26-.49,4.49-.49,6.68Zm17.36-.48c0-2.95.44-5.48,1.31-7.61.87-2.13,2.03-3.71,3.47-4.75,1.12-.83,2.28-1.24,3.47-1.24,1.94,0,3.68,1.01,5.23,3.03,1.93,2.5,2.89,5.89,2.89,10.17,0,3-.42,5.54-1.27,7.64s-1.93,3.62-3.24,4.56c-1.31.95-2.58,1.42-3.8,1.42-2.41,0-4.42-1.45-6.03-4.36-1.36-2.45-2.03-5.4-2.03-8.85Zm3.66.48c0,3.55.43,6.46,1.29,8.7.71,1.89,1.77,2.84,3.17,2.84.67,0,1.37-.31,2.09-.92.72-.62,1.27-1.65,1.64-3.09.57-2.18.86-5.26.86-9.24,0-2.94-.3-5.4-.9-7.37-.45-1.46-1.03-2.49-1.74-3.1-.51-.42-1.13-.63-1.85-.63-.85,0-1.6.39-2.26,1.16-.9,1.05-1.51,2.71-1.83,4.97-.32,2.26-.49,4.49-.49,6.68Zm26.68-13.69c-.2.07-.23.31-.3.48-1,2.41-1.9,4.56-3.13,6.66.6.31,1.3.44,1.93.68.5.65-.6.78-.87,1.22l-.07.99v14.45c0,1.33.33,2.58.03,2.82-.57.54-1.23.95-2.23,1.43-.33.17-.57-.07-.6-.44l-.03-.27.1-4.76.03-11.93v-1.46l-.17.27c-1.03,1.67-2.27,3.2-3.5,4.73l-.63-.34c.9-1.8,1.77-3.33,2.43-4.9l2.43-5.85c.67-1.63,1.53-4.66,1.9-6.6,1.2.48,2.4,1.05,3.57,1.6.33.17.37.41.23.68-.33.31-.77.27-1.13.54Zm1.2,26.08c-.57.61-1.53.68-2.37.51-.33-.1-.7-.41-.73-.82-.1-.27,0-.48.07-.75.13-.48,2.13-1.63,2.87-2.79.43-.68.67-1.46.87-2.24h.67c.13,2.07.1,4.56-1.37,6.09Zm19.7-18.6h-19c-.7,0-1.77.1-2.7.34l-.87-1.29h6.9c-.23-1.53-.63-2.92-1.7-3.98-.93,0-1.93.17-2.83.41l-.97-1.39h8.56c-.4-1.46-1.07-3.03-2.5-3.64l.2-.75c1.63.34,2.77.51,3.97,1.19.77.44,1.1,1.19,1,2.01-.07.48-.27.85-.53,1.19h4.37l1.43-1.97c.13-.2.53-.1.63,0,.93.82,1.47,1.33,2.5,2.48.1.2,0,.44-.27.44h-5.17c.5.24,1.03.48,1.53.75.13.1.07.27.07.41-.3.27-.73.17-1.03.41-.87.88-1.37,1.29-2.37,2.45h4.3l1.53-1.77c.13-.17.37-.2.53.03.7.61,1.77,1.5,2.53,2.18.2.2.13.51-.13.51Zm-4.43,4.08v3.81c0,.88.1,1.29.13,2.41.07.48-.47.68-1.27.95-.43.14-.97.27-1.3.37-.17,0-.3-.14-.3-.37v-1.6h-9.43v.68c0,.14-.03.31-.3.48-.7.44-1.57.88-2.17,1.05-.23.07-.4-.07-.4-.31.23-3.37.2-7.17.03-10.64,1.13.34,2.2.88,3.27,1.43h8.9l1.23-1.29c.1-.1.43-.14.57.03,1,.82,1.2,1.05,1.87,1.67.23.44-.83.65-.83,1.33Zm-2.3,15.5c-2.23.41-4.87.34-7.26.27-1.4-.03-2.3-.31-2.8-1.5l-.23-.85v-6.05c1.2.17,2.1.48,3.27.99.13.07.2.34.07.51-.3.27-.6.34-.8.71v3.16c0,.27.2.48.4.54,1.87.2,3.87.2,5.77,0,.2-.14.5-.31.53-.58l.7-3.94.57.07c.07,1.36-.17,3.13,1.17,3.84l.7.37c-.33,1.02-.9,2.24-2.07,2.45Zm-.33-16.28h-9.53v2.04h9.53v-2.04Zm0,2.99h-9.53v2.41h9.53v-2.41Zm-8.7-11.25c1,.48,2.27.95,2.8,2.14.2.71-.3,1.36-.67,1.87h3.37c.5-1.29.97-2.58,1.4-4.01h-6.9Zm5.23,20.94c-.23.07-.47,0-.67-.1-.43-.58-.47-1.29-.7-1.9-.43-1.12-.83-2.24-1.7-3.13l.33-.44c1.17.34,2.33.88,3.33,1.73.47.41.77,1.05.7,1.7-.07.82-.4,1.77-1.3,2.14Zm9.23,3.03c-.23.17-.57.2-.8.07l-.33-.31c-.73-2.24-1.57-4.39-3.03-6.29l.37-.37c1.6.92,3.7,1.8,4.6,3.71.5,1.05-.13,2.48-.8,3.2Zm19.16-19.96l-.33-.17c-1.37-1.77-2.9-3.6-4.83-4.69-1.07,2.11-2.5,4.18-3.83,6.12l4.83.07,1.47-1.84c.13-.1.43-.1.57.03.73.75,1.37,1.26,2.2,2.18.13.24,0,.58-.27.58l-4.43-.03v4.32h1.07l1.27-1.6c.13-.2.4-.14.6.03.67.58,1.4,1.29,2,1.94.23.27.07.54-.2.54h-4.73v6.63l.27-.44c1-1.63,1.73-3.06,2.4-4.79.9.54,1.73,1.26,2.5,1.9.13.14-.07.31-.23.37-.47.1-.67.17-.9.37-1.33,1.36-2.6,2.62-4.03,3.84v1.56c1.77-.2,3.47-.65,5.2-1.02l.13.68c-3.97,1.5-7.56,2.65-11.6,3.84-.2.75-.87.51-1,.07-.43-1.22-.6-1.77-.83-2.58,1.83-.1,3.7-.34,5.5-.58v-9.79h-2.33c-.63,0-1.17.07-1.97.17l-.6-1.16h4.9v-4.28h-2.43c-.83,1.19-1.87,2.24-2.9,3.33l-.57-.41c.2-.34.43-.68.67-1.05,2.57-4.11,4.5-8.5,5.67-13.29,1.1.44,2.17.92,3.23,1.46.13.1.37.27.23.51-.53.37-1,.58-1.37,1.33l-.1.31c1.9.58,4.03.85,5.43,2.38.67.75.7,1.9.13,2.82-.2.2-.47.34-.77.34Zm-8.83,15.2c-.23.14-.47.37-.77.34-.23-.07-.43-.24-.53-.44-.17-.92-.13-1.84-.33-2.72-.23-1.12-.43-2.07-1.03-2.99l.4-.34c1.13,1.02,2.33,2.04,3,3.4.27,1.02.1,2.07-.73,2.75Zm14-15.26c-.2.24-.5.37-.8.27-.67-.37-.73-1.16-1.07-1.77-.83-1.5-1.7-3.03-3.2-4.22l.3-.51c1.73.65,3.53,1.39,4.93,2.79.6.58.6,1.26.47,2.01-.2.65-.3.95-.63,1.43Zm9.86,3.67l-.03,16.01c0,1.46-2.3,2.24-3.6,2.82h-.17c-.37-1.33-1-2.96-2.53-3.4l-1.4-.58.13-.61c1.4.2,2.77.54,4.23.58.2,0,.53-.1.53-.48v-5.07h-8v4.59l.07,3.47c-.03.24-.23.41-.43.48-.67.37-1.33.65-2.27.88-.2.03-.33-.07-.4-.24l.17-5.13v-11.63c0-1.6-.07-3.43-.17-5.13h.2c.83.48,2.07.99,2.9,1.53l2.57-.03v-7.85l-.1-2.82c1.23.37,2.47.78,3.63,1.36.1.1.13.27.1.44-.33.27-1.03.65-1.03.92v7.96h2.67l1.03-1.33c.2-.2.47-.14.7,0,.53.41.9.68,2,1.6.4.41-.63.95-.8,1.67Zm-2.8-.99h-8.03v4.11h8.03v-4.11Zm0,5.03h-8.03v4.32h8.03v-4.32Zm3.07-11.32c-1.63,1.67-3.27,3.26-5.03,4.66l-.5-.31c.97-1.63,2-3.09,2.8-4.76l1.2-2.45c.93.58,1.7,1.19,2.63,2.01.37.54-.73.48-1.1.85Zm32.09,23.08l1.4-1.8c.13-.2.57-.14.67-.03l2.43,2.21c.27.24.23.58-.03.58l-.23.03h-26.96c-.53,0-1.17.14-1.93.34l-.77-1.36,13.76-.03v-2.58h-7.67c-.53,0-1.33.14-2.1.31l-.77-1.36h10.53v-2.75h-5.4v.54c0,.17-.13.34-.23.41-.7.37-1.4.61-2.27.82-.2.07-.43-.14-.43-.34l.07-3.37v-4.62l-.07-2.38c1.03.31,2.1.68,3.13,1.05h13.5l1.2-1.12c.07-.1.43-.14.6,0,.9.54,1.5,1.09,2.37,1.7.27.78-1.03.99-1.1,1.7v2.75l.07,2.58c0,.27-.13.31-.37.44-.43.2-.9.34-1.73.61-.3.07-.5.1-.67,0-.23-.24-.2-.37-.2-.78h-5.4v2.75h5.9l1.3-1.53c.17-.14.43-.17.67,0l2.2,1.94c.1.14.1.37.03.51l-.27.14h-9.83v2.58l8.6.07Zm1.17-18.7c.07-.14.57-.14.7,0,1.07.71,1.9,1.36,2.93,2.28.27.24.03.58-.2.58h-27.13c-.47,0-1.2.1-1.9.27l-.83-1.33h24.93l1.5-1.8Zm-4.2-8.7c.1-.1.5-.14.7.03,1,.65,1.5.95,2.67,1.84.17.1.13.31,0,.51-.53.44-1.2.85-1.2,1.02,0,1.87,0,3.5.03,5.3,0,.1-.1.34-.27.41-.8.41-1.3.54-2.23.78-.23.07-.43-.17-.47-.34v-.82h-12.4l.03.24c0,.24-.27.44-.63.58-.53.24-1.33.44-1.9.58-.17,0-.33-.1-.37-.31l.07-2.75v-5.17l-.03-2.01c1.17.41,2.23,1.02,3.37,1.39h11.56l1.07-1.29Zm-8.63,14.08h-5.43v2.24h5.43v-2.24Zm0,3.26h-5.43v2.58h5.43v-2.58Zm7.93-14.99h-12.46v2.07h12.46v-2.07Zm0,3.09h-12.46v2.28h12.46v-2.28Zm.6,8.64h-5.43v2.24h5.43v-2.24Zm0,3.26h-5.43v2.58h5.43v-2.58Zm15.16,9.99c-.67.61-1.53.85-2.27.41-.27-.24-.37-.92-.23-1.12,1.13-1.53,2.07-3.03,2.33-4.96l.23-1.67.43-.1c.37,2.38,1.03,5.34-.5,7.44Zm7.96-20.57c-1.87,3.03-4.27,5.85-6.77,8.43,1.6-.07,3.2-.17,4.77-.37-.23-.78-.47-1.46-.93-2.31l.4-.27c1.07.65,2.23,1.5,2.97,2.52.47.61.77,1.33.6,2.07-.2.78-.6,1.46-1.27,1.8-.3.07-.6-.03-.77-.27-.3-.54-.27-1.05-.47-1.8l-.27-.95h-.23l-4.87,1.97-1.07.58c-.27.1-.47-.14-.53-.31l-.87-1.87c-.13-.27.03-.54.2-.54,1.63-.44,2.23-1.7,3.3-3.33.63-.95,1.17-1.97,1.7-2.96-1.33.37-2.67.85-3.87,1.6-.53.07-.63-.44-.83-.88l-.57-1.29c-.07-.17.07-.44.3-.48.53-.1.8-.1.93-.31.97-2.14,1.9-4.21,2.4-6.53l.53-2.41c1.13.31,2.33.78,3.27,1.26.17.14.2.41.1.58-.33.2-.73.37-1.1.51-1.23,2.35-2.53,4.69-4.1,6.83l3.67-.24c.63-1.19,1.1-2.41,1.53-3.67h.2c.93.54,1.9,1.09,2.77,1.63.07.14.1.34,0,.48-.33.27-.73.41-1.13.54Zm-4.37,19.96c-.27,0-.47-.07-.67-.2l-.17-.37c.17-2.21.4-4.56-.23-6.66l.53-.24c.97,1.73,2.27,3.47,2,5.64-.23.78-.73,1.53-1.47,1.84Zm3.8-1.84c-.2.07-.5.07-.67-.07-.63-.37-.37-1.05-.4-1.84-.03-1.5-.37-2.99-.97-4.32l.57-.27,1.57,1.73c.63.88,1.27,1.9,1,3.13-.17.65-.67,1.26-1.1,1.63Zm1.13,3.16c-.7.2-1.6.14-2.13-.31-.17-.27-.23-.54-.17-.85.23-.54.7-.71,1.2-1.05,1.6-1.19,2.43-3.06,3.03-4.86l.63.14c-.07,2.48-.17,5.71-2.57,6.94Zm16.4-23.97v11.69c0,.71.17,1.56.03,1.97-.13.51-1.27.88-2.23,1.22-.2.03-.33-.17-.4-.31v-1.8h-9.96c0,1.05.03,1.26-.13,1.36-.77.41-1.4.65-2.13.85-.23.03-.37-.14-.43-.34l.03-6.32v-8.94l-.1-2.28c1.03.44,2.03.92,3.03,1.5h1.97c.6-1.46.87-2.75,1.13-4.35,1.13.31,2.13.71,3.17,1.09.23.1.33.34.27.58l-.2.2-1.17.54c-.63.68-.93,1.05-1.77,1.87l6,.07,1.03-1.29c.03-.14.33-.14.53,0,.73.37,1.4.78,2.13,1.36.17.14.23.37.07.58-.27.31-.73.34-.87.75Zm-3.33,24.24l-1,.27c-2.03.07-4.23.2-6.2-.03-.83-.1-1.63-.58-1.93-1.36l-.17-1.02v-5.24l-.13-1.53c1.17.24,2.27.51,3.33.88.17.14.17.34.1.51-.3.34-.9.41-.9.95v3.84c0,.41.4.65.77.68,1.3.1,2.53.07,3.87.03.87-.03,1.43-2.18,1.67-3.4l.07-1.12.63.03c-.1,1.67.03,3.57,1.7,4.39-.43.95-.9,1.73-1.8,2.11Zm-9.23-24.72v12.31h9.96l.03-12.31h-10Zm8.4,4.69c-.53,1.12-1,2.01-1.73,2.86.73.48,1.7,1.19,1.83,2.14.07.65-.07,1.16-.57,1.5-.37.1-.6-.17-.83-.37-.53-.61-1.13-1.29-1.7-1.9-1.37,1.19-2.87,2.24-4.43,2.99-.17-.07-.33-.24-.4-.37,1.37-.99,2.7-2.31,3.67-3.67-.53-.51-1.17-1.09-1.8-1.46l-1.63,1.87c-.2.03-.37-.14-.53-.24,1.3-2.52,2.43-5.1,2.6-7.96,1.07.24,2.07.61,3.07.95.13.1.2.24.13.37-.33.54-.83.07-1.33,1.05l-.23.48-.07.14h1.6l.87-1.09c.1-.14.37-.14.57,0l2,1.16c.2.14.3.37.2.58-.37.44-1,.44-1.27.99Zm-4.43-.68l-1.03,1.7,2.07.88c.47-.82.8-1.67,1.07-2.58h-2.1Zm1.77,16.49c-.27.17-.7.07-.8-.24-.27-.99-.43-2.04-.7-3.03-.3-.82-.6-1.7-1.03-2.48l.47-.31c1.17.75,2.6,1.84,3.17,3.09.33,1.16-.43,2.41-1.1,2.96Zm8.43,3.09c-.2.31-.63.24-.93.17l-.3-.37c-.9-2.38-1.97-4.59-3.57-6.63l.43-.34,1.07.58c1.37.75,2.77,1.8,3.63,3.2.67,1.09.23,2.48-.33,3.4Zm19.02-4.32c0,1.16.07,2.31.07,3.47-.07.54-.4.58-1.07.85l-1.17.34c-.2.03-.43-.1-.43-.27v-1.8l-4.23-.03-.03,2.14c0,.2-.1.44-.47.61-.6.31-1.17.58-1.83.68-.2,0-.33-.07-.43-.27.07-1.22.17-2.38.17-3.71v-3.13c0-1.22-.03-2.41-.1-3.54-1.07.51-2.1,1.05-3.23,1.46l-.4-.51c2.67-1.63,5.4-3.4,7.63-5.81-1.1-.61-2.1-1.05-3.43-1.56-.93.85-1.93,1.73-2.97,2.41-.17-.07-.3-.2-.43-.31,2.4-2.72,4.2-5.85,5.23-9.18l.17.03c1.17.61,1.8.99,2.77,1.7.17.54-.77.51-1.13.82-.2.24-.4.54-.6.78l3.83.07.9-.85c.17-.24.47-.14.7,0,.47.34,1.07.82,1.97,1.53.47.41-.77.75-1.2,1.12-.93,1.16-1.57,1.9-2.53,2.96,1.4.51,2.8,1.22,4,2.28.53.48.87,1.26.67,1.97-.13.51-.27.92-.73.92-.57-.03-.87-.41-1.3-.75-1.33-1.09-2.73-2.04-4.13-2.92l-.2.07c-1.1,1.05-2.5,1.84-3.73,2.69.3.2.6.34,1.13.65l3.6-.03.8-.95c.2-.24.5-.2.7-.03,1.07.68,1.2.82,1.97,1.39.53.37-.3.95-.5,1.46v3.26Zm.67-20.47c.03-.1.33-.14.5,0,.93.71,1.9,1.5,2.67,2.35.13.24,0,.44-.3.48-1.9-.14-2.97.51-4.87,1.56l-.4-.27,1.33-2.01-8.86.03c-.2,1.19-.43,2.48-1.63,3.03-.53.17-1.33.41-1.83-.1-.23-.31-.37-.85-.1-1.29,1.37-1.16,2.77-2.55,2.93-4.45l.63.14c.03.61.03,1.26.07,1.84h8.83l1.03-1.29Zm-7.17,6.53c-.67.82-1.2,1.43-1.9,2.24l3.97.95c.73-.95,1.63-2.24,2.07-3.2h-4.13Zm-.33-10.27c1.87.58,3.63.95,4.17,2.18.23,1.05-.13,1.94-.83,2.38-.33.14-.93.31-1.13-.03-.63-1.43-1.17-2.99-2.5-4.01l.3-.51Zm4.27,19.92h-4.3v6.05h4.3v-6.05Zm11.4,5.98c.13.14.1.31.03.44-.3.17-.7.1-1.03.17-3.03,1.84-6.17,3.57-9.53,4.66l-.43-.51c2.93-1.87,6.03-3.77,8.36-6.56l2.6,1.8Zm-3.03-2.38v.51c0,.24-.2.37-.53.48-.37.24-.77.41-1.2.61-.47.2-.97.24-.97-.17l.17-8.02-.03-6.9-.13-3.09c1.23.48,2,.92,3.03,1.33h1c.37-1.39.63-2.86.73-4.32h-3.67c-.63,0-1.2.1-1.83.31l-.7-1.12h11.23l1.37-1.73c.07-.1.47-.1.6.03.9.75,1.33,1.22,2.13,2.04.03.14.1.31,0,.41l-.17.07h-5.9c-.73,1.46-1.5,2.99-2.53,4.28h3.63l1.1-1.26c.1-.14.43-.2.63,0,.63.44,1.2.85,1.9,1.56.5.51-.77.92-.77,1.67v4.76l.17,8.64c0,.24-.07.44-.4.68-.3.24-1.13.51-1.9.71-.2,0-.4-.1-.43-.31v-1.16h-6.53Zm6.53-14.45h-6.53v3.98h6.53v-3.98Zm0,4.79h-6.53v4.01h6.53v-4.01Zm0,4.83h-6.53v4.01h6.53v-4.01Zm-2.73,5.88c1.83.51,4.4,1.33,6.07,2.55.8.58,1.17,1.36,1.1,2.21-.03.78-.4,1.36-1.03,1.63-.23.03-.53.03-.7-.2-1.6-2.21-3.23-4.35-5.63-5.64l.2-.54ZM396.56,0h-1v103.05h1V0Zm0,230.69h-1v103.05h1v-103.05Zm164.84,140.2c.72-1.69,1.62-3,2.72-3.92,1.09-.92,2.46-1.38,4.09-1.38,2.02,0,3.56.66,4.64,1.97.82.98,1.22,2.02,1.22,3.13,0,1.83-1.15,3.72-3.45,5.68,1.55.61,2.71,1.47,3.51,2.6s1.19,2.45,1.19,3.97c0,2.18-.69,4.06-2.08,5.66-1.81,2.08-4.42,3.12-7.85,3.12-1.69,0-2.85-.21-3.46-.63-.61-.42-.92-.87-.92-1.35,0-.36.15-.67.44-.95s.64-.41,1.05-.41c.31,0,.62.05.95.15.21.06.69.29,1.43.68.74.39,1.25.62,1.54.7.46.14.95.2,1.47.2,1.26,0,2.36-.49,3.29-1.47.93-.98,1.4-2.13,1.4-3.47,0-.98-.22-1.93-.65-2.86-.32-.69-.67-1.22-1.06-1.58-.53-.49-1.26-.94-2.19-1.34-.93-.4-1.87-.6-2.84-.6h-.59v-.56c.98-.12,1.96-.48,2.94-1.06.98-.58,1.7-1.28,2.14-2.1.44-.82.67-1.71.67-2.69,0-1.27-.4-2.3-1.2-3.09s-1.79-1.18-2.98-1.18c-1.92,0-3.52,1.03-4.8,3.08l-.61-.3Z"/>
  </g>
</svg>