<?xml version="1.0" encoding="UTF-8"?>
<svg id="b" data-name="圖層 2" xmlns="http://www.w3.org/2000/svg" viewBox="0 0 509.53 512.43">
  <defs>
    <style>
      .d {
        fill: #ff491b;
        stroke-width: 0px;
      }
    </style>
  </defs>
  <g id="c" data-name="圖層 1">
    <path class="d" d="m255.66,391.68h-1v-96.58h1v96.58ZM255.66,0h-1v133.45h1V0Zm-78.17,169.11h2.24v-6.15c.13.03.29.05.49.08.2.03.42.05.65.07.23.02.48.04.73.05.25,0,.5.01.73.01.54,0,1.07-.07,1.6-.22.52-.14.99-.36,1.4-.66.41-.29.74-.67.99-1.11.25-.45.38-.97.38-1.58s-.13-1.15-.39-1.62c-.26-.47-.61-.87-1.06-1.19-.45-.32-.98-.57-1.59-.74-.61-.17-1.26-.25-1.96-.25h-4.21v13.3Zm2.24-12.32h1.59c.41,0,.8.07,1.17.21.36.14.68.34.95.6.27.26.48.57.64.93.15.36.23.77.23,1.22,0,.38-.06.74-.18,1.08-.12.34-.3.63-.54.88s-.54.45-.9.59c-.36.14-.78.22-1.26.22-.3,0-.6-.03-.88-.09s-.56-.13-.81-.22v-5.43Zm13.75,12.32h2.24v-6.25h1.56l4.63,6.25h2.6l-4.85-6.45c.48-.12.92-.29,1.32-.5.4-.21.74-.46,1.03-.75s.5-.62.66-.98c.16-.36.24-.75.24-1.16,0-.5-.1-.96-.31-1.39s-.51-.79-.91-1.1c-.4-.31-.9-.55-1.51-.72-.6-.17-1.3-.26-2.1-.26h-4.62v13.3Zm2.24-12.47h1.97c.41,0,.78.07,1.13.2.34.13.64.32.89.56.25.24.44.52.58.86.14.33.21.7.21,1.1,0,.44-.09.83-.26,1.17-.17.35-.42.64-.73.89s-.68.43-1.1.57c-.43.13-.89.2-1.39.2h-1.29v-5.55Zm23.43,12.53c.63-.17,1.22-.4,1.76-.71.55-.31,1.04-.68,1.48-1.1s.82-.9,1.14-1.42c.32-.52.56-1.08.73-1.68.17-.6.26-1.22.26-1.86s-.08-1.25-.26-1.84c-.17-.59-.41-1.14-.73-1.65-.32-.51-.7-.97-1.14-1.39s-.93-.78-1.48-1.07c-.54-.3-1.13-.53-1.76-.69-.63-.16-1.29-.25-1.98-.25s-1.35.08-1.98.25c-.63.16-1.21.4-1.76.69-.54.3-1.04.66-1.48,1.07s-.82.88-1.14,1.39c-.31.51-.56,1.06-.73,1.65-.17.59-.26,1.2-.26,1.84,0,.97.19,1.88.57,2.73s.9,1.6,1.56,2.24,1.44,1.14,2.33,1.51c.89.37,1.85.55,2.88.55.69,0,1.35-.08,1.98-.25Zm-4.02-.88c-.59-.32-1.08-.76-1.48-1.33s-.7-1.24-.9-2.02c-.2-.78-.3-1.63-.3-2.55s.1-1.76.3-2.52.5-1.42.9-1.97.89-.98,1.48-1.29c.58-.3,1.27-.46,2.04-.46s1.44.15,2.02.46c.58.3,1.08.73,1.48,1.29s.7,1.21.91,1.97.31,1.6.31,2.52-.1,1.77-.31,2.55c-.2.78-.51,1.45-.91,2.02s-.89,1.01-1.48,1.33c-.59.32-1.26.48-2.02.48s-1.46-.16-2.04-.48Zm16.51.82h1v-10.82h.15l5.51,10.82h.46l5.45-10.91h.07v10.91h2.25v-13.3h-2.25l-5.08,10.2h-.11l-5.18-10.2h-2.29v13.3Zm22.62,0h2.24v-13.3h-2.24v13.3Zm13.09-.72c-.38-.13-.73-.31-1.05-.55s-.59-.53-.83-.87c-.24-.34-.43-.73-.57-1.16l-1.19.49c.17.5.4.93.67,1.32.27.38.6.71.99.98.38.27.83.47,1.33.61.5.14,1.07.21,1.72.21.79,0,1.48-.1,2.08-.3.6-.2,1.09-.47,1.5-.82s.7-.75.9-1.21c.2-.46.3-.96.3-1.49,0-.47-.11-.89-.32-1.27-.21-.38-.5-.73-.85-1.04-.35-.32-.76-.61-1.21-.88-.45-.27-.91-.52-1.38-.77-.47-.25-.93-.49-1.38-.73-.45-.24-.85-.49-1.21-.75-.35-.26-.64-.53-.85-.82-.21-.29-.32-.61-.32-.96,0-.25.05-.49.16-.73.1-.24.26-.45.47-.64.21-.19.47-.34.79-.46.31-.12.68-.18,1.1-.18.48,0,.9.07,1.28.2.38.13.71.32,1,.56.29.24.53.53.74.87.21.34.38.71.51,1.12l1.14-.52c-.16-.5-.37-.94-.63-1.32-.26-.38-.58-.7-.95-.96-.37-.26-.81-.46-1.3-.59-.5-.13-1.06-.2-1.69-.2-.7,0-1.31.09-1.85.27-.54.18-.99.43-1.36.75-.37.32-.65.69-.84,1.13-.19.44-.29.91-.29,1.41s.11.96.32,1.35c.21.39.49.75.83,1.06.34.32.73.61,1.17.86s.88.5,1.34.74c.46.23.9.47,1.34.7.44.23.83.48,1.17.75.34.26.62.56.83.87.21.32.32.68.32,1.09,0,.34-.08.64-.23.9s-.36.48-.61.65c-.25.18-.54.31-.86.4-.32.09-.65.14-.97.14-.44,0-.84-.06-1.23-.19Zm13.06-12.58v13.3h9.25v-.86h-7.01v-5.96h4.7v-.86h-4.7v-4.76h7.01v-.86h-9.25Zm33.03,13.36c.63-.17,1.22-.4,1.76-.71.55-.31,1.04-.68,1.48-1.1s.82-.9,1.14-1.42c.32-.52.56-1.08.73-1.68.17-.6.26-1.22.26-1.86s-.08-1.25-.26-1.84c-.17-.59-.41-1.14-.73-1.65-.32-.51-.7-.97-1.14-1.39s-.93-.78-1.48-1.07c-.54-.3-1.13-.53-1.76-.69-.63-.16-1.29-.25-1.98-.25s-1.35.08-1.98.25c-.63.16-1.21.4-1.76.69-.54.3-1.04.66-1.48,1.07s-.82.88-1.14,1.39c-.31.51-.56,1.06-.73,1.65-.17.59-.26,1.2-.26,1.84,0,.97.19,1.88.57,2.73s.9,1.6,1.56,2.24,1.44,1.14,2.33,1.51c.89.37,1.85.55,2.88.55.69,0,1.35-.08,1.98-.25Zm-4.02-.88c-.59-.32-1.08-.76-1.48-1.33s-.7-1.24-.9-2.02c-.2-.78-.3-1.63-.3-2.55s.1-1.76.3-2.52.5-1.42.9-1.97.89-.98,1.48-1.29c.58-.3,1.27-.46,2.04-.46s1.44.15,2.02.46c.58.3,1.08.73,1.48,1.29s.7,1.21.91,1.97.31,1.6.31,2.52-.1,1.77-.31,2.55c-.2.78-.51,1.45-.91,2.02s-.89,1.01-1.48,1.33c-.59.32-1.26.48-2.02.48s-1.46-.16-2.04-.48Zm16.37-12.49v13.3h2.24v-6.82h4.7v-.86h-4.7v-4.76h6.49v-.86h-8.73Zm-117.87,42v13.3h2.24v-6.82h4.7v-.86h-4.7v-4.76h6.49v-.86h-8.73Zm14.55,8.58c0,.7.12,1.35.37,1.96s.6,1.15,1.08,1.6c.48.45,1.07.81,1.78,1.08.71.26,1.52.4,2.43.4,1.03,0,1.91-.13,2.65-.4.74-.26,1.34-.62,1.81-1.07.47-.45.82-.98,1.04-1.58.22-.6.33-1.24.33-1.93v-8.64h-.98v8.64c0,.57-.1,1.1-.29,1.6-.19.5-.46.93-.82,1.31s-.79.67-1.3.89c-.51.22-1.08.33-1.72.33s-1.2-.11-1.71-.33c-.51-.22-.95-.51-1.31-.89-.36-.37-.64-.81-.83-1.31-.19-.5-.29-1.03-.29-1.6v-8.64h-2.24v8.58Zm17.58-8.58v.86h4.82v12.44h2.24v-12.44h4.82v-.86h-11.87Zm17.97,8.58c0,.7.12,1.35.37,1.96s.6,1.15,1.08,1.6c.48.45,1.07.81,1.78,1.08.71.26,1.52.4,2.43.4,1.03,0,1.91-.13,2.65-.4.74-.26,1.34-.62,1.81-1.07.47-.45.82-.98,1.04-1.58.22-.6.33-1.24.33-1.93v-8.64h-.98v8.64c0,.57-.1,1.1-.29,1.6-.19.5-.46.93-.82,1.31s-.79.67-1.3.89c-.51.22-1.08.33-1.72.33s-1.2-.11-1.71-.33c-.51-.22-.95-.51-1.31-.89-.36-.37-.64-.81-.83-1.31-.19-.5-.29-1.03-.29-1.6v-8.64h-2.24v8.58Zm19,4.73h2.24v-6.25h1.56l4.63,6.25h2.6l-4.85-6.45c.48-.12.92-.29,1.32-.5.4-.21.74-.46,1.03-.75s.5-.62.66-.98c.16-.36.24-.75.24-1.16,0-.5-.1-.96-.31-1.39s-.51-.79-.91-1.1c-.4-.31-.9-.55-1.51-.72-.6-.17-1.3-.26-2.1-.26h-4.62v13.3Zm2.24-12.47h1.97c.41,0,.78.07,1.13.2.34.13.64.32.89.56.25.24.44.52.58.86.14.33.21.7.21,1.1,0,.44-.09.83-.26,1.17-.17.35-.42.64-.73.89s-.68.43-1.1.57c-.43.13-.89.2-1.39.2h-1.29v-5.55Zm14.71-.83v13.3h9.25v-.86h-7.01v-5.96h4.7v-.86h-4.7v-4.76h7.01v-.86h-9.25ZM14.83,239.64l-14.83,31.46h2.6l4.85-10.26h13.2l4.69,10.26h5.27l-14.48-31.46h-1.3Zm-.72,7.03l5.59,12.18h-11.35l5.75-12.18Zm31.38,3.33c.66-1.72,1.56-3.19,2.71-4.4s2.5-2.13,4.05-2.78c1.55-.65,3.21-.97,4.99-.97,2.07,0,3.91.58,5.5,1.73,1.59,1.15,3.03,2.97,4.32,5.46l2.25-1.49c-.63-1.04-1.4-2.03-2.29-2.98-.89-.95-1.9-1.79-3.04-2.52s-2.4-1.31-3.78-1.75c-1.38-.44-2.9-.66-4.54-.66s-3.33.2-4.85.59c-1.52.39-2.91.95-4.19,1.67-1.28.72-2.42,1.58-3.43,2.58-1.01,1-1.87,2.1-2.58,3.29-.7,1.2-1.24,2.48-1.61,3.85-.37,1.37-.56,2.77-.56,4.21,0,2.17.41,4.22,1.22,6.16.81,1.94,1.96,3.64,3.45,5.09,1.48,1.45,3.27,2.61,5.35,3.46,2.08.85,4.4,1.28,6.95,1.28,1.76,0,3.36-.22,4.79-.65,1.43-.43,2.71-1.02,3.85-1.75,1.14-.73,2.14-1.58,3-2.53.87-.95,1.62-1.94,2.25-2.98l-2.18-1.39c-.43.87-.99,1.72-1.67,2.56-.68.84-1.45,1.6-2.31,2.27-.86.67-1.79,1.22-2.8,1.64-1.01.42-2.05.63-3.13.63-1.81,0-3.49-.31-5.04-.94-1.55-.63-2.89-1.53-4.03-2.71-1.14-1.18-2.03-2.63-2.68-4.34-.65-1.71-.97-3.64-.97-5.79s.33-4.11.99-5.83Zm41.62,0c.66-1.72,1.56-3.19,2.71-4.4s2.5-2.13,4.05-2.78c1.55-.65,3.21-.97,4.99-.97,2.07,0,3.91.58,5.5,1.73,1.59,1.15,3.03,2.97,4.32,5.46l2.25-1.49c-.63-1.04-1.4-2.03-2.29-2.98-.89-.95-1.9-1.79-3.04-2.52s-2.4-1.31-3.78-1.75c-1.38-.44-2.9-.66-4.54-.66s-3.33.2-4.85.59c-1.52.39-2.91.95-4.19,1.67-1.28.72-2.42,1.58-3.43,2.58-1.01,1-1.87,2.1-2.58,3.29-.7,1.2-1.24,2.48-1.61,3.85-.37,1.37-.56,2.77-.56,4.21,0,2.17.41,4.22,1.22,6.16.81,1.94,1.96,3.64,3.45,5.09,1.48,1.45,3.27,2.61,5.35,3.46,2.08.85,4.4,1.28,6.95,1.28,1.76,0,3.36-.22,4.79-.65,1.43-.43,2.71-1.02,3.85-1.75,1.14-.73,2.14-1.58,3-2.53.87-.95,1.62-1.94,2.25-2.98l-2.18-1.39c-.43.87-.99,1.72-1.67,2.56-.68.84-1.45,1.6-2.31,2.27-.86.67-1.79,1.22-2.8,1.64-1.01.42-2.05.63-3.13.63-1.81,0-3.49-.31-5.04-.94-1.55-.63-2.89-1.53-4.03-2.71-1.14-1.18-2.03-2.63-2.68-4.34-.65-1.71-.97-3.64-.97-5.79s.33-4.11.99-5.83Zm55.92,21.24c1.45-.39,2.81-.94,4.07-1.65,1.26-.71,2.4-1.56,3.42-2.55,1.02-.99,1.9-2.09,2.63-3.29.73-1.21,1.3-2.5,1.69-3.89.39-1.38.59-2.82.59-4.3s-.2-2.88-.59-4.25c-.39-1.36-.96-2.63-1.69-3.8-.73-1.18-1.61-2.25-2.63-3.21-1.02-.97-2.16-1.79-3.42-2.48-1.26-.69-2.62-1.22-4.07-1.6-1.45-.38-2.98-.57-4.57-.57s-3.12.19-4.57.57c-1.45.38-2.81.91-4.06,1.6-1.25.69-2.39,1.52-3.42,2.48-1.03.97-1.91,2.04-2.63,3.21-.73,1.18-1.29,2.44-1.68,3.8-.39,1.36-.59,2.78-.59,4.25,0,2.24.44,4.35,1.31,6.32.87,1.97,2.07,3.7,3.6,5.17,1.52,1.48,3.32,2.64,5.38,3.49,2.06.85,4.29,1.28,6.67,1.28,1.59,0,3.12-.19,4.57-.58Zm-9.29-2.03c-1.35-.74-2.49-1.76-3.41-3.08-.92-1.32-1.61-2.87-2.08-4.67-.46-1.8-.7-3.76-.7-5.9s.23-4.06.7-5.83c.46-1.76,1.16-3.29,2.08-4.56.92-1.28,2.06-2.27,3.41-2.97,1.35-.7,2.93-1.06,4.72-1.06s3.32.35,4.68,1.06c1.35.7,2.49,1.7,3.42,2.97.93,1.28,1.63,2.8,2.1,4.56.47,1.77.71,3.71.71,5.83s-.24,4.1-.71,5.9-1.17,3.35-2.1,4.67c-.93,1.32-2.07,2.34-3.42,3.08-1.35.73-2.91,1.1-4.68,1.1s-3.37-.37-4.72-1.1Zm33.42,1.89h2.32v-25.01h.35l12.75,25.01h1.07l12.61-25.22h.16v25.22h5.2v-30.77h-5.2l-11.74,23.6h-.26l-11.97-23.6h-5.29v30.77Zm47.56,0h5.17v-14.22c.29.06.67.12,1.14.19s.97.12,1.51.16c.54.05,1.11.08,1.69.1s1.15.03,1.69.03c1.25,0,2.48-.17,3.69-.5s2.29-.84,3.24-1.52c.95-.68,1.72-1.54,2.3-2.58s.87-2.25.87-3.64-.3-2.66-.89-3.75c-.6-1.09-1.42-2.01-2.46-2.76-1.04-.75-2.27-1.32-3.68-1.71-1.41-.39-2.92-.58-4.52-.58h-9.75v30.77Zm5.17-28.49h3.67c.96,0,1.86.16,2.7.49.84.33,1.58.79,2.2,1.38.63.6,1.12,1.31,1.47,2.15.36.84.53,1.77.53,2.81,0,.88-.14,1.72-.41,2.5s-.68,1.46-1.24,2.05-1.25,1.04-2.09,1.37c-.83.33-1.81.5-2.92.5-.7,0-1.38-.07-2.04-.2-.67-.13-1.29-.3-1.88-.5v-12.55Zm27.05,28.49h20.67v-2h-15.5v-28.77h-5.17v30.77Zm30.04,0h5.17v-30.77h-5.17v30.77Zm25.53-1.67c-.89-.29-1.7-.72-2.42-1.26-.73-.55-1.37-1.22-1.91-2.01-.55-.79-.99-1.69-1.31-2.69l-2.76,1.14c.4,1.14.92,2.16,1.55,3.05.63.89,1.4,1.64,2.29,2.26.89.62,1.91,1.09,3.07,1.42,1.16.33,2.48.49,3.97.49,1.82,0,3.43-.23,4.8-.7,1.38-.46,2.53-1.09,3.46-1.89s1.62-1.73,2.09-2.81c.46-1.07.7-2.22.7-3.45,0-1.08-.25-2.06-.74-2.94-.5-.87-1.15-1.68-1.97-2.41-.82-.73-1.75-1.41-2.8-2.03-1.04-.62-2.11-1.21-3.19-1.79-1.08-.57-2.15-1.14-3.19-1.69-1.04-.56-1.98-1.13-2.8-1.73s-1.48-1.23-1.97-1.9-.74-1.41-.74-2.22c0-.57.12-1.13.36-1.68.24-.55.6-1.04,1.09-1.48.49-.44,1.09-.8,1.82-1.07.73-.27,1.58-.41,2.55-.41,1.1,0,2.08.15,2.96.45s1.64.73,2.31,1.29c.67.56,1.24,1.23,1.72,2.01.48.78.87,1.64,1.18,2.59l2.65-1.21c-.37-1.16-.86-2.18-1.46-3.06-.6-.88-1.34-1.62-2.2-2.23s-1.87-1.06-3.02-1.37c-1.15-.31-2.44-.46-3.9-.46-1.61,0-3.04.21-4.28.63-1.25.42-2.29.99-3.14,1.73-.85.73-1.5,1.6-1.94,2.61-.44,1.01-.66,2.1-.66,3.27s.24,2.22.73,3.12,1.13,1.73,1.91,2.46c.79.73,1.69,1.4,2.7,2,1.01.6,2.05,1.16,3.1,1.71,1.05.54,2.08,1.08,3.1,1.62s1.91,1.12,2.7,1.73c.79.61,1.43,1.28,1.91,2.02.49.73.73,1.57.73,2.52,0,.79-.18,1.48-.53,2.08s-.83,1.1-1.42,1.51c-.59.41-1.25.72-2,.93-.74.21-1.49.31-2.25.31-1.01,0-1.95-.15-2.84-.44Zm46.09-13.09v14.76h5.17v-30.77h-5.17v14.01h-15.45v-14.01h-5.17v30.77h5.17v-14.76h15.45Zm18.3,14.76h2.32v-25.01h.35l12.75,25.01h1.07l12.61-25.22h.16v25.22h5.2v-30.77h-5.2l-11.74,23.6h-.26l-11.97-23.6h-5.29v30.77Zm47.56-30.77v30.77h21.39v-2h-16.22v-13.78h10.86v-2h-10.86v-11h16.22v-2h-21.39Zm32.22,30.77h2.32v-24.29h.19l21.85,25.01h1.21v-31.49h-2.27v22.51h-.23l-20.16-22.51h-2.9v30.77Zm35.4-30.77v2h11.14v28.77h5.17v-28.77h11.14v-2h-27.45ZM65.71,454.37v-13.14c.32-.43.46-.58.74-.97.07-.18,0-.4-.18-.47l-1.52-.76-.18-.07c1.02-2.09,2.01-4.25,2.86-6.44l.14-.29c.88-.65,1.41-1.04,1.52-1.22.04-.22-.04-.36-.14-.5-1.09-.47-2.29-1.04-3.77-1.66-1.09,4.18-2.15,8.31-3.99,12.17l-2.5,5.26-1.2,2.09.67.43c1.8-2.12,3.28-4.32,4.8-6.62.04.07,0,.11.04.18v7.6l-.07,11.55c.04.18.14.4.42.4.74-.18,1.48-.54,2.22-.94.21-.07.28-.25.28-.47l-.14-6.12Zm15.52-2.27l-.14.54,1.41.76c1.09.43,1.2,1.69,1.38,2.7l.32-.07c1.38-.65,3.35-1.44,3.35-3.31l-.04-6.98v-1.01c.49-.47.78-.83,1.16-1.26.18-.14.21-.4.04-.54-.92-.72-1.31-.86-2.19-1.48-.25-.11-.56-.14-.71.04l-1.16,1.3h-4.37v-3.38c.28-.29.53-.5.92-.83.25-.18.18-.61-.07-.68-1.23-.5-2.47-.83-3.74-1.26.18,1.91.21,3.13.21,6.16h-4.27c-.35-.14-.74-.32-1.06-.58,1.16-1.8,2.43-3.85,3.42-6.01h14.57l.32-.07c.18-.14.21-.43.07-.58-.78-.86-1.73-1.76-2.75-2.59-.14-.18-.53-.14-.63,0l-1.83,2.16-9.24-.07c.42-1.04.85-2.12,1.2-3.24l1.31-1.01c.25-.18.39-.61,0-.79-1.31-.58-2.26-1.04-3.81-1.62-.6,2.23-1.16,4.57-1.94,6.73h-5.89l1.09,1.48c1.06-.22,1.48-.4,1.98-.4h2.43c-.85,2.52-1.94,4.93-3.32,7.23l-3.14,5.26.49.36c1.27-1.44,2.4-2.7,3.6-4.1l.25-.29v5.22l-.11,6.66c0,.4.46.32.78.22l1.06-.4c.74-.29,1.06-.47,1.06-.9l-.11-3.49v-8.1h4.48l-.04,10.04-.11,7.67c.07.29.42.4.67.29.78-.29,1.48-.47,1.98-.76.21-.18.46-.36.39-.72l-.18-8.17v-8.35h4.52v7.92c0,.25-.28.47-.56.47l-3.03-.14Zm38.67-9.9h-18.31l.04-3.92h15.56l.04,1.33c0,.29.11.43.49.43l2.19-.68c.21-.11.46-.32.46-.61-.11-1.73-.11-3.64-.07-5.4l.25-.32c.35-.47,1.27-.79.95-1.26-.88-.72-1.8-1.3-2.79-1.91-.18-.18-.53-.18-.67.04l-1.16,1.84h-14.78c-1.2-.72-2.4-1.4-3.67-1.94l.11,3.92v8.75c0,2.38-.28,4.57-.6,6.8-.63,4.25-2.43,7.99-4.44,11.66.18.14.39.4.63.4,2.58-2.74,5.12-5.79,6-9.39l.07-.29c.67-2.81,1.2-5.26,1.38-8.35h18.8c-.11,3.67-.28,7.67-.78,11.37-.21,1.66,0,2.74-1.52,2.88-1.94-.04-3.77-.25-5.57-.5l-.11.83c.74.14,1.38.43,2.01.76,1.41.54,2.43,1.94,2.65,3.42,1.87-.68,4.59-1.48,5.01-3.71.71-3.56,1.06-9.47,1.27-14.33.11-.65,1.13-1.3.81-1.55-.85-.76-1.48-1.3-2.4-1.94-.21-.22-.64-.14-.67,0l-1.16,1.69Zm-2.68-5h-15.56v-4.39h15.56v4.39Zm-10.41,16.27h6.28v1.84c0,.18.25.32.49.29l1.52-.58c.49-.18.85-.32.85-.61-.07-.76-.11-1.51-.11-2.41l-.04-3.2c0-.61.28-.61.95-1.26.18-.11.21-.4-.11-.65l-2.05-1.66c-.21-.18-.53-.11-.63,0l-1.13,1.48h-5.61c-1.13-.54-2.15-1.08-3.28-1.51l.11,2.02v6.73l-.07,2.45c.04.14.21.29.39.32.49-.18.99-.36,1.45-.58.78-.32.99-.43.99-.72v-1.94Zm6.28-1.12h-6.24v-4.57h6.24v4.57Zm48.58-9.39c-9.42-3.24-11.54-6.33-14.75-10.04.6-.65,1.59-1.48.85-2.05l-2.65-2.12-2.22,1.94h-7.37l1.41,1.44c.6-.32,2.08-.36,2.33-.36h4.16c-2.82,4.25-6.21,8.67-11.11,12.17-1.23.86-2.54,1.66-3.7,2.48l.42.47c6.46-2.12,12.88-7.2,16.62-13.43.63.86,1.2,1.94,1.73,2.84,2.19,3.74,5.79,6.73,9.31,8.85l.28.07c1.16-1.22,2.33-1.58,4.34-1.66l.35-.61Zm-2.29,16.95c-1.2-1.08-2.12-1.87-3.39-2.84-.14-.11-.46-.11-.6.07l-1.83,2.27h-7.09v-7.02l9.28.04c.42,0,.49-.54.04-.9l-3-2.52c-.21-.22-.6-.18-.71-.04l-1.55,2.38h-4.06v-6.33h7.34c.46,0,.35-.58,0-.83-1.06-.94-1.34-1.26-2.47-2.12-.14-.11-.49-.14-.6,0l-1.48,1.87h-13.16l.71,1.33c.88-.14,1.55-.25,2.12-.25h4.44v6.33h-9.42l.74,1.33c.53-.14,1.38-.29,2.12-.29h6.56v7.02h-12.66l.71,1.44c1.09-.25,2.01-.4,2.72-.4l25.05.04c.28,0,.35-.43.21-.58Zm34.79-17.31c-.35-1.98-1.8-2.88-3-3.85-2.72-1.62-5.43-3.13-8.36-4.28l-.32.5c2.36,1.8,4.69,3.78,6.6,6.16-.71.14-1.48.18-2.19.22l-7.37.47c-3.07.18-5.33.18-8.01.14,3.17-2.77,6.14-6.19,8.85-9.47.46-.76,1.41-.5,2.15-.68l.25-.22c.07-.18,0-.4-.18-.54-1.23-.83-3-1.76-4.34-2.45-2.08,4.39-4.9,8.67-7.83,12.63-.49.36-1.06.61-1.69.68-.56.22-1.27,0-1.8.25-.07.11-.18.29-.11.47l1.02,2.48c.21.5.74.83,1.45.11,3.35-1.01,7.87-1.37,12.38-1.94l8.25-1.04c.92,1.08,1.45,2.38,2.29,3.49.21.22.53.25.81.18,1.13-.65,1.2-1.69,1.13-3.31Zm-3.49,5.54c.21-.25.14-.43-.11-.61-.39-.29-1.62-1.15-2.61-1.76-.28-.18-.63-.18-.78,0l-1.34,1.84h-11.57c-1.31-.5-2.12-.86-3.81-1.44l.07,3.53v6.15l-.07,6.01c.04.29.35.4.64.32.6-.22,1.38-.61,1.9-.9.35-.14.46-.4.46-.65v-2.2h12.95v2.66c0,.47.42.4.67.32.92-.29,1.41-.47,1.98-.79.32-.22.35-.4.35-.68-.04-1.98-.07-2.45-.07-4.72v-5.54l.11-.32c.32-.43.74-.76,1.23-1.22Zm-4.3,9.21h-12.88v-8.68h12.88v8.68Zm16.72-21.96c.86-.41,1.54-.62,2.02-.62.34,0,.63.1.87.3s.41.51.5.94c.13.56.2,1.83.2,3.8v14.65c0,1.63-.07,2.61-.22,2.93-.14.33-.4.59-.77.78-.37.19-1.18.3-2.43.33v.74h10.01v-.74c-1.2-.03-2-.14-2.39-.34-.39-.2-.65-.49-.77-.86-.12-.37-.19-1.32-.19-2.84v-22.92h-.65l-6.47,3.22.29.62Zm18.68,19.76c1.69,3.06,3.8,4.58,6.34,4.58,1.28,0,2.61-.5,3.99-1.49,1.38-.99,2.51-2.59,3.4-4.79.89-2.2,1.33-4.88,1.33-8.03,0-4.5-1.01-8.06-3.04-10.69-1.62-2.12-3.45-3.18-5.49-3.18-1.26,0-2.47.43-3.65,1.3-1.52,1.09-2.73,2.76-3.65,4.99-.92,2.24-1.37,4.9-1.37,8,0,3.63.71,6.73,2.14,9.31Zm2.22-15.84c.34-2.38.98-4.12,1.92-5.22.69-.81,1.48-1.22,2.37-1.22.76,0,1.41.22,1.94.66.75.64,1.35,1.73,1.82,3.26.63,2.07.94,4.65.94,7.75,0,4.18-.3,7.41-.9,9.71-.39,1.52-.97,2.61-1.73,3.25-.76.65-1.49.97-2.2.97-1.48,0-2.59-.99-3.34-2.98-.9-2.36-1.35-5.41-1.35-9.15,0-2.31.17-4.65.51-7.03Zm17.87,15.84c1.69,3.06,3.8,4.58,6.34,4.58,1.28,0,2.61-.5,3.99-1.49,1.38-.99,2.51-2.59,3.4-4.79.89-2.2,1.33-4.88,1.33-8.03,0-4.5-1.01-8.06-3.04-10.69-1.62-2.12-3.45-3.18-5.49-3.18-1.26,0-2.47.43-3.65,1.3-1.52,1.09-2.73,2.76-3.65,4.99-.92,2.24-1.37,4.9-1.37,8,0,3.63.71,6.73,2.14,9.31Zm2.22-15.84c.34-2.38.98-4.12,1.92-5.22.69-.81,1.48-1.22,2.37-1.22.76,0,1.41.22,1.94.66.75.64,1.35,1.73,1.82,3.26.63,2.07.94,4.65.94,7.75,0,4.18-.3,7.41-.9,9.71-.39,1.52-.97,2.61-1.73,3.25-.76.65-1.49.97-2.2.97-1.48,0-2.59-.99-3.34-2.98-.9-2.36-1.35-5.41-1.35-9.15,0-2.31.17-4.65.51-7.03Zm17.87,15.84c1.69,3.06,3.8,4.58,6.34,4.58,1.28,0,2.61-.5,3.99-1.49,1.38-.99,2.51-2.59,3.4-4.79.89-2.2,1.33-4.88,1.33-8.03,0-4.5-1.01-8.06-3.04-10.69-1.62-2.12-3.45-3.18-5.49-3.18-1.26,0-2.47.43-3.65,1.3-1.52,1.09-2.73,2.76-3.65,4.99-.92,2.24-1.37,4.9-1.37,8,0,3.63.71,6.73,2.14,9.31Zm2.22-15.84c.34-2.38.98-4.12,1.92-5.22.69-.81,1.48-1.22,2.37-1.22.76,0,1.41.22,1.94.66.75.64,1.35,1.73,1.82,3.26.63,2.07.94,4.65.94,7.75,0,4.18-.3,7.41-.9,9.71-.39,1.52-.97,2.61-1.73,3.25-.76.65-1.49.97-2.2.97-1.48,0-2.59-.99-3.34-2.98-.9-2.36-1.35-5.41-1.35-9.15,0-2.31.17-4.65.51-7.03Zm26.81-8.14c.14-.29.11-.54-.25-.72-1.23-.58-2.5-1.19-3.77-1.69-.39,2.05-1.31,5.26-2.01,6.98l-2.58,6.19c-.71,1.66-1.62,3.28-2.58,5.18l.67.36c1.31-1.62,2.61-3.24,3.7-5l.18-.29v1.55l-.04,12.63-.11,5.04.04.29c.04.4.28.65.63.47,1.06-.5,1.76-.94,2.36-1.51.32-.25-.04-1.58-.04-2.99v-15.3l.07-1.04c.28-.47,1.45-.61.92-1.3-.67-.25-1.41-.4-2.05-.72,1.31-2.23,2.26-4.5,3.32-7.05.07-.18.11-.43.32-.5.39-.29.85-.25,1.2-.58Zm1.52,21.74h-.71c-.21.83-.46,1.66-.92,2.38-.78,1.22-2.89,2.45-3.03,2.95-.07.29-.18.5-.07.79.04.43.42.76.78.86.88.18,1.91.11,2.5-.54,1.55-1.62,1.59-4.25,1.45-6.44Zm19.54-13.79c-.81-.72-1.94-1.66-2.68-2.3-.18-.25-.42-.22-.56-.04l-1.62,1.87h-4.55c1.06-1.22,1.59-1.66,2.5-2.59.32-.25.78-.14,1.09-.43,0-.14.07-.32-.07-.43-.53-.29-1.09-.54-1.62-.79h5.47c.28,0,.39-.25.28-.47-1.09-1.22-1.66-1.76-2.65-2.63-.11-.11-.53-.22-.67,0l-1.52,2.09h-4.62c.28-.36.49-.76.56-1.26.11-.86-.25-1.66-1.06-2.12-1.27-.72-2.47-.9-4.2-1.26l-.21.79c1.52.65,2.22,2.3,2.65,3.85h-9.07l1.02,1.48c.95-.25,2.01-.43,3-.43,1.13,1.12,1.55,2.59,1.8,4.21h-7.3l.92,1.37c.99-.25,2.12-.36,2.86-.36h20.11c.28,0,.35-.32.14-.54Zm-3.95,3.46c-.71-.65-.92-.9-1.98-1.76-.14-.18-.49-.14-.6-.04l-1.31,1.37h-9.42c-1.13-.58-2.26-1.15-3.46-1.51.18,3.67.21,7.7-.04,11.27,0,.25.18.4.42.32.64-.18,1.55-.65,2.29-1.12.28-.18.32-.36.32-.5v-.72h9.98v1.69c0,.25.14.4.32.4.35-.11.92-.25,1.38-.4.85-.29,1.41-.5,1.34-1.01-.04-1.19-.14-1.62-.14-2.56v-4.03c0-.72,1.13-.94.88-1.4Zm-1.13,15.23l-.74-.4c-1.41-.76-1.16-2.63-1.23-4.07l-.6-.07-.74,4.18c-.04.29-.35.47-.56.61-2.01.22-4.13.22-6.1,0-.21-.07-.42-.29-.42-.58v-3.35c.21-.4.53-.47.85-.76.14-.18.07-.47-.07-.54-1.23-.54-2.19-.86-3.46-1.04v6.41l.25.9c.53,1.26,1.48,1.55,2.96,1.58,2.54.07,5.33.14,7.69-.29,1.23-.22,1.83-1.51,2.19-2.59Zm-2.54-12.49h-10.09v-2.16h10.09v2.16Zm0,3.56h-10.09v-2.56h10.09v2.56Zm-1.9-14.47c-.46,1.51-.95,2.88-1.48,4.25h-3.56c.39-.54.92-1.22.71-1.98-.56-1.26-1.91-1.76-2.96-2.27h7.3Zm-.39,19.91c.07-.68-.25-1.37-.74-1.8-1.06-.9-2.29-1.48-3.53-1.84l-.35.47c.92.94,1.34,2.12,1.8,3.31.25.65.28,1.4.74,2.02.21.11.46.18.71.11.95-.4,1.31-1.4,1.38-2.27Zm9.24,2.09c-.95-2.02-3.17-2.95-4.87-3.92l-.39.4c1.55,2.02,2.43,4.28,3.21,6.66l.35.32c.25.14.6.11.85-.07.71-.76,1.38-2.27.85-3.38Zm29.64-2.27v1.44c0,.22.28.4.6.29l1.87-.61c.21-.11.56-.25.53-.58l-.07-5.94-.04-9.36.18-.32c.32-.29,1.55-1.19.85-1.62-.81-.61-1.45-1.04-2.33-1.51-.28-.18-.53-.25-.74.04l-.92,1.3h-5.4c1.09-1.37,1.91-2.88,2.86-4.32h9.03l.14-.07c.18-.07.11-.4.04-.54-.99-.97-1.83-1.8-2.82-2.66-.18-.14-.42-.11-.56.04l-1.59,2.16h-13.58l.99,1.37c.74-.18,1.48-.29,2.22-.29h2.68c-.11,1.44-.32,3.13-.6,4.32h-1.09c-1.06-.5-1.76-.76-2.93-1.26.04,2.27.14,4.43.04,6.59-.78-.76-1.52-1.48-2.36-2.12-.18-.18-.49-.18-.64,0l-.99,1.33h-11.5l.78,1.37c.78-.18,1.59-.29,2.4-.29l3.07-.04v13.21l-.04.65c-.14.18-.25.4-.53.4-1.45-.07-2.93-.29-4.34-.61l-.14.76,1.38.47c1.34.47,2.54,1.84,2.65,3.28l.14.04c.95-.4,1.94-.68,2.79-1.37.78-.61.95-1.3.95-2.84v-13.97h2.54c-.25.97-.42,1.51-.85,2.56-.21.54-.56,1.33-.74,1.87l.64.22c1.23-1.44,2.33-2.66,3.74-3.82l1.13-.04c.04,1.98.04,4.21,0,6.08l-.14,5.98c0,.36.35.36.71.25.88-.29,1.34-.43,1.69-.58.46-.18.67-.36.67-.61v-.61h7.66Zm-22.68-18.29c1.09.72,2.05,1.66,2.72,2.74.71,1.08.85,2.12,1.59,2.77.25.18.67.22.88.04.71-.65,1.13-1.58,1.09-2.52-.07-.5-.21-.9-.78-1.37,1.38-1.33,2.79-2.59,4.3-3.67.46-.18.92-.29,1.34-.5.14-.11.18-.32.04-.47-1.13-.97-1.52-1.3-2.61-2.2-.21-.14-.53-.14-.71-.04l-1.16,1.3h-9.03l.6,1.3c1.09-.18,1.66-.25,2.26-.25h6.17c-.6,1.33-1.2,2.7-2.12,3.92-1.38-.68-2.82-1.08-4.27-1.51l-.32.47Zm5.19,25.52l.35.58c2.58-.68,6.1-1.91,8.54-2.92,1.8-.76,2.58-1.37,4.62-1.55l.18-.14c.07-.14.07-.29-.04-.43l-2.68-2.09-.14-.04c-3.1,2.99-6.95,4.93-10.83,6.59Zm17.53-19.11h-7.69v-3.92h7.69v3.92Zm0,4.97h-7.69v-3.92h7.69v3.92Zm0,5.83h-7.69v-4.75h7.69v4.75Zm-3.42,3.38c2.86,1.08,5.29,3.2,7.48,5.44l.64.14c.32-.04.63-.14.78-.61.35-.83.39-2.12-.32-2.81-2.26-2.12-5.36-2.56-8.43-2.92l-.14.76Zm12.74-21.49l.92,1.4c1.41-.29,1.87-.36,2.5-.36h14.53l.28-.14c.14-.25,0-.5-.18-.65l-2.65-2.27c-.18-.18-.46-.18-.56,0l-1.41,2.02h-13.44Zm2.08,4.5l.92,1.37c1.41-.29,1.87-.32,2.5-.32h9.91l.25-.18c.14-.22,0-.47-.18-.61l-2.65-2.27c-.14-.18-.49-.18-.6,0l-1.34,2.02h-8.82Zm.04,4.9l.88,1.4c1.41-.29,1.87-.36,2.5-.36h9.91l.25-.14c.14-.25,0-.5-.18-.65l-2.65-2.27c-.14-.18-.49-.18-.6,0l-1.34,2.02h-8.78Zm11.82,11.45l.04-4.75c.18-.76,1.31-1.19,1.02-1.66-.85-.76-1.23-1.08-2.22-1.8-.25-.25-.67-.18-.78,0l-1.06,1.51h-4.41c-1.09-.36-2.12-.83-3.28-1.19l-.04.18.18,4.46-.04,5.87c0,1.01-.07,1.91-.11,2.95-.04.14.11.47.39.43.74-.18,1.41-.61,2.08-.9.46-.18.49-.36.49-.65v-2.84h4.83l-.04,2.88c0,.47.49.43,1.02.25,1.48-.58,2.08-.72,2.05-1.44l-.14-3.31Zm-8.68-26.82c1.66,1.48,2.4,3.46,3.25,5.36.18.18.42.29.63.22.92-.4,1.48-1.44,1.66-2.38.07-.5-.11-.94-.39-1.3-1.41-1.33-3.14-1.76-4.8-2.41l-.35.5Zm5.79,27.39h-4.8v-6.19h4.8v6.19Zm16.83-15.08h-3.6v-9.5c.14-.54.6-.68.92-1.08.07-.22.04-.43-.18-.58-1.23-.61-2.47-1.01-3.81-1.44.07,2.02.14,4.07.14,5.9v6.7h-7.16l.92,1.48c.78-.18,1.62-.43,2.29-.43h3.95v12.2l-.14,7.16c-.04.25.18.58.46.47l1.69-.58c.88-.29,1.2-.47,1.16-.86-.11-2.48-.25-4.32-.25-6.48v-11.92l7.94-.07c.11-.11.18-.32.07-.47-.81-.94-1.55-1.62-2.5-2.48-.07-.14-.46-.14-.53-.04l-1.38,2.02Zm12.74,16.52c0,.36-.56.61-.92.58l-3.74-.47-.04.68.95.32c1.38.47,2.68,1.66,2.82,3.2,1.06-.25,2.05-.68,2.93-1.3.85-.9.85-2.12.85-6.01v-9.83l3.46-2.48c-.04-.22-.18-.43-.25-.65l-2.96,1.51-.28.11v-4.93h4.52l.18-.07c.14-.14.18-.36.07-.5l-2.36-2.3c-.21-.18-.56-.14-.67.04l-.92,1.8-.81-.04v-5.62c0-.47.95-.86,1.34-1.3.14-.18.07-.43-.14-.58-1.31-.47-2.86-.94-4.3-1.3.14,2.88.18,5.22.18,8.82h-4.87l.78,1.33c.67-.18,1.31-.29,1.73-.29h2.4v6.33c-1.87.86-3.77,1.73-5.68,2.52.46,1.04,1.06,2.02,1.69,2.95.18.29.95.14.88-.43,1.34-1.15,1.98-1.76,3.14-2.59l.04,10.47Zm8.4-14.51l-.04,13.25c0,1.62-.07,3.28-.11,4.93-.04.18.21.32.42.32l1.55-.61c.63-.25.85-.4.85-.83l.04-2.77h15.63l.18-.18c.11-.18.04-.36-.04-.54-.99-1.08-1.62-1.48-2.75-2.38-.28-.25-.67-.18-.78,0l-1.52,1.98h-3.49v-6.3h6.99l.25-.14c.14-.18.07-.4-.04-.58-.99-.97-1.66-1.66-2.89-2.66-.11-.14-.56-.14-.71,0l-1.66,2.27h-1.94v-5.33h6.91l.25-.18c.11-.11.07-.36-.04-.47-1.02-1.01-1.73-1.66-2.86-2.45-.18-.14-.53-.22-.67.04l-1.06,1.91-2.54.04v-5.04h7.83c.35,0,.42-.32.28-.58-1.06-1.19-1.91-2.16-3.1-3.17-.21-.22-.53-.14-.6,0l-1.73,2.63h-9.63c.53-1.4,1.02-2.88,1.59-4.28.11-.29.64-.5.95-.72.14-.11.18-.43.04-.58-1.06-.76-2.61-1.4-3.99-1.87-.04.32-.04.65-.11.86l-.14,1.04c-.78,5.76-2.47,11.3-5.61,16.16.18.11.28.32.49.36,1.73-1.94,2.08-2.34,3.77-4.14Zm7.23-.68h-4.52v-5.04h4.52v5.04Zm0,6.44h-4.52v-5.36h4.52v5.36Zm0,7.42h-4.52v-6.3h4.52v6.3Zm-.71-26.42c.92.86,1.23,2.23,1.48,3.53.21.68,0,1.51.49,2.12.28.22.71.25,1.06.18,1.02-.65,2.19-1.73,1.91-3.06-.92-1.73-2.89-2.45-4.55-3.28l-.39.5Zm47.63,27.97c-4.76-.65-9.21-1.48-12.7-5.62l11.39.04c.35,0,.39-.43.28-.58-1.23-1.19-1.83-1.66-2.96-2.56-.21-.18-.46-.25-.63,0l-1.66,2.05h-8.89v-.68c0-.94.71-1.08,1.16-1.55.07-.22-.07-.47-.28-.58-1.16-.4-2.19-.68-3.63-1.04l-.14-.07c1.06-.4,2.19-.83,3.17-1.48,2.89,1.01,5.01,2.2,7.44,3.67.46.22.81.07,1.06-.22.53-.86.14-1.87-.42-2.63-1.52-1.69-4.02-2.3-5.75-2.77,1.2-1.19,2.22-2.48,3.21-3.85h7.73c.25,0,.39-.29.32-.54-.95-.97-1.98-2.02-2.89-2.7-.18-.14-.42-.14-.6.04l-1.38,2.16h-12.91l.99-1.51c.42-.36,1.02-.29,1.52-.4l.25-.18c.18-.29-.07-.54-.32-.68-.92-.61-1.87-1.04-2.75-1.62h12.56c-.74,1.01-1.55,2.12-2.43,3.1l.6.47c1.23-1.01,2.58-1.62,3.95-2.38.63-.22,1.69-.47,2.61-.43l.21-.04c.32-.11.28-.43.07-.65-.99-1.04-1.94-1.91-3-2.77-.18-.07-.35-.07-.53,0l-1.31,1.66h-9.03c.53-.72,1.13-1.44,1.02-2.41-.07-.5-.53-.83-.92-1.15-1.38-.86-3.07-1.01-4.69-1.3l-.25.47c1.41,1.12,2.33,2.66,3.28,4.03l.14.36h-10.34l-.21-1.66-.71.04c-.21,1.58-1.16,2.92-2.26,4.07-.53.72-1.76.9-1.52,1.98.07.29.35.47.56.65.71.25,1.62.29,2.29-.04,1.52-.76,1.91-2.45,1.87-4h7.44c-.6,1.51-1.41,2.99-2.29,4.39h-10.97l.99,1.55c1.34-.29,2.5-.5,3.07-.5l6.28.04c-.92,1.3-2.08,2.63-3.14,3.89,2.72-.07,5.5.22,7.9.9-3.7,2.23-8.15,3.2-12.56,3.64l.32.58c3.46.22,6.88-.07,9.98-.94.67-.18,1.2-.36,1.98-.58.11,1.22.21,1.62.18,3.67h-14.22l.88,1.48c1.13-.22,2.5-.4,2.93-.4h7.76c-3.18,3.64-7.27,6.08-11.47,7.59l.32.61c5.19-.79,9.84-2.88,13.86-6.55v4.72l-.11,3.02c-.04.18.11.36.28.4.46.07.99-.14,1.76-.54.88-.43,1.23-.65,1.23-1.12l-.07-2.84-.04-5.29h.78c2.19,4.43,6.21,6.8,10.2,8.39l.25.04c.74-1.44,2.29-2.02,3.77-2.16l.11-.68Zm-13.19-17.85c-.95,1.26-1.73,2.41-2.86,3.17-1.94-.25-3.99-.36-6.07-.32l2.29-2.84h6.63Zm-362.15,47.84l-1.38,3.35-2.43,5.22c-.49,1.08-1.23,2.45-2.01,3.02-.99.76-2.36.22-3.53.14l-.11.65,1.87.65c1.02.65,1.48,1.73,1.66,2.88.25,1.84-.39,3.46-.35,5.26.14.94.35,1.22,1.06,1.55.56.25,1.55.32,2.08-.18.71-.72.46-1.87.32-2.81-.35-2.16-.56-4.36-.32-6.55l2.47-8.82c.28-.97.92-2.66,1.27-4l-.6-.36Zm-9,.11c1.55,1.62,2.19,3.74,2.68,5.87l.28.4c.18.25.64.29.92.18.85-.58,1.45-1.51,1.55-2.52-.04-.94-.6-1.73-1.31-2.27-.88-.68-2.36-1.51-3.67-2.12l-.46.47Zm2.47-8.75c1.59,1.55,2.36,3.6,3.07,5.62.14.29.35.65.71.65.32.07.56-.07.78-.25.78-.86,1.48-1.94,1.09-3.2-.71-1.73-3.14-2.63-5.19-3.31l-.46.5Zm15.77,24.3l-.14,7.78c.07.14.18.36.39.36.74-.14,1.45-.47,2.12-.83.28-.18.67-.43.6-.86l-.07-3.64-.04-7.49-.04-1.48h.92c.35,4.61,2.4,8.71,5.68,12.13,1.02-1.22,2.68-1.62,4.23-1.51l.14-.54c-4.16-1.8-7.8-5.69-8.93-10.08h7.62l.21-.11c.11-.18.07-.4-.04-.54-.85-.86-1.69-1.62-2.65-2.38-.14-.07-.35-.14-.49-.04l-1.55,2.05h-5.08v-2.41c.07-.5.63-.54.92-.9.04-.18,0-.4-.11-.5-1.23-.5-2.47-.9-3.77-1.15,0,1.66.14,3.31.07,4.97h-9.49l.71,1.22c.95-.18,1.55-.22,2.12-.22h4.94c-2.19,4.46-5.82,8.6-9.52,12.2l.46.54c4.02-2.63,8.64-6.41,10.83-10.26l-.04,3.67Zm8.36-17.06c.81-.97,1.8-1.87,2.79-2.63.67-.47,1.48-.43,2.29-.61.21-.04.53-.22.21-.61-.81-.97-1.9-1.84-2.93-2.77-.14-.11-.42-.18-.64-.07l-1.27,1.55-12.88-.07-.21-1.51-.56-.07c-.35,2.66-1.87,4.79-3.7,6.8l-.11.43c-.04.47.18.94.6,1.19.64.43,1.52.36,2.12-.04,1.9-1.22,1.87-3.64,2.05-5.72h12.77l-.07.18c-.21,1.22-.6,2.27-1.02,3.6l.56.36Zm-6.53-.11c-1.02-.83-2.22-1.51-3.39-2.12-1.45,3.71-4.06,7.16-7.02,9.9.07.18.18.54.46.58,3.1-1.73,5.96-4.39,8.4-7.23.39-.47,1.02-.36,1.52-.58.11-.14.11-.36.04-.54Zm4.2.5c-.11-.65.64-.72.95-1.01.14-.14.28-.47,0-.65-1.23-.4-2.29-.76-3.7-1.08.14,2.16.07,3.2.07,6.44,0,.58.25,1.01.6,1.44,1.09.86,2.61.76,4.02.83,1.59-.07,3.21,0,4.48-.79.35-.36-.39-1.26-.71-1.8-.39-.61-.6-1.04-1.02-.86-1.34.83-2.12.9-3.32,1.01-.49-.07-1.2.04-1.34-.61l-.04-2.92Zm25.37,7.78l-2.05-2.05c-.18-.18-.39-.22-.63-.04l-1.27,1.55h-1.94v-3.24h4.9c.18,0,.39-.29.21-.47-.81-.76-1.38-1.37-2.19-2.2-.11-.11-.46-.18-.56,0l-1.09,1.58h-1.27v-3.56c.99-.14,1.91-.25,2.93-.4.81-.11,1.52.18,2.29.32.14,0,.28-.18.28-.32-.63-1.04-1.48-1.98-2.22-2.95l-.18-.04c-1.02.47-2.05.94-3.1,1.19v-2.38c0-.11.64-.54,1.02-.9.14-.22.11-.43-.04-.54-1.34-.5-2.54-1.01-3.81-1.33.11,1.15.07,2.05.14,2.88l-.04,3.06c-1.91.43-3.81.83-5.82,1.04l.35.79c1.87.07,3.7-.11,5.54-.18v3.31h-4.94l.71,1.37c.81-.14,1.45-.29,1.98-.29h2.26v3.24l-6.24.04.71,1.3c.78-.18,1.48-.25,1.91-.25h2.79c-1.16,4.17-3.14,8.06-5.75,11.59l.6.36c2.33-2.02,4.41-4.68,5.96-7.2v3.71l-.14,7.09c0,.25.25.4.53.32.78-.22,1.59-.58,1.98-.76.18-.07.42-.29.42-.61-.07-1.87-.14-3.67-.11-5.58l.07-6.05c1.31,1.15,1.87,2.74,2.58,4.18.25.25.63.18.95.07.63-.4.88-1.08.95-1.76,0-2.48-2.86-2.88-4.55-3.71,0-.58-.04-1.08,0-1.66h5.79c.28,0,.28-.4.11-.54Zm16.79,2.92l-2.61-2.59c-.14-.14-.53-.18-.71,0l-1.55,2.05h-1.38v-8.06h5.79c.25,0,.35-.4.21-.58l-2.65-2.52c-.14-.18-.46-.14-.56,0l-1.52,2.02h-1.27v-5.94l.07-.61c.25-.4,1.34-.54.85-1.15-1.2-.54-2.47-.94-3.74-1.33l.11,2.95.07,6.08h-3.56v-5.98c0-.11.74-.61,1.06-.97.07-.14.04-.32-.11-.4-1.23-.5-2.5-1.01-3.81-1.37l.14,4.79v3.92h-3.49l.88,1.4c.42-.11.88-.32,1.31-.32h1.34c.07,1.33.04,2.41.04,3.92l-.04,4.14h-4.23l.78,1.33c.56-.07,1.31-.29,1.76-.29h1.66c-.18,4.93-2.68,9.32-6.7,12.27l.56.4c1.69-.79,3.25-1.94,4.69-3.31,2.68-2.56,3.74-5.8,4.09-9.36h3.63v6.55l-.11,6.16c.04.22.32.32.53.25.74-.29,1.13-.47,1.87-.86.25-.07.39-.25.39-.54l-.07-4.86v-6.69h6.07c.18,0,.32-.36.21-.5Zm-8.96-.54h-3.56l.07-4.07.04-4h3.46v8.06Zm42.3-4.57c-.35-1.98-1.8-2.88-3-3.85-2.72-1.62-5.43-3.13-8.36-4.28l-.32.5c2.36,1.8,4.69,3.78,6.6,6.16-.71.14-1.48.18-2.19.22l-7.37.47c-3.07.18-5.33.18-8.01.14,3.17-2.77,6.14-6.19,8.85-9.47.46-.76,1.41-.5,2.15-.68l.25-.22c.07-.18,0-.4-.18-.54-1.23-.83-3-1.76-4.34-2.45-2.08,4.39-4.9,8.67-7.83,12.63-.49.36-1.06.61-1.69.68-.56.22-1.27,0-1.8.25-.07.11-.18.29-.11.47l1.02,2.48c.21.5.74.83,1.45.11,3.35-1.01,7.87-1.37,12.38-1.94l8.25-1.04c.92,1.08,1.45,2.38,2.29,3.49.21.22.53.25.81.18,1.13-.65,1.2-1.69,1.13-3.31Zm-3.49,5.54c.21-.25.14-.43-.11-.61-.39-.29-1.62-1.15-2.61-1.76-.28-.18-.63-.18-.78,0l-1.34,1.84h-11.57c-1.31-.5-2.12-.86-3.81-1.44l.07,3.53v6.15l-.07,6.01c.04.29.35.4.64.32.6-.22,1.38-.61,1.9-.9.35-.14.46-.4.46-.65v-2.2h12.95v2.66c0,.47.42.4.67.32.92-.29,1.41-.47,1.98-.79.32-.22.35-.4.35-.68-.04-1.98-.07-2.45-.07-4.72v-5.54l.11-.32c.32-.43.74-.76,1.23-1.22Zm-4.3,9.21h-12.88v-8.68h12.88v8.68Zm38.49-20.55h-8.01v-4.79c0-.65.99-1.08,1.2-1.33.32-.25.46-.68-.07-.9-2.47-.97-4.55-1.66-4.48-1.22.32,2.66.32,3.92.32,8.24h-7.51c-1.31-.76-2.12-1.08-3.63-1.69.14,2.66.14,3.67.14,6.7v9.03c0,.32.28.29.53.25.88-.29,2.65-.9,2.65-1.51v-1.33h7.8v4.61l-.18,8.53c0,.25.25.47.46.4,1.06-.25,2.89-.83,2.89-1.58v-11.95h8.25l-.04,1.62c0,.72.92.36,1.69.07.56-.22,1.69-.54,1.62-1.12-.11-3.13-.14-4.79-.14-9.57,0-.58.99-1.01,1.48-1.51.11-.22.04-.47-.14-.65-.92-.76-2.5-1.87-3.03-2.23-.25-.18-.49-.25-.6,0l-1.2,1.94Zm-18.87,1.15h7.76v9.14h-7.73l-.04-9.14Zm10.9,9.14v-9.14h8.33v9.14h-8.33Zm40.16,8.06c1.69,3.06,3.8,4.58,6.34,4.58,1.28,0,2.61-.5,3.99-1.49,1.38-.99,2.51-2.59,3.4-4.79.89-2.2,1.33-4.88,1.33-8.03,0-4.5-1.01-8.06-3.04-10.69-1.62-2.12-3.45-3.18-5.49-3.18-1.26,0-2.47.43-3.65,1.3-1.52,1.09-2.73,2.76-3.65,4.99-.92,2.24-1.37,4.9-1.37,8,0,3.63.71,6.73,2.14,9.31Zm2.22-15.84c.34-2.38.98-4.12,1.92-5.22.69-.81,1.48-1.22,2.37-1.22.76,0,1.41.22,1.94.66.75.64,1.35,1.73,1.82,3.26.63,2.07.94,4.65.94,7.75,0,4.18-.3,7.41-.9,9.71-.39,1.52-.97,2.61-1.73,3.25-.76.65-1.49.97-2.2.97-1.48,0-2.59-.99-3.34-2.98-.9-2.36-1.35-5.41-1.35-9.15,0-2.31.17-4.65.51-7.03Zm17.87,15.84c1.69,3.06,3.8,4.58,6.34,4.58,1.28,0,2.61-.5,3.99-1.49,1.38-.99,2.51-2.59,3.4-4.79.89-2.2,1.33-4.88,1.33-8.03,0-4.5-1.01-8.06-3.04-10.69-1.62-2.12-3.45-3.18-5.49-3.18-1.26,0-2.47.43-3.65,1.3-1.52,1.09-2.73,2.76-3.65,4.99-.92,2.24-1.37,4.9-1.37,8,0,3.63.71,6.73,2.14,9.31Zm2.22-15.84c.34-2.38.98-4.12,1.92-5.22.69-.81,1.48-1.22,2.37-1.22.76,0,1.41.22,1.94.66.75.64,1.35,1.73,1.82,3.26.63,2.07.94,4.65.94,7.75,0,4.18-.3,7.41-.9,9.71-.39,1.52-.97,2.61-1.73,3.25-.76.65-1.49.97-2.2.97-1.48,0-2.59-.99-3.34-2.98-.9-2.36-1.35-5.41-1.35-9.15,0-2.31.17-4.65.51-7.03Zm26.81-8.14c.14-.29.11-.54-.25-.72-1.23-.58-2.5-1.19-3.77-1.69-.39,2.05-1.31,5.26-2.01,6.98l-2.58,6.19c-.71,1.66-1.62,3.28-2.58,5.18l.67.36c1.31-1.62,2.61-3.24,3.7-5l.18-.29v1.55l-.04,12.63-.11,5.04.04.29c.04.4.28.65.63.47,1.06-.5,1.76-.94,2.36-1.51.32-.25-.04-1.58-.04-2.99v-15.3l.07-1.04c.28-.47,1.45-.61.92-1.3-.67-.25-1.41-.4-2.05-.72,1.31-2.23,2.26-4.5,3.32-7.05.07-.18.11-.43.32-.5.39-.29.85-.25,1.2-.58Zm1.52,21.74h-.71c-.21.83-.46,1.66-.92,2.38-.78,1.22-2.89,2.45-3.03,2.95-.07.29-.18.5-.07.79.04.43.42.76.78.86.88.18,1.91.11,2.5-.54,1.55-1.62,1.59-4.25,1.45-6.44Zm19.54-13.79c-.81-.72-1.94-1.66-2.68-2.3-.18-.25-.42-.22-.56-.04l-1.62,1.87h-4.55c1.06-1.22,1.59-1.66,2.5-2.59.32-.25.78-.14,1.09-.43,0-.14.07-.32-.07-.43-.53-.29-1.09-.54-1.62-.79h5.47c.28,0,.39-.25.28-.47-1.09-1.22-1.66-1.76-2.65-2.63-.11-.11-.53-.22-.67,0l-1.52,2.09h-4.62c.28-.36.49-.76.56-1.26.11-.86-.25-1.66-1.06-2.12-1.27-.72-2.47-.9-4.2-1.26l-.21.79c1.52.65,2.22,2.3,2.65,3.85h-9.07l1.02,1.48c.95-.25,2.01-.43,3-.43,1.13,1.12,1.55,2.59,1.8,4.21h-7.3l.92,1.37c.99-.25,2.12-.36,2.86-.36h20.11c.28,0,.35-.32.14-.54Zm-3.95,3.46c-.71-.65-.92-.9-1.98-1.76-.14-.18-.49-.14-.6-.04l-1.31,1.37h-9.42c-1.13-.58-2.26-1.15-3.46-1.51.18,3.67.21,7.7-.04,11.27,0,.25.18.4.42.32.64-.18,1.55-.65,2.29-1.12.28-.18.32-.36.32-.5v-.72h9.98v1.69c0,.25.14.4.32.4.35-.11.92-.25,1.38-.4.85-.29,1.41-.5,1.34-1.01-.04-1.19-.14-1.62-.14-2.56v-4.03c0-.72,1.13-.94.88-1.4Zm-1.13,15.23l-.74-.4c-1.41-.76-1.16-2.63-1.23-4.07l-.6-.07-.74,4.18c-.04.29-.35.47-.56.61-2.01.22-4.13.22-6.1,0-.21-.07-.42-.29-.42-.58v-3.35c.21-.4.53-.47.85-.76.14-.18.07-.47-.07-.54-1.23-.54-2.19-.86-3.46-1.04v6.41l.25.9c.53,1.26,1.48,1.55,2.96,1.58,2.54.07,5.33.14,7.69-.29,1.23-.22,1.83-1.51,2.19-2.59Zm-2.54-12.49h-10.09v-2.16h10.09v2.16Zm0,3.56h-10.09v-2.56h10.09v2.56Zm-1.9-14.47c-.46,1.51-.95,2.88-1.48,4.25h-3.56c.39-.54.92-1.22.71-1.98-.56-1.26-1.91-1.76-2.96-2.27h7.3Zm-.39,19.91c.07-.68-.25-1.37-.74-1.8-1.06-.9-2.29-1.48-3.53-1.84l-.35.47c.92.94,1.34,2.12,1.8,3.31.25.65.28,1.4.74,2.02.21.11.46.18.71.11.95-.4,1.31-1.4,1.38-2.27Zm9.24,2.09c-.95-2.02-3.17-2.95-4.87-3.92l-.39.4c1.55,2.02,2.43,4.28,3.21,6.66l.35.32c.25.14.6.11.85-.07.71-.76,1.38-2.27.85-3.38Zm18.49-18.11c.6-.97.56-2.2-.14-2.99-1.48-1.62-3.74-1.91-5.75-2.52l.11-.32c.39-.79.88-1.01,1.45-1.4.14-.25-.11-.43-.25-.54-1.13-.58-2.26-1.08-3.42-1.55-1.23,5.08-3.28,9.72-6,14.07-.25.4-.49.76-.71,1.12l.6.43c1.09-1.15,2.19-2.27,3.07-3.53h2.58v4.54h-5.19l.63,1.22c.85-.11,1.41-.18,2.08-.18h2.47v10.37c-1.9.25-3.88.5-5.82.61.25.86.42,1.44.88,2.74.14.47.85.72,1.06-.07,4.27-1.26,8.08-2.48,12.28-4.07l-.14-.72c-1.83.4-3.63.86-5.5,1.08v-1.66c1.52-1.3,2.86-2.63,4.27-4.07.25-.22.46-.29.95-.4.18-.07.39-.25.25-.4-.81-.68-1.69-1.44-2.65-2.02-.71,1.84-1.48,3.35-2.54,5.08l-.28.47v-7.02h5.01c.28,0,.46-.29.21-.58-.64-.68-1.41-1.44-2.12-2.05-.21-.18-.49-.25-.64-.04l-1.34,1.69h-1.13v-4.57l4.69.04c.28,0,.42-.36.28-.61-.88-.97-1.55-1.51-2.33-2.3-.14-.14-.46-.14-.6-.04l-1.55,1.94-5.12-.07c1.41-2.05,2.93-4.25,4.06-6.48,2.05,1.15,3.67,3.1,5.12,4.97l.35.18c.32,0,.6-.14.81-.36Zm-9.38,13.53c-.71-1.44-1.98-2.52-3.18-3.6l-.42.36c.64.97.85,1.98,1.09,3.17.21.94.18,1.91.35,2.88.11.22.32.4.56.47.32.04.56-.22.81-.36.88-.72,1.06-1.84.78-2.92Zm14.71-14.76c.14-.79.14-1.51-.49-2.12-1.48-1.48-3.39-2.27-5.22-2.95l-.32.54c1.59,1.26,2.5,2.88,3.39,4.46.35.65.42,1.48,1.13,1.87.32.11.64-.04.85-.29.35-.5.46-.83.67-1.51Zm10.62,3.64c-1.16-.97-1.55-1.26-2.12-1.69-.25-.14-.53-.22-.74,0l-1.09,1.4h-2.82v-8.42c0-.29.74-.68,1.09-.97.04-.18,0-.36-.11-.47-1.23-.61-2.54-1.04-3.85-1.44l.11,2.99v8.32l-2.72.04c-.88-.58-2.19-1.12-3.07-1.62h-.21c.11,1.8.18,3.74.18,5.44v12.31l-.18,5.44c.07.18.21.29.42.25.99-.25,1.69-.54,2.4-.94.21-.07.42-.25.46-.5l-.07-3.67v-4.86h8.47v5.36c0,.4-.35.5-.56.5-1.55-.04-3-.4-4.48-.61l-.14.65,1.48.61c1.62.47,2.29,2.2,2.68,3.6h.18c1.38-.61,3.81-1.44,3.81-2.99l.04-16.95c.18-.76,1.27-1.33.85-1.76Zm-3.81,5.08h-8.5v-4.36h8.5v4.36Zm0,5.54h-8.5v-4.57h8.5v4.57Zm4.41-17.46c-.99-.86-1.8-1.51-2.79-2.12l-1.27,2.59c-.85,1.76-1.94,3.31-2.96,5.04l.53.32c1.87-1.48,3.6-3.17,5.33-4.93.39-.4,1.55-.32,1.16-.9Zm21.94,25.27v-2.74h10.41l.28-.14c.07-.14.07-.4-.04-.54l-2.33-2.05c-.25-.18-.53-.14-.71,0l-1.38,1.62h-6.24v-2.92h5.71c0,.43-.04.58.21.83.18.11.39.07.71,0,.88-.29,1.38-.43,1.83-.65.25-.14.39-.18.39-.47l-.07-2.74v-2.92c.07-.76,1.45-.97,1.16-1.8-.92-.65-1.55-1.22-2.5-1.8-.18-.14-.56-.11-.64,0l-1.27,1.19h-14.29c-1.09-.4-2.22-.79-3.32-1.12l.07,2.52v4.9l-.07,3.56c0,.22.25.43.46.36.92-.22,1.66-.47,2.4-.86.11-.07.25-.25.25-.43v-.58h5.72v2.92h-11.15l.81,1.44c.81-.18,1.66-.32,2.22-.32h8.11v2.74l-14.57.04.81,1.44c.81-.22,1.48-.36,2.05-.36h28.54l.25-.04c.28,0,.32-.36.04-.61l-2.58-2.34c-.11-.11-.56-.18-.71.04l-1.48,1.91-9.1-.07Zm8.75-17.82h-26.39l.88,1.4c.74-.18,1.52-.29,2.01-.29h28.72c.25,0,.49-.36.21-.61-1.09-.97-1.98-1.66-3.1-2.41-.14-.14-.67-.14-.74,0l-1.59,1.91Zm-3.99-9.75h-12.24c-1.2-.4-2.33-1.04-3.56-1.48l.04,2.12v5.47l-.07,2.92c.04.22.21.32.39.32.6-.14,1.45-.36,2.01-.61.39-.14.67-.36.67-.61l-.04-.25h13.12v.86c.04.18.25.43.49.36.99-.25,1.52-.4,2.36-.83.18-.07.28-.32.28-.43-.04-1.91-.04-3.64-.04-5.62,0-.18.71-.61,1.27-1.08.14-.22.18-.43,0-.54-1.23-.94-1.76-1.26-2.82-1.94-.21-.18-.64-.14-.74-.04l-1.13,1.37Zm-8.01,15.91h-5.75v-2.38h5.75v2.38Zm0,3.82h-5.75v-2.74h5.75v2.74Zm8.4-16.41h-13.19v-2.2h13.19v2.2Zm0,3.49h-13.19v-2.41h13.19v2.41Zm.64,9.11h-5.75v-2.38h5.75v2.38Zm0,3.82h-5.75v-2.74h5.75v2.74Zm14.82-.04l-.46.11-.25,1.76c-.28,2.05-1.27,3.64-2.47,5.26-.14.22-.04.94.25,1.19.78.47,1.69.22,2.4-.43,1.62-2.23.92-5.36.53-7.88Zm9.1-14.47c.11-.14.07-.36,0-.5-.92-.58-1.94-1.15-2.93-1.73h-.21c-.46,1.33-.95,2.63-1.62,3.89l-3.88.25c1.66-2.27,3.03-4.75,4.34-7.23.39-.14.81-.32,1.16-.54.11-.18.07-.47-.11-.61-.99-.5-2.26-1.01-3.46-1.33l-.56,2.56c-.53,2.45-1.52,4.64-2.54,6.91-.14.22-.42.22-.99.32-.25.04-.39.32-.32.5l.6,1.37c.21.47.32,1.01.88.94,1.27-.79,2.68-1.3,4.09-1.69-.56,1.04-1.13,2.12-1.8,3.13-1.13,1.73-1.76,3.06-3.49,3.53-.18,0-.35.29-.21.58l.92,1.98c.07.18.28.43.56.32l1.13-.61,5.15-2.09h.25l.28,1.01c.21.79.18,1.33.49,1.91.18.25.49.36.81.29.71-.36,1.13-1.08,1.34-1.91.18-.79-.14-1.55-.64-2.2-.78-1.08-2.01-1.98-3.14-2.66l-.42.29c.49.9.74,1.62.99,2.45-1.66.22-3.35.32-5.04.4,2.65-2.74,5.19-5.72,7.16-8.93.42-.14.85-.29,1.2-.58Zm-4.27,19.76c.28-2.3-1.09-4.14-2.12-5.98l-.56.25c.67,2.23.42,4.72.25,7.06l.18.4c.21.14.42.22.71.22.78-.32,1.31-1.12,1.55-1.94Zm3.63-1.73c.28-1.3-.39-2.38-1.06-3.31l-1.66-1.84-.6.29c.63,1.4.99,2.99,1.02,4.57.04.83-.25,1.55.42,1.94.18.14.49.14.71.07.46-.4.99-1.04,1.16-1.73Zm2.75-2.27l-.67-.14c-.64,1.91-1.52,3.89-3.21,5.15-.53.36-1.02.54-1.27,1.12-.07.32,0,.61.18.9.56.47,1.52.54,2.26.32,2.54-1.3,2.65-4.72,2.72-7.34Zm15.56-18.83c.18-.22.11-.47-.07-.61-.78-.61-1.48-1.04-2.26-1.44-.21-.14-.53-.14-.56,0l-1.09,1.37-6.35-.07c.88-.86,1.2-1.26,1.87-1.98l1.23-.58.21-.22c.07-.25-.04-.5-.28-.61-1.09-.4-2.15-.83-3.35-1.15-.28,1.69-.56,3.06-1.2,4.61h-2.08c-1.06-.61-2.12-1.12-3.21-1.58l.11,2.41v9.47l-.04,6.69c.07.22.21.4.46.36.78-.22,1.45-.47,2.26-.9.18-.11.14-.32.14-1.44h10.55v1.91c.07.14.21.36.42.32,1.02-.36,2.22-.76,2.36-1.3.14-.43-.04-1.33-.04-2.09v-12.38c.14-.43.64-.47.92-.79Zm-2.54,24.22c-1.76-.86-1.91-2.88-1.8-4.64l-.67-.04-.07,1.19c-.25,1.3-.85,3.56-1.76,3.6-1.41.04-2.72.07-4.09-.04-.39-.04-.81-.29-.81-.72v-4.07c0-.58.63-.65.95-1.01.07-.18.07-.4-.11-.54-1.13-.4-2.29-.68-3.53-.94l.14,1.62v5.54l.18,1.08c.32.83,1.16,1.33,2.05,1.44,2.08.25,4.41.11,6.56.04l1.06-.29c.95-.4,1.45-1.22,1.91-2.23Zm-1.09-23.94l-.04,13.03h-10.55v-13.03h10.58Zm-.35,3.92c.11-.22,0-.47-.21-.61l-2.12-1.22c-.21-.14-.49-.14-.6,0l-.92,1.15h-1.69l.07-.14.25-.5c.53-1.04,1.06-.54,1.41-1.12.07-.14,0-.29-.14-.4-1.06-.36-2.12-.76-3.25-1.01-.18,3.02-1.38,5.76-2.75,8.42.18.11.35.29.56.25l1.73-1.98c.67.4,1.34,1.01,1.91,1.55-1.02,1.44-2.43,2.84-3.88,3.89.07.14.25.32.42.4,1.66-.79,3.25-1.91,4.69-3.17.6.65,1.23,1.37,1.8,2.02.25.22.49.5.88.4.53-.36.67-.9.6-1.58-.14-1.01-1.16-1.76-1.94-2.27.78-.9,1.27-1.84,1.83-3.02.28-.58.95-.58,1.34-1.04Zm-3.81.32c-.28.97-.64,1.87-1.13,2.74l-2.19-.94,1.09-1.8h2.22Zm.81,14.33c-.6-1.33-2.12-2.48-3.35-3.28l-.49.32c.46.83.78,1.76,1.09,2.63.28,1.04.46,2.16.74,3.2.11.32.56.43.85.25.71-.58,1.52-1.91,1.16-3.13Zm8.11,2.81c-.92-1.48-2.4-2.59-3.85-3.38l-1.13-.61-.46.36c1.69,2.16,2.82,4.5,3.77,7.02l.32.4c.32.07.78.14.99-.18.6-.97,1.06-2.45.35-3.6Zm18.03-4.43c.21-.54,1.09-1.15.53-1.55-.81-.61-.95-.76-2.08-1.48-.21-.18-.53-.22-.74.04l-.85,1.01-3.81.04c-.56-.32-.88-.47-1.2-.68,1.31-.9,2.79-1.73,3.95-2.84l.21-.07c1.48.94,2.96,1.94,4.37,3.1.46.36.78.76,1.38.79.49,0,.63-.43.78-.97.21-.76-.14-1.58-.71-2.09-1.27-1.12-2.75-1.87-4.23-2.41,1.02-1.12,1.69-1.91,2.68-3.13.46-.4,1.76-.76,1.27-1.19-.95-.76-1.59-1.26-2.08-1.62-.25-.14-.56-.25-.74,0l-.95.9-4.06-.07c.21-.25.42-.58.64-.83.39-.32,1.38-.29,1.2-.86-1.02-.76-1.69-1.15-2.93-1.8l-.18-.04c-1.09,3.53-3,6.84-5.54,9.72.14.11.28.25.46.32,1.09-.72,2.15-1.66,3.14-2.56,1.41.54,2.47,1.01,3.63,1.66-2.36,2.56-5.26,4.43-8.08,6.16l.42.54c1.2-.43,2.29-1.01,3.42-1.55.07,1.19.11,2.45.11,3.74v3.31c0,1.4-.11,2.63-.18,3.92.11.22.25.29.46.29.71-.11,1.31-.4,1.94-.72.39-.18.49-.43.49-.65l.04-2.27,4.48.04v1.91c0,.18.25.32.46.29l1.23-.36c.71-.29,1.06-.32,1.13-.9,0-1.22-.07-2.45-.07-3.67v-3.46Zm-.39-16.85h-9.35c-.04-.61-.04-1.3-.07-1.94l-.67-.14c-.18,2.02-1.66,3.49-3.1,4.72-.28.47-.14,1.04.11,1.37.53.54,1.38.29,1.94.11,1.27-.58,1.52-1.94,1.73-3.2l9.38-.04-1.41,2.12.42.29c2.01-1.12,3.14-1.8,5.15-1.66.32-.04.46-.25.32-.5-.81-.9-1.83-1.73-2.82-2.48-.18-.14-.49-.11-.53,0l-1.09,1.37Zm-2.12,5.54c-.46,1.01-1.41,2.38-2.19,3.38l-4.2-1.01c.74-.86,1.31-1.51,2.01-2.38h4.37Zm-5.04-10.33c1.41,1.08,1.98,2.74,2.65,4.25.21.36.85.18,1.2.04.74-.47,1.13-1.4.88-2.52-.56-1.3-2.43-1.69-4.41-2.3l-.32.54Zm4.83,26.96h-4.55v-6.41h4.55v6.41Zm9.31-1.98c-2.47,2.95-5.75,4.97-8.85,6.95l.46.54c3.56-1.15,6.88-2.99,10.09-4.93.35-.07.78,0,1.09-.18.07-.14.11-.32-.04-.47l-2.75-1.91Zm6.46-.61v1.22c.04.22.25.32.46.32.81-.22,1.69-.5,2.01-.76.35-.25.42-.47.42-.72l-.18-9.14v-5.04c0-.79,1.34-1.22.81-1.76-.74-.76-1.34-1.19-2.01-1.66-.21-.22-.56-.14-.67,0l-1.16,1.33h-3.85c1.09-1.37,1.91-2.99,2.68-4.54h6.24l.18-.07c.11-.11.04-.29,0-.43-.85-.86-1.31-1.37-2.26-2.16-.14-.14-.56-.14-.64-.04l-1.45,1.84h-11.89l.74,1.19c.67-.22,1.27-.32,1.94-.32h3.88c-.11,1.55-.39,3.1-.78,4.57h-1.06c-1.09-.43-1.91-.9-3.21-1.4l.14,3.28.04,7.31-.18,8.5c0,.43.53.4,1.02.18.46-.22.88-.4,1.27-.65.35-.11.56-.25.56-.5v-.54h6.91Zm0-11.09h-6.91v-4.21h6.91v4.21Zm0,5.11h-6.91v-4.25h6.91v4.25Zm0,5.11h-6.91v-4.25h6.91v4.25Zm-3.1,2.56c2.54,1.37,4.27,3.64,5.96,5.98.18.25.49.25.74.22.67-.29,1.06-.9,1.09-1.73.07-.9-.32-1.73-1.16-2.34-1.76-1.3-4.48-2.16-6.42-2.7l-.21.58Zm-223.15-17.96c1.39-2.22,3.12-3.32,5.19-3.32,1.28,0,2.35.42,3.21,1.27.86.85,1.29,1.96,1.29,3.33,0,1.06-.24,2.02-.72,2.9-.48.88-1.25,1.64-2.31,2.26-1.06.63-2.12,1.01-3.17,1.14v.6h.64c1.04,0,2.06.22,3.06.65,1,.43,1.79.92,2.36,1.45.41.39.79.96,1.14,1.7.47,1,.7,2.03.7,3.08,0,1.44-.5,2.69-1.51,3.75-1.01,1.05-2.19,1.58-3.55,1.58-.56,0-1.09-.07-1.58-.22-.31-.08-.86-.33-1.66-.75-.8-.42-1.31-.66-1.54-.73-.35-.11-.69-.16-1.02-.16-.44,0-.82.15-1.13.44-.31.29-.47.63-.47,1.02,0,.52.33,1.01.99,1.46.66.45,1.91.68,3.73.68,3.7,0,6.52-1.12,8.47-3.36,1.5-1.72,2.24-3.76,2.24-6.11,0-1.64-.43-3.07-1.28-4.29s-2.12-2.15-3.79-2.8c2.48-2.11,3.73-4.15,3.73-6.13,0-1.2-.44-2.33-1.32-3.38-1.16-1.42-2.83-2.12-5.01-2.12-1.76,0-3.23.5-4.42,1.49-1.18,1-2.16,2.41-2.93,4.24l.66.32Z"/>
  </g>
</svg>