<?xml version="1.0" encoding="UTF-8"?>
<svg id="b" data-name="圖層 2" xmlns="http://www.w3.org/2000/svg" viewBox="0 0 536.41 1487.66">
  <defs>
    <style>
      .d {
        fill: #fff;
        stroke-width: 0px;
      }
    </style>
  </defs>
  <g id="c" data-name="圖層 1">
    <path class="d" d="m353.37,0h-162.94c-.63,0-1.13.51-1.13,1.13v13.34c0,.63.51,1.13,1.13,1.13h48.74v34.27h-48.74c-.63,0-1.13.51-1.13,1.13v63.21c0,.63.51,1.13,1.13,1.13h48.74v34.27h-48.74c-.63,0-1.13.51-1.13,1.13v13.34c0,.63.51,1.13,1.13,1.13h162.94c.63,0,1.13-.51,1.13-1.13v-13.34c0-.63-.51-1.13-1.13-1.13h-48.74v-34.27h48.74c.63,0,1.13-.51,1.13-1.13v-63.21c0-.63-.51-1.13-1.13-1.13h-48.74V15.6h48.74c.63,0,1.13-.51,1.13-1.13V1.13c0-.63-.51-1.13-1.13-1.13Zm-14.47,65.47v34.27h-48.74c-.63,0-1.13.51-1.13,1.13v48.74h-34.26v-48.74c0-.63-.51-1.13-1.13-1.13h-48.74v-34.27h48.74c.63,0,1.13-.51,1.13-1.13V15.6h34.26v48.74c0,.63.51,1.13,1.13,1.13h48.74Zm-81.92,135.98c0-.63-.51-1.13-1.13-1.13h-65.42c-.63,0-1.13.51-1.13,1.13v162.94c0,.63.51,1.13,1.13,1.13h65.42c.63,0,1.13-.51,1.13-1.13v-6.29s.01-.08.01-.12v-149.19s0-.08-.01-.12v-7.22Zm-15.59,148.47h-36.49v-61.34h36.49v61.34Zm0-76.94h-36.49v-57.06h36.49v57.06Zm113.12-71.53v13.34c0,.63-.51,1.13-1.13,1.13h-70.63v34.26h70.63c.63,0,1.13.51,1.13,1.13v13.34c0,.63-.51,1.13-1.13,1.13h-10.2v98.6c0,.63-.51,1.13-1.13,1.13h-13.34c-.63,0-1.13-.51-1.13-1.13v-98.6h-44.83v98.6c0,.63-.51,1.13-1.13,1.13h-13.34c-.63,0-1.13-.51-1.13-1.13v-162.94c0-.63.51-1.13,1.13-1.13h85.1c.63,0,1.13.51,1.13,1.13Zm-165.21,215.19v-13.34c0-.63.51-1.13,1.13-1.13h162.94c.63,0,1.13.51,1.13,1.13v13.34c0,.63-.51,1.13-1.13,1.13h-162.94c-.63,0-1.13-.51-1.13-1.13Zm130.07,49.77c.63,0,1.13.51,1.13,1.13v13.34c0,.63-.51,1.13-1.13,1.13h-94.93c-.63,0-1.13-.51-1.13-1.13v-13.34c0-.63.51-1.13,1.13-1.13h94.93Zm-130.07,99.83v-13.34c0-.63.51-1.13,1.13-1.13h162.94c.63,0,1.13.51,1.13,1.13v13.34c0,.63-.51,1.13-1.13,1.13h-162.94c-.63,0-1.13-.51-1.13-1.13Zm165.28,109.89v13.48c0,.63-.51,1.13-1.13,1.13h-73.74v73.6c0,.63-.51,1.13-1.13,1.13h-13.34c-.63,0-1.13-.51-1.13-1.13v-73.6h-73.74c-.63,0-1.13-.51-1.13-1.13v-13.48c0-.63.51-1.13,1.13-1.13h73.74v-73.6c0-.63.51-1.13,1.13-1.13h13.34c.63,0,1.13.51,1.13,1.13v73.6h73.74c.63,0,1.13.51,1.13,1.13ZM5.47,1343h42.98v49.04h-5.94v-2.28H11.16v2.28h-5.69v-49.04Zm5.69,40.9h31.35v-35.08h-6.24c1.6.87,3.34,2.12,4.24,3.21l-2.04,2.28h2.45v4.62h-9.09c.25,2.93.55,5.7.95,8.15.95-2.06,1.69-4.29,2.24-6.63l5.39,1.41c-.1.43-.5.65-1.15.65-1.15,4.13-2.75,7.93-4.84,11.24.7,1.68,1.65,3.09,2.45,3.09.55,0,.9-2.23,1.15-5,.95.92,2.7,2.5,3.69,3.1-.65,5.21-2.4,7.66-4.69,7.66-.65,0-1.35-.16-2.05-.54-1.6-.54-2.84-1.9-3.89-3.8-1.65,1.85-3.49,3.48-5.54,4.78-.65-1.03-2.05-2.88-2.95-3.8.75-.43,1.5-.98,2.2-1.52l-10.09,1.96c-.1.43-.4.71-.75.81l-1.55-5.32c3.64-.38,8.93-1.14,14.17-1.85l.1,2.77c.9-.87,1.69-1.85,2.5-2.83-1.05-3.96-1.75-8.91-2.15-14.34h-14.03v-4.62h13.68c-.1-1.52-.2-3.1-.25-4.67l6.29.33c-.05.49-.5.92-1.3,1.03.05,1.09.05,2.23.15,3.31h5.44c-1.05-.98-2.6-2.12-3.89-2.93l2.4-2.55H11.16v35.08Zm14.38-22.65v10.43h-11.28v-10.43h11.28Zm-4.04,7.01v-3.53h-3.39v3.53h3.39Zm122.37-23.41l3.64,2.23c-.15.33-.5.54-.9.65-1.15,3.75-3.2,8.31-5.34,11.46,1.95,2.61,4.29,4.73,7.09,6.19-1.2,1.09-2.8,3.26-3.59,4.83-2.3-1.36-4.24-3.1-5.99-5.16v2.93h-15.48v-2.61c-1.69,1.96-3.59,3.58-5.69,4.94-.5-.87-1.25-2.12-2.04-3.1h-.05c.5,1.79.75,3.48.75,5.11,0,8.69-3.94,8.69-7.19,8.69-.05-1.47-.45-3.75-1-5.05.6.05,1.15.05,1.6.05,1.45,0,1.6-2.01,1.6-4.24,0-2.77-.75-6.3-3.04-10.48.8-3.53,1.65-8.58,2.24-12.49h-2.75v43.12h-5.19v-48.94h9.78l.75-.22,3.44,2.06c-.05.27-.2.6-.35.76l-1.55,7.33c2.59-3.04,4.59-7.55,5.69-12.22l5.34,1.47c-.1.38-.5.65-1.1.65-.2.76-.45,1.52-.7,2.28h4.19l.9-.16c.45.16.85.33,1.2.49l-.6-2.82,4.69-.98c.55,2.77,1.2,5.38,2.05,7.82v-4.34h6.74l.85-.27Zm-21.42,6.41c.75.38,1.65.92,2.45,1.52.35-.98.7-1.96,1-2.99h-3.99c-1.5,3.04-3.3,5.76-5.29,7.71-.55-.71-1.55-1.74-2.5-2.5-.45,2.06-.9,4.07-1.35,5.76.95,1.79,1.69,3.42,2.24,4.94,1.9-1.19,3.64-2.82,5.19-4.78-.8-.87-1.85-1.74-2.79-2.39l2.2-2.5c.85.54,1.8,1.3,2.65,2.01.4-.65.75-1.3,1.14-2.01-.89-.71-1.95-1.47-2.84-2.01l1.9-2.77Zm3.4,29.05c-.15.38-.55.6-1.2.54-1.65,3.26-4.3,6.9-6.84,9.34-.85-.98-2.59-2.72-3.69-3.58,2.24-2.01,4.59-5.32,5.94-8.47l5.79,2.17Zm17.97-3.42h-9.98v9.02c0,4.51-1,6.03-8.79,6.03-.3-1.68-1.1-4.02-1.8-5.54,1.8.05,3.64.05,4.24.05s.75-.11.75-.71v-8.85h-9.58v-5.27h25.16v5.27Zm-6.74-14.01c-2.59-3.69-4.49-8.25-5.94-13.47-1.25,5.21-3.3,9.78-5.89,13.47h11.83Zm5.44,27.15c-1.2-2.5-4.14-6.35-6.69-9.12l4.35-2.82c2.54,2.55,5.59,6.19,6.99,8.69l-4.65,3.26Zm-6.14-40.24c.6,1.74,1.3,3.37,2.1,4.89.8-1.47,1.5-3.21,2.1-4.89h-4.19Zm104.6,7.44l3.54,1.58c-.1.32-.3.71-.6.92-1.2,7.93-3.34,14.77-6.29,20.31,2.24,2.88,4.89,5.21,7.99,6.84-1.3,1.19-3.04,3.53-3.94,5.16-2.84-1.74-5.29-4.02-7.44-6.74-2.05,2.66-4.35,4.89-6.89,6.63-.7-1.47-2.54-3.8-3.74-4.89-.65,1.68-1.4,3.31-2.3,4.73-.75-.87-2.5-2.28-3.85-3.15l-3.24,1.47c-.2-.92-.5-2.01-.85-3.21-4.74,1.3-9.39,2.5-12.63,3.26-.05.54-.4.87-.8.98l-2.35-6.63c1.05-.16,2.25-.38,3.55-.65v-25.58l-.15.16c-.9-1.3-2.79-3.15-4.04-4.02,4.59-4.07,7.89-9.45,9.78-13.79l6.49,1.19c-.1.33-.35.6-.8.76,2.89,2.34,6.54,5.54,8.33,7.71l-3.79,4.45c-1.55-2.06-4.64-5.05-7.39-7.55-1.6,2.77-3.55,5.65-5.89,8.37h3.69v-4.29l6.24.38c-.05.49-.4.81-1.2.92v2.99h6.09v18.68h-11.98v8.53l5.09-1.03c-.6-1.57-1.2-3.09-1.8-4.45l4.79-1.96c1.35,2.83,2.75,6.25,3.8,9.12,2.79-6.9,3.04-15.64,3.04-22.38v-18.79h23.16v6.03h-17.52v8.15h12.93l.95-.22Zm-27.75,2.82h-6.69v2.61h6.69v-2.61Zm-6.69,9.67h6.69v-2.72h-6.69v2.72Zm20.26.92c-.4,5.43-1.25,11.19-3.09,16.13,2.7-1.68,5.09-3.91,7.09-6.68-1.55-2.88-2.84-6.03-3.94-9.45h-.05Zm.3-7.33l-.05,1.79,3.3-.87c.9,3.64,2.15,7.17,3.79,10.32,1.55-3.26,2.79-7.01,3.64-11.24h-10.68Zm95.91-16.29h18.37v6.19h-36.59v7.6c0,8.85-.75,22.38-5.29,30.96-1.1-1.09-3.8-2.99-5.19-3.69,4.14-7.82,4.49-19.33,4.49-27.26v-13.79h17.97v-6.35l7.59.43c-.05.54-.4.87-1.35,1.09v4.83Zm3.3,7.44c-.05.6-.45.92-1.35,1.09v3.64h15.72v5.81h-15.72v5.92h12.78v20.91h-6.14v-1.96h-17.92v2.01h-5.84v-20.96h11.03v-16.89l7.44.43Zm5.29,29.71v-7.5h-17.92v7.5h17.92Zm82.88-17.71h-3.2v19.93c0,4.45-1.4,5.48-7.04,5.48-.2-1.47-.8-3.58-1.4-4.94,1.2.06,2.35.06,2.8.06.45-.06.55-.22.55-.65v-3.8h-5.39v9.34h-5.04v-25.42h-3v-8.53h2.9v-15.59h15.82v15.59h3.04v6.19h24.01v4.34h-24.06v-2.01Zm-4.44-1.9v-2.23h-12.98v2.23h12.98Zm-10.08-17.54v10.92h1.75v-8.74h5.29v-2.17h-7.04Zm6.24,24.33v-2.39h-5.39v2.39h5.39Zm-5.39,6.79h5.39v-2.5h-5.39v2.5Zm4.09-20.2h2.1v-5.05h-2.1v5.05Zm30.75,24.22c-.15.38-.55.6-1.2.6-.55,1.09-1.3,2.55-2.04,3.86h6.69v4.61h-25.66v-4.61h6.44c-.45-1.52-1.1-3.21-1.85-4.51l3.04-1.2h-4.84v-10.7h20.62v10.7h-5.09l3.89,1.25Zm1.9-36.28v16.46h-22.01v-16.46h5.59v-5.21l5.29.33c-.05.43-.4.71-1.1.81v4.07h2.15v-5.21l5.34.33c-.05.43-.35.76-1.1.81v4.07h5.84Zm-17.62,4.13v2.12h2.15v-2.12h-2.15Zm0,6.03v2.17h2.15v-2.17h-2.15Zm1.14,18.03v2.99h10.74v-2.99h-10.74Zm6.84,12.55c.75-1.68,1.6-3.97,2.15-5.7h-7.74c1.05,1.79,1.95,4.08,2.3,5.7h3.3Zm-2.6-34.49h2.15v-2.12h-2.15v2.12Zm2.15,3.91h-2.15v2.17h2.15v-2.17Zm5.49-3.91v-2.12h-2.24v2.12h2.24Zm0,6.08v-2.17h-2.24v2.17h2.24Zm73.8,21.99c-.2.27-.55.49-1,.49-.1,0-.25,0-.4-.06-3,3.53-7.49,7.66-11.43,10.37-1.2-1.3-3.5-3.21-4.95-4.24,3.89-2.34,8.29-6.25,10.83-9.72l6.94,3.15Zm17.72-18.84c4.09,3.69,9.39,9.07,11.88,12.87l-5.39,3.91c-.6-1.03-1.44-2.23-2.45-3.53-4.29.16-8.63.33-12.88.43v16.73h-6.44v-16.51c-6.34.16-12.13.33-16.67.38-.2.54-.65.81-1.05.81l-2.15-7.28h10.93c1.15-.87,2.35-1.85,3.55-2.88-2.75-2.77-6.89-6.03-10.33-8.36l4.14-4.18c.8.49,1.6,1.03,2.45,1.58,1.5-1.58,3.04-3.42,4.39-5.27-4.09.22-8.19.38-12.08.43-.1-1.68-.8-4.35-1.4-5.87,13.23-.27,28.3-1.41,37.54-3.48l4.35,5.76c-.2.11-.45.22-.8.22-.2,0-.45-.06-.65-.11-5.29,1.09-12.03,1.96-19.12,2.5l1.2.71c-.25.38-.85.6-1.55.49-1.85,2.44-4.69,5.54-7.19,8.04,1.4,1.09,2.75,2.23,3.89,3.26,4.14-3.86,8.14-8.09,11.08-11.84l6.39,4.02c-.3.38-.9.54-1.65.54-4.04,4.61-9.73,9.94-15.08,14.39,4.6-.06,9.43-.11,14.23-.22-1.4-1.47-2.79-2.88-4.09-4.13l4.94-3.42Zm5.64,29.65c-2.35-2.99-7.54-7.5-11.58-10.54,1.8-1.41,3.4-2.55,4.99-3.75,3.99,2.83,9.34,7.06,11.98,10.1l-5.39,4.18Zm-359.2-115.09v6.35h-17.22v11.51h-6.19v-11.51h-22.71v-6.35h7.99v-14.34h14.73v-6.63h-10.98c-2.2,3.96-4.74,7.6-7.39,10.32-1.1-1.25-3.34-3.42-4.79-4.45,4.39-4.13,8.48-11.41,10.73-18.47l7.24,2.44c-.2.43-.7.71-1.4.65-.4,1.09-.85,2.12-1.3,3.21h28.5v6.3h-14.42v6.63h13.33v6.08h-13.33v8.25h17.22Zm-32.15,0h8.74v-8.25h-8.74v8.25Zm123.51-21.73h-6.69c1.95,3.75,4.64,7.06,7.69,9.02-1.25,1.2-3.04,3.42-3.94,5-1.65-1.25-3.14-2.77-4.54-4.56v2.55h-13.23v-2.55c-1.49,1.74-3.24,3.31-5.24,4.78-.7-1.57-2.45-3.91-3.69-4.83.4-.27.8-.54,1.15-.81h-4.59v5.76h5.19v5.54h-5.19v8.25c1.99-.49,3.99-1.03,5.99-1.52l.6,5.27c-6.44,1.9-13.13,3.8-17.47,5-.05.49-.45.87-.8.98l-2.15-6.52,2.15-.49v-18.47l5.79.38c-.05.43-.35.76-1.14.87v16.19l1.99-.49v-20.75h-6.34v-18.14h16.03v18.09c3.2-2.39,5.54-5.32,7.19-8.53h-6.09v-5.81h8.33c.55-1.96.9-3.96,1.15-5.92l6.84.71c-.05.6-.45.92-1.2.98-.25,1.41-.5,2.82-.9,4.24h13.13v5.81Zm-39.54-4.18v7.33h5.84v-7.33h-5.84Zm13.43,24.17v-5.27h24.51v5.27h-14.17l-.65,2.55h8.59l1.25-.22,3.39.87c-.05.43-.2,1.03-.35,1.57-1.35,13.79-2.9,14.72-10.33,14.72-1.15,0-2.45-.05-3.85-.11-.1-1.68-.75-4.02-1.69-5.59,2.45.22,4.99.27,6.14.27.85,0,1.4-.05,1.9-.49.7-.6,1.25-2.39,1.75-5.81h-8.29c-.25.71-.45,1.41-.65,2.01l-5.49-.98c.85-2.39,1.8-5.7,2.6-8.8h-4.64Zm11.13-19.99c-.95,2.34-2.15,4.62-3.59,6.74h9.23c-1.3-2.06-2.45-4.35-3.34-6.74h-2.3Zm61.47-9.29h42.98v49.04h-5.94v-2.28h-31.35v2.28h-5.69v-49.04Zm5.69,40.9h31.35v-35.08h-6.24c1.6.87,3.34,2.12,4.24,3.21l-2.04,2.28h2.45v4.62h-9.09c.25,2.93.55,5.7.95,8.15.95-2.06,1.69-4.29,2.24-6.63l5.39,1.41c-.1.43-.5.65-1.15.65-1.15,4.13-2.75,7.93-4.84,11.24.7,1.68,1.65,3.09,2.45,3.09.55,0,.9-2.23,1.15-5,.95.92,2.7,2.5,3.69,3.1-.65,5.21-2.4,7.66-4.69,7.66-.65,0-1.35-.16-2.05-.54-1.6-.54-2.84-1.9-3.89-3.8-1.65,1.85-3.49,3.48-5.54,4.78-.65-1.03-2.05-2.88-2.95-3.8.75-.43,1.5-.98,2.2-1.52l-10.09,1.96c-.1.43-.4.71-.75.81l-1.55-5.32c3.64-.38,8.93-1.14,14.17-1.85l.1,2.77c.9-.87,1.69-1.85,2.5-2.83-1.05-3.96-1.75-8.91-2.15-14.34h-14.03v-4.62h13.68c-.1-1.52-.2-3.1-.25-4.67l6.29.33c-.05.49-.5.92-1.3,1.03.05,1.09.05,2.23.15,3.31h5.44c-1.05-.98-2.6-2.12-3.89-2.93l2.4-2.55h-24.36v35.08Zm14.38-22.65v10.43h-11.28v-10.43h11.28Zm-4.04,7.01v-3.53h-3.39v3.53h3.39Zm119.47,11.13h-15.07c4.54,2.88,10.58,5.32,16.17,6.63-1.25,1.25-2.95,3.69-3.75,5.22-5.89-1.79-12.28-5.11-17.27-9.02v9.61h-5.94v-9.34c-4.94,3.91-11.28,7.17-17.07,9.02-.85-1.58-2.54-4.02-3.85-5.38,5.64-1.3,11.83-3.8,16.42-6.73h-15.12v-5.21h19.62v-2.44h-13.83v-13.74c-1.05,1.14-2.15,2.23-3.3,3.31-.85-1.52-2.7-3.75-3.94-4.73,5.69-4.72,9.78-10.97,12.08-16.02l6.94,1.36c-.15.49-.55.81-1.3.87-.65,1.25-1.35,2.5-2.1,3.8h6.89c.95-1.96,1.8-4.24,2.4-5.97l7.29,1.52c-.15.43-.55.65-1.35.71-.55,1.14-1.25,2.44-1.99,3.75h14.63v5.05h-15.27v2.17h13.08v4.24h-13.08v2.23h13.08v4.24h-13.08v2.28h17.27v4.94h-17.37c-.25.22-.55.33-1.1.43v2.01h19.92v5.21Zm-24.46-25.58v-2.17h-9.54v2.17h9.54Zm0,6.46v-2.23h-9.54v2.23h9.54Zm-9.54,4.24v2.28h9.54v-2.28h-9.54Zm80.98-22.05h43.13v49.37h-5.84v-1.9h-31.75v1.9h-5.54v-49.37Zm5.54,42.14h31.75v-36.77h-31.75v36.77Zm24.16-13.31c-.1.38-.4.65-1.1.76v1.3h6.74v3.53h-6.74v2.34c0,3.64-1.3,4.29-7.34,4.29-.35-1.25-1.15-2.88-1.69-3.86,1.44.05,2.99.05,3.44.05.5,0,.65-.16.65-.65v-2.17h-7.79c1.15,1.3,2.35,2.88,2.95,4.07l-3.99,2.17c-.65-1.41-2.15-3.53-3.5-5.05l2.3-1.19h-6.29v-3.53h16.32v-1.85c-5.59.11-10.88.27-14.67.33-.1.43-.35.65-.7.71l-1.1-4.07c1.65.06,9.78,0,11.63,0v-1.68h-9.23v-10.97h9.23v-1.52h-11.38v-3.48h11.38v-2.17l6.04.38c-.05.49-.35.76-1.15.92v.87h11.43v3.48h-11.43v1.52h9.34v10.97h-.95c1.65,1.3,3.19,2.77,4.14,3.86l-3.39,2.23c-.35-.49-.85-1.03-1.4-1.63l-1.75.05Zm-15.52-12.87v1.58h4.64v-1.58h-4.64Zm0,5.76h4.64v-1.68h-4.64v1.68Zm14.13-5.76h-4.59v1.58h4.59v-1.58Zm0,5.76v-1.68h-4.59v1.68h4.59Zm-4.59,2.61v1.68l4.59-.05c-.55-.43-1.1-.87-1.6-1.2l.7-.43h-3.69Zm-493.32-3.12c4.69,1.15,8.59,5.28,8.59,11.52,0,7.64-5.63,13.82-15.45,13.82-4.46,0-8.47-1.27-10.59-2.79l1.84-6.79c1.56,1.09,4.97,2.48,8.2,2.48,5.08,0,7.58-3.4,7.58-7.15,0-5.15-4.12-7.58-8.64-7.58h-2.84v-6.31h2.68c3.29,0,7.53-2,7.53-6.43,0-3.21-1.95-5.58-5.86-5.58-2.9,0-5.74,1.4-7.36,2.48l-1.73-6.43c2.17-1.58,6.47-3.15,10.98-3.15,8.08,0,12.32,5.15,12.32,11.22,0,4.73-2.62,8.67-7.25,10.55v.12Zm26.64,1.88c0-13.94,4.74-23.76,14.22-23.76s13.77,10.67,13.77,23.4c0,15.16-5.18,23.83-14.05,23.83-9.81,0-13.94-10.67-13.94-23.46Zm14.05,16.37c3.79,0,5.69-5.82,5.69-16.55s-1.73-16.49-5.63-16.49c-3.57,0-5.86,5.58-5.86,16.49s2.06,16.55,5.74,16.55h.06Zm83.5-304.7h-4.47c-.94,5.57-4.11,11.07-11.9,14.63-1.01-1.7-3.24-4.41-4.9-5.88,5.7-2.09,8.01-5.42,8.94-8.75h-9.45v-7.2h9.95v-7.66l9.52.54c-.07.7-.58,1.16-1.8,1.39v5.73h4.11v-7.51l9.3.54c-.07.7-.58,1.16-1.8,1.39v5.57h6.13v-7.51l9.66.54c-.07.7-.58,1.16-1.8,1.39v5.57h4.11v-7.74l9.52.62c-.07.7-.58,1.16-1.8,1.32v5.81h9.74v7.2h-9.74v3.79c0,2.01.14,2.24.94,2.24h2.09c.87,0,1.15-.85,1.3-5.42,1.44,1.16,4.47,2.32,6.49,2.86-.72,7.28-2.52,9.44-6.92,9.44h-4.4c-5.99,0-7.21-2.17-7.21-9.06v-3.87h-4.11v12.15h-21.49v-12.15Zm-20.84,32.05v-16.95h63.32v16.95h-6.92v12.23c0,8.05-3.75,8.82-15.29,8.82-.36-2.4-1.59-5.81-2.67-7.97,1.87.08,3.97.16,5.62.16,3.53,0,3.82-.08,3.82-1.16v-8.28h-12.62v21.6h-8.51v-21.6h-11.25v16.8h-8.44v-20.59h-7.07Zm26.76-9.44h-18.75v5.88h18.75v-5.88Zm7.72-22.6h-6.13v5.34h6.13v-5.34Zm20.41,28.49v-5.88h-17.67c-.14.7-.65,1.16-1.95,1.39v4.49h19.62Zm110.69,7.58h-8.73v-3.1h-9.74v3.17h-8.8v-24.15h-9.88v31.35h45.44v8.98h-45.44v4.95h-8.94v-45.28h-10.39v-8.98h10.39v-16.41l10.89.62c-.07.77-.58,1.24-1.95,1.47v14.32h9.88v-18.11l10.67.62c-.07.85-.58,1.24-1.87,1.55v15.95h9.74v-17.34l10.67.62c-.07.85-.65,1.24-1.95,1.55v15.17h10.82v8.98h-10.82v24.07Zm-18.46-11.77h9.74v-12.31h-9.74v12.31Zm132.34-3.87h-11.61c4.9,5.11,11.97,9.29,19.47,11.53-1.95,1.86-4.47,5.42-5.77,7.82-4.98-1.86-9.67-4.64-13.78-8.13v25.7h-8.58v-29.26l5.12.31c-2.38-2.48-4.54-5.11-6.35-7.97h-9.45c-1.87,2.71-4.04,5.34-6.42,7.74l6.92.39c-.07.77-.58,1.24-1.87,1.47v3.56c0,7.9-1.95,18.27-16.37,24.54-1.08-2.17-3.82-5.5-5.63-7.12,13.63-5.34,13.63-13.31,13.63-19.82-4.33,3.64-9.23,6.66-14.28,8.75-1.3-2.17-3.75-5.65-5.63-7.43,7.29-2.48,14.43-6.89,19.4-12.08h-10.96v-33.59h52.15v33.59Zm-43.71-26.09v5.73h12.91v-5.73h-12.91Zm0,12.69v5.88h12.91v-5.88h-12.91Zm34.91-6.97v-5.73h-13.56v5.73h13.56Zm0,12.85v-5.88h-13.56v5.88h13.56Zm-269.72,113.12h61.23v67.96h-9.16v-5.03h-43.27v5.03h-8.8v-67.96Zm8.8,53.8h43.27v-44.66h-43.27v44.66Zm7.57-35.68h27.84v26.63h-27.84v-26.63Zm19.76,19.04v-11.53h-12.12v11.53h12.12Zm106.29-37.77c-.29.7-1.08,1.08-2.24,1.08-2.6,5.73-6.56,12.69-10.31,18.58,8.58-.16,17.96-.46,27.19-.77-2.6-2.71-5.34-5.26-7.93-7.51l6.71-5.65c7.36,6.04,16.37,14.86,20.34,21.36l-7.43,6.5c-1.01-1.94-2.52-4.1-4.33-6.35-19.4,1.01-39.74,1.78-52.72,2.24-.22.77-.86,1.16-1.51,1.24l-3.03-10.53,12.48-.23c4.4-7.04,9.23-16.56,12.05-24.23l10.75,4.26Zm-24.52,69.35v-33.67h47.46v33.36h-9.09v-2.32h-29.71v2.63h-8.66Zm38.37-24.77h-29.71v13.08h29.71v-13.08Zm99.96-34.75h25.89v39.01h-9.09v-3.95h-16.8v24.38h-9.09v-24.38h-16.16v4.33h-8.73v-39.4h24.88v-13.55l11.11.7c-.07.77-.58,1.24-2.02,1.47v11.38Zm-25.24,25.93h16.16v-16.8h-16.16v16.8Zm25.24,0h16.8v-16.8h-16.8v16.8ZM1.65,1179.58H0v-217.61h1.65v217.61Zm534.68,0h-1.65v-217.61h1.65v217.61ZM30.46,1486.24H1.86v-5.5l5.08-5.44c8.65-8.95,13.72-14.81,13.72-20.98,0-3.99-2.12-7.32-7.13-7.32-3.33,0-6.41,1.75-8.52,3.33l-2.48-6.41c2.84-2.18,7.56-4.11,12.82-4.11,9.79,0,14.27,6.23,14.27,13.66,0,8.1-5.5,14.75-12.15,21.46l-3.81,3.75v.12h16.81v7.44Zm33.01-45.76v7.38h-15.54l-1.21,8.95c.85-.12,1.57-.18,2.54-.18,7.98,0,15.48,4.47,15.48,14.33,0,8.77-6.71,15.96-17.47,15.96-4.53,0-8.65-1.15-10.88-2.36l1.75-6.77c1.81.97,5.14,2.12,8.65,2.12,4.65,0,8.95-2.96,8.95-8.22s-4.05-8.58-11.79-8.58c-2.06,0-3.63.12-5.14.3l2.78-22.91h21.88Zm7.01,24.24h16.56v6.17h-16.56v-6.17Zm46.67,21.52h-8.28v-11.31h-18.44v-5.8l16.62-28.6h10.1v27.63h5.26v6.77h-5.26v11.31Zm-18.74-18.08h10.46v-11.37c0-2.66.18-5.56.36-8.28h-.24c-1.39,2.9-2.48,5.44-3.87,8.04l-6.71,11.49v.12Zm27.38-4.66c0-13.9,5.14-23.7,15.42-23.7s14.93,10.64,14.93,23.34c0,15.11-5.62,23.76-15.23,23.76-10.64,0-15.11-10.64-15.11-23.4Zm15.23,16.32c4.11,0,6.17-5.8,6.17-16.5s-1.87-16.44-6.11-16.44c-3.87,0-6.35,5.56-6.35,16.44s2.24,16.5,6.23,16.5h.06Zm72.59-17v6.03h-13.24v18.79h-6.41v-18.79h-12.17l.8,4.8c-5.87,2.3-12.12,4.59-16.23,5.98-.05.53-.43.91-.85,1.01l-2.78-7.1c1.92-.48,4.27-1.12,6.89-1.87v-15.53h-5.71v-6.03h5.71v-12.33l7.58.43c-.05.53-.43.85-1.39,1.01v10.89h5.39v6.03h-5.39v13.66l4.7-1.44v-5.55h13.45v-17.13h-11.74v-5.98h30.05v5.98h-11.9v17.13h13.24Zm-27.33-1.01c-.32-3.36-1.76-8.59-3.42-12.49l5.34-1.6c1.81,3.9,3.36,8.91,3.79,12.33l-5.71,1.76Zm26.69-11.96c-.21.37-.69.53-1.49.53-1.07,3.58-2.94,8.43-4.48,11.58-.05-.05-4.7-1.92-4.7-1.92,1.39-3.42,2.94-8.75,3.74-12.6l6.94,2.4Zm59.37,36.38h-28.6v-5.5l5.08-5.44c8.65-8.95,13.72-14.81,13.72-20.98,0-3.99-2.12-7.32-7.13-7.32-3.33,0-6.41,1.75-8.52,3.33l-2.48-6.41c2.84-2.18,7.56-4.11,12.82-4.11,9.79,0,14.27,6.23,14.27,13.66,0,8.1-5.5,14.75-12.15,21.46l-3.81,3.75v.12h16.81v7.44Zm34.58,0h-28.6v-5.5l5.08-5.44c8.65-8.95,13.72-14.81,13.72-20.98,0-3.99-2.12-7.32-7.13-7.32-3.33,0-6.41,1.75-8.52,3.33l-2.48-6.41c2.84-2.18,7.56-4.11,12.82-4.11,9.79,0,14.27,6.23,14.27,13.66,0,8.1-5.5,14.75-12.15,21.46l-3.81,3.75v.12h16.81v7.44Zm33.01-45.76v7.38h-15.54l-1.21,8.95c.85-.12,1.57-.18,2.54-.18,7.98,0,15.48,4.47,15.48,14.33,0,8.77-6.71,15.96-17.47,15.96-4.53,0-8.65-1.15-10.88-2.36l1.75-6.77c1.81.97,5.14,2.12,8.65,2.12,4.65,0,8.95-2.96,8.95-8.22s-4.05-8.58-11.79-8.58c-2.06,0-3.63.12-5.14.3l2.78-22.91h21.88Zm19.95,45.76v-37.72h-.12l-7.86,4.11-1.93-6.41,11.12-5.68h7.5v45.7h-8.71Zm21.64-21.52h16.56v6.17h-16.56v-6.17Zm49.81,21.52h-28.6v-5.5l5.08-5.44c8.65-8.95,13.72-14.81,13.72-20.98,0-3.99-2.12-7.32-7.13-7.32-3.33,0-6.41,1.75-8.52,3.33l-2.48-6.41c2.84-2.18,7.56-4.11,12.82-4.11,9.79,0,14.27,6.23,14.27,13.66,0,8.1-5.5,14.75-12.15,21.46l-3.81,3.75v.12h16.81v7.44Zm5.5-22.73c0-13.9,5.14-23.7,15.42-23.7s14.93,10.64,14.93,23.34c0,15.11-5.62,23.76-15.23,23.76-10.64,0-15.11-10.64-15.11-23.4Zm15.23,16.32c4.11,0,6.17-5.8,6.17-16.5s-1.87-16.44-6.11-16.44c-3.87,0-6.35,5.56-6.35,16.44s2.24,16.5,6.23,16.5h.06Zm27.26-17.59c-4.23-2.36-6.47-6.17-6.47-10.04,0-7.56,6.23-12.39,14.15-12.39,9.07,0,13.36,5.74,13.36,11.49,0,3.69-2.06,7.74-6.71,10.28v.12c4.47,2.06,8.16,5.99,8.16,11.67,0,8.16-6.41,13.54-15.48,13.54-9.73,0-14.93-5.99-14.93-12.51,0-5.62,3.33-9.67,7.92-11.97v-.18Zm13.54,11.85c0-4.47-3.02-7.31-7.01-8.65-3.45,1.27-5.5,4.47-5.5,8.1,0,3.87,2.36,7.25,6.23,7.25s6.29-3.14,6.29-6.71Zm-11.61-22.31c0,3.51,2.54,5.92,6.11,7.25,2.54-1.03,4.66-3.87,4.66-6.95s-1.51-6.29-5.32-6.29-5.44,3.08-5.44,5.99Zm32.64,10.46c-4.23-2.36-6.47-6.17-6.47-10.04,0-7.56,6.23-12.39,14.15-12.39,9.07,0,13.36,5.74,13.36,11.49,0,3.69-2.06,7.74-6.71,10.28v.12c4.47,2.06,8.16,5.99,8.16,11.67,0,8.16-6.41,13.54-15.48,13.54-9.73,0-14.93-5.99-14.93-12.51,0-5.62,3.33-9.67,7.92-11.97v-.18Zm13.54,11.85c0-4.47-3.02-7.31-7.01-8.65-3.45,1.27-5.5,4.47-5.5,8.1,0,3.87,2.36,7.25,6.23,7.25s6.29-3.14,6.29-6.71Zm-11.61-22.31c0,3.51,2.54,5.92,6.11,7.25,2.54-1.03,4.65-3.87,4.65-6.95s-1.51-6.29-5.32-6.29-5.44,3.08-5.44,5.99Z"/>
  </g>
</svg>