<?xml version="1.0" encoding="UTF-8"?>
<svg id="b" data-name="圖層 2" xmlns="http://www.w3.org/2000/svg" viewBox="0 0 571.35 395.67">
  <defs>
    <style>
      .d {
        fill: #fff;
        stroke-width: 0px;
      }
    </style>
  </defs>
  <g id="c" data-name="圖層 1">
    <path class="d" d="m313.46,244.23h20.63v23.54h-2.85v-1.1h-15.05v1.1h-2.73v-23.54Zm2.73,19.63h15.05v-16.84h-3c.77.42,1.61,1.02,2.04,1.54l-.98,1.1h1.17v2.22h-4.36c.12,1.41.26,2.74.46,3.91.46-.99.81-2.06,1.08-3.18l2.59.68c-.05.21-.24.31-.55.31-.55,1.98-1.32,3.81-2.32,5.4.34.81.79,1.49,1.17,1.49.26,0,.43-1.07.55-2.4.46.44,1.29,1.2,1.77,1.49-.31,2.5-1.15,3.68-2.25,3.68-.31,0-.65-.08-.98-.26-.77-.26-1.37-.91-1.87-1.82-.79.89-1.68,1.67-2.66,2.29-.31-.5-.98-1.38-1.41-1.82.36-.21.72-.47,1.06-.73l-4.84.94c-.05.21-.19.34-.36.39l-.74-2.55c1.75-.18,4.29-.55,6.8-.89l.05,1.33c.43-.42.81-.89,1.2-1.36-.5-1.9-.84-4.28-1.03-6.88h-6.73v-2.22h6.57c-.05-.73-.1-1.49-.12-2.24l3.02.16c-.03.23-.24.44-.62.5.03.52.03,1.07.07,1.59h2.61c-.5-.47-1.25-1.02-1.87-1.41l1.15-1.23h-11.69v16.84Zm6.9-10.87v5.01h-5.41v-5.01h5.41Zm-1.94,3.36v-1.69h-1.63v1.69h1.63Zm58.73-11.24l1.75,1.07c-.07.16-.24.26-.43.31-.55,1.8-1.53,3.99-2.56,5.5.94,1.25,2.06,2.27,3.4,2.97-.58.52-1.34,1.56-1.73,2.32-1.1-.65-2.04-1.49-2.88-2.48v1.41h-7.43v-1.25c-.81.94-1.73,1.72-2.73,2.37-.24-.42-.6-1.02-.98-1.49h-.02c.24.86.36,1.67.36,2.45,0,4.17-1.89,4.17-3.45,4.17-.02-.7-.21-1.8-.48-2.42.29.03.55.03.77.03.7,0,.77-.96.77-2.03,0-1.33-.36-3.02-1.46-5.03.38-1.69.79-4.12,1.08-6h-1.32v20.7h-2.49v-23.49h4.7l.36-.1,1.65.99c-.02.13-.1.29-.17.37l-.74,3.52c1.24-1.46,2.2-3.62,2.73-5.86l2.56.7c-.05.18-.24.31-.53.31-.09.36-.21.73-.33,1.1h2.01l.43-.08c.21.08.41.16.58.23l-.29-1.36,2.25-.47c.26,1.33.58,2.58.98,3.75v-2.08h3.23l.41-.13Zm-10.28,3.08c.36.18.79.44,1.17.73.17-.47.34-.94.48-1.43h-1.92c-.72,1.46-1.58,2.76-2.54,3.7-.26-.34-.74-.83-1.2-1.2-.22.99-.43,1.95-.65,2.76.46.86.81,1.64,1.08,2.37.91-.57,1.75-1.36,2.49-2.29-.38-.42-.89-.83-1.34-1.15l1.05-1.2c.41.26.86.63,1.27.96.19-.31.36-.63.55-.96-.43-.34-.93-.7-1.37-.97l.91-1.33Zm1.63,13.95c-.07.18-.26.29-.58.26-.79,1.56-2.06,3.31-3.28,4.48-.41-.47-1.24-1.3-1.77-1.72,1.08-.97,2.2-2.55,2.85-4.07l2.78,1.04Zm8.63-1.64h-4.79v4.33c0,2.16-.48,2.89-4.22,2.89-.14-.81-.53-1.93-.86-2.66.86.03,1.75.03,2.04.03s.36-.05.36-.34v-4.25h-4.6v-2.53h12.08v2.53Zm-3.24-6.73c-1.24-1.77-2.15-3.96-2.85-6.46-.6,2.5-1.58,4.69-2.83,6.46h5.68Zm2.61,13.03c-.58-1.2-1.99-3.05-3.21-4.38l2.09-1.36c1.22,1.23,2.68,2.97,3.35,4.17l-2.23,1.56Zm-2.95-19.32c.29.83.62,1.62,1.01,2.35.38-.7.72-1.54,1.01-2.35h-2.01Zm50.2,3.57l1.7.76c-.05.16-.14.34-.29.44-.58,3.81-1.61,7.09-3.02,9.75,1.08,1.38,2.35,2.5,3.83,3.28-.62.57-1.46,1.69-1.89,2.48-1.37-.83-2.54-1.93-3.57-3.23-.98,1.28-2.09,2.35-3.31,3.18-.33-.7-1.22-1.82-1.8-2.35-.31.81-.67,1.59-1.1,2.27-.36-.42-1.2-1.09-1.85-1.51l-1.56.7c-.1-.44-.24-.97-.41-1.54-2.28.63-4.5,1.2-6.06,1.56-.03.26-.19.42-.38.47l-1.13-3.18c.5-.08,1.08-.18,1.7-.31v-12.28l-.07.08c-.43-.63-1.34-1.51-1.94-1.93,2.2-1.95,3.79-4.54,4.7-6.62l3.12.57c-.05.16-.17.29-.38.36,1.39,1.12,3.14,2.66,4,3.7l-1.82,2.14c-.74-.99-2.23-2.42-3.55-3.62-.77,1.33-1.7,2.71-2.83,4.02h1.77v-2.06l3,.18c-.02.23-.19.39-.58.44v1.43h2.92v8.97h-5.75v4.09l2.44-.5c-.29-.76-.58-1.49-.86-2.14l2.3-.94c.65,1.36,1.32,3,1.82,4.38,1.34-3.31,1.46-7.51,1.46-10.74v-9.02h11.12v2.89h-8.41v3.91h6.21l.46-.1Zm-13.32,1.36h-3.21v1.25h3.21v-1.25Zm-3.21,4.64h3.21v-1.3h-3.21v1.3Zm9.73.44c-.19,2.61-.6,5.37-1.49,7.74,1.29-.81,2.44-1.88,3.4-3.21-.74-1.38-1.37-2.89-1.89-4.54h-.02Zm.14-3.52l-.02.86,1.58-.42c.43,1.75,1.03,3.44,1.82,4.95.74-1.56,1.34-3.36,1.75-5.4h-5.13Zm46.03-7.82h8.82v2.97h-17.56v3.65c0,4.25-.36,10.74-2.54,14.86-.53-.52-1.82-1.43-2.49-1.77,1.99-3.75,2.16-9.28,2.16-13.09v-6.62h8.63v-3.05l3.64.21c-.03.26-.19.42-.65.52v2.32Zm1.58,3.57c-.02.29-.21.44-.65.52v1.75h7.55v2.79h-7.55v2.84h6.13v10.04h-2.95v-.94h-8.6v.96h-2.8v-10.06h5.3v-8.11l3.57.21Zm2.54,14.26v-3.6h-8.6v3.6h8.6Zm39.78-8.5h-1.53v9.57c0,2.14-.67,2.63-3.38,2.63-.1-.7-.38-1.72-.67-2.37.58.03,1.13.03,1.34.03.21-.03.26-.1.26-.31v-1.82h-2.59v4.48h-2.42v-12.2h-1.44v-4.09h1.39v-7.48h7.6v7.48h1.46v2.97h11.52v2.08h-11.55v-.96Zm-2.13-.91v-1.07h-6.23v1.07h6.23Zm-4.84-8.42v5.24h.84v-4.2h2.54v-1.04h-3.38Zm2.99,11.68v-1.15h-2.59v1.15h2.59Zm-2.59,3.26h2.59v-1.2h-2.59v1.2Zm1.96-9.7h1.01v-2.42h-1.01v2.42Zm14.76,11.63c-.07.18-.26.29-.58.29-.26.52-.62,1.23-.98,1.85h3.21v2.21h-12.32v-2.21h3.09c-.21-.73-.53-1.54-.89-2.16l1.46-.57h-2.32v-5.14h9.9v5.14h-2.44l1.87.6Zm.91-17.41v7.9h-10.57v-7.9h2.68v-2.5l2.54.16c-.02.21-.19.34-.53.39v1.95h1.03v-2.5l2.56.16c-.02.21-.17.36-.53.39v1.95h2.8Zm-8.46,1.98v1.02h1.03v-1.02h-1.03Zm0,2.89v1.04h1.03v-1.04h-1.03Zm.55,8.65v1.43h5.15v-1.43h-5.15Zm3.28,6.02c.36-.81.77-1.9,1.03-2.74h-3.71c.5.86.94,1.96,1.1,2.74h1.58Zm-1.25-16.55h1.03v-1.02h-1.03v1.02Zm1.03,1.88h-1.03v1.04h1.03v-1.04Zm2.64-1.88v-1.02h-1.08v1.02h1.08Zm0,2.92v-1.04h-1.08v1.04h1.08Zm35.42,10.56c-.1.13-.26.24-.48.24-.05,0-.12,0-.19-.03-1.44,1.69-3.59,3.68-5.49,4.98-.58-.63-1.68-1.54-2.37-2.03,1.87-1.12,3.98-3,5.2-4.67l3.33,1.51Zm8.51-9.04c1.96,1.77,4.5,4.35,5.7,6.18l-2.59,1.88c-.29-.5-.69-1.07-1.17-1.69-2.06.08-4.14.16-6.18.21v8.03h-3.09v-7.92c-3.04.08-5.82.16-8,.18-.1.26-.31.39-.5.39l-1.03-3.49h5.25c.55-.42,1.13-.89,1.7-1.38-1.32-1.33-3.31-2.89-4.96-4.01l1.99-2.01c.38.23.77.5,1.17.76.72-.76,1.46-1.64,2.11-2.53-1.96.1-3.93.18-5.8.21-.05-.81-.38-2.09-.67-2.82,6.35-.13,13.59-.68,18.02-1.67l2.09,2.76c-.1.05-.22.1-.38.1-.1,0-.22-.03-.31-.05-2.54.52-5.78.94-9.18,1.2l.58.34c-.12.18-.41.29-.74.23-.89,1.17-2.25,2.66-3.45,3.86.67.52,1.32,1.07,1.87,1.56,1.99-1.85,3.91-3.88,5.32-5.68l3.07,1.93c-.14.18-.43.26-.79.26-1.94,2.21-4.67,4.77-7.24,6.91,2.21-.03,4.53-.05,6.83-.1-.67-.7-1.34-1.38-1.96-1.98l2.37-1.64Zm2.71,14.23c-1.13-1.43-3.62-3.6-5.56-5.06.86-.68,1.63-1.23,2.4-1.8,1.92,1.36,4.48,3.39,5.75,4.85l-2.59,2.01Zm-173.22-47.25v3.05h-8.27v5.53h-2.97v-5.53h-10.9v-3.05h3.83v-6.88h7.07v-3.18h-5.27c-1.06,1.9-2.28,3.65-3.55,4.95-.53-.6-1.61-1.64-2.3-2.14,2.11-1.98,4.07-5.47,5.15-8.86l3.47,1.17c-.1.21-.34.34-.67.31-.19.52-.41,1.02-.62,1.54h13.68v3.02h-6.92v3.18h6.4v2.92h-6.4v3.96h8.27Zm-15.43,0h4.19v-3.96h-4.19v3.96Zm59.28-10.43h-3.21c.93,1.8,2.23,3.39,3.69,4.33-.6.57-1.46,1.64-1.89,2.4-.79-.6-1.51-1.33-2.18-2.19v1.23h-6.35v-1.23c-.72.83-1.56,1.59-2.52,2.29-.33-.76-1.17-1.88-1.77-2.32.19-.13.38-.26.55-.39h-2.2v2.76h2.49v2.66h-2.49v3.96c.96-.23,1.92-.5,2.87-.73l.29,2.53c-3.09.91-6.3,1.82-8.39,2.4-.02.23-.21.42-.38.47l-1.03-3.13,1.03-.23v-8.86l2.78.18c-.02.21-.17.36-.55.42v7.77l.96-.23v-9.96h-3.04v-8.71h7.69v8.68c1.53-1.15,2.66-2.55,3.45-4.09h-2.92v-2.79h4c.26-.94.43-1.9.55-2.84l3.28.34c-.02.29-.21.44-.58.47-.12.68-.24,1.36-.43,2.03h6.3v2.79Zm-18.98-2.01v3.52h2.8v-3.52h-2.8Zm6.44,11.6v-2.53h11.76v2.53h-6.8l-.31,1.23h4.12l.6-.1,1.63.42c-.02.21-.1.49-.17.76-.65,6.62-1.39,7.06-4.96,7.06-.55,0-1.17-.03-1.85-.05-.05-.81-.36-1.93-.81-2.68,1.17.1,2.4.13,2.95.13.41,0,.67-.03.91-.23.33-.29.6-1.15.84-2.79h-3.98c-.12.34-.22.68-.31.96l-2.64-.47c.41-1.15.86-2.74,1.25-4.22h-2.23Zm5.34-9.59c-.46,1.12-1.03,2.22-1.72,3.23h4.43c-.62-.99-1.17-2.09-1.61-3.23h-1.1Zm29.5-4.46h20.63v23.54h-2.85v-1.1h-15.05v1.1h-2.73v-23.54Zm2.73,19.63h15.05v-16.84h-3c.77.42,1.61,1.02,2.04,1.54l-.98,1.1h1.17v2.22h-4.36c.12,1.41.26,2.74.46,3.91.46-.99.81-2.06,1.08-3.18l2.59.68c-.05.21-.24.31-.55.31-.55,1.98-1.32,3.81-2.32,5.4.34.81.79,1.49,1.17,1.49.26,0,.43-1.07.55-2.4.46.44,1.29,1.2,1.77,1.49-.31,2.5-1.15,3.68-2.25,3.68-.31,0-.65-.08-.98-.26-.77-.26-1.37-.91-1.87-1.82-.79.89-1.68,1.67-2.66,2.29-.31-.5-.98-1.38-1.41-1.82.36-.21.72-.47,1.06-.73l-4.84.94c-.05.21-.19.34-.36.39l-.74-2.55c1.75-.18,4.29-.55,6.8-.89l.05,1.33c.43-.42.81-.89,1.2-1.36-.5-1.9-.84-4.28-1.03-6.88h-6.73v-2.22h6.57c-.05-.73-.1-1.49-.12-2.24l3.02.16c-.03.23-.24.44-.62.5.03.52.03,1.07.07,1.59h2.61c-.5-.47-1.25-1.02-1.87-1.41l1.15-1.23h-11.69v16.84Zm6.9-10.87v5.01h-5.41v-5.01h5.41Zm-1.94,3.36v-1.69h-1.63v1.69h1.63Zm57.34,5.34h-7.23c2.18,1.38,5.08,2.55,7.76,3.18-.6.6-1.41,1.77-1.8,2.5-2.83-.86-5.89-2.45-8.29-4.33v4.61h-2.85v-4.48c-2.37,1.88-5.41,3.44-8.19,4.33-.41-.76-1.22-1.93-1.85-2.58,2.71-.63,5.68-1.82,7.88-3.23h-7.26v-2.5h9.42v-1.17h-6.64v-6.59c-.5.55-1.03,1.07-1.58,1.59-.41-.73-1.29-1.8-1.89-2.27,2.73-2.27,4.7-5.27,5.8-7.69l3.33.65c-.07.23-.26.39-.62.42-.31.6-.65,1.2-1.01,1.82h3.31c.46-.94.86-2.03,1.15-2.87l3.5.73c-.07.21-.26.31-.65.34-.26.55-.6,1.17-.96,1.8h7.02v2.42h-7.33v1.04h6.28v2.03h-6.28v1.07h6.28v2.03h-6.28v1.1h8.29v2.37h-8.34c-.12.1-.26.16-.53.21v.96h9.56v2.5Zm-11.74-12.28v-1.04h-4.58v1.04h4.58Zm0,3.1v-1.07h-4.58v1.07h4.58Zm-4.58,2.03v1.1h4.58v-1.1h-4.58Zm38.87-10.58h20.7v23.7h-2.8v-.91h-15.24v.91h-2.66v-23.7Zm2.66,20.23h15.24v-17.65h-15.24v17.65Zm11.6-6.39c-.05.18-.19.31-.53.37v.63h3.23v1.69h-3.23v1.12c0,1.75-.62,2.06-3.52,2.06-.17-.6-.55-1.38-.81-1.85.69.03,1.44.03,1.65.03.24,0,.31-.08.31-.31v-1.04h-3.74c.55.63,1.13,1.38,1.41,1.95l-1.92,1.04c-.31-.68-1.03-1.69-1.68-2.42l1.1-.57h-3.02v-1.69h7.84v-.89c-2.68.05-5.22.13-7.04.16-.05.21-.17.31-.34.34l-.53-1.95c.79.03,4.7,0,5.58,0v-.81h-4.43v-5.27h4.43v-.73h-5.46v-1.67h5.46v-1.04l2.9.18c-.02.24-.17.37-.55.44v.42h5.49v1.67h-5.49v.73h4.48v5.27h-.46c.79.63,1.53,1.33,1.99,1.85l-1.63,1.07c-.17-.23-.41-.5-.67-.78l-.84.03Zm-7.45-6.18v.76h2.23v-.76h-2.23Zm0,2.76h2.23v-.81h-2.23v.81Zm6.78-2.76h-2.2v.76h2.2v-.76Zm0,2.76v-.81h-2.2v.81h2.2Zm-2.2,1.25v.81l2.2-.03c-.26-.21-.53-.42-.77-.57l.33-.21h-1.77Zm-236.78-.55c2.25.55,4.12,2.53,4.12,5.53,0,3.67-2.7,6.64-7.41,6.64-2.14,0-4.07-.61-5.08-1.34l.88-3.26c.75.52,2.38,1.19,3.93,1.19,2.44,0,3.64-1.63,3.64-3.43,0-2.47-1.98-3.64-4.15-3.64h-1.37v-3.03h1.29c1.58,0,3.61-.96,3.61-3.08,0-1.54-.94-2.68-2.81-2.68-1.39,0-2.76.67-3.53,1.19l-.83-3.08c1.04-.76,3.1-1.51,5.27-1.51,3.88,0,5.92,2.47,5.92,5.38,0,2.27-1.26,4.16-3.48,5.06v.06Zm12.79.9c0-6.69,2.28-11.41,6.83-11.41s6.61,5.12,6.61,11.23c0,7.28-2.49,11.44-6.74,11.44-4.71,0-6.69-5.12-6.69-11.26Zm6.74,7.86c1.82,0,2.73-2.79,2.73-7.94s-.83-7.92-2.7-7.92c-1.71,0-2.81,2.68-2.81,7.92s.99,7.94,2.76,7.94h.03Zm-5.01-209.24h-4.83c-1.01,5.73-4.44,11.39-12.85,15.05-1.09-1.75-3.5-4.54-5.3-6.05,6.15-2.15,8.65-5.57,9.66-9h-10.21v-7.4h10.75V.24l10.28.56c-.08.72-.62,1.19-1.95,1.43v5.89h4.44V.4l10.05.56c-.08.72-.62,1.19-1.95,1.43v5.73h6.62V.4l10.44.56c-.08.72-.62,1.19-1.95,1.43v5.73h4.44V.16l10.28.64c-.08.72-.62,1.19-1.95,1.35v5.97h10.52v7.4h-10.52v3.9c0,2.07.16,2.31,1.01,2.31h2.26c.94,0,1.25-.88,1.4-5.57,1.56,1.19,4.83,2.39,7.01,2.95-.78,7.48-2.73,9.71-7.48,9.71h-4.75c-6.46,0-7.79-2.23-7.79-9.32v-3.98h-4.44v12.5h-23.21v-12.5Zm-22.51,32.96v-17.44h68.39v17.44h-7.48v12.58c0,8.28-4.05,9.08-16.51,9.08-.39-2.47-1.71-5.97-2.88-8.2,2.02.08,4.28.16,6.07.16,3.82,0,4.13-.08,4.13-1.19v-8.52h-13.63v22.21h-9.19v-22.21h-12.15v17.28h-9.11v-21.18h-7.63Zm28.9-9.71h-20.25v6.05h20.25v-6.05Zm8.34-23.25h-6.62v5.49h6.62v-5.49Zm22.04,29.3v-6.05h-19.08c-.16.72-.7,1.19-2.1,1.43v4.62h21.19Zm92.86,7.8h-9.43v-3.18h-10.51v3.26h-9.5v-24.84h-10.67v32.25h49.07v9.24h-49.07v5.1h-9.66V27.87h-11.22v-9.24h11.22V1.75l11.76.64c-.08.8-.62,1.27-2.1,1.51v14.73h10.67V0l11.53.64c-.08.88-.62,1.27-2.02,1.59v16.4h10.51V.8l11.53.64c-.08.88-.7,1.27-2.1,1.59v15.61h11.68v9.24h-11.68v24.76Zm-19.94-12.1h10.51v-12.66h-10.51v12.66Zm117.16-3.98h-12.54c5.3,5.26,12.93,9.55,21.03,11.86-2.1,1.91-4.83,5.57-6.23,8.04-5.38-1.91-10.44-4.78-14.88-8.36v26.43h-9.27v-30.1l5.53.32c-2.57-2.55-4.91-5.26-6.85-8.2h-10.21c-2.02,2.79-4.36,5.49-6.93,7.96l7.48.4c-.08.8-.62,1.27-2.02,1.51v3.66c0,8.12-2.1,18.79-17.68,25.24-1.17-2.23-4.13-5.65-6.08-7.33,14.72-5.49,14.72-13.69,14.72-20.38-4.67,3.74-9.97,6.85-15.42,9-1.4-2.23-4.05-5.81-6.08-7.64,7.87-2.55,15.58-7.09,20.96-12.42h-11.84V1.99h56.32v34.55Zm-47.21-26.83v5.89h13.94v-5.89h-13.94Zm0,13.06v6.05h13.94v-6.05h-13.94Zm37.7-7.17v-5.89h-14.64v5.89h14.64Zm0,13.22v-6.05h-14.64v6.05h14.64Zm-238.84,76.78h66.14v69.91h-9.89v-5.18h-46.74v5.18h-9.5v-69.91Zm9.5,55.34h46.74v-45.94h-46.74v45.94Zm8.18-36.7h30.07v27.39h-30.07v-27.39Zm21.34,19.59v-11.86h-13.08v11.86h13.08Zm88.11-38.85c-.31.72-1.17,1.11-2.41,1.11-2.8,5.89-7.09,13.06-11.14,19.11,9.27-.16,19.4-.48,29.37-.8-2.8-2.79-5.76-5.41-8.57-7.72l7.24-5.81c7.95,6.21,17.68,15.29,21.97,21.98l-8.02,6.69c-1.09-1.99-2.73-4.22-4.67-6.53-20.95,1.04-42.92,1.83-56.94,2.31-.23.8-.93,1.19-1.63,1.27l-3.27-10.83,13.47-.24c4.75-7.24,9.97-17.04,13.01-24.92l11.61,4.38Zm-26.48,71.34v-34.63h51.26v34.32h-9.82v-2.39h-32.09v2.71h-9.35Zm41.44-25.48h-32.09v13.46h32.09v-13.46Zm82.19-35.75h27.96v40.13h-9.82v-4.06h-18.15v25.08h-9.82v-25.08h-17.45v4.46h-9.43v-40.53h26.87v-13.93l12,.72c-.08.8-.62,1.27-2.18,1.51v11.7Zm-27.26,26.67h17.45v-17.28h-17.45v17.28Zm27.26,0h18.15v-17.28h-18.15v17.28ZM116.87,2.65H4c-.43,0-.78.35-.78.78v9.24c0,.43.35.78.78.78h33.76v23.73H4c-.43,0-.78.35-.78.78v43.78c0,.43.35.78.78.78h33.76v23.73H4c-.43,0-.78.35-.78.78v9.24c0,.43.35.78.78.78h112.86c.43,0,.78-.35.78-.78v-9.24c0-.43-.35-.78-.78-.78h-33.76v-23.73h33.76c.43,0,.78-.35.78-.78v-43.78c0-.43-.35-.78-.78-.78h-33.76V13.46h33.76c.43,0,.78-.35.78-.78V3.44c0-.43-.35-.78-.78-.78Zm-10.02,45.35v23.73h-33.76c-.43,0-.78.35-.78.78v33.76h-23.73v-33.76c0-.43-.35-.78-.78-.78H14.02v-23.73h33.76c.43,0,.78-.35.78-.78V13.46h23.73v33.76c0,.43.35.78.78.78h33.76ZM184.93,3.44c0-.43-.35-.78-.78-.78h-45.31c-.43,0-.78.35-.78.78v112.86c0,.43.35.78.78.78h45.31c.43,0,.78-.35.78-.78v-4.36s0-.06,0-.09V8.52s0-.06,0-.09V3.44Zm-10.8,102.84h-25.27v-42.49h25.27v42.49Zm0-53.29h-25.27V13.46h25.27v39.52ZM251.7,2.65h-58.95c-.43,0-.78.35-.78.78v112.86c0,.43.35.78.78.78h9.24c.43,0,.78-.35.78-.78V48h31.06v68.3c0,.43.35.78.78.78h9.24c.43,0,.78-.35.78-.78V48h7.06c.43,0,.78-.35.78-.78v-9.24c0-.43-.35-.78-.78-.78h-48.93V13.46h48.93c.43,0,.78-.35.78-.78V3.44c0-.43-.35-.78-.78-.78ZM3.57,160.71h112.86c.43,0,.78-.35.78-.78v-9.24c0-.43-.35-.78-.78-.78H3.57c-.43,0-.78.35-.78.78v9.24c0,.43.35.78.78.78Zm23.55,33.69c-.43,0-.78.35-.78.78v9.24c0,.43.35.78.78.78h65.76c.43,0,.78-.35.78-.78v-9.24c0-.43-.35-.78-.78-.78H27.13ZM3.57,264.34h112.86c.43,0,.78-.35.78-.78v-9.24c0-.43-.35-.78-.78-.78H3.57c-.43,0-.78.35-.78.78v9.24c0,.43.35.78.78.78Zm245.14-62.67h-51.08v-50.98c0-.43-.35-.78-.78-.78h-9.24c-.43,0-.78.35-.78.78v50.98h-51.08c-.43,0-.78.35-.78.78v9.33c0,.43.35.78.78.78h51.08v50.98c0,.43.35.78.78.78h9.24c.43,0,.78-.35.78-.78v-50.98h51.08c.43,0,.78-.35.78-.78v-9.33c0-.43-.35-.78-.78-.78ZM29.88,394.32H0v-4.63l5.16-5.42c10.37-10.64,16.12-17.42,16.12-24.79,0-4.76-2.28-8.94-8.48-8.94-3.79,0-7.18,2.02-9.46,3.85l-2.28-5.42c3-2.48,7.76-4.57,13.25-4.57,10.11,0,14.55,6.85,14.55,14.29,0,9-6.13,16.51-14.68,25.12l-4.05,4.11v.13h19.77v6.26Zm34.97-49.13v6.26h-17.22l-1.63,11.68c.98-.07,1.89-.2,3.26-.2,8.94,0,16.64,5.22,16.64,15.27,0,9.46-7.24,16.83-17.94,16.83-4.83,0-9.2-1.3-11.48-2.74l1.7-5.74c1.96,1.11,5.55,2.48,9.53,2.48,5.55,0,10.5-3.78,10.5-10.18s-4.31-10.31-13.05-10.31c-2.48,0-4.31.13-5.94.39l3.07-23.75h22.58Zm7.7,26.62h17.94v5.42h-17.94v-5.42Zm49.26,22.51h-7.11v-12.98h-20.55v-4.89l19.25-31.25h8.42v30.41h6.13v5.74h-6.13v12.98Zm-20.55-18.73h13.44v-14.75c0-2.81.13-5.74.33-8.55h-.26c-1.5,3.13-2.74,5.55-4.11,8.16l-9.4,15.01v.13Zm30.54-5.74c0-16.05,6.07-25.45,16.25-25.45s15.59,10.05,15.59,24.92c0,16.64-6,25.71-16.12,25.71s-15.72-10.11-15.72-25.19Zm24.21-.26c0-11.68-2.48-19.18-8.22-19.18-4.96,0-8.35,6.92-8.35,19.18s3,19.38,8.22,19.38c6.39,0,8.35-9.2,8.35-19.38Zm30.99-8.6v16.47c2.36-.69,4.72-1.5,7.08-2.25l.86,4.84c-6.57,2.42-13.48,4.95-17.91,6.51-.06.52-.4.86-.81.98l-2.48-6.11c2.19-.58,4.95-1.38,7.95-2.3v-18.14h-6.8v-5.18h6.8v-13.59l6.62.4c-.06.46-.46.81-1.33.92v12.27h6.57v5.18h-6.57Zm41.19,8.7v5.18h-15.03v20.79h-5.47v-20.79h-15.38v-5.18h15.38v-20.05h-13.42v-5.13h32.43v5.13h-13.54v20.05h15.03Zm-28.74-1.67c-.4-3.86-2.02-9.73-3.97-14.17l4.61-1.38c2.07,4.44,3.74,10.2,4.26,14.06l-4.9,1.5Zm27.3-13.65c-.17.4-.63.58-1.38.58-1.21,4.03-3.34,9.68-5.13,13.31,0,0-3.97-1.67-4.03-1.67,1.61-3.8,3.57-9.96,4.55-14.34l5.99,2.13Zm64.23,39.95h-29.88v-4.63l5.16-5.42c10.37-10.64,16.12-17.42,16.12-24.79,0-4.76-2.28-8.94-8.48-8.94-3.79,0-7.18,2.02-9.46,3.85l-2.28-5.42c3-2.48,7.76-4.57,13.25-4.57,10.11,0,14.55,6.85,14.55,14.29,0,9-6.13,16.51-14.68,25.12l-4.05,4.11v.13h19.77v6.26Zm36.67,0h-29.88v-4.63l5.16-5.42c10.37-10.64,16.12-17.42,16.12-24.79,0-4.76-2.28-8.94-8.48-8.94-3.78,0-7.18,2.02-9.46,3.85l-2.28-5.42c3-2.48,7.76-4.57,13.25-4.57,10.11,0,14.55,6.85,14.55,14.29,0,9-6.13,16.51-14.68,25.12l-4.05,4.11v.13h19.77v6.26Zm34.97-49.13v6.26h-17.22l-1.63,11.68c.98-.07,1.89-.2,3.26-.2,8.94,0,16.64,5.22,16.64,15.27,0,9.46-7.24,16.83-17.94,16.83-4.83,0-9.2-1.3-11.48-2.74l1.7-5.74c1.96,1.11,5.55,2.48,9.53,2.48,5.55,0,10.5-3.78,10.5-10.18s-4.31-10.31-13.05-10.31c-2.48,0-4.31.13-5.94.39l3.07-23.75h22.58Zm22.06,49.13v-42.21h-.13l-8.29,4.57-1.7-5.55,11.09-5.94h6.39v49.13h-7.37Zm22.32-22.51h17.94v5.42h-17.94v-5.42Zm53.05,22.51h-29.88v-4.63l5.16-5.42c10.37-10.64,16.12-17.42,16.12-24.79,0-4.76-2.28-8.94-8.48-8.94-3.78,0-7.18,2.02-9.46,3.85l-2.28-5.42c3-2.48,7.76-4.57,13.25-4.57,10.11,0,14.55,6.85,14.55,14.29,0,9-6.13,16.51-14.68,25.12l-4.05,4.11v.13h19.77v6.26Zm6.2-24.47c0-16.05,6.07-25.45,16.25-25.45s15.59,10.05,15.59,24.92c0,16.64-6,25.71-16.12,25.71s-15.72-10.11-15.72-25.19Zm24.21-.26c0-11.68-2.48-19.18-8.22-19.18-4.96,0-8.35,6.92-8.35,19.18s3,19.38,8.22,19.38c6.39,0,8.35-9.2,8.35-19.38Zm21.6-1.17c-4.89-2.54-7.31-6.72-7.31-10.96,0-7.83,6.33-13.05,14.55-13.05,9.4,0,13.77,6.2,13.77,12.14,0,4.18-2.22,8.61-7.57,11.35v.2c5.35,2.35,9.2,6.66,9.2,12.66,0,8.55-6.79,14.29-16.05,14.29-10.05,0-15.59-6.26-15.59-13.18,0-6.26,3.72-10.77,9-13.25v-.2Zm15.01,13.05c0-5.48-3.65-8.55-9-10.31-4.76,1.63-7.37,5.42-7.37,9.79,0,4.83,3.13,8.74,8.16,8.74s8.22-3.72,8.22-8.22Zm-15.14-24.47c0,4.5,3.2,7.18,7.83,8.74,3.39-1.37,6.13-4.57,6.13-8.48s-1.96-7.57-6.85-7.57-7.11,3.59-7.11,7.31Zm36.8,11.42c-4.89-2.54-7.31-6.72-7.31-10.96,0-7.83,6.33-13.05,14.55-13.05,9.4,0,13.77,6.2,13.77,12.14,0,4.18-2.22,8.61-7.57,11.35v.2c5.35,2.35,9.2,6.66,9.2,12.66,0,8.55-6.79,14.29-16.05,14.29-10.05,0-15.59-6.26-15.59-13.18,0-6.26,3.72-10.77,9-13.25v-.2Zm15.01,13.05c0-5.48-3.65-8.55-9-10.31-4.76,1.63-7.37,5.42-7.37,9.79,0,4.83,3.13,8.74,8.16,8.74s8.22-3.72,8.22-8.22Zm-15.14-24.47c0,4.5,3.2,7.18,7.83,8.74,3.39-1.37,6.13-4.57,6.13-8.48s-1.96-7.57-6.85-7.57-7.11,3.59-7.11,7.31Z"/>
  </g>
</svg>