<?xml version="1.0" encoding="UTF-8"?>
<svg id="b" data-name="圖層 2" xmlns="http://www.w3.org/2000/svg" viewBox="0 0 317.87 184.93">
  <defs>
    <style>
      .d {
        fill: #ff4214;
        stroke-width: 0px;
      }
    </style>
  </defs>
  <g id="c" data-name="圖層 1">
    <path class="d" d="m33.58,89.03l2.5,3.66,2.49-3.66h.66l-2.8,4.1v3.12h-1.21v-3l-2.89-4.21h1.24Zm12.24,0v.47h-3.81v2.58h2.55v.47h-2.55v3.23h3.81v.47h-5.02v-7.22h5.02Zm4.81-.16l3.4,7.38h-1.24l-1.1-2.41h-3.1l-1.14,2.41h-.61l3.48-7.38h.31Zm-1.82,4.51h2.66l-1.31-2.86-1.35,2.86Zm9.14,2.59c.18,0,.35-.02.53-.07.17-.05.33-.12.47-.22.14-.1.25-.21.33-.35s.13-.3.13-.49c0-.22-.06-.42-.17-.59s-.26-.33-.45-.47c-.19-.14-.4-.28-.63-.41-.24-.13-.48-.25-.73-.38-.25-.13-.49-.26-.73-.4-.24-.14-.45-.3-.63-.47s-.33-.36-.45-.58c-.11-.21-.17-.46-.17-.73s.05-.53.15-.77c.1-.24.26-.44.45-.61.2-.17.45-.31.74-.41.29-.1.63-.15,1-.15.34,0,.65.04.91.11.27.07.5.18.71.32.2.14.38.32.52.52.14.21.26.45.34.72l-.62.28c-.07-.22-.17-.42-.28-.61s-.25-.34-.4-.47-.34-.23-.54-.3c-.21-.07-.44-.11-.69-.11-.23,0-.43.03-.6.1s-.31.15-.43.25c-.11.1-.2.22-.26.35-.06.13-.08.26-.08.39,0,.19.06.36.17.52.12.16.27.31.46.45s.41.27.66.41.49.26.75.4c.25.13.5.27.75.42.24.15.46.3.66.48s.35.36.46.57c.12.21.17.43.17.69,0,.29-.05.56-.16.81s-.27.47-.49.66c-.22.19-.49.33-.81.44-.32.11-.7.16-1.13.16-.35,0-.66-.04-.93-.11-.27-.08-.51-.19-.72-.33-.21-.15-.39-.32-.54-.53s-.27-.45-.36-.72l.65-.27c.08.24.18.45.31.63.13.19.28.34.45.47.17.13.36.23.57.3.21.07.43.1.67.1Zm5.96-3.17v3.46h-1.21v-7.22h1.21v3.29h3.63v-3.29h1.21v7.22h-1.21v-3.46h-3.63Zm7.36-3.76h1.21v7.22h-1.21v-7.22Zm3.74,0h.68l4.73,5.28h.05v-5.28h.53v7.39h-.28l-5.13-5.87h-.04v5.7h-.54v-7.22Zm17.05,0h1.21v7.22h-1.21v-7.22Zm3.74,0h.68l4.73,5.28h.05v-5.28h.53v7.39h-.28l-5.13-5.87h-.04v5.7h-.54v-7.22Zm14.19,0v.47h-2.61v6.75h-1.21v-6.75h-2.61v-.47h6.44Zm6.76,0v.47h-3.81v2.58h2.55v.47h-2.55v3.23h3.81v.47h-5.02v-7.22h5.02Zm1.98,0h2.5c.43,0,.81.05,1.14.14s.6.22.82.39.38.37.49.6.17.48.17.75c0,.22-.04.44-.13.63-.08.2-.21.37-.36.53-.15.16-.34.29-.56.41-.22.11-.46.2-.72.27l2.63,3.5h-1.41l-2.51-3.39h-.85v3.39h-1.21v-7.22Zm1.21,3.46h.7c.27,0,.52-.04.75-.11.23-.07.43-.18.6-.31.17-.13.3-.29.4-.48.09-.19.14-.4.14-.64,0-.22-.04-.42-.11-.6s-.18-.34-.32-.47c-.14-.13-.3-.23-.48-.3s-.39-.11-.61-.11h-1.07v3.01Zm6.31-3.46h.68l4.73,5.28h.05v-5.28h.53v7.39h-.28l-5.13-5.87h-.04v5.7h-.54v-7.22Zm11.34-.16l3.4,7.38h-1.24l-1.1-2.41h-3.1l-1.14,2.41h-.61l3.48-7.38h.31Zm-1.82,4.51h2.66l-1.31-2.86-1.35,2.86Zm12.45-4.34v.47h-2.61v6.75h-1.21v-6.75h-2.61v-.47h6.44Zm1.74,0h1.21v7.22h-1.21v-7.22Zm7.4,7.39c-.56,0-1.08-.1-1.57-.3-.48-.2-.91-.47-1.26-.82-.36-.35-.64-.75-.84-1.21s-.31-.96-.31-1.48c0-.34.05-.68.14-1,.09-.32.22-.62.4-.89.17-.28.38-.53.62-.75s.51-.42.8-.58c.29-.16.61-.29.95-.38.34-.09.7-.13,1.07-.13s.73.04,1.07.13c.34.09.66.21.96.38.3.16.56.36.8.58.24.23.45.48.62.75s.3.57.4.89c.09.32.14.65.14,1s-.05.69-.14,1.01c-.09.32-.23.63-.4.91-.17.28-.38.54-.62.77-.24.23-.51.43-.8.6s-.61.3-.96.39c-.34.09-.7.14-1.07.14Zm0-.35c.41,0,.78-.09,1.1-.26.32-.17.58-.41.8-.72.22-.31.38-.67.49-1.09.11-.42.17-.88.17-1.38s-.06-.95-.17-1.37-.27-.77-.49-1.07c-.22-.3-.49-.53-.8-.7-.32-.17-.68-.25-1.1-.25s-.79.08-1.11.25c-.32.17-.58.4-.8.7-.22.3-.38.66-.49,1.07s-.16.87-.16,1.37.05.96.16,1.38c.11.42.27.79.49,1.09.22.31.48.55.8.72.32.17.69.26,1.11.26Zm6.17-7.03h.68l4.73,5.28h.05v-5.28h.53v7.39h-.28l-5.13-5.87h-.04v5.7h-.54v-7.22Zm11.34-.16l3.4,7.38h-1.24l-1.1-2.41h-3.1l-1.14,2.41h-.61l3.48-7.38h.31Zm-1.82,4.51h2.66l-1.31-2.86-1.35,2.86Zm6.78-4.34h1.21v6.75h3.64v.47h-4.85v-7.22Zm15.02,0h2.41c.74,0,1.38.07,1.91.21.53.14.98.36,1.33.66.41.35.71.75.92,1.2s.31.94.31,1.48-.09.99-.27,1.43c-.18.45-.45.84-.81,1.17-.35.33-.79.59-1.31.79-.52.19-1.12.29-1.79.29h-2.69v-7.22Zm1.21,6.69h1.29c.41,0,.79-.07,1.15-.2.36-.13.67-.33.94-.6.27-.26.48-.59.63-.98s.23-.83.23-1.34c0-.45-.07-.86-.22-1.23-.15-.37-.35-.69-.61-.96s-.57-.48-.93-.63c-.36-.15-.76-.22-1.18-.22h-1.3v6.16Zm12.87-6.69v.47h-3.81v2.58h2.55v.47h-2.55v3.23h3.81v.47h-5.02v-7.22h5.02Zm2.3,0l2.73,5.74,2.53-5.74h.58l-3.28,7.39h-.32l-3.52-7.39h1.28Zm12.41,0v.47h-3.81v2.58h2.55v.47h-2.55v3.23h3.81v.47h-5.02v-7.22h5.02Zm1.98,0h1.21v6.75h3.64v.47h-4.85v-7.22Zm10.15,7.39c-.56,0-1.08-.1-1.57-.3-.48-.2-.91-.47-1.26-.82-.36-.35-.64-.75-.84-1.21s-.31-.96-.31-1.48c0-.34.05-.68.14-1,.09-.32.22-.62.4-.89.17-.28.38-.53.62-.75s.51-.42.8-.58c.29-.16.61-.29.95-.38.34-.09.7-.13,1.07-.13s.73.04,1.07.13c.34.09.66.21.96.38.3.16.56.36.8.58.24.23.45.48.62.75s.3.57.4.89c.09.32.14.65.14,1s-.05.69-.14,1.01c-.09.32-.23.63-.4.91-.17.28-.38.54-.62.77-.24.23-.51.43-.8.6s-.61.3-.96.39c-.34.09-.7.14-1.07.14Zm0-.35c.41,0,.78-.09,1.1-.26.32-.17.58-.41.8-.72.22-.31.38-.67.49-1.09.11-.42.17-.88.17-1.38s-.06-.95-.17-1.37-.27-.77-.49-1.07c-.22-.3-.49-.53-.8-.7-.32-.17-.68-.25-1.1-.25s-.79.08-1.11.25c-.32.17-.58.4-.8.7-.22.3-.38.66-.49,1.07s-.16.87-.16,1.37.05.96.16,1.38c.11.42.27.79.49,1.09.22.31.48.55.8.72.32.17.69.26,1.11.26Zm6.17-7.03h2.29c.38,0,.73.05,1.06.14.33.09.62.22.86.4.25.18.44.39.58.65s.21.55.21.88-.07.61-.2.85c-.14.24-.32.44-.54.6-.22.16-.48.28-.76.36s-.57.12-.87.12c-.13,0-.26,0-.4,0-.14,0-.27-.01-.4-.02-.13-.01-.25-.02-.35-.04-.11-.01-.2-.03-.27-.04v3.34h-1.21v-7.22Zm1.21,3.48c.14.05.28.09.44.12.16.03.32.05.48.05.26,0,.49-.04.69-.12.2-.08.36-.19.49-.32s.23-.3.29-.48.1-.38.1-.59c0-.24-.04-.46-.13-.66s-.2-.36-.35-.5c-.15-.14-.32-.25-.52-.32-.2-.08-.41-.11-.63-.11h-.86v2.94Zm5.79-3.48h1.24l2.81,5.54h.06l2.75-5.54h1.22v7.22h-1.22v-5.92h-.04l-2.96,5.92h-.25l-2.99-5.87h-.08v5.87h-.54v-7.22Zm15.62,0v.47h-3.81v2.58h2.55v.47h-2.55v3.23h3.81v.47h-5.02v-7.22h5.02Zm1.98,0h.68l4.73,5.28h.05v-5.28h.53v7.39h-.28l-5.13-5.87h-.04v5.7h-.54v-7.22Zm14.19,0v.47h-2.61v6.75h-1.21v-6.75h-2.61v-.47h6.44Zm.21,17.51H31.77v.6h249.19v-.6Zm0-28.66H31.77v.6h249.19v-.6ZM118.46,41.05c0-.35-.18-.52-.56-.52h-8.94c-.29,0-.52-.09-.68-.27-.17-.21-.26-.45-.26-.73v-15.29c-.03-.27.06-.51.26-.71.2-.2.42-.29.68-.26h8.94c.38,0,.56-.19.56-.57v-5.03h-10.71v-4.5h36.72v4.5h-10.29v4.87c0,.39.19.57.56.57h8.56c.66,0,.98.32.98.96v15.44c-.03.66-.36,1-.98,1h-8.56c-.37,0-.56.18-.56.56v6.07h11.31v4.52h-38.6v-4.52h11.56v-6.11Zm11.32,6.11v-10.04c0-.74.35-1.09,1.07-1.09h8.38c.44,0,.65-.22.65-.66v-7.14c0-.4-.21-.61-.65-.61h-8.33c-.75,0-1.12-.39-1.12-1.18v-8.76h-6.91v8.92c-.04.31-.15.58-.34.8-.26.23-.53.36-.82.38h-8.69c-.39.02-.6.22-.6.6v6.98c.02.44.23.66.6.66h8.69c.31,0,.57.1.77.3.22.26.36.54.39.83v9.99h6.91Zm43.24-18.84v8.36c-.11,5.84-2.18,11.24-6.23,16.22l-3.73-3.23,1.07-1.31h-7.42v2.97h-4.4V15.32c0-.96.47-1.44,1.41-1.44h10.14c.97,0,1.44.48,1.41,1.44v31.61c2.15-3.04,3.25-6.46,3.34-10.23V15.67c-.06-1.05.34-1.59,1.2-1.61,7.02-.04,13.46-.57,19.31-1.61l1.51,4.49c-5,.86-10.64,1.39-16.88,1.57-.51,0-.76.26-.73.79v4.54h17.66v4.51h-5.65v24.05h-4.41v-24.05h-7.6Zm-12.13.55v-9.77c0-.49-.26-.75-.77-.75h-2.67c-.48.04-.73.29-.73.75v9.77h4.17Zm-4.17,4.5v10.48h3.27c.6,0,.9-.3.9-.92v-9.57h-4.17Zm66.03,8.31h13.68v-3.22h-17.56v-2.33h15.98v-3.22h-15v-2.93h13.14v-3.22h-13.14v-2.04h13.14v-3.22h-13.14v-2.23h14.62v-3.22h-14.47l-1.92-4.19-3.87.6,1.12,3.59h-8.61c1.12-2.03,1.83-3.49,1.83-3.49l-4.66-.6c-.72,2.24-1.69,4.15-2.72,5.75h-.16v.25c-2.63,4.01-5.56,6-5.56,6l2.28,3.77c1.05-.59,2.17-1.67,3.27-2.98v11.51h3.57v-.13h10.02v2.33h-18.48v3.22h13.98c-1.71,1.6-6.17,5.01-14.45,6.58l2.18,3.47s11.37-3.05,16.62-10.05h.14v11.04h4.27v-11.03c1.27,2.07,5.09,6.28,16.17,9.45l1.88-3.87s-6.6.35-14.17-5.58Zm-6.76-14.93h-11.41v-2.04h11.41v2.04Zm-11.14-7.49h11.14v2.23h-11.41v-1.8c.09-.14.18-.29.27-.43Zm-.27,10.71h11.41v2.93h-11.41v-2.93Zm73.89-17.33h-36.49v39.98h3.77v-1.54h31.45v1.54h3.77V12.66h-2.5Zm-32.72,35.22V15.88h13v2.14h-11.81v2.44h11.81v2.12h-10.71v10.38h10.71v1.77l-11.01.35.6,2.58,18.15-.7v2.29h-19.15v2.44h7.24l-1.89,1.53s2.38,3.17,2.48,3.47c.1.3,2.58-1.69,2.58-1.69l-2.84-3.31h11.57v.63s.2,1.59-1.19,1.88h-4.66l1.09,2.68h5.46s2.98-.79,2.88-2.98v-2.22h5.07v-2.44h-5.07v-2.43l.88-.03,1.2,1.67,2.58-2.08-3.16-3.41h1.89v-10.38h-10.86v-2.12h12.73v-2.44h-12.73v-2.14h14.6v32h-31.45Zm23.47-13.47l-6.63.21v-1.65h5.59l1.04,1.44Zm-6.63-3.89v-2.04h7.01v2.04h-7.01Zm-3.85,0h-6.87v-2.04h6.87v2.04Zm3.85-3.67v-1.82h7.01v1.82h-7.01Zm-3.85,0h-6.87v-1.82h6.87v1.82ZM81.53,2.76l-15.42,13.68-3.92-5.85,9.82-8.64c1.51-1.36,3.25-1.91,5.22-1.66,1.75.23,3.19,1.05,4.29,2.46Zm-14.64,32.81C69.34,16.17,54.83,1.6,36.71.15c-6.64-.53-13.03.27-18.47,3.24,3.04-.65,7.03-.93,9.76-.89,17.65.22,31.05,18.06,29.62,35.96-.98,12.25-8.63,22.38-19.11,27.09,15.02-2.02,26.4-14.34,28.37-29.98Zm31.37,2.22c0,2.59-1.31,4.69-3.93,6.28-2.61,1.59-6.05,2.38-10.3,2.38s-8.38-1.38-11.78-3.19l2.86-3.35c2.07,1.39,5.2,1.54,7.58,1.54,1.3,0,2.69-.23,3.58-.96.78-.64.87-1.52.87-2.37,0-.78-.44-1.6-1.31-2.47-.6-.56-1.95-1.6-4.06-3.1-1.3-.89-2.97-2.08-5.01-3.56-1.83-1.6-2.74-3.32-2.74-5.19,0-2.32,1.2-4.18,3.58-5.57,2.39-1.39,5.53-2.1,9.43-2.1,3.41,0,6.66.66,9.75,1.97l-1.63,3.65c-1.94-.73-4.25-1.14-6.91-.83-2.28.26-2.89,1.31-2.89,2.54,0,.48.24.95.71,1.43.47.47,1.52,1.26,3.13,2.35,1.9,1.28,3.74,2.68,5.53,4.19,2.36,1.98,3.54,4.1,3.54,6.37ZM17.2,166.28v15.08l.09,2.12c0,.25-.04.51-.2.58l-1.05.41c-.09.05-.4.18-.51.05-.04-.07-.09-.41-.09-.87v-1.08H1.9l.02,1.01c0,.25-.16.46-.31.51l-1.25.71c-.11-.02-.27,0-.29-.14l.04-3.13v-13.45c0-1.27-.02-2.74-.11-3.96.71.3,1.41.6,2.07.97h12.96l.94-.99c.07-.09.33-.07.45,0,.58.44.78.64,1.29,1.17.25.37-.51.48-.51,1.01Zm-1.99,3.5h-4.55c0,1.68.11,3.45.4,5.06l.04.16c.76-1.24,1.27-2.76,1.47-4.25.74.23,1.29.44,2.05.83l.18.09c.09.09.09.28-.07.32-.29.14-.45.25-.67.53-.62,1.5-1.45,2.87-2.45,4.21l.22.55c.31.48.67,1.22,1.27,1.38.29,0,.4-.28.54-.48.2-.58.38-1.2.71-2.53.13.02.27.09.4.14-.16,1.7-.31,2.74-.18,4.23,0,.44.22.8.22,1.24,0,.21-.18.34-.45.25-1.56-.58-3.17-1.75-3.99-3.33-1.52,1.33-3.12,2.41-4.8,3.24l-.29-.37c1.7-1.17,3.28-2.53,4.55-4.25-.71-2.21-.83-4.6-.87-7.01h-4.19c-.74,0-1.2.07-1.92.23l-.65-.9h6.76c-.02-.9,0-2.09-.13-3.06.74.16,1.47.3,2.16.53l.18.14c.18.44-.54.62-.54.87l.02,1.54h2.12l.74-1.08c.11-.16.27-.16.42-.07.56.53.8.71,1.47,1.43v-3.68H1.92v16.17h13.5v-2.05l.02-10.07h-.22Zm-9.77,8.88c-.89.41-1.18.58-1.85.94-.18.37-.49.48-.71.05-.18-.37-.49-1.13-.71-1.7,2.34-.3,4.64-.74,6.89-1.29l.11.32-3.73,1.68Zm2.52-6.12c0,.97,0,2.09.02,3.31,0,.21-.38.39-.62.55-.33.21-.91.44-.91.18v-.94h-1.45v.62c.02.21-.94.51-1.38.71-.11-.02-.25-.09-.25-.25.04-2.23.02-4.02-.07-6.25.62.28,1.27.58,1.85.94h1.05l.65-.87c.02-.07.27-.09.33-.02l1.25.94c.38.28-.47.71-.47,1.08Zm-1.52-.48h-1.47v2.92h1.47v-2.92Zm5.8-3.27c-.85.02-.42-.94-.62-1.42-.07-.39-.22-.76-.38-1.1.11-.05.22-.32.38-.16.58.28,1.38.71,1.43,1.45.04.53-.42,1.15-.8,1.24Zm28.6,5.01c-.4.02-.69.09-1.27.28-.54.18-.69.39-1.05.92-.2-.16-.36-.28-.54-.44-2.21-1.96-3.66-4.55-4.17-7.43-.13.05-.33.05-.38.21-.62,2.05-1.29,4.09-2.59,5.84l.16.02h2.61l.8-1.13c.09-.12.22-.02.36,0,.58.41,1.07.85,1.56,1.4.07.07.07.21,0,.28l-.13.11h-3.41c-.47.05-.94.14-1.41.28l-.54-.87c-1.14,1.54-2.52,2.78-3.97,3.84-.42.9-1.29,1.56-2.19,1.89-.13-.71-.54-1.52-1.25-1.79v4.78l.09,1.86c-.04.14-.09.28-.29.37-.49.16-.94.44-1.43.51-.18-.05-.13-.18-.18-.46l.07-4.9v-5.1l-.02-6.3-.16-3.33c.69.23,1.27.48,1.99.83h1.49l.71-.99c.09-.07.29-.07.38.02.6.41,1.14.85,1.72,1.33.13.55-.58.39-.83.64-.33.58-.51,1.2-.78,1.77-.49,1.04-1.09,2.05-1.67,3.04,1.36,1.29,2.77,2.8,2.65,4.81,1.05-1.01,1.92-2.14,2.59-3.33.4-.69.67-1.43.94-2.18-.13.07-.2.14-.33.16-.2.02-.42-.05-.51-.25-.13-.78-.22-1.49-.62-2.16l-1.07,1.77c.71.46,1.96,1.01,1.76,2.09-.11.39-.36.78-.67,1.03-.13.07-.33.09-.49.05-.45-.25-.25-.85-.31-1.24-.11-.74-.25-1.15-.49-1.66l-.11.14-1.32,1.95c-.16-.02-.25-.18-.38-.25,1.27-2.76,2.48-5.54,2.83-8.71.85.3,1.38.51,2.21.8.11.09.22.32.04.41-.22.23-.67.18-.74.58l-.38,1.03,1.25-.02.6-.71s.2-.02.31.02c.47.32.89.58,1.32.94,0-.69-.13-1.4-.13-2.09l.54-.05.38,1.86h2.86l.56-.69c.07-.09.22-.12.38-.02l1.65,1.04c.09.09.04.28-.04.34-.31.14-.47.23-.65.34l-.27.18c-.89,1.01-1.74,1.98-2.5,3.04,1.16,1.54,2.83,2.46,4.55,2.99l-.09.32Zm-16.95-2.32c.54-1.77,1.07-3.5,1.23-5.36h-1.7l.02,10.49c.6-.02,1.43.3,1.74-.41.42-1.66-.2-3.47-1.29-4.71Zm7.79,7.54c-.91.18-1.29.9-2.03,1.66-1.18,1.17-2.48,2.16-3.81,3.06l-.36-.23c1.74-1.72,3.3-3.89,4.24-6.14.71.28,1.32.69,2.01,1.22.09.07.11.23.04.35l-.09.09Zm7.34-2.23h-4.57v5.47c0,.8-.07.99-.42,1.36-.56.58-1.29.83-1.99,1.08-.22-.69-.45-1.56-1.2-1.91-.38-.25-.83-.35-1.23-.53l.11-.41c.85.12,1.72.34,2.63.28.22-.02.27-.16.27-1.2l.02-4.12h-1.94c-.56,0-1.09.14-1.65.28l-.67-.94h7.63l.98-1.26c.07-.07.29-.23.56,0,.67.55,1.09.87,1.63,1.54.13.16.07.37-.16.37Zm-9.17-9.84c-.16.39-.25.55-.42.94.62.25,1.34.64,1.72,1.26.22-.67.36-1.47.45-2.21h-1.74Zm4.77-.02c.31,1.04.69,2,1.27,2.88.56-.9.98-2,1.23-2.88h-2.5Zm4.33,16.28c-.25.07-.47-.02-.6-.23-.87-1.66-1.76-3.4-3.32-4.65l.18-.25c1.36.41,2.65,1.1,3.73,2.07.54.48.74,1.13.6,1.84-.11.58-.13.97-.58,1.22Zm5.98-3.26c-.07.94-.2,2.02-1.09,2.64-.36.18-.83.46-1.23.23-.22-.14-.33-.41-.31-.62.11-.55.6-.92.85-1.33.62-1.08,1.16-2.23,1.09-3.56l.47-.07c.18.85.29,1.54.25,2.35l-.02.37Zm5.8-10.85l-2.86,2.94c-.87.9-1.85,1.68-2.83,2.48,1.38,0,2.77-.12,4.1-.3-.16-.62-.36-1.13-.69-1.68l.29-.16c.87.76,2.1,1.56,2.36,2.81,0,.53-.22,1.1-.69,1.42-.18.09-.42.09-.6,0l-.2-.25-.22-1.4c-1.87.32-3.35.71-5.18,1.24-.07.37-.38.32-.49.14-.22-.41-.31-.69-.56-1.36-.07-.21.58-.39.8-.55,1.34-.94,2.03-2.21,3.1-3.4.09-.16.27-.39.38-.53-1.18.09-1.96.44-3.06.76-.09.32-.38.39-.54.09-.09-.16-.33-.64-.38-.76-.22-.51-.38-.78-.09-.83.98-.25,1.18-.64,1.47-1.13.98-1.59,1.78-3.29,2.3-5.04.78.37,1.41.76,2.01,1.17.25.21,0,.39-.47.55-.62.62-1.07,1.31-1.65,2.02-.67.8-1.29,1.61-1.94,2.32,1.03,0,2.03-.02,2.99-.14.6-.71,1.09-1.56,1.56-2.41.6.44,1.18.99,1.78,1.52.04.05.04.18,0,.25-.22.11-.49.11-.71.21Zm-3.44,12.62c-.29.21-.45.3-.71.34-.18-.02-.38-.14-.42-.32,0-.62.16-1.31.18-1.98.02-.97-.04-1.86-.25-2.74l.36-.16c.69,1.01,1.2,2.16,1.38,3.43.09.6-.09,1.1-.54,1.43Zm15.3,1.38c-.98,0-2.01.09-2.57.94-.07.05-.09.14-.18.16-1.32-.92-2.36-2.25-3.21-3.63h-.09c-2.01,2.05-4.48,3.38-7.07,4.23l-.25-.41c1.58-.85,3.17-1.82,4.62-3.08.71-.64,1.38-1.36,1.99-2.12-.94-1.98-1.52-4.09-1.78-6.39-.36,3.33-1.14,6.55-3.41,9.04-.76.8-1.63,1.7-2.52,2.34l-.42-.3c1.9-1.93,3.32-4.09,3.95-6.69.56-2.32.83-4.78.85-7.2l.02-3.59v-.35c-.67-.05-1.29.12-1.92.23l-.58-.83h8.17l.8-.9c.09-.07.38-.12.49.02l1.32,1.15c.16.14.09.32-.02.39-.47.18-.83.39-.96.69-.74,1.63-1.43,3.22-2.12,4.88h1.12l.91-.85c.11-.09.4-.09.51.05l1.27,1.04c.04.09.02.23-.04.32-.22.23-.6.3-.67.67-.71,2.3-1.67,4.48-3.19,6.44.58.83,1.45,1.49,2.28,2.05.87.6,1.87.94,2.83,1.33l-.11.37Zm-12.56-2.76c-.25.46-.54.85-1.03.58-.09-.09-.16-.21-.2-.35.07-1.36-.07-2.83-.65-3.98l.4-.21c.62.78,1.25,1.52,1.61,2.39.2.48.11,1.1-.13,1.56Zm7.52-8.05l-.6.83c-.09.14-.31.07-.36.05-.49-.37-.96-.76-1.45-1.15-.09-.14-.02-.32.09-.41.33-.25.85-.41.98-.74l1.87-4.28.22-.53h-3.88c-.07,1.33-.09,2.71-.2,4.05.27,2.83,1.03,5.47,2.43,7.86,1.09-1.72,1.83-3.73,2.28-5.68h-1.38Zm13.1,8c-.36-.62-.8-1.13-1.29-1.63l.27-.3c1.05.44,2.59.99,2.88,1.95.18.58-.02,1.24-.54,1.61-.11.11-.31.07-.45.02-.31-.21-.33-.69-.54-.97-.98.6-2.14,1.2-3.03,1.93-.47.39-.54.87-.91,1.31-.18.18-.49,0-.62-.16l-.96-1.24c-.04-.16.07-.32.22-.41.33-.3.76-.94.76-1.22v-8.65l-.09-.99c-.74.92-1.41,1.61-2.1,2.25-.11-.02-.2-.14-.31-.21,2.16-3.04,3.99-6.19,4.64-9.89l.18.05,1.83.87c.11.09.13.23.04.34-.31.16-.6.39-.67.74,1.16.3,2.32.62,3.32,1.38.54.41.65,1.13.54,1.82-.04.32-.31.71-.65.78-.56-.05-.67-.71-.98-1.06-.65-.9-1.41-1.89-2.36-2.46h-.09l-.69,1.38c.65.51,1.49,1.01,1.72,1.86.04.53-.2,1.04-.62,1.31-.16.07-.38.16-.54.02-.4-.37-.2-.87-.29-1.43-.07-.46-.2-.99-.49-1.38-.56.85-1.07,1.7-1.63,2.51.36.25.65.41,1.07.69h2.59l.69-.83c.13-.14.31-.12.51.05.4.3.74.62,1.18,1.06.09.16.02.25-.11.39-.16.18-.56.48-.6.69v4.02l.09,1.43c.02.28-.51.34-.78.48-.29.11-.45.16-.71.21-.18.05-.18-.14-.18-.3v-.62h-2.92v3.66c0,.46,1.9-.41,2.72-.87l-.09-.21Zm.29-8.49h-2.9v2.21h2.9v-2.21Zm0,2.9h-2.9v2.32h2.9v-2.32Zm13.68,8.69c-.54-.09-1.2-.18-1.63.23-.25.23-.49.44-.65.71-.54-.34-.98-.85-1.47-1.36-.6-.62-1.12-1.33-1.61-2.05-.22.16-.42.51-.69.69-1.78,1.56-3.88,2.51-6.07,3.17-.09-.09-.22-.23-.29-.37,2.32-1.15,4.68-2.69,6.2-4.97-1.07-2.32-1.63-4.97-1.7-7.61h-.78c-.07.78-.09,1.61-.18,2.37-.11,1.03-.18,2.02-.36,3.08-.07.37-.13.78-.2,1.06-.38,1.82-1.09,3.2-2.39,4.55-.69.76-1.38,1.4-2.16,2.02l-.49-.28c1.58-1.66,3.08-3.77,3.52-5.93.38-1.82.56-3.82.56-5.73v-3.75c0-1.17-.07-2.25-.13-3.38.8.25,1.52.64,2.3.94,1.83-.6,3.59-1.4,5.18-2.55.62.6,1.27,1.29,1.72,1.95.02.12-.04.18-.11.25-.27,0-.74-.05-.98-.09-2.05.53-3.95.97-6.18,1.06.02,1.2,0,2.51-.07,3.73h4.48l.78-.76c.09-.09.22-.05.27,0,.58.41,1.23.87,1.74,1.26.11.12.07.3-.04.37-.27.14-.54.18-.71.48-.38,2.41-1.05,4.81-2.21,6.92,1.29,1.54,2.92,2.69,4.6,3.54l-.25.41Zm-7.23-11.54c.16,2.07.8,4.19,1.78,6,.89-1.86,1.25-3.89,1.43-6h-3.21Zm28.76-4.12h-15.42l-.11,5.22c-.07,2.92-.56,6-2.21,8.23-.74.99-1.41,1.86-2.23,2.76l-.38-.23c1.14-1.72,1.99-3.4,2.43-5.68.25-1.24.47-2.48.47-3.56v-5.82l-.09-2.87c.89.41,1.49.74,2.39,1.2h5.96c-.29-1.22-1-2.25-1.74-3.26l.18-.32c1.12.25,2.25.44,3.1,1.22.47.44.18,1.15,0,1.63l-.51.74h4.97l.98-1.4c.07-.09.36-.12.42,0,.69.55,1.27,1.15,1.92,1.82.11.12.04.34-.13.34Zm-1.05,4.69h-6.94v3.59l3.08.02.71-1.06c.11-.12.33-.09.45,0l1.72,1.29c.42.25-.83,1.04-.83,1.2l.02,3.68c0,1.01,0,1.31.04,2.53.02.16-.13.32-.25.39-.33.16-.69.3-1.34.48-.2.07-.38-.09-.38-.21v-2h-7.32v1.15c0,.16-.11.32-.33.39-.38.23-.83.37-1.2.51-.16.05-.33-.07-.33-.23l.07-3.84v-3.31l-.04-2.09,2.3,1.13h1.76l-.02-5.96-.02-2.21c.91.18,1.61.37,2.48.62.38.12-.58.81-.58.94l.02,2.23h3.55l.96-1.5c.07-.14.33-.14.45-.02.76.69,1.34,1.22,2.05,1.89.11.09.09.39-.07.39Zm-3.68,4.35h-7.32v4.83h7.32v-4.83Zm12.27,5.63c.13-.02.31-.14.31-.3v-2.71h-2.61v4.42c0,.32-1.03.71-1.32.85-.11,0-.16-.09-.22-.14l-.02-.32.02-3.17.02-7.61-.04-.99c.6.25,1,.51,1.61.8h2.3l.76-.71c.16-.18.38.02.83.34.22-.41.38-.92.45-1.43h-6.16c-.02.81-.09,1.7-.85,2.09-.22.12-.51.14-.78.07-.18-.09-.33-.23-.36-.46-.11-.53.4-.69.69-1.17.38-.64.6-1.22.78-1.98h.31c.04.16.07.41.16.74h.33v-4.83l-.07-1.52c.54.23,1.05.53,1.56.81h2.92l.62-.71s.22-.05.29,0l1.05.9c.09.09.11.25,0,.34-.25.18-.49.3-.49.48v4.53h.16l.36-.6c.07-.14.27-.16.36-.05l.69.83v-4.09l-.07-1.29c.6.23,1.18.46,1.74.76h.89v-2.64c0-.09.09-.21.25-.16.29.12.87.44,1.5.69.16.07.16.23.09.3-.18.21-.54.39-.54.62l-.02,1.2h1.45v-2.6c0-.12.07-.18.29-.14.29.09.74.32,1.32.6.11.05.16.18.09.28-.13.14-.42.25-.47.46v1.4h1.12l.49-.71c.04-.07.33-.05.38.02l1.12.85c.29.32-.51.53-.51.83v4.74c0,.3.07.8-.16.97-.31.18-.58.41-.91.51-.27.07-.29-.25-.29-.62v-.23h-6.42c0,.3.02.51-.18.69-.33.14-.56.3-.91.44-.13.02-.22-.09-.27-.21,0-.6.04-1.1.04-1.7-.22-.05-.4.09-.58.21l-.98,1.08c.2.21.45.3.29.6-.2.18-.47.18-.54.48l.04,8.65c0,.64-1.23,1.36-1.96,1.56-.04-.3-.09-.51-.38-.92-.33-.44-.91-.83-1.45-.94l.07-.37,1.83.21Zm.78-16.51h-3.3v4.83h1.14c0-1.95,0-2.62-.09-3.7.56.21.8.32,1.16.55h1.09v-1.68Zm-.42,9.96v-1.91h-2.65l-.02,1.91h2.68Zm-2.68.71v2.12l2.65-.02v-2.07l-2.65-.02Zm2.01-5.84h1.09v-2.44h-1.09v2.44Zm5.96,9.36c.71.41,1.76.97,1.7,1.89-.09.34-.27.67-.54.94h1.78c.42-.99.65-2.02.8-3.13.33.09.62.28.96.37v-.69h-4.73c0,.46-.36.53-1.32.92-.13.05-.22-.07-.27-.18,0-1.79.02-3.06.02-4.71,0-.23,1.05.51,1.58.78h4.46l.54-.83c.09-.07.25-.07.33-.02l1.49,1.13c.11.05.07.21.04.25-.18.23-.65.44-.65.57v2.16c0,.28-.78.55-1.16.78.38.14.69.25.56.51-.2.18-.54.12-.71.37-.42.6-.76,1.1-1.27,1.63l2.36.05.74-1.17c.07-.07.18-.09.27-.05l1.65,1.59c.11.16,0,.37-.16.39h-9.99c-.42,0-.71.09-1.27.23l-.89-.94h4.15c-.2-.71-.11-1.4-.42-2.16-.07-.14-.18-.32-.22-.46l.16-.21Zm-1.32-5.22c-.31,0-.51.09-1.14.18l-.87-.9h9.53l.69-1.04c.09-.07.25-.09.33-.02l1.41,1.4c0,.12.02.23-.07.3l-.13.07h-9.75Zm1.9-7.86h-1.2v1.98h1.2v-1.98Zm0,2.69h-1.2v2.23h1.2v-2.23Zm-.62,9.06h4.75v-1.77h-4.75v1.77Zm3.32-11.75h-1.38v1.98h1.38v-1.98Zm0,2.69h-1.38v2.23h1.38v-2.23Zm2.5-2.69h-1.25v1.98h1.25v-1.98Zm-.02,2.69h-1.23v2.23h1.23v-2.23Zm4.58,13.68c2.32-1.66,4.46-3.54,6.29-5.79.18-.21.83.37,2.03,1.29.09.09.07.25,0,.34-.16.14-.65.02-.94.23-2.28,1.63-4.6,3.26-7.18,4.28l-.2-.34Zm6.2-1.52c1.25.07,1.99.12,3.06.09.18,0,.4-.25.38-.44.02-1.72-.02-3.27,0-4.92-2.21.09-4.37.41-6.47.8-.25-.16-.2-.51-.29-.78l-.22-1.08c.02-.12.07-.25.2-.23,1.7.07,2.94-.74,4.1-1.33,1.72-.92,3.3-2.02,4.97-3.04-2.65.39-5.15.69-7.63,1.45-.09.02-.25-.02-.29-.18l-.42-1.33c-.07-.18.07-.32.25-.37.62-.09,1.27,0,1.81-.37,1.43-.99,2.72-2.21,3.86-3.54l-5.04.14c-.98.02-1.99-.05-2.97-.05l-.09-.46c2.43-.18,4.86-.28,7.18-.74l3.3-.64c1.58-.3,3.17-.71,4.66-1.24.27-.09.54.44,1.63,2.39.07.23-.27.39-.45.32l-1.27-.3-5.62.46-.4.02c.49.32.98.6,1.45.92.07.09.07.23,0,.34-.22.21-.67.09-.96.21-1.47,1.06-3.1,1.98-4.6,2.51l2.25-.05,3.39-.18.76-.09c.62-.48,1.32-1.2,1.9-1.7.29-.25.67.16,2.1,1.36.18.16.13.3.07.41l-.11.09-1,.07c-2.97,1.89-5.96,3.54-9.15,4.88l-.67.16,1.54.02,3.57-.07,3.84-.14c-.71-.69-1.63-1.43-2.25-1.68l.13-.37c1.58.32,3.32.9,4.62,1.79.49.32.87.8.89,1.43,0,.46-.11.99-.27,1.31-.18.21-.45.37-.67.18-.62-.64-1.07-1.33-1.67-1.95l-3.99.41-.04.14v4.69c0,1.33,0,2.05-.54,2.6-.62.53-1.38.76-2.16,1.01-.25.05-.2-1.45-1.07-1.98-.49-.32-1-.41-1.58-.55v-.41Zm6.34-3.91c1.94.51,3.97,1.17,5.49,2.55.58.64.69,1.56.33,2.41-.11.18-.2.44-.42.48-.85.09-1-.69-1.49-1.36-1.14-1.49-2.5-2.85-4.08-3.72l.18-.37Zm42.81,1.33c.25-.23.4-.14.56,0,.58.6,1.27,1.13,2.16,2.14.2.23-.04.46-.2.46h-18.05c-.56,0-.83.07-1.54.21l-.71-1.04h16.33l1.45-1.77Zm-.96-14.07c.25-.21.4-.12.58.02.89.67,1.2,1.03,2.03,1.89.2.21.02.41-.16.41h-15.88c-.56,0-.83.07-1.52.21l-.74-1.03h14.5l1.18-1.5Zm-1.72,6.62c.25-.21.4-.12.58.02.71.62,1.18,1.04,2.03,1.89.2.21,0,.44-.16.44h-12.45c-.58,0-.85.07-1.54.18l-.74-1.01h11.09l1.18-1.52Zm18.09,12.03c0,.11-.04.23-.16.3-.65.32-1.09.51-1.72.6-.11,0-.25-.09-.29-.23l.11-6.21v-5.52h-6.45c-.4,0-.94.07-1.67.21l-.54-.92h8.66v-6.44l-.16-2.16c1,.3,1.99.6,2.94.99.13.05.13.25.02.37-.27.25-.83.62-.83.83v6.42h5.71l1.2-1.72c.07-.09.25-.12.38-.02.76.62,1.49,1.26,2.21,2.09.07.09.02.21-.02.3l-.11.07h-9.39v6.35l.09,4.71Zm30.85-6.09l-8.34-.02v2.67l.09,3.38c0,.34-.13.44-.4.53l-1.45.48c-.16,0-.22-.12-.25-.23l.07-4.37v-2.46h-7.27c-.54,0-1.16.07-1.94.32l-.58-1.06,3.99-.02v-5.13l-.04-.67c.85.28,1.56.6,2.36.87h3.48v-3.91h-4.6c-1.45,2.28-3.19,4.46-5.26,6.28l-.36-.37c2.39-3.27,4.35-6.69,5.38-10.55l.13.02,2.23,1.15c.18.09.33.28.2.46-.29.32-.87.16-1.03.69l-.91,1.56h9.79l1.14-1.63c.11-.14.36-.16.54-.05.71.6,1.34,1.29,2.03,1.96.11.09.16.28,0,.41l-.13.07h-7.23l.02,3.91h2.61l1.07-1.36c.09-.09.38-.12.47-.02.65.53,1.25,1.15,1.83,1.75.13.18.04.39-.18.39h-5.78v4.19h5.09l1.12-1.54c.11-.12.29-.12.42,0,.71.6,1.23,1.06,1.92,1.77.25.23-.04.53-.22.53Zm-10.28-4.94h-3.88v4.19h3.88v-4.19Zm16.55,9.36l-3.37,1.31c-.29.39-.69.41-.78.16-.33-.9-.42-1.29-.62-1.93l1.58-.32.04-5.98-.07-1.75c.71.25,1.43.46,2.14.74.09.07.09.18.04.3-.2.16-.62.46-.62.6v5.89l1.36-.25v-7.06l-.04-2.02c.74.23,1.43.53,2.12.85.07.07.09.18.04.28-.18.21-.6.34-.6.51l.02,2.6h.36l.69-1.2c.07-.14.27-.18.38-.05l1.23,1.52c.09.14.02.39-.13.39h-2.54v3.89c1.34-.23,2.48-.48,3.7-.76l.09.37-5.02,1.93Zm3.93-15.66c-.42.37-.62.44-.62.6,0,.78,0,1.52.02,2.25,0,.64.02,1.38.04,2.05,0,.16-.16.3-.25.34-.36.21-.69.3-1.16.51-.18.05-.31-.05-.36-.18v-.69l-2.74-.02v.51c0,.14-.07.25-.18.34-.33.23-.76.39-1.23.55-.11,0-.2-.07-.25-.18l.04-2.28v-3.52c0-.34-.04-1.33-.07-1.82.62.28,1.36.76,1.87,1.03h2.36l.71-.99c.07-.12.25-.14.36-.02l1.45,1.17c.04.12.07.28-.02.34Zm-2.3.16h-2.74v4.05h2.74v-4.05Zm14.41,7.13c-.98-.07-2.14.09-2.81.87-.74-.53-1.36-1.29-1.92-2-1.05-1.31-1.52-2.85-1.85-4.48h-1.61c-.94,2.16-2.25,4.25-4.17,5.77l-.76.6-.33-.25c1.34-1.59,2.41-3.38,3.19-5.15.18-.41.29-.69.36-.97h-1.07c-.2,0-.69.07-1.09.18l-.54-.85,2.9.02c.4-1.36.67-2.74.87-4.16.85.34,1.7.69,2.52,1.1.09.07.09.21.04.3-.45.25-.8.46-.85.64-.38.92-.51,1.31-.87,2.09h3.95l1-1.4c.07-.07.25-.07.33,0,.65.64,1.05,1.06,1.65,1.7.11.16.11.37-.09.37h-4.82c.29.87.76,1.72,1.43,2.48,1.25,1.43,2.9,2.18,4.57,2.76l-.04.37Zm-2.88,4.69c-.31.23-.58.39-.58.51-.27,1.38-.51,2.76-.96,4.07-.42,1.26-1.81,1.47-2.86,1.77-.16-1.56-1.87-1.95-2.97-2.44l.09-.39c1.16.18,2.34.48,3.57.55.58-.09.58-.71.71-1.15.29-.92.51-2.02.69-2.97h-3.97c-.33.32-.45.44-.76.8-.07.09-.31.16-.4.05l-1.38-1.06c-.07-.07-.07-.21,0-.28.4-.32.98-.48,1.16-1.04.18-.48.4-.99.51-1.47h-1.16c-.16,0-.65.12-.98.21l-.51-.87,7.09.02.78-1.06c.04-.09.31-.09.4.02.58.58.87.87,1.38,1.38.11.14.07.3-.07.3h-5.2l-.89,2.32h3.75l.69-.94c.07-.09.38-.12.47,0,.62.53.85.69,1.43,1.26.13.12.09.3-.04.39Zm-2.61-5.63h-3.28c-.42,0-.69.05-1.2.16l-.4-.8h2.52l.83-.94c.07-.12.29-.12.42,0,.47.46.67.67,1.2,1.26.11.16,0,.3-.09.32Zm25.66-6.58v15.08l.09,2.12c0,.25-.04.51-.2.58l-1.05.41c-.09.05-.4.18-.51.05-.04-.07-.09-.41-.09-.87v-1.08h-13.54l.02,1.01c0,.25-.16.46-.31.51l-1.25.71c-.11-.02-.27,0-.29-.14l.04-3.13v-13.45c0-1.27-.02-2.74-.11-3.96.71.3,1.41.6,2.07.97h12.96l.94-.99c.07-.09.33-.07.45,0,.58.44.78.64,1.29,1.17.25.37-.51.48-.51,1.01Zm-1.99,3.5h-4.55c0,1.68.11,3.45.4,5.06l.04.16c.76-1.24,1.27-2.76,1.47-4.25.74.23,1.29.44,2.05.83l.18.09c.09.09.09.28-.07.32-.29.14-.45.25-.67.53-.62,1.5-1.45,2.87-2.45,4.21l.22.55c.31.48.67,1.22,1.27,1.38.29,0,.4-.28.54-.48.2-.58.38-1.2.71-2.53.13.02.27.09.4.14-.16,1.7-.31,2.74-.18,4.23,0,.44.22.8.22,1.24,0,.21-.18.34-.45.25-1.56-.58-3.17-1.75-3.99-3.33-1.52,1.33-3.12,2.41-4.8,3.24l-.29-.37c1.7-1.17,3.28-2.53,4.55-4.25-.71-2.21-.83-4.6-.87-7.01h-4.19c-.74,0-1.2.07-1.92.23l-.65-.9h6.76c-.02-.9,0-2.09-.13-3.06.74.16,1.47.3,2.16.53l.18.14c.18.44-.54.62-.54.87l.02,1.54h2.12l.74-1.08c.11-.16.27-.16.42-.07.56.53.8.71,1.47,1.43v-3.68h-13.5v16.17h13.5v-2.05l.02-10.07h-.22Zm-9.77,8.88c-.89.41-1.18.58-1.85.94-.18.37-.49.48-.71.05-.18-.37-.49-1.13-.71-1.7,2.34-.3,4.64-.74,6.89-1.29l.11.32-3.73,1.68Zm2.52-6.12c0,.97,0,2.09.02,3.31,0,.21-.38.39-.62.55-.33.21-.91.44-.91.18v-.94h-1.45v.62c.02.21-.94.51-1.38.71-.11-.02-.25-.09-.25-.25.04-2.23.02-4.02-.07-6.25.62.28,1.27.58,1.85.94h1.05l.65-.87c.02-.07.27-.09.33-.02l1.25.94c.38.28-.47.71-.47,1.08Zm-1.52-.48h-1.47v2.92h1.47v-2.92Zm5.8-3.27c-.85.02-.42-.94-.62-1.42-.07-.39-.22-.76-.38-1.1.11-.05.22-.32.38-.16.58.28,1.38.71,1.43,1.45.04.53-.42,1.15-.8,1.24Zm17.4,8.62v-.46l-.07-1.24,2.45.64c.36.51-.45.46-.54.85.02.07-.04.14,0,.23l5.49-.02,1.07-1.31c.07-.07.33-.11.45,0,.89.69,1.27,1.04,1.96,1.59.09.12.13.28.02.39l-.13.05h-7.87c2.25,2.32,5.29,3.26,8.43,3.7l-.07.28c-.8.16-1.76.37-2.28,1.15-.18.21-.31.41-.47.64l-.13-.02c-2.41-1.24-5-3.17-6.27-5.75l-.22.02v3.56c0,.74.11,1.54.09,2.35-.09.23-.33.3-.54.39l-1.09.44c-.16.02-.29-.05-.33-.18.02-1.82.09-3.7.04-5.59-1.32,1.17-2.74,2.25-4.28,3.04-1.52.78-3.15,1.36-4.82,1.79l-.22-.39c2.79-1.24,5.53-2.78,7.54-5.36l-5.35-.07c-.51.09-1.05.11-1.54.25l-.56-.97h9.24Zm6.45-2.46l.94-1.36c.04-.07.29-.12.4,0,.67.55,1.34,1.06,1.96,1.68,0,.09.09.21,0,.28l-.11.07h-13.05c-.02.25.09.6-.16.78-.49.23-.98.44-1.52.55-.13,0-.2-.14-.25-.25l.11-2.14.02-5.38h-.11c-.98,1.1-2.34,2.32-3.66,3.22l-.33-.3c.69-.74,1.12-1.22,1.65-1.89,1.72-2.09,3.15-4.23,4.1-6.71.74.28,1.41.74,2.12,1.1.13.09.07.23-.02.32-.31.11-.69.21-.89.55-.31.48-.74.99-1.09,1.43h4.98c-.25-1.15-.65-2.28-1.43-3.13l.22-.3c.85.21,1.67.44,2.41.85.4.28.74.74.62,1.29-.18.51-.56.97-.98,1.26l3.64.05,1.05-1.36c.09-.09.33-.07.42,0,.67.53,1.32,1.06,1.92,1.68.04.16-.02.34-.2.39h-6.98v1.82h3.21l.89-1.15c.04-.07.22-.09.36.02.6.41,1.16.9,1.72,1.4.07.12.07.21,0,.32l-.11.09h-6.09v1.91h3.32l.87-1.1c.09-.18.31-.14.42-.05.65.51,1.2.9,1.83,1.47.04.07.09.21,0,.28l-.18.12h-6.27v2.18h4.24Zm-5.98-7.36h-3.9v1.84h3.9v-1.84Zm0,2.53h-3.9v1.96h3.9v-1.96Zm0,2.6h-3.9v2.21h3.9v-2.21Zm30.68,10.19c-.02.23.02.55-.11.76-.49.41-1.03.46-1.58.71-.16,0-.27-.14-.29-.28v-1.47h-13.01c0,1.03.02,1.17-.22,1.33-.45.28-.94.41-1.41.67-.16,0-.27-.07-.31-.21l.11-4.28v-4.07l.02-4.99-.02-5.4-.11-1.59h.16l2.05.97h12.63l.69-.78c.09-.11.25-.09.38,0,.42.28,1,.64,1.43.99.13.09.13.25.04.41-.22.23-.4.39-.56.69l.04,12.9.07,3.63Zm-13.01-6.21c-.11.18-.31.25-.42.14l-.13-.21c-.27-.51-.38-.8-.56-1.26l4.77-.18v-1.61h-2.12v.44c0,.09-.07.11-.11.16l-1.07.51c-.11.07-.38.12-.45-.11.07-2.09.11-4.07-.09-6.19.6.16,1.18.48,1.76.71l2.1.02-.02-1.1h-3.12c-.49.05-.87.07-1.34.18l-.42-.85,4.89-.02c-.02-.53,0-.96-.07-1.42.71.11,1.32.23,2.03.39.16.02.29.14.29.3-.02.12-.2.25-.36.28-.13.11-.25.18-.25.48h2.68l.74-1.15c.04-.14.25-.09.36-.02.6.48.98.92,1.52,1.5.13.16,0,.34-.16.34h-5.2v1.1h2.45l.49-.64c.09-.14.25-.07.36-.02l1.29.85c.13.09.16.3.02.44-.29.21-.58.37-.58.53.02,1.08-.02,2.25.04,3.33.02.07-.11.21-.16.23-.11.09-.69.41-1.07.41.62.23,1.25.53,1.56,1.17.11.32.02.67-.16.92.29.02.69.44.96.71.29.28.51.48.56.64l.04-3.93.02-7.84-.02-.18h-12.4l-.65.02v16.17h7.94c-.11-.92-.94-1.63-1.74-1.84.02-.14.04-.28.04-.41l1.47.23c.38.07.76.05.76-.21v-1.7h-4.22c.62.37,1.52.92,1.74,1.7.07.57-.29,1.06-.71,1.36-.13,0-.31.05-.38-.14-.38-1.04-.76-2.02-1.47-2.92h-1.29c-.42,0-1.03.16-1.52.25l-.47-.92h8.32c0-.53-.04-1.01-.07-1.47.67.09,1.27.3,1.9.48.13.05.31.14.27.28-.07.16-.33.25-.45.39v.32h.58l.6-.83c-.13,0-.27,0-.38-.09l-.78-.9c-.83.12-1.7.23-2.43.34l-3.64.55-2.1.3Zm1.5-5.7h2.19v-1.22l-2.19.02v1.2Zm2.19.69h-2.14v1.2h2.12l.02-1.2Zm1.58,0v1.2h2.45v-1.2h-2.45Zm.02-1.91v1.22h2.45v-1.22h-2.45Zm0,5.31l2.28-.11c-.31-.3-.65-.48-1-.71l.09-.32c.51.09.85.18,1.14.23-.07-.14-.04-.28-.04-.6h-2.45v1.52Zm2.83,5.13c0,.8-1.14,1.31-1.81,1.66l4.73.05v-3.93h-2.92v2.23Z"/>
  </g>
</svg>