<?xml version="1.0" encoding="UTF-8"?>
<svg id="b" data-name="圖層 2" xmlns="http://www.w3.org/2000/svg" viewBox="0 0 377.4 153.77">
  <defs>
    <style>
      .d {
        fill: #ff4214;
        stroke-width: 0px;
      }
    </style>
  </defs>
  <g id="c" data-name="圖層 1">
    <path class="d" d="m22.03,127.9l3.6,5.25,3.58-5.25h.95l-4.02,5.89v4.48h-1.74v-4.32l-4.14-6.05h1.78Zm17.58,0v.67h-5.47v3.71h3.66v.67h-3.66v4.64h5.47v.67h-7.21v-10.37h7.21Zm6.91-.23l4.88,10.6h-1.78l-1.58-3.46h-4.45l-1.63,3.46h-.88l5-10.6h.44Zm-2.62,6.47h3.82l-1.88-4.11-1.94,4.11Zm13.13,3.71c.26,0,.51-.04.76-.11.25-.07.47-.17.67-.31.2-.14.36-.31.48-.51.12-.2.18-.43.18-.7,0-.32-.08-.6-.25-.85-.16-.25-.38-.47-.65-.68-.27-.21-.57-.4-.91-.58-.34-.18-.69-.36-1.04-.55-.35-.18-.7-.37-1.04-.57-.34-.2-.65-.42-.91-.67-.27-.25-.48-.52-.65-.83-.16-.31-.25-.66-.25-1.05s.07-.76.22-1.1c.15-.34.37-.63.65-.88s.64-.44,1.06-.58c.42-.14.9-.21,1.44-.21.49,0,.93.05,1.31.16.39.1.72.26,1.02.46.29.2.54.45.74.75.2.3.37.64.49,1.03l-.89.41c-.1-.32-.24-.61-.4-.87-.16-.26-.35-.49-.58-.68s-.48-.33-.78-.43-.63-.15-1-.15c-.33,0-.62.05-.86.14-.25.09-.45.21-.61.36-.16.15-.29.32-.37.5-.08.19-.12.37-.12.57,0,.27.08.52.25.75.17.23.39.44.67.64.28.2.59.39.94.58.35.19.71.38,1.08.57.37.19.72.39,1.08.6.35.21.67.44.94.68s.5.52.66.81c.17.29.25.62.25.99,0,.41-.08.8-.23,1.16-.16.36-.39.68-.7.95-.31.27-.7.48-1.17.64-.46.16-1,.23-1.62.23-.5,0-.95-.05-1.34-.16-.39-.11-.74-.27-1.04-.48s-.56-.46-.77-.76-.39-.64-.52-1.03l.93-.38c.11.34.26.64.44.91.18.27.4.49.65.68.24.19.52.33.82.43s.62.15.96.15Zm8.57-4.56v4.97h-1.74v-10.37h1.74v4.72h5.21v-4.72h1.74v10.37h-1.74v-4.97h-5.21Zm10.58-5.4h1.74v10.37h-1.74v-10.37Zm5.37,0h.98l6.79,7.58h.08v-7.58h.77v10.61h-.41l-7.37-8.43h-.06v8.19h-.78v-10.37Zm24.49,0h1.74v10.37h-1.74v-10.37Zm5.37,0h.98l6.79,7.58h.08v-7.58h.77v10.61h-.41l-7.37-8.43h-.06v8.19h-.78v-10.37Zm20.38,0v.67h-3.75v9.7h-1.74v-9.7h-3.75v-.67h9.25Zm9.71,0v.67h-5.47v3.71h3.66v.67h-3.66v4.64h5.47v.67h-7.21v-10.37h7.21Zm2.85,0h3.6c.62,0,1.17.07,1.63.2.47.13.86.32,1.17.56.31.24.55.52.71.86s.24.69.24,1.08c0,.32-.06.63-.18.91-.12.28-.29.54-.52.76-.22.23-.49.42-.8.59-.31.16-.66.29-1.03.39l3.78,5.03h-2.03l-3.6-4.87h-1.22v4.87h-1.74v-10.37Zm1.74,4.97h1.01c.39,0,.75-.05,1.08-.16.33-.1.62-.25.86-.44.24-.19.43-.42.57-.69.14-.27.2-.58.2-.92,0-.31-.05-.6-.16-.86-.11-.26-.26-.48-.45-.67-.2-.18-.43-.33-.7-.43-.27-.1-.56-.16-.88-.16h-1.53v4.32Zm9.07-4.97h.98l6.79,7.58h.08v-7.58h.77v10.61h-.41l-7.37-8.43h-.06v8.19h-.78v-10.37Zm16.29-.23l4.88,10.6h-1.78l-1.58-3.46h-4.45l-1.63,3.46h-.88l5-10.6h.44Zm-2.62,6.47h3.82l-1.88-4.11-1.94,4.11Zm17.89-6.24v.67h-3.75v9.7h-1.74v-9.7h-3.75v-.67h9.25Zm2.51,0h1.74v10.37h-1.74v-10.37Zm10.62,10.61c-.8,0-1.55-.14-2.25-.43-.7-.29-1.3-.68-1.81-1.18-.51-.5-.92-1.08-1.21-1.74-.29-.66-.44-1.38-.44-2.13,0-.5.07-.97.2-1.43.13-.46.32-.89.57-1.28.25-.4.54-.76.89-1.08s.73-.6,1.15-.84.88-.41,1.37-.54c.49-.13,1-.19,1.54-.19s1.05.06,1.54.19c.49.13.95.31,1.37.54s.81.51,1.15.84c.34.33.64.69.89,1.08.25.4.44.82.57,1.28.13.46.2.94.2,1.43s-.07.98-.2,1.45c-.13.47-.32.9-.57,1.31s-.54.78-.89,1.11c-.34.33-.73.62-1.15.86s-.88.42-1.37.56c-.49.13-1,.2-1.54.2Zm0-.51c.59,0,1.12-.12,1.58-.37.46-.25.84-.59,1.15-1.04.31-.44.55-.97.71-1.57.16-.61.24-1.27.24-1.99s-.08-1.37-.24-1.96-.4-1.11-.71-1.54c-.31-.43-.7-.76-1.15-1-.46-.24-.98-.36-1.58-.36s-1.14.12-1.59.36c-.46.24-.84.57-1.15,1-.31.43-.54.94-.7,1.54s-.23,1.25-.23,1.96.08,1.38.23,1.99c.16.6.39,1.13.7,1.57.31.44.69.79,1.15,1.04.46.25.99.37,1.59.37Zm8.87-10.1h.98l6.79,7.58h.08v-7.58h.77v10.61h-.41l-7.37-8.43h-.06v8.19h-.78v-10.37Zm16.29-.23l4.88,10.6h-1.78l-1.58-3.46h-4.45l-1.63,3.46h-.88l5-10.6h.44Zm-2.62,6.47h3.82l-1.88-4.11-1.94,4.11Zm9.74-6.24h1.74v9.7h5.22v.67h-6.97v-10.37Zm21.58,0h3.46c1.06,0,1.98.1,2.74.3.77.2,1.41.52,1.92.95.58.5,1.02,1.07,1.32,1.72.29.65.44,1.35.44,2.12s-.13,1.42-.39,2.06c-.26.64-.65,1.2-1.16,1.68s-1.14.85-1.88,1.13-1.6.41-2.57.41h-3.87v-10.37Zm1.74,9.61h1.85c.58,0,1.13-.1,1.65-.29s.97-.48,1.35-.86c.38-.38.69-.85.91-1.4.22-.56.33-1.2.33-1.93,0-.64-.1-1.23-.31-1.76-.21-.53-.5-.99-.88-1.38-.38-.39-.82-.69-1.34-.9-.52-.21-1.09-.32-1.7-.32h-1.86v8.84Zm18.49-9.61v.67h-5.47v3.71h3.66v.67h-3.66v4.64h5.47v.67h-7.21v-10.37h7.21Zm3.31,0l3.92,8.25,3.64-8.25h.83l-4.71,10.61h-.45l-5.06-10.61h1.84Zm17.83,0v.67h-5.47v3.71h3.66v.67h-3.66v4.64h5.47v.67h-7.21v-10.37h7.21Zm2.85,0h1.74v9.7h5.22v.67h-6.97v-10.37Zm14.58,10.61c-.8,0-1.55-.14-2.25-.43-.7-.29-1.3-.68-1.81-1.18-.51-.5-.92-1.08-1.21-1.74-.29-.66-.44-1.38-.44-2.13,0-.5.07-.97.2-1.43.13-.46.32-.89.57-1.28.25-.4.54-.76.89-1.08s.73-.6,1.15-.84.88-.41,1.37-.54c.49-.13,1-.19,1.54-.19s1.05.06,1.54.19c.49.13.95.31,1.37.54s.81.51,1.15.84c.34.33.64.69.89,1.08.25.4.44.82.57,1.28.13.46.2.94.2,1.43s-.07.98-.2,1.45c-.13.47-.32.9-.57,1.31s-.54.78-.89,1.11c-.34.33-.73.62-1.15.86s-.88.42-1.37.56c-.49.13-1,.2-1.54.2Zm0-.51c.59,0,1.12-.12,1.58-.37.46-.25.84-.59,1.15-1.04.31-.44.55-.97.71-1.57.16-.61.24-1.27.24-1.99s-.08-1.37-.24-1.96-.4-1.11-.71-1.54c-.31-.43-.7-.76-1.15-1-.46-.24-.98-.36-1.58-.36s-1.14.12-1.59.36c-.46.24-.84.57-1.15,1-.31.43-.54.94-.7,1.54s-.23,1.25-.23,1.96.08,1.38.23,1.99c.16.6.39,1.13.7,1.57.31.44.69.79,1.15,1.04.46.25.99.37,1.59.37Zm8.87-10.1h3.28c.54,0,1.05.07,1.52.2.47.13.89.32,1.24.58s.63.56.83.93c.2.37.3.79.3,1.26s-.1.88-.29,1.23c-.2.35-.45.64-.77.87-.32.23-.68.4-1.09.51-.41.11-.82.17-1.24.17-.18,0-.37,0-.57-.01-.2,0-.39-.02-.57-.04-.18-.02-.35-.03-.51-.05-.16-.02-.28-.04-.38-.06v4.79h-1.74v-10.37Zm1.74,5c.2.07.41.12.63.17s.45.07.69.07c.38,0,.7-.06.99-.17.28-.11.52-.27.7-.46.19-.2.33-.43.42-.69.09-.26.14-.54.14-.84,0-.35-.06-.67-.18-.95-.12-.28-.29-.52-.5-.72-.21-.2-.46-.36-.74-.47-.28-.11-.59-.16-.91-.16h-1.24v4.23Zm8.32-5h1.78l4.04,7.95h.09l3.96-7.95h1.75v10.37h-1.75v-8.5h-.05l-4.25,8.5h-.36l-4.3-8.43h-.12v8.43h-.78v-10.37Zm22.44,0v.67h-5.47v3.71h3.66v.67h-3.66v4.64h5.47v.67h-7.21v-10.37h7.21Zm2.85,0h.98l6.79,7.58h.08v-7.58h.77v10.61h-.41l-7.37-8.43h-.06v8.19h-.78v-10.37Zm20.38,0v.67h-3.75v9.7h-1.74v-9.7h-3.75v-.67h9.25ZM143.96,58.97c0-.5-.26-.74-.81-.74h-12.85c-.42,0-.74-.13-.98-.39-.25-.3-.38-.64-.38-1.05v-21.96c-.04-.39.08-.73.38-1.01.29-.29.6-.42.98-.37h12.85c.54,0,.81-.27.81-.82v-7.22h-15.38v-6.46h52.75v6.46h-14.78v7c0,.56.27.82.8.82h12.29c.95,0,1.41.46,1.41,1.38v22.18c-.04.95-.51,1.44-1.41,1.44h-12.29c-.53,0-.8.26-.8.81v8.72h16.24v6.49h-55.45v-6.49h16.61v-8.78Zm16.26,8.78v-14.42c0-1.06.51-1.56,1.53-1.56h12.04c.64,0,.94-.32.94-.95v-10.25c0-.58-.3-.87-.94-.87h-11.97c-1.08,0-1.61-.56-1.61-1.69v-12.59h-9.92v12.81c-.05.45-.21.84-.49,1.14-.38.32-.76.51-1.18.55h-12.49c-.57.02-.87.32-.87.86v10.03c.03.63.33.95.87.95h12.49c.45,0,.81.14,1.1.43.32.37.51.77.56,1.19v14.36h9.92Zm62.11-27.06v12.01c-.16,8.39-3.14,16.14-8.94,23.3l-5.35-4.65,1.54-1.88h-10.66v4.27h-6.33V22c0-1.38.68-2.07,2.03-2.07h14.56c1.4,0,2.07.69,2.02,2.07v45.41c3.08-4.37,4.67-9.28,4.79-14.7v-30.2c-.09-1.5.49-2.28,1.72-2.32,10.09-.05,19.34-.82,27.74-2.31l2.16,6.45c-7.18,1.24-15.28,2-24.25,2.25-.73,0-1.09.38-1.05,1.13v6.52h25.37v6.47h-8.12v34.55h-6.33v-34.55h-10.92Zm-17.42.8v-14.04c0-.71-.38-1.08-1.11-1.08h-3.84c-.68.05-1.05.41-1.05,1.08v14.04h5.99Zm-5.99,6.47v15.06h4.7c.86,0,1.29-.43,1.29-1.32v-13.74h-5.99Zm109.54-17.06h-41.93v4.63h41.93v-4.63Zm2.13-7.84h-44.06v4.63h44.06v-4.63Zm63.21-4.88h-52.41v4.63h52.41v-4.63Zm0,50.59h-52.41v4.63h52.41v-4.63Zm-4.51-42.89h-40.77v3.51h40.77v-3.51Zm-2.69,6.56h-36.52v3.51h36.52v-3.51Zm0,6.13h-36.52v2.35h36.52v-2.35Zm0,5.27h-36.52v3.51h36.52v-3.51Zm2.4,12.54h-39.92v3.51h39.92v-3.51Zm-57.87-9.09h-44.61v4.63h44.61v-4.63Zm2.28,7.98h-57.9v4.63h57.9v-4.63Zm-4.96-16.82h-41.93v4.63h41.93v-4.63Zm42.54-16.56h-5.53v30.22h5.53v-30.22Zm-15.39,12.11h-5.53v12.54h5.53v-12.54Zm30.99,0h-5.53v12.54h5.53v-12.54Zm-77.02-9.79h-5.53v23.9h5.53v-23.9Zm-1.39,51.54v-24.65h-6.13v24.65h6.13m-20.52-50.3h-5.13v26.65h5.13v-26.65Zm59.14-7.27h-5.42v57.43h5.42V18.19Zm50.59,0h-5.42v57.43h5.42V18.19Zm-122.84,16.25l3.28,5.42c6.84-3.85,15.53-21.8,15.53-21.8l-6.7-.86c-3.71,11.54-12.11,17.24-12.11,17.24Zm29.07-9.69l6.56-.86-3.14-6.84-5.56.86,2.14,6.84Zm-6.84,33.92s-6.13,7.7-21.95,10.69l3.14,4.99s17.53-4.7,24.65-15.53l-5.84-.14Zm10.55-.57s2.14,9.12,24.08,15.39l2.71-5.56s-10.69.57-22.37-9.69l-4.42-.14Zm42.32-7.7l.86,3.71,33.2-1.28-2.42-3.42-31.64,1Zm29.21-3.28l5.84,8.12,3.71-2.99-5.27-5.7-4.28.57Zm-2.28,5.27v8.41s.29,2.28-1.71,2.71h-6.7l1.57,3.85h7.84s4.28-1.14,4.13-4.28v-11.12l-5.13.43Zm-19.81,9.69s3.42,4.56,3.56,4.99c.14.43,3.71-2.42,3.71-2.42l-4.28-4.99-2.99,2.42ZM90.91,3.97l-22.15,19.65-5.63-8.4,14.11-12.41c2.17-1.95,4.67-2.75,7.5-2.38,2.52.33,4.58,1.51,6.16,3.54Zm-21.03,47.12C73.4,23.22,52.56,2.3,26.53.22,16.99-.54,7.81.6,0,4.88c4.37-.94,10.1-1.33,14.02-1.28,25.36.32,44.6,25.95,42.55,51.66-1.41,17.6-12.4,32.14-27.44,38.91,21.57-2.9,37.92-20.6,40.76-43.07Zm45.07,3.19c0,3.73-1.89,6.73-5.65,9.02-3.75,2.28-8.69,3.43-14.8,3.43s-12.03-1.98-16.93-4.59l4.11-4.82c2.98,2,7.46,2.21,10.89,2.21,1.86,0,3.87-.33,5.14-1.38,1.12-.92,1.25-2.19,1.25-3.4,0-1.12-.63-2.31-1.89-3.55-.86-.8-2.81-2.29-5.83-4.45-1.86-1.28-4.26-2.99-7.19-5.12-2.62-2.29-3.94-4.77-3.94-7.45,0-3.33,1.72-6,5.15-8,3.44-2,7.94-3.01,13.54-3.01,4.89,0,9.56.95,14.01,2.83l-2.35,5.25c-2.79-1.04-6.11-1.63-9.93-1.19-3.28.37-4.15,1.88-4.15,3.64,0,.68.34,1.37,1.03,2.05.68.68,2.18,1.81,4.5,3.37,2.73,1.84,5.37,3.85,7.94,6.01,3.39,2.85,5.08,5.9,5.08,9.15Zm262.46,98.89H19.44v.6h357.97v-.6Zm0-41.17H19.44v.6h357.97v-.6Z"/>
  </g>
</svg>