<?xml version="1.0" encoding="UTF-8"?>
<svg id="b" data-name="圖層 2" xmlns="http://www.w3.org/2000/svg" viewBox="0 0 456.84 72.67">
  <defs>
    <style>
      .d {
        fill: #ff4214;
        stroke-width: 0px;
      }
    </style>
  </defs>
  <g id="c" data-name="圖層 1">
    <g>
      <path class="d" d="m24.18,4.03v20.99l.12,2.94c0,.35-.06.7-.28.8l-1.47.58c-.12.06-.56.26-.72.06-.06-.1-.13-.58-.13-1.22v-1.5H2.67l.03,1.41c0,.35-.22.64-.44.7l-1.76.99c-.16-.03-.38,0-.41-.19l.06-4.35V6.53c0-1.76-.03-3.81-.16-5.5,1,.42,1.98.83,2.92,1.34h18.22l1.32-1.38c.09-.13.47-.1.63,0,.82.61,1.1.9,1.82,1.63.34.51-.72.67-.72,1.41Zm-2.79,4.86h-6.4c0,2.34.16,4.8.56,7.04l.06.22c1.07-1.73,1.79-3.84,2.07-5.92,1.04.32,1.82.61,2.88,1.15l.25.13c.12.13.12.38-.09.45-.41.19-.63.35-.94.74-.88,2.08-2.04,4-3.45,5.86l.31.77c.44.67.94,1.7,1.79,1.92.41,0,.56-.38.75-.67.28-.8.53-1.66,1-3.52.19.03.38.13.56.19-.22,2.37-.44,3.81-.25,5.89,0,.61.31,1.12.31,1.73,0,.29-.25.48-.63.35-2.2-.8-4.45-2.43-5.61-4.64-2.13,1.86-4.39,3.36-6.74,4.51l-.41-.51c2.38-1.63,4.61-3.52,6.4-5.92-1-3.07-1.16-6.4-1.22-9.76h-5.89c-1.04,0-1.69.1-2.7.32l-.91-1.25h9.5c-.03-1.25,0-2.91-.19-4.26,1.03.22,2.07.42,3.04.74l.25.19c.25.61-.75.86-.75,1.22l.03,2.14h2.98l1.04-1.5c.16-.22.38-.22.6-.1.78.74,1.13.99,2.07,1.98V3.26H2.7v22.49h18.97v-2.85l.03-14.01h-.31Zm-13.73,12.35c-1.25.58-1.66.8-2.6,1.31-.25.51-.69.67-1,.06-.25-.51-.69-1.57-1-2.37,3.29-.42,6.52-1.02,9.69-1.79l.16.45-5.24,2.34Zm3.54-8.51c0,1.34,0,2.91.03,4.61,0,.29-.53.54-.88.77-.47.29-1.29.61-1.29.26v-1.31h-2.04v.86c.03.29-1.32.7-1.94.99-.16-.03-.34-.13-.34-.35.06-3.1.03-5.6-.09-8.7.88.38,1.79.8,2.6,1.31h1.47l.91-1.22c.03-.1.38-.13.47-.03l1.76,1.31c.53.38-.66.99-.66,1.5Zm-2.13-.67h-2.07v4.06h2.07v-4.06Zm8.15-4.54c-1.19.03-.6-1.31-.88-1.98-.09-.54-.31-1.06-.53-1.54.16-.06.31-.45.53-.22.82.38,1.94.99,2.01,2.02.06.74-.6,1.6-1.13,1.73Z"/>
      <path class="d" d="m58.04,14.5c-.56.03-.97.13-1.79.38-.75.26-.97.54-1.47,1.28-.28-.22-.5-.38-.75-.61-3.1-2.72-5.14-6.33-5.86-10.33-.19.06-.47.06-.53.29-.88,2.85-1.82,5.7-3.64,8.13l.22.03h3.67l1.13-1.57c.13-.16.31-.03.5,0,.82.58,1.5,1.18,2.2,1.95.09.1.09.29,0,.38l-.19.16h-4.8c-.66.06-1.32.19-1.97.38l-.75-1.22c-1.6,2.14-3.54,3.87-5.58,5.34-.6,1.25-1.82,2.18-3.07,2.62-.19-.99-.75-2.11-1.76-2.5v6.66l.12,2.59c-.06.19-.12.38-.41.51-.69.22-1.32.61-2.01.7-.25-.06-.19-.26-.25-.64l.09-6.82v-7.1l-.03-8.77-.22-4.64c.97.32,1.79.67,2.79,1.15h2.1l1-1.38c.12-.1.41-.1.53.03.85.58,1.6,1.18,2.41,1.86.19.77-.82.54-1.16.9-.47.8-.72,1.66-1.1,2.46-.69,1.44-1.54,2.85-2.35,4.22,1.91,1.79,3.89,3.9,3.73,6.69,1.47-1.41,2.7-2.98,3.64-4.64.56-.96.94-1.98,1.32-3.04-.19.1-.28.19-.47.22-.28.03-.6-.06-.72-.35-.19-1.09-.31-2.08-.88-3.01l-1.5,2.46c1,.64,2.76,1.41,2.48,2.91-.16.54-.5,1.09-.94,1.44-.19.1-.47.13-.69.06-.63-.35-.34-1.18-.44-1.73-.16-1.02-.34-1.6-.69-2.3l-.16.19-1.85,2.72c-.22-.03-.34-.26-.53-.35,1.79-3.84,3.48-7.71,3.98-12.13,1.19.42,1.94.7,3.1,1.12.16.13.31.45.06.58-.31.32-.94.26-1.04.8l-.53,1.44,1.76-.03.85-.99c.06-.06.28-.03.44.03.66.45,1.25.8,1.85,1.31,0-.96-.19-1.95-.19-2.91l.75-.06.53,2.59h4.01l.78-.96c.09-.13.31-.16.53-.03l2.32,1.44c.12.13.06.38-.06.48-.44.19-.66.32-.91.48l-.38.26c-1.25,1.41-2.45,2.75-3.51,4.22,1.63,2.14,3.98,3.42,6.4,4.16l-.12.45Zm-23.83-3.23c.75-2.46,1.5-4.86,1.72-7.46h-2.38l.03,14.59c.85-.03,2.01.42,2.45-.58.6-2.3-.28-4.83-1.82-6.56Zm10.94,10.5c-1.29.26-1.82,1.25-2.85,2.3-1.66,1.63-3.48,3.01-5.36,4.26l-.5-.32c2.45-2.4,4.64-5.41,5.96-8.54,1,.38,1.85.96,2.82,1.7.13.1.16.32.06.48l-.12.13Zm10.32-3.1h-6.43v7.62c0,1.12-.09,1.38-.6,1.89-.78.8-1.82,1.15-2.79,1.5-.31-.96-.63-2.18-1.69-2.66-.53-.35-1.16-.48-1.72-.74l.16-.58c1.19.16,2.42.48,3.7.38.31-.03.38-.22.38-1.66l.03-5.73h-2.73c-.78,0-1.54.19-2.32.38l-.94-1.31h10.72l1.38-1.76c.09-.1.41-.32.78,0,.94.77,1.54,1.22,2.29,2.14.19.22.09.51-.22.51Zm-12.89-13.7c-.22.54-.34.77-.6,1.31.88.35,1.88.9,2.41,1.76.31-.93.5-2.05.63-3.07h-2.45Zm6.71-.03c.44,1.44.97,2.78,1.79,4,.78-1.25,1.38-2.78,1.72-4h-3.51Zm6.08,22.65c-.35.1-.66-.03-.85-.32-1.22-2.3-2.48-4.74-4.67-6.46l.25-.35c1.91.58,3.73,1.54,5.24,2.88.75.67,1.03,1.57.85,2.56-.16.8-.19,1.34-.82,1.7Z"/>
      <path class="d" d="m64.41,23.04c-.09,1.31-.28,2.82-1.54,3.68-.5.26-1.16.64-1.72.32-.31-.19-.47-.58-.44-.86.16-.77.85-1.28,1.19-1.86.88-1.5,1.63-3.1,1.54-4.96l.66-.1c.25,1.18.41,2.14.34,3.26l-.03.51Zm8.15-15.1l-4.01,4.1c-1.22,1.25-2.6,2.34-3.98,3.46,1.94,0,3.89-.16,5.77-.42-.22-.86-.5-1.57-.97-2.34l.41-.22c1.22,1.06,2.95,2.18,3.32,3.9,0,.74-.31,1.54-.97,1.98-.25.13-.6.13-.85,0l-.28-.35-.31-1.95c-2.63.45-4.7.99-7.28,1.73-.09.51-.53.45-.69.19-.31-.58-.44-.96-.78-1.89-.09-.29.82-.54,1.13-.77,1.88-1.31,2.85-3.07,4.36-4.74.13-.22.38-.54.53-.74-1.66.13-2.76.61-4.3,1.06-.12.45-.53.54-.75.13-.13-.22-.47-.9-.53-1.06-.31-.7-.53-1.09-.13-1.15,1.38-.35,1.66-.9,2.07-1.57,1.38-2.21,2.51-4.58,3.23-7.01,1.1.51,1.98,1.06,2.82,1.63.34.29,0,.54-.66.77-.88.86-1.5,1.82-2.32,2.82-.94,1.12-1.82,2.24-2.73,3.23,1.44,0,2.85-.03,4.2-.19.85-.99,1.54-2.18,2.2-3.36.85.61,1.66,1.38,2.51,2.11.06.06.06.26,0,.35-.31.16-.69.16-1,.29Zm-4.83,17.57c-.41.29-.63.42-1,.48-.25-.03-.53-.19-.6-.45,0-.86.22-1.82.25-2.75.03-1.34-.06-2.59-.35-3.81l.5-.22c.97,1.41,1.69,3.01,1.94,4.77.12.83-.12,1.54-.75,1.98Zm21.51,1.92c-1.38,0-2.82.13-3.61,1.31-.09.06-.13.19-.25.22-1.85-1.28-3.32-3.14-4.52-5.06h-.12c-2.82,2.85-6.3,4.7-9.94,5.89l-.34-.58c2.23-1.18,4.45-2.53,6.49-4.29,1-.9,1.94-1.89,2.79-2.94-1.32-2.75-2.13-5.7-2.51-8.9-.5,4.64-1.6,9.12-4.8,12.58-1.07,1.12-2.29,2.37-3.54,3.26l-.6-.42c2.67-2.69,4.67-5.7,5.55-9.31.78-3.23,1.16-6.66,1.19-10.02l.03-4.99v-.48c-.94-.06-1.82.16-2.7.32l-.82-1.15h11.48l1.13-1.25c.12-.1.53-.16.69.03l1.85,1.6c.22.19.12.45-.03.54-.66.26-1.16.54-1.35.96-1.04,2.27-2.01,4.48-2.98,6.78h1.57l1.29-1.18c.16-.13.56-.13.72.06l1.79,1.44c.06.13.03.32-.06.45-.31.32-.85.42-.94.93-1,3.2-2.35,6.24-4.48,8.96.82,1.15,2.04,2.08,3.2,2.85,1.22.83,2.63,1.31,3.98,1.86l-.16.51Zm-17.65-3.84c-.34.64-.75,1.18-1.44.8-.13-.13-.22-.29-.28-.48.09-1.89-.09-3.94-.91-5.54l.56-.29c.88,1.09,1.76,2.11,2.26,3.33.28.67.16,1.54-.19,2.18Zm10.57-11.2l-.85,1.15c-.13.19-.44.1-.5.06-.69-.51-1.35-1.06-2.04-1.6-.13-.19-.03-.45.12-.58.47-.35,1.19-.58,1.38-1.02l2.63-5.95.31-.74h-5.46c-.09,1.86-.12,3.78-.28,5.63.38,3.94,1.44,7.62,3.42,10.94,1.54-2.4,2.57-5.18,3.2-7.9h-1.94Z"/>
      <path class="d" d="m101.2,23.52c-.5-.86-1.13-1.57-1.82-2.27l.38-.42c1.47.61,3.64,1.38,4.04,2.72.25.8-.03,1.73-.75,2.24-.16.16-.44.1-.63.03-.44-.29-.47-.96-.75-1.34-1.38.83-3.01,1.66-4.26,2.69-.66.54-.75,1.22-1.29,1.82-.25.26-.69,0-.88-.22l-1.35-1.73c-.06-.22.09-.45.31-.58.47-.42,1.07-1.31,1.07-1.7v-12.03l-.13-1.38c-1.03,1.28-1.98,2.24-2.95,3.14-.16-.03-.28-.19-.44-.29,3.04-4.22,5.61-8.61,6.52-13.76l.25.06,2.57,1.22c.16.13.19.32.06.48-.44.22-.85.54-.94,1.02,1.63.42,3.26.86,4.67,1.92.75.58.91,1.57.75,2.53-.06.45-.44.99-.91,1.09-.78-.06-.94-.99-1.38-1.47-.91-1.25-1.98-2.62-3.32-3.42h-.12l-.97,1.92c.91.7,2.1,1.41,2.42,2.59.06.74-.28,1.44-.88,1.82-.22.1-.53.22-.75.03-.56-.51-.28-1.22-.41-1.98-.09-.64-.28-1.38-.69-1.92-.78,1.18-1.5,2.37-2.29,3.49.5.35.91.58,1.51.96h3.64l.97-1.15c.19-.19.44-.16.72.06.56.42,1.04.86,1.66,1.47.12.22.03.35-.16.54-.22.26-.78.67-.85.96v5.6l.13,1.98c.03.38-.72.48-1.1.67-.41.16-.63.22-1,.29-.25.06-.25-.19-.25-.42v-.86h-4.11v5.09c0,.64,2.67-.58,3.83-1.22l-.13-.29Zm.41-11.81h-4.08v3.07h4.08v-3.07Zm0,4.03h-4.08v3.23h4.08v-3.23Zm19.22,12.09c-.75-.13-1.69-.26-2.29.32-.34.32-.69.61-.91.99-.75-.48-1.38-1.18-2.07-1.89-.85-.86-1.57-1.86-2.26-2.85-.31.22-.6.7-.97.96-2.51,2.18-5.46,3.49-8.53,4.42-.12-.13-.31-.32-.41-.51,3.26-1.6,6.58-3.74,8.72-6.91-1.5-3.23-2.29-6.91-2.38-10.59h-1.1c-.09,1.09-.12,2.24-.25,3.3-.16,1.44-.25,2.82-.5,4.29-.09.51-.19,1.09-.28,1.47-.53,2.53-1.54,4.45-3.36,6.33-.97,1.06-1.94,1.95-3.04,2.82l-.69-.38c2.23-2.3,4.33-5.25,4.95-8.25.53-2.53.78-5.31.78-7.97v-5.22c0-1.63-.09-3.14-.19-4.7,1.13.35,2.13.9,3.23,1.31,2.57-.83,5.05-1.95,7.28-3.55.88.83,1.79,1.79,2.41,2.72.03.16-.06.26-.16.35-.38,0-1.04-.06-1.38-.13-2.88.74-5.55,1.34-8.69,1.47.03,1.66,0,3.49-.09,5.18h6.3l1.1-1.06c.13-.13.31-.06.38,0,.82.58,1.72,1.22,2.45,1.76.16.16.09.42-.06.51-.38.19-.75.26-1,.67-.53,3.36-1.47,6.69-3.1,9.63,1.82,2.14,4.11,3.74,6.46,4.93l-.34.58Zm-10.16-16.06c.22,2.88,1.13,5.82,2.51,8.35,1.25-2.59,1.76-5.41,2.01-8.35h-4.52Z"/>
      <path class="d" d="m151.72,6.05h-21.67l-.16,7.26c-.09,4.06-.78,8.35-3.1,11.46-1.04,1.38-1.98,2.59-3.14,3.84l-.53-.32c1.6-2.4,2.79-4.74,3.42-7.9.34-1.73.66-3.46.66-4.96V7.33l-.12-4c1.25.58,2.1,1.02,3.35,1.66h8.37c-.41-1.7-1.41-3.14-2.45-4.54l.25-.45c1.57.35,3.17.61,4.36,1.7.66.61.25,1.6,0,2.27l-.72,1.02h6.99l1.38-1.95c.09-.13.5-.16.6,0,.97.77,1.79,1.6,2.7,2.53.16.16.06.48-.19.48Zm-1.47,6.53h-9.75v4.99l4.33.03,1-1.47c.16-.16.47-.13.63,0l2.42,1.79c.6.35-1.16,1.44-1.16,1.66l.03,5.12c0,1.41,0,1.82.06,3.52.03.22-.19.45-.34.54-.47.22-.97.42-1.88.67-.28.1-.53-.13-.53-.29v-2.78h-10.29v1.6c0,.22-.16.45-.47.54-.53.32-1.16.51-1.69.7-.22.06-.47-.1-.47-.32l.09-5.34v-4.61l-.06-2.91,3.23,1.57h2.48l-.03-8.29-.03-3.07c1.29.26,2.26.51,3.48.86.53.16-.82,1.12-.82,1.31l.03,3.1h4.99l1.35-2.08c.09-.19.47-.19.63-.03,1.07.96,1.88,1.7,2.88,2.62.16.13.12.54-.09.54Zm-5.17,6.05h-10.29v6.72h10.29v-6.72Z"/>
      <path class="d" d="m162.95,26.46c.19-.03.44-.19.44-.42v-3.78h-3.67v6.14c0,.45-1.44.99-1.85,1.18-.16,0-.22-.13-.31-.19l-.03-.45.03-4.42.03-10.59-.06-1.38c.85.35,1.41.7,2.26,1.12h3.23l1.07-.99c.22-.26.53.03,1.16.48.31-.58.53-1.28.63-1.98h-8.65c-.03,1.12-.13,2.37-1.19,2.91-.31.16-.72.19-1.1.1-.25-.13-.47-.32-.5-.64-.16-.74.56-.96.97-1.63.53-.9.85-1.7,1.1-2.75h.44c.06.22.09.58.22,1.02h.47V3.49l-.09-2.11c.75.32,1.47.74,2.2,1.12h4.11l.88-.99c.06-.06.31-.06.41,0l1.47,1.25c.12.13.16.35,0,.48-.35.26-.69.42-.69.67v6.3h.22l.5-.83c.09-.19.38-.22.5-.06l.97,1.15v-5.7l-.09-1.79c.85.32,1.66.64,2.45,1.06h1.25V.35c0-.13.13-.29.35-.22.41.16,1.22.61,2.1.96.22.1.22.32.12.42-.25.29-.75.54-.75.86l-.03,1.66h2.04V.42c0-.16.09-.26.41-.19.41.13,1.04.45,1.85.83.16.06.22.26.12.38-.19.19-.6.35-.66.64v1.95h1.57l.69-.99c.06-.1.47-.06.53.03l1.57,1.18c.41.45-.72.74-.72,1.15v6.59c0,.42.09,1.12-.22,1.34-.44.26-.82.58-1.29.7-.38.1-.41-.35-.41-.86v-.32h-9.03c0,.42.03.7-.25.96-.47.19-.78.42-1.29.61-.19.03-.31-.13-.38-.29,0-.83.06-1.54.06-2.37-.31-.06-.56.13-.82.29l-1.38,1.5c.28.29.63.42.41.83-.28.26-.66.26-.75.67l.06,12.03c0,.9-1.72,1.89-2.76,2.18-.06-.42-.13-.7-.53-1.28-.47-.61-1.29-1.15-2.04-1.31l.09-.51,2.57.29Zm1.1-22.97h-4.64v6.72h1.6c0-2.72,0-3.65-.12-5.15.78.29,1.13.45,1.63.77h1.54v-2.33Zm-.6,13.85v-2.66h-3.73l-.03,2.66h3.76Zm-3.76.99v2.94l3.73-.03v-2.88l-3.73-.03Zm2.82-8.13h1.54v-3.39h-1.54v3.39Zm8.37,13.02c1,.58,2.48,1.34,2.38,2.62-.13.48-.38.93-.75,1.31h2.51c.6-1.38.91-2.82,1.13-4.35.47.13.88.38,1.35.51v-.96h-6.65c0,.64-.5.74-1.85,1.28-.19.06-.31-.1-.38-.26,0-2.5.03-4.26.03-6.56,0-.32,1.47.7,2.23,1.09h6.27l.75-1.15c.12-.1.34-.1.47-.03l2.1,1.57c.16.06.09.29.06.35-.25.32-.91.61-.91.8v3.01c0,.38-1.1.77-1.63,1.09.53.19.97.35.78.7-.28.26-.75.16-1,.51-.6.83-1.07,1.54-1.79,2.27l3.32.06,1.04-1.63c.09-.1.25-.13.38-.06l2.32,2.21c.16.22,0,.51-.22.54h-14.05c-.6,0-1,.13-1.79.32l-1.25-1.31h5.83c-.28-.99-.16-1.95-.6-3.01-.09-.19-.25-.45-.31-.64l.22-.29Zm-1.85-7.26c-.44,0-.72.13-1.6.26l-1.22-1.25h13.39l.97-1.44c.13-.1.35-.13.47-.03l1.98,1.95c0,.16.03.32-.09.42l-.19.1h-13.7Zm2.67-10.94h-1.69v2.75h1.69v-2.75Zm0,3.74h-1.69v3.1h1.69v-3.1Zm-.88,12.61h6.68v-2.46h-6.68v2.46Zm4.67-16.35h-1.94v2.75h1.94v-2.75Zm0,3.74h-1.94v3.1h1.94v-3.1Zm3.51-3.74h-1.76v2.75h1.76v-2.75Zm-.03,3.74h-1.72v3.1h1.72v-3.1Z"/>
      <path class="d" d="m186.03,27.81c3.26-2.3,6.27-4.93,8.84-8.06.25-.29,1.16.51,2.85,1.79.12.13.09.35,0,.48-.22.19-.91.03-1.32.32-3.2,2.27-6.46,4.54-10.1,5.95l-.28-.48Zm8.72-2.11c1.76.1,2.79.16,4.3.13.25,0,.56-.35.53-.61.03-2.4-.03-4.54,0-6.85-3.1.13-6.15.58-9.09,1.12-.34-.22-.28-.7-.41-1.09l-.31-1.5c.03-.16.09-.35.28-.32,2.38.1,4.14-1.02,5.77-1.86,2.42-1.28,4.64-2.82,6.99-4.22-3.73.54-7.24.96-10.72,2.02-.12.03-.34-.03-.41-.26l-.6-1.86c-.09-.26.09-.45.34-.51.88-.13,1.79,0,2.54-.51,2.01-1.38,3.83-3.07,5.42-4.93l-7.09.19c-1.38.03-2.79-.06-4.17-.06l-.12-.64c3.42-.26,6.84-.38,10.1-1.02l4.64-.9c2.23-.42,4.45-.99,6.55-1.73.38-.13.75.61,2.29,3.33.09.32-.38.54-.63.45l-1.79-.42-7.9.64-.56.03c.69.45,1.38.83,2.04,1.28.09.13.09.32,0,.48-.31.29-.94.13-1.35.29-2.07,1.47-4.36,2.75-6.46,3.49l3.17-.06,4.77-.26,1.07-.13c.88-.67,1.85-1.66,2.67-2.37.41-.35.94.22,2.95,1.89.25.22.19.42.09.58l-.16.13-1.41.1c-4.17,2.62-8.37,4.93-12.86,6.78l-.94.22,2.16.03,5.02-.1,5.39-.19c-1-.96-2.29-1.98-3.17-2.33l.19-.51c2.23.45,4.67,1.25,6.49,2.5.69.45,1.22,1.12,1.25,1.98,0,.64-.16,1.38-.38,1.82-.25.29-.63.51-.94.26-.88-.9-1.51-1.86-2.35-2.72l-5.61.58-.06.19v6.53c0,1.86,0,2.85-.75,3.62-.88.74-1.94,1.06-3.04,1.41-.34.06-.28-2.02-1.5-2.75-.69-.45-1.41-.58-2.23-.77v-.58Zm8.91-5.44c2.73.7,5.58,1.63,7.71,3.55.82.9.97,2.18.47,3.36-.16.26-.28.61-.6.67-1.19.13-1.41-.96-2.1-1.89-1.6-2.08-3.51-3.97-5.74-5.18l.25-.51Z"/>
      <path class="d" d="m266.34,22.11c.35-.32.56-.19.78,0,.82.83,1.79,1.57,3.04,2.98.28.32-.06.64-.28.64h-25.37c-.78,0-1.16.1-2.16.29l-1-1.44h22.95l2.04-2.46Zm-1.35-19.58c.34-.29.56-.16.82.03,1.25.93,1.69,1.44,2.85,2.62.28.29.03.58-.22.58h-22.33c-.78,0-1.16.1-2.13.29l-1.03-1.44h20.38l1.66-2.08Zm-2.42,9.21c.34-.29.56-.16.82.03,1,.86,1.66,1.44,2.85,2.62.28.29,0,.61-.22.61h-17.5c-.82,0-1.19.1-2.16.26l-1.04-1.41h15.58l1.66-2.11Z"/>
      <path class="d" d="m288.64,28.48c0,.16-.06.32-.22.42-.91.45-1.54.7-2.42.83-.16,0-.34-.13-.41-.32l.16-8.64v-7.68h-9.06c-.56,0-1.32.1-2.35.29l-.75-1.28h12.17V3.14l-.22-3.01c1.41.42,2.79.83,4.14,1.38.19.06.19.35.03.51-.38.35-1.16.86-1.16,1.15v8.93h8.03l1.69-2.4c.09-.13.34-.16.53-.03,1.07.86,2.1,1.76,3.1,2.91.09.13.03.29-.03.42l-.16.1h-13.2v8.83l.12,6.56Z"/>
      <path class="d" d="m332.63,20l-11.73-.03v3.71l.12,4.7c0,.48-.19.61-.56.74l-2.04.67c-.22,0-.31-.16-.34-.32l.09-6.08v-3.42h-10.22c-.75,0-1.63.1-2.73.45l-.82-1.47,5.61-.03v-7.14l-.06-.93c1.19.38,2.19.83,3.32,1.22h4.89v-5.44h-6.46c-2.04,3.17-4.48,6.21-7.4,8.74l-.5-.51c3.36-4.54,6.12-9.31,7.56-14.69l.19.03,3.14,1.6c.25.13.47.38.28.64-.41.45-1.22.22-1.44.96l-1.29,2.18h13.77l1.6-2.27c.16-.19.5-.22.75-.06,1,.83,1.88,1.79,2.85,2.72.16.13.22.38,0,.58l-.19.1h-10.16l.03,5.44h3.67l1.5-1.89c.12-.13.53-.16.66-.03.91.74,1.76,1.6,2.57,2.43.19.26.06.54-.25.54h-8.12v5.82h7.15l1.57-2.14c.16-.16.41-.16.6,0,1,.83,1.72,1.47,2.7,2.46.34.32-.06.74-.31.74Zm-14.46-6.88h-5.46v5.82h5.46v-5.82Z"/>
      <path class="d" d="m342.07,26.14l-4.74,1.82c-.41.54-.97.58-1.1.22-.47-1.25-.6-1.79-.88-2.69l2.23-.45.06-8.32-.09-2.43c1,.35,2.01.64,3.01,1.02.12.1.12.26.06.42-.28.22-.88.64-.88.83v8.19l1.91-.35v-9.82l-.06-2.82c1.04.32,2.01.74,2.98,1.18.09.1.12.26.06.38-.25.29-.85.48-.85.7l.03,3.62h.5l.97-1.66c.09-.19.38-.26.53-.06l1.72,2.11c.12.19.03.54-.19.54h-3.57v5.41c1.88-.32,3.48-.67,5.21-1.06l.13.51-7.06,2.69Zm5.52-21.79c-.6.51-.88.61-.88.83,0,1.09,0,2.11.03,3.14,0,.9.03,1.92.06,2.85,0,.22-.22.42-.34.48-.5.29-.97.42-1.63.7-.25.06-.44-.06-.5-.26v-.96l-3.86-.03v.7c0,.19-.09.35-.25.48-.47.32-1.07.54-1.72.77-.16,0-.28-.1-.34-.26l.06-3.17v-4.9c0-.48-.06-1.86-.09-2.53.88.38,1.91,1.06,2.63,1.44h3.32l1-1.38c.09-.16.35-.19.5-.03l2.04,1.63c.06.16.09.38-.03.48Zm-3.23.22h-3.86v5.63h3.86v-5.63Zm20.26,9.92c-1.38-.1-3.01.13-3.95,1.22-1.04-.74-1.91-1.79-2.7-2.78-1.47-1.82-2.13-3.97-2.6-6.24h-2.26c-1.32,3.01-3.17,5.92-5.86,8.03l-1.07.83-.47-.35c1.88-2.21,3.39-4.7,4.48-7.17.25-.58.41-.96.5-1.34h-1.5c-.28,0-.97.1-1.54.26l-.75-1.18,4.08.03c.56-1.89.94-3.81,1.22-5.79,1.19.48,2.38.96,3.54,1.54.12.1.12.29.06.42-.63.35-1.13.64-1.19.9-.53,1.28-.72,1.82-1.22,2.91h5.55l1.41-1.95c.09-.1.34-.1.47,0,.91.9,1.47,1.47,2.32,2.37.16.22.16.51-.12.51h-6.77c.41,1.22,1.07,2.4,2.01,3.46,1.76,1.98,4.08,3.04,6.43,3.84l-.06.51Zm-4.05,6.53c-.44.32-.81.54-.81.7-.38,1.92-.72,3.84-1.35,5.66-.6,1.76-2.54,2.05-4.01,2.46-.22-2.18-2.63-2.72-4.17-3.39l.13-.54c1.63.26,3.29.67,5.02.77.82-.13.82-.99,1-1.6.41-1.28.72-2.82.97-4.13h-5.58c-.47.45-.63.61-1.07,1.12-.09.13-.44.22-.56.06l-1.94-1.47c-.09-.1-.09-.29,0-.38.56-.45,1.38-.67,1.63-1.44.25-.67.56-1.38.72-2.05h-1.63c-.22,0-.91.16-1.38.29l-.72-1.22,9.97.03,1.1-1.47c.06-.13.44-.13.56.03.82.8,1.22,1.22,1.94,1.92.16.19.09.42-.09.42h-7.31l-1.25,3.23h5.27l.97-1.31c.09-.13.53-.16.66,0,.88.74,1.19.96,2.01,1.76.19.16.12.42-.06.54Zm-3.67-7.84h-4.61c-.6,0-.97.06-1.69.22l-.56-1.12h3.54l1.16-1.31c.09-.16.41-.16.6,0,.66.64.94.93,1.69,1.76.16.22,0,.42-.12.45Z"/>
      <path class="d" d="m393.6,4.03v20.99l.13,2.94c0,.35-.06.7-.28.8l-1.47.58c-.13.06-.56.26-.72.06-.06-.1-.12-.58-.12-1.22v-1.5h-19.03l.03,1.41c0,.35-.22.64-.44.7l-1.76.99c-.16-.03-.38,0-.41-.19l.06-4.35V6.53c0-1.76-.03-3.81-.16-5.5,1,.42,1.98.83,2.92,1.34h18.22l1.32-1.38c.09-.13.47-.1.63,0,.82.61,1.1.9,1.82,1.63.34.51-.72.67-.72,1.41Zm-2.79,4.86h-6.4c0,2.34.16,4.8.56,7.04l.06.22c1.07-1.73,1.79-3.84,2.07-5.92,1.03.32,1.82.61,2.88,1.15l.25.13c.12.13.12.38-.09.45-.41.19-.63.35-.94.74-.88,2.08-2.04,4-3.45,5.86l.31.77c.44.67.94,1.7,1.79,1.92.41,0,.56-.38.75-.67.28-.8.53-1.66,1-3.52.19.03.38.13.56.19-.22,2.37-.44,3.81-.25,5.89,0,.61.31,1.12.31,1.73,0,.29-.25.48-.63.35-2.19-.8-4.45-2.43-5.61-4.64-2.13,1.86-4.39,3.36-6.74,4.51l-.41-.51c2.38-1.63,4.61-3.52,6.4-5.92-1-3.07-1.16-6.4-1.22-9.76h-5.9c-1.03,0-1.69.1-2.7.32l-.91-1.25h9.5c-.03-1.25,0-2.91-.19-4.26,1.04.22,2.07.42,3.04.74l.25.19c.25.61-.75.86-.75,1.22l.03,2.14h2.98l1.03-1.5c.16-.22.38-.22.6-.1.78.74,1.13.99,2.07,1.98V3.26h-18.97v22.49h18.97v-2.85l.03-14.01h-.31Zm-13.73,12.35c-1.25.58-1.66.8-2.6,1.31-.25.51-.69.67-1,.06-.25-.51-.69-1.57-1-2.37,3.29-.42,6.52-1.02,9.69-1.79l.16.45-5.24,2.34Zm3.54-8.51c0,1.34,0,2.91.03,4.61,0,.29-.53.54-.88.77-.47.29-1.29.61-1.29.26v-1.31h-2.04v.86c.03.29-1.32.7-1.94.99-.16-.03-.35-.13-.35-.35.06-3.1.03-5.6-.09-8.7.88.38,1.79.8,2.6,1.31h1.47l.91-1.22c.03-.1.38-.13.47-.03l1.76,1.31c.53.38-.66.99-.66,1.5Zm-2.13-.67h-2.07v4.06h2.07v-4.06Zm8.15-4.54c-1.19.03-.6-1.31-.88-1.98-.09-.54-.31-1.06-.53-1.54.16-.06.31-.45.53-.22.82.38,1.94.99,2.01,2.02.06.74-.6,1.6-1.13,1.73Z"/>
      <path class="d" d="m411.72,19.52v-.64l-.09-1.73,3.45.9c.5.7-.63.64-.75,1.18.03.1-.06.19,0,.32l7.71-.03,1.5-1.82c.09-.1.47-.16.63,0,1.25.96,1.79,1.44,2.76,2.21.12.16.19.38.03.54l-.19.06h-11.07c3.17,3.23,7.43,4.54,11.85,5.15l-.09.38c-1.13.22-2.48.51-3.2,1.6-.25.29-.44.58-.66.9l-.19-.03c-3.39-1.73-7.02-4.42-8.81-8l-.31.03v4.96c0,1.02.16,2.14.12,3.26-.12.32-.47.42-.75.54l-1.54.61c-.22.03-.41-.06-.47-.26.03-2.53.13-5.15.06-7.78-1.85,1.63-3.86,3.14-6.02,4.22-2.13,1.09-4.42,1.89-6.77,2.5l-.31-.54c3.92-1.73,7.78-3.87,10.6-7.46l-7.53-.1c-.72.13-1.47.16-2.16.35l-.78-1.34h12.98Zm9.06-3.42l1.32-1.89c.06-.1.41-.16.56,0,.94.77,1.88,1.47,2.76,2.34,0,.13.13.29,0,.38l-.16.1h-18.34c-.03.35.12.83-.22,1.09-.69.32-1.38.61-2.13.77-.19,0-.28-.19-.35-.35l.16-2.98.03-7.49h-.16c-1.38,1.54-3.29,3.23-5.14,4.48l-.47-.42c.97-1.02,1.57-1.7,2.32-2.62,2.41-2.91,4.42-5.89,5.77-9.34,1.04.38,1.98,1.02,2.98,1.54.19.13.09.32-.03.45-.44.16-.97.29-1.25.77-.44.67-1.04,1.38-1.54,1.98h6.99c-.34-1.6-.91-3.17-2.01-4.35l.31-.42c1.19.29,2.35.61,3.39,1.18.56.38,1.04,1.02.88,1.79-.25.7-.78,1.34-1.38,1.76l5.11.06,1.47-1.89c.13-.13.47-.1.6,0,.94.74,1.85,1.47,2.7,2.34.06.22-.03.48-.28.54h-9.81v2.53h4.51l1.25-1.6c.06-.1.31-.13.5.03.85.58,1.63,1.25,2.42,1.95.09.16.09.29,0,.45l-.16.13h-8.56v2.66h4.67l1.22-1.54c.12-.26.44-.19.6-.06.91.7,1.69,1.25,2.57,2.05.06.1.12.29,0,.38l-.25.16h-8.81v3.04h5.96Zm-8.4-10.24h-5.49v2.56h5.49v-2.56Zm0,3.52h-5.49v2.72h5.49v-2.72Zm0,3.62h-5.49v3.07h5.49v-3.07Z"/>
      <path class="d" d="m456.13,27.17c-.03.32.03.77-.16,1.06-.69.58-1.44.64-2.23.99-.22,0-.38-.19-.41-.38v-2.05h-18.28c0,1.44.03,1.63-.31,1.86-.63.38-1.32.58-1.98.93-.22,0-.38-.1-.44-.29l.16-5.95v-5.66l.03-6.94-.03-7.52-.16-2.21h.22l2.88,1.34h17.75l.97-1.09c.12-.16.34-.13.53,0,.6.38,1.41.9,2.01,1.38.19.13.19.35.06.58-.31.32-.56.54-.78.96l.06,17.95.09,5.06Zm-18.28-8.64c-.16.26-.44.35-.6.19l-.19-.29c-.38-.7-.53-1.12-.78-1.76l6.71-.26v-2.24h-2.98v.61c0,.13-.09.16-.16.22l-1.5.7c-.16.1-.53.16-.63-.16.09-2.91.16-5.66-.12-8.61.85.22,1.66.67,2.48.99l2.95.03-.03-1.54h-4.39c-.69.06-1.22.1-1.88.26l-.6-1.18,6.87-.03c-.03-.74,0-1.34-.09-1.98,1,.16,1.85.32,2.85.54.22.03.41.19.41.42-.03.16-.28.35-.5.38-.19.16-.34.26-.34.67h3.76l1.04-1.6c.06-.19.34-.13.5-.03.85.67,1.38,1.28,2.13,2.08.19.22,0,.48-.22.48h-7.31v1.54h3.45l.69-.9c.12-.19.34-.1.5-.03l1.82,1.18c.19.13.22.42.03.61-.41.29-.82.51-.82.74.03,1.5-.03,3.14.06,4.64.03.1-.16.29-.22.32-.16.13-.97.58-1.5.58.88.32,1.76.74,2.19,1.63.16.45.03.93-.22,1.28.41.03.97.61,1.35.99.41.38.72.67.78.9l.06-5.47.03-10.91-.03-.26h-17.43l-.91.03v22.49h11.16c-.16-1.28-1.32-2.27-2.45-2.56.03-.19.06-.38.06-.58l2.07.32c.53.1,1.07.06,1.07-.29v-2.37h-5.93c.88.51,2.13,1.28,2.45,2.37.09.8-.41,1.47-1,1.89-.19,0-.44.06-.53-.19-.53-1.44-1.07-2.82-2.07-4.06h-1.82c-.6,0-1.44.22-2.13.35l-.66-1.28h11.7c0-.74-.06-1.41-.09-2.05.94.13,1.79.42,2.67.67.19.06.44.19.38.38-.09.22-.47.35-.63.54v.45h.82l.85-1.15c-.19,0-.38,0-.53-.13l-1.1-1.25c-1.16.16-2.38.32-3.42.48l-5.11.77-2.95.42Zm2.1-7.93h3.07v-1.7l-3.07.03v1.66Zm3.07.96h-3.01v1.66h2.98l.03-1.66Zm2.23,0v1.66h3.45v-1.66h-3.45Zm.03-2.66v1.7h3.45v-1.7h-3.45Zm0,7.39l3.2-.16c-.44-.42-.91-.67-1.41-.99l.12-.45c.72.13,1.19.26,1.6.32-.09-.19-.06-.38-.06-.83h-3.45v2.11Zm3.98,7.14c0,1.12-1.6,1.82-2.54,2.3l6.65.06v-5.47h-4.11v3.1Z"/>
    </g>
    <rect class="d" x="210.85" y="71.67" width="34.5" height="1"/>
  </g>
</svg>