<?xml version="1.0" encoding="UTF-8"?>
<svg id="b" data-name="圖層 2" xmlns="http://www.w3.org/2000/svg" viewBox="0 0 331.01 232.07">
  <defs>
    <style>
      .d {
        fill: #ff4214;
        stroke-width: 0px;
      }
    </style>
  </defs>
  <g id="c" data-name="圖層 1">
    <path class="d" d="m137.61.23h1.78l4.03,7.95h.09l3.95-7.95h1.75v10.36h-1.75V2.1h-.05l-4.25,8.49h-.36l-4.29-8.42h-.12v8.42h-.78V.23Zm21.67-.23l4.88,10.59h-1.77l-1.58-3.45h-4.45l-1.63,3.45h-.88l4.99-10.59h.44Zm-2.62,6.47h3.82l-1.88-4.1-1.94,4.1ZM168.79.23h1.74v4.59l5.45-4.59h1.13l-5.17,4.36,6.56,6h-2.22l-5.76-5.26v5.26h-1.74V.23Zm21.55,0v.67h-5.46v3.7h3.66v.67h-3.66v4.64h5.46v.67h-7.2V.23h7.2ZM21.37,32.75v1.55h-8.67v22.4h-4.03v-22.4H0v-1.55h21.37Zm17.02-.54l11.27,24.5h-4.1l-3.65-7.99h-10.28l-3.78,7.99h-2.02l11.54-24.5h1.01Zm-6.05,14.96h8.83l-4.35-9.48-4.48,9.48Zm24.35-14.42h4.03v23.96h-4.03v-23.96Zm18.04,12.07c0,1.67.25,3.18.76,4.51.51,1.33,1.2,2.46,2.09,3.38.88.92,1.93,1.63,3.13,2.11,1.2.49,2.51.73,3.92.73.84,0,1.66-.16,2.44-.49.78-.33,1.51-.75,2.18-1.27.67-.52,1.27-1.11,1.8-1.77.53-.66.96-1.32,1.3-2l1.7,1.08c-.49.81-1.08,1.58-1.75,2.32-.67.74-1.45,1.4-2.34,1.97-.88.57-1.88,1.03-3,1.36-1.11.34-2.36.51-3.73.51-1.99,0-3.79-.33-5.41-.99-1.62-.66-3.01-1.56-4.16-2.69s-2.05-2.45-2.68-3.97c-.63-1.51-.95-3.11-.95-4.8,0-1.12.14-2.21.43-3.28s.71-2.07,1.26-3c.55-.93,1.22-1.79,2.01-2.57.79-.78,1.68-1.45,2.67-2.01.99-.56,2.08-.99,3.26-1.3,1.18-.31,2.44-.46,3.78-.46s2.45.17,3.53.51c1.08.34,2.06.8,2.95,1.36.88.57,1.67,1.22,2.37,1.96.69.74,1.29,1.51,1.78,2.32l-1.75,1.16c-1-1.94-2.12-3.36-3.36-4.25-1.24-.9-2.67-1.35-4.28-1.35-1.39,0-2.68.25-3.88.76-1.2.51-2.26,1.23-3.15,2.17-.9.94-1.6,2.08-2.11,3.42-.51,1.34-.77,2.86-.77,4.54Zm32.64.4v11.49h-4.03v-23.96h4.03v10.91h12.03v-10.91h4.03v23.96h-4.03v-11.49h-12.03Zm25.92-12.47h4.03v15.56c0,1.02.17,1.98.52,2.88.35.9.85,1.68,1.5,2.36s1.44,1.21,2.36,1.6c.92.39,1.95.59,3.08.59s2.17-.2,3.09-.59c.92-.39,1.7-.92,2.34-1.6.64-.67,1.14-1.46,1.48-2.36.34-.9.52-1.86.52-2.88v-15.56h1.77v15.56c0,1.23-.2,2.38-.6,3.47s-1.02,2.03-1.87,2.85c-.85.81-1.94,1.46-3.26,1.93-1.33.48-2.92.71-4.77.71-1.65,0-3.11-.24-4.38-.71-1.27-.48-2.34-1.12-3.2-1.94-.86-.82-1.51-1.78-1.95-2.88-.44-1.1-.66-2.28-.66-3.53v-15.45Zm30.51,0h2.26l15.7,17.52h.18v-17.52h1.77v24.52h-.94l-17.02-19.48h-.15v18.92h-1.81v-23.96Zm43.73,1.17c-1.45,0-2.78.26-4,.77-1.22.51-2.28,1.25-3.16,2.2-.89.96-1.58,2.11-2.07,3.47-.49,1.35-.74,2.87-.74,4.54s.27,3.21.8,4.56c.54,1.35,1.27,2.51,2.2,3.46.93.95,2.03,1.68,3.3,2.19,1.26.51,2.62.77,4.06.77,1.05,0,1.99-.14,2.84-.42.84-.28,1.6-.69,2.28-1.22v-8.4h-4.53v-1.43h8.56v10.53c-.7.37-1.4.7-2.11.99-.71.29-1.48.53-2.3.72-.83.19-1.73.34-2.72.44-.99.1-2.11.15-3.36.15-1.33,0-2.58-.15-3.78-.44s-2.3-.71-3.32-1.26c-1.02-.54-1.94-1.19-2.75-1.94-.82-.75-1.51-1.59-2.09-2.5-.57-.92-1.01-1.9-1.33-2.94-.31-1.05-.47-2.14-.47-3.27s.15-2.21.44-3.28c.29-1.07.72-2.07,1.27-3.02.55-.95,1.23-1.81,2.02-2.59s1.69-1.46,2.69-2.02c1-.57,2.09-1.01,3.27-1.32,1.18-.31,2.43-.47,3.76-.47s2.44.17,3.51.51c1.08.34,2.06.8,2.95,1.36.88.57,1.67,1.22,2.36,1.96s1.28,1.51,1.77,2.32l-1.73,1.16c-1.01-1.94-2.13-3.36-3.37-4.25-1.23-.9-2.65-1.35-4.25-1.35Zm34.46,10.89c0,1.67.25,3.18.76,4.51.51,1.33,1.2,2.46,2.09,3.38.88.92,1.93,1.63,3.13,2.11,1.2.49,2.51.73,3.92.73.84,0,1.66-.16,2.44-.49.78-.33,1.51-.75,2.18-1.27.67-.52,1.27-1.11,1.8-1.77.53-.66.96-1.32,1.3-2l1.7,1.08c-.49.81-1.08,1.58-1.75,2.32-.67.74-1.45,1.4-2.34,1.97-.88.57-1.88,1.03-3,1.36-1.11.34-2.36.51-3.73.51-1.99,0-3.79-.33-5.41-.99-1.62-.66-3.01-1.56-4.16-2.69s-2.05-2.45-2.68-3.97c-.63-1.51-.95-3.11-.95-4.8,0-1.12.14-2.21.43-3.28s.71-2.07,1.26-3c.55-.93,1.22-1.79,2.01-2.57.79-.78,1.68-1.45,2.67-2.01.99-.56,2.08-.99,3.26-1.3,1.18-.31,2.44-.46,3.78-.46s2.45.17,3.53.51c1.08.34,2.06.8,2.95,1.36.88.57,1.67,1.22,2.37,1.96.69.74,1.29,1.51,1.78,2.32l-1.75,1.16c-1-1.94-2.12-3.36-3.36-4.25-1.24-.9-2.67-1.35-4.28-1.35-1.39,0-2.68.25-3.88.76-1.2.51-2.26,1.23-3.15,2.17-.9.94-1.6,2.08-2.11,3.42-.51,1.34-.77,2.86-.77,4.54Zm28.61-12.07h4.03v23.96h-4.03v-23.96Zm33.08,0v1.55h-8.67v22.4h-4.03v-22.4h-8.67v-1.55h21.37Zm8.54,0l8.31,12.14,8.27-12.14h2.19l-9.29,13.6v10.35h-4.03v-9.97l-9.58-13.98h4.12Zm-181.32,45.99c-.62,0-1.2.11-1.73.33-.53.22-.98.54-1.37.95s-.68.91-.89,1.5c-.21.59-.32,1.24-.32,1.96s.12,1.39.35,1.97c.23.59.55,1.08.95,1.5.4.41.88.73,1.43.95s1.13.33,1.76.33c.45,0,.86-.06,1.23-.18.36-.12.69-.3.98-.53v-3.63h-1.96v-.62h3.7v4.55c-.3.16-.61.3-.91.43-.31.12-.64.23-1,.31-.36.08-.75.15-1.18.19-.43.04-.91.07-1.45.07-.57,0-1.12-.06-1.63-.19s-.99-.31-1.43-.54c-.44-.23-.84-.51-1.19-.84-.35-.33-.66-.69-.9-1.08-.25-.4-.44-.82-.57-1.27-.14-.45-.2-.92-.2-1.41s.06-.96.19-1.42c.13-.46.31-.9.55-1.3.24-.41.53-.78.88-1.12s.73-.63,1.16-.88c.43-.24.9-.44,1.41-.57.51-.14,1.05-.2,1.62-.2s1.05.07,1.52.22c.47.15.89.35,1.27.59s.72.53,1.02.85.55.65.77,1l-.75.5c-.44-.84-.92-1.45-1.46-1.84-.53-.39-1.15-.58-1.84-.58Zm9.98-.51h1.74v9.69h5.22v.67h-6.96v-10.36Zm16.97,10.6c-.8,0-1.55-.14-2.25-.43-.7-.29-1.3-.68-1.81-1.18-.51-.5-.92-1.08-1.21-1.74-.29-.66-.44-1.37-.44-2.13,0-.49.07-.97.2-1.43s.32-.89.57-1.28c.24-.4.54-.76.89-1.08.35-.33.73-.6,1.15-.84s.88-.41,1.37-.54c.49-.13,1-.19,1.54-.19s1.05.06,1.54.19c.49.13.95.31,1.37.54.42.23.81.51,1.15.84s.64.69.89,1.08c.25.4.44.82.57,1.28s.2.94.2,1.43-.07.98-.2,1.45-.32.9-.57,1.31c-.25.41-.54.78-.89,1.11s-.73.62-1.15.86c-.42.24-.88.42-1.37.55-.49.13-1,.2-1.54.2Zm0-.51c.59,0,1.12-.12,1.57-.37.46-.25.84-.59,1.15-1.04.31-.44.55-.97.71-1.57.16-.6.24-1.27.24-1.99s-.08-1.37-.24-1.96c-.16-.59-.39-1.11-.71-1.54-.31-.43-.7-.76-1.15-1-.46-.24-.98-.36-1.57-.36s-1.13.12-1.59.36c-.46.24-.84.57-1.15,1-.31.43-.54.94-.7,1.54s-.23,1.25-.23,1.96.08,1.38.23,1.99.39,1.13.7,1.57c.31.44.69.79,1.15,1.04.46.25.99.37,1.59.37Zm11.26-10.09h4.17c.55,0,1.06.06,1.52.18s.86.3,1.19.52c.33.22.59.49.77.8.18.31.27.66.27,1.03,0,.29-.03.54-.09.77-.06.22-.16.43-.3.62-.15.19-.34.37-.58.54s-.55.34-.92.52v.03c.37.06.7.16,1,.3s.55.32.76.54.37.47.49.76c.11.29.17.61.17.95,0,.39-.08.76-.25,1.1-.17.34-.41.64-.73.89-.32.25-.7.45-1.14.6s-.94.22-1.5.22h-4.84v-10.36Zm1.74,4.66h2.22c.35,0,.66-.05.93-.15.27-.1.5-.24.69-.41s.33-.38.43-.62c.1-.24.14-.5.14-.79,0-.3-.06-.58-.17-.82-.11-.25-.29-.46-.54-.64s-.55-.31-.92-.41c-.37-.09-.82-.14-1.34-.14h-1.44v3.98Zm0,4.94h1.88c.5,0,.94-.05,1.32-.14.37-.1.68-.23.92-.41s.42-.38.54-.63.18-.51.18-.8c0-.33-.05-.63-.16-.91-.1-.28-.27-.52-.51-.73-.24-.21-.55-.37-.93-.49s-.85-.18-1.41-.18h-1.83v4.3Zm16.09-9.84l4.88,10.59h-1.77l-1.58-3.45h-4.45l-1.63,3.45h-.88l4.99-10.59h.44Zm-2.62,6.47h3.82l-1.88-4.1-1.94,4.1Zm12.13-6.23h1.74v9.69h5.22v.67h-6.96v-10.36ZM67.05,212.8c.09-.07.22-.02.31.05.67.57,1.25,1.13,1.76,1.89.02.11-.09.25-.2.25h-4.15v2.25c0,.53.47.46,1.72.46.36,0,.62-.25.89-.53.16-.23.51.16.78.51.29.34.8.8.54,1.13-.27.39-.76.48-1.21.48-1.94,0-3.5.09-4.17-.62-.4-.6-.22-1.26-.22-2.18v-1.49h-1.63c-.02,1.33.02,2.69.02,4,0,.3-.51.48-.8.62-.31.16-.65.28-.85.16l-.07-.11v-1.33h-2.25v.78c0,.14-.07.28-.18.35-.33.25-.83.53-1.36.6-.25.05-.16-.51-.16-.97v-4.09h-1.43c-.13,1.52-.69,2.99-2.1,3.77-.96.53-1.92.99-2.92,1.33l-.31-.32c1.05-.69,1.87-1.29,2.81-2.35l.09-.07c.56-.67.71-1.52.83-2.37l-1.7.02c-.36,0-.74.09-1.07.16l-.62-.94h3.44c0-1.36-.02-2.48-.16-3.7.83.21,1.65.41,2.43.78.11.02.16.21.09.32-.2.3-.62.25-.71.62,0,.69,0,1.33-.04,1.98h1.38l-.02-3.59c.8.23,1.58.48,2.25.78.27.16.11.37-.07.51-.2.14-.47.3-.47.55v1.75h2.3c-.04-1.13-.04-2.3-.09-3.5.78.21,1.63.44,2.37.76.09.07.13.16.07.3-.18.23-.69.48-.69.62v1.82h1.65v-3.38c.78.16,1.45.41,2.16.71.11.07.16.23.09.34-.25.28-.62.6-.62.94v1.38h1.29l1-1.42Zm-7.09,16c0,.64.04,1.22.07,2.07.02.35-1.07.9-1.74,1.06-.13,0-.27-.07-.29-.18l.07-3.33v-4.16h-3.64l.02,4.14c0,.51.11,1.2-.07,1.33-.47.37-1.03.6-1.47.71-.13.07-.27-.05-.29-.18v-6.19l-.02-1.54c.71.21,1.43.6,2.1.97h3.35c0-1.15.02-1.54-.02-2.3.83.16,1.61.44,2.41.69.09.07.2.14.2.25-.02.44-.62.37-.67.78v.58h3.86l.62-.76c.18-.23.4-.02.94.3.31-.71.49-1.38.74-2.05h-13.74c-.07,1.22-.4,2.58-1.61,3.06-.42.09-1.03.25-1.38-.14-.18-.21-.27-.44-.27-.69.22-.8,1.09-.99,1.58-1.56.67-.64,1.03-1.38,1.2-2.25l.4.05c.07.25.09.51.07.78h13.54l.74-.55c.13-.07.27-.14.45.02.69.41,1.18.85,1.78,1.4.07.07.09.28-.04.37-.2.09-.56.18-.92.32l-.45.23-1.67,1.33c.56.39.87.57.62.8-.29.3-.47.37-.8.69v3.77c0,1.03-1.63,1.45-2.61,1.72-.02-.85-.67-1.56-1.38-1.89l-1-.3.07-.44,2.77.28c.18-.02.33-.12.38-.28.07-1.17.02-2.28.04-3.47h-3.93v4.55Zm-.16-13.82h-2.28v2.58h2.28v-2.58Zm31.23,3.93h-5v5.08c0,.83.07,1.66.09,2.46.02.12-.09.23-.18.3-.65.37-1.05.6-1.49.62-.36-.02-.31-.28-.31-1.08v-.71h-3.46v1.22c0,.21-.02.34-.27.44-.42.16-1.29.62-1.54.51l-.13-.16.11-4.42v-4.25h-2.94v10.92h10.93l1.27-1.72c.09-.07.25-.05.33.02.78.64,1.41,1.2,2.05,2,.13.16.07.39-.11.39l-14.32-.02c-.11,0-.4.53-.78,1.15-.2.16-.71-.21-1-.39-.6-.39-.74-.55-1.14-.9-.11-.21.45-.74.67-1.13.09-.16.13-.28.13-.58v-9.75h-1.43c-.45,0-1.03.16-1.45.28l-.58-.94h3.44v-3.59l-.09-1.89c1,.18,1.96.44,2.68.69.16.09.11.35.04.44-.25.25-.67.55-.67.69v3.66h2.97v-5.04l-.11-2.28c.92.16,1.83.32,2.61.69.09.11.11.3.02.37-.2.25-.74.46-.74.62v5.63h3.5v-4.97l-.11-2.41c.94.14,1.96.48,2.57.71.13.09.22.32.09.44-.25.21-.56.21-.67.58l.02,5.66h1.83l1.07-1.7c.11-.12.31-.09.45.02.33.34,1.41,1.4,1.83,1.86.16.18.09.48-.18.48Zm-6.89,0h-3.46v6h3.46v-6Zm10.06,12.79c1.79-.92,3.93-2.39,4.48-4.35.31-1.08.36-2.23.27-3.43l-.11.02c-1.92,1.22-3.97,2.02-6.13,2.64-.04-.14-.16-.23-.22-.37,1.18-.62,2.48-1.33,3.66-2.12,1.76-1.17,3.61-2.74,4.91-4.53h-3.57v1.1c0,.3-.2.46-.94.71l-.69.23c-.11.02-.31-.02-.29-.18l.07-3.7v-2.83c0-1.15-.09-2.42-.16-3.56.76.3,1.36.64,2.1,1.04h9.84l.96-.99c.2-.21.42.05,1.74,1.04.27.18.02.44-.54,1.08l-.04.11v4.55l.09,2.07c.02.37-.47.55-1.2.78-.25.07-.42.12-.54.05-.13-.14-.16-.23-.16-.53v-.97h-4.28c2.14,2.53,5.09,3.72,8.21,4.14l1.38.18v.34c-.98.14-1.94.62-2.43,1.52-1.27-.41-2.63-.94-3.79-1.63-.11.09-.2.16-.29.32l.02,4.25.09,2.28c.02.3-.45.44-.69.58-.33.16-.67.3-1.03.39-.13,0-.22-.14-.27-.25.09-3.01.09-5.47-.09-8.44.49.02.94.14,1.34.23-1.05-.94-2.1-2.02-2.88-3.27l-.09.05c-.89,1.06-1.92,2.05-2.99,2.92l1.47.48c.11.07.11.21.04.3-.2.28-.67.25-.69.67-.07.78-.09,1.45-.22,2.53-.16,1.31-.98,2.58-2.21,3.17-1.2.78-2.54,1.24-3.9,1.63l-.22-.28Zm3.24-18.63v2.48h4.08v-2.48h-4.08Zm.04,3.17v2.62l4.06.02v-2.64h-4.06Zm5.87-3.17v2.48h4.35v-2.48h-4.35Zm4.37,3.17h-4.37v2.64l4.37-.02v-2.62Zm25.9-2.71c-.38.32-1.14.78-1.14,1.06v7.13l.02,5.91.04,2.42c-.02.23-.18.34-.45.46l-.96.39c-.11.05-.31.09-.4-.02-.07-.09-.13-.39-.13-.71v-1.77l-12.2-.02v1.63c0,.3-.62.67-.94.8-.62.3-.96.3-1.03.14l-.04-.34.09-3.7.02-5.2-.02-7.82c0-.69-.07-1.47-.04-2.18.92.35,1.83.8,2.68,1.24h11.02l1.12-1.06c.22-.21.38-.12.65.05.54.32,1.2.78,1.72,1.2.04.09.11.23.07.28l-.07.14Zm-3.01.14h-12.27l.02,6.05v7.93l12.25-.02v-13.96Zm-2.52,4.71v5.68c0,.14-.07.32-.33.44-.49.21-.8.32-1.21.41-.25.02-.29-.09-.29-.37v-.9l-3.52-.02.02,1.1c0,.32-1,.64-1.58.85-.16.05-.36-.02-.36-.18l.07-4.71-.07-4.32c.65.25,1.23.51,1.85.78l.2.09h3.21l.76-.92c.09-.12.25-.12.36-.02.69.46,1.05.71,1.65,1.15.07.09.07.23,0,.3-.25.25-.76.41-.76.64Zm-1.83-.41h-3.55v4.94h3.55v-4.94Zm30.45,10.46c-1.09.05-2.19.28-2.88,1.24-2.7-1.77-4.08-4.76-4.42-7.89-.56.18-.92.25-1.34.39.8,2.12.8,4.76.31,6.83-.29,1.26-1.25,2.67-2.54,2.9l-.38.07c-.09-1.15-1.16-2.05-2.19-2.35l-.62-.18.07-.51c.94.18,1.9.32,2.86.35,1.05.05,1-1.08,1.16-2.37.11-.78.18-1.47.13-2.28h-.11c-3.08,2.58-6.51,4.42-10.13,5.73l-.22-.39c.58-.39,1.23-.67,1.83-1.06l3.03-1.98c1.96-1.29,3.68-2.76,5.15-4.74-.09-.23-.11-.55-.29-.74-.76.53-1.45,1.22-2.19,1.75-2.03,1.47-4.26,2.46-6.58,3.27-.11-.09-.13-.28-.25-.39,2.88-1.68,5.78-3.43,8.03-6.23-.09-.21-.27-.34-.42-.53-.96.6-1.96,1.22-2.99,1.68-1.45.62-2.88,1.26-4.42,1.7-.11-.09-.2-.23-.27-.39.25-.16.56-.28.85-.41,2.41-1.2,4.82-2.53,6.78-4.62h-1.85c-.45,0-1,.07-1.72.21l-.85-.9h9.37l1.16-1.26c.11-.14.33-.12.42,0,.49.46,1,.8,1.56,1.4.16.14.22.3.09.44l-.13.12h-5.42l-2.01,1.59c.98.67,1.9,1.63,2.45,2.67,1.58-.92,3.06-2.14,4.33-3.56.47.44.8.76,1.16,1.2.4.46.65.76.69,1.01.02.16-.2.25-.33.23-.38-.02-.67-.14-1.03.05-.83.39-1.7.71-2.54,1.08.62,2.09,2.01,4.12,3.99,5.2.92.51,1.83.97,2.79,1.31l-.11.39Zm-.18-13.15l-.18.09c-1.12-.09-2.21-.12-3.1.57l-.45.35c-.13.02-.2-.16-.31-.23l.51-.87.4-.87h-13.45c-.07.64-.13,1.4-.36,2.02-.25.64-.74,1.13-1.36,1.36-.51.07-1.14.07-1.47-.41-.11-.21-.16-.51-.04-.74.18-.51.71-.55,1.09-.83,1.03-.74,1.34-1.98,1.54-3.22l.42.02c.07.37.13.74.16,1.1h6.36c-.6-.97-1.27-1.77-2.34-2.55l.16-.46c1.23.16,2.43.34,3.5.87.29.23.65.48.65.9.02.51-.25.87-.51,1.24h5.55l.69-.92c.13-.18.45-.09.51.02l.16.16c.6.62,1.14,1.06,1.9,2.05.04.09.04.25-.02.35Zm35.9,8.65c.2-.14.33-.14.56.02.38.37.65.55,1.05.97.18.14.13.41-.25.41h-1.94c.45.41,1.05.8,1.47,1.29.11.18-.02.34-.18.37-.69.02-1.23.41-1.81.64-.38.16-.69.3-.98.44,1.14.69,1.78,1.08,2.94,1.36l1.58.39-.07.37c-.91.14-1.78.6-2.25,1.5l-.13-.02c-2.32-1.38-4.82-3.56-5.51-6.32h-.31c-.33.37-.71.71-1.12,1.03v3.01l.11-.05,2.34-.9.25.35-3.52,2.69c-.27.14-.36.57-.71.41-.29-.53-.67-1.01-.89-1.59-.13-.34.76-.39.76-.85v-1.84l-.11.02c-.96.62-2.07,1.1-3.1,1.56v.71c0,.21-.07.37-.2.48-.45.18-.76.44-1.23.58-.11,0-.25-.05-.25-.18v-1.59h-1.7v1.33c0,.32-.47.51-1.09.8-.13.09-.29.18-.45.09l-.09-.16.02-4.16c0-1.4-.04-2.76-.16-4.19l.09-.05c.6.28,1.18.58,1.76.9l1.43-.02.78-.83c.09-.12.29-.14.4-.05l1.2.97c.33.64-.56.55-.56,1.22v3.56c1.36-.87,2.57-1.93,3.55-3.29-.85,0-1.7.11-2.48.28l-.6-.97h3.37v-1.31c-1.12,0-1.38.12-2.05.23l-.62-.92h2.68v-1.36c-1.07,0-1.56.14-2.32.28-.16-.34-.4-.67-.6-.97h2.92l-.02-1.63,1.07.28c-.04-.07,0-.21,0-.67h-1.81c0,.18.04.39-.27.55l-.91.48c-.18.05-.33-.02-.33-.25,0-1.59.04-2.55-.02-4-.09.09-.2.12-.33.12h-5.62c-.54,0-.87.14-1.52.3l-.67-.97h5.13l.87-1.2c.07-.16.33-.12.42-.02l1.7,1.47-.02-.28c.62.21,1.23.46,1.74.69h1.58l.56-.67c.07-.09.33-.07.42,0l1.07.92c.09.12.13.34-.04.44-.25.14-.45.21-.45.35v2.07c0,.32-.27.37-.78.64-.09.05-.18.09-.27.12.4.12.62.14.76.37.07.23-.13.34-.29.39-.11.05-.27.05-.29.18v.32c.76.02,1.58.02,2.36,0l-.04-1.13c-.18.07-.29.07-.4-.05l-.04-.14c.04-1.52.04-3.01-.04-4.6.71.32,1.07.46,1.65.78h1.63c.54-.62.69-.94,1-.71.45.34.62.51,1.09.92.16.37-.54.48-.54.74v2.32c0,.21-.22.32-.47.41-.29.12-.98.37-.98.09v-.67h-1.9c0,.23-.04.39-.25.51l-.33.18,1.67.39c.11.05.18.23.11.34-.11.23-.51.25-.47.6h1.36l.74-.83c.07-.11.25-.16.33-.07l1.32,1.06c.04.12.2.32.02.46l-.11.07h-3.64v1.36h.71l.76-.92c.18-.23.38-.12.62.09l1.14,1.01c.16.14.11.32,0,.44l-.11.07h-3.15v1.33l1.47-.02.8-.71Zm-11-5.93c.11.14-.02.41-.22.41h-3.88c-.62,0-1.23.09-1.81.23l-.62-.9h3.84l.8-1.26c.09-.12.33-.12.45.02l1.45,1.49Zm-1.81,1.61c.07-.11.31-.07.4,0,.62.55.94.78,1.41,1.31.04.07.09.23-.07.32l-.13.07h-3.84c-.69,0-1.07.09-1.81.28-.2-.25-.36-.62-.56-.83l-.07-.14h3.77l.89-1.01Zm-1.38-5.2c-.11.12-.33.14-.42.07-.58-.25-.56-.96-.83-1.47-.31-.6-.58-1.26-1.05-1.79,0-.12.11-.23.16-.34.94.3,1.94.6,2.57,1.49.36.71.11,1.47-.42,2.05Zm.67,10.03h-1.65v4.09h1.65v-4.09Zm13.16-12.28c.11-.09.27-.14.45,0,.6.53.94.78,1.47,1.31.33.3.13.51.02.55l-.09.05h-10.69c-.58,0-1.16.11-1.72.23-.22-.23-.49-.64-.67-.92h2.08l3.88.02v-.16c-.45-.78-.92-1.61-1.65-2.16l.2-.35c1.03.25,2.23.25,2.9,1.26.22.51-.09,1.01-.33,1.4l3.15-.02,1-1.22Zm-6.58,5.73v-1.72h-1.85v1.72h1.85Zm2.97,3.4h-2.36v1.36h2.34l.02-1.36Zm-2.36,2.05v1.31l2.36.02v-1.33h-2.36Zm5.09,2h-3.55c.4.67,1.32,1.75,2.14,2.32.74-.67,1.34-1.43,1.83-2.32h-.42Zm.11-9.2h-1.87v1.75h1.87v-1.75Zm23.05,5.52c-.18.05-.38.02-.51-.12-.54-.71-.87-1.54-1.45-2.23l-5.22.67c-2.86.37-5.71.6-7.83,1.24-.45.46-.78.25-.92-.07l-.65-1.59c-.04-.11.02-.23.07-.3.33-.16.78-.02,1.14-.16.4-.05.76-.21,1.07-.44,1.85-2.53,3.64-5.27,4.95-8.07.85.44,1.96,1.04,2.74,1.56.11.09.16.23.11.34l-.16.14c-.47.11-1.07-.05-1.36.44-1.72,2.09-3.59,4.28-5.6,6.05,1.7.02,3.12.02,5.06-.09l4.66-.3c.45-.02.94-.05,1.38-.14-1.21-1.52-2.68-2.78-4.17-3.93l.2-.32c1.85.74,3.57,1.7,5.29,2.74.76.62,1.67,1.2,1.9,2.46.04,1.03,0,1.7-.71,2.12Zm-2.28,2.21l-.07.21v3.54c0,1.45.02,1.75.04,3.01,0,.18-.02.3-.22.44-.36.21-.67.32-1.25.51-.16.05-.42.09-.42-.21v-1.7h-8.19v1.4c0,.16-.07.32-.29.41-.33.18-.83.44-1.2.57-.18.05-.38-.02-.4-.21l.04-3.84v-3.93l-.04-2.25c1.07.37,1.58.6,2.41.92h7.32l.85-1.17c.09-.12.31-.12.49,0,.62.39,1.41.94,1.65,1.13.16.11.2.23.07.39-.31.3-.58.51-.78.78Zm-1.94-.44h-8.14v5.54h8.14v-5.54Zm24.65-8.83c.07-.16.22-.12.38,0,.33.23,1.34.94,1.92,1.43.11.12.16.28.09.41-.31.32-.94.6-.94.97,0,3.06.02,4.12.09,6.12.04.37-.67.58-1.03.71-.49.18-1.07.41-1.07-.05l.02-1.03h-5.22v7.63c0,.48-1.16.85-1.83,1.01-.13.05-.29-.09-.29-.25l.11-5.45v-2.94h-4.93v.85c0,.39-1.12.78-1.67.97-.16.02-.33.05-.33-.16v-5.77c0-1.93,0-2.58-.09-4.28.96.39,1.47.6,2.3,1.08h4.75c0-2.76,0-3.56-.2-5.27-.04-.28,1.27.16,2.83.78.33.14.25.41.04.58-.13.16-.76.44-.76.85v3.06h5.06l.76-1.24Zm-12.67,7.82h4.88v-5.84h-4.91l.02,5.84Zm12.14,0v-5.84h-5.27v5.84h5.27Zm8.9,4.28c0-.48-.02-1.06-.04-1.54l-.04-.99c.8.21,1.52.6,2.32.83l8.92-.02.6-.74c.13-.18.38-.21.58-.07.47.37.92.76,1.41,1.17.27.28.02.44-.25.62-.27.23-.38.35-.4.55v3.43l.54.02,1.07-1.29c.16-.18.38-.25.58-.02.67.6,1.09,1.01,1.67,1.59.18.23.04.41-.22.41h-17.27c-1.03,0-1.67.05-2.59.18l-.42-.9h3.55v-3.24Zm14.79-9.27c.2.18.04.37-.2.44-.25.05-.58.07-.74.16-.87.94-1.72,1.82-2.66,2.62.69.78,1.54,1.33,2.45,1.63.31.09.47.02.62-.18.49-.67.76-1.47,1.14-2.21l.36-.87.31.12c-.11.85-.31,1.77-.29,2.67.02.87.65,1.36,1.14,1.98.09.23-.02.41-.13.51-.85.62-2.16.23-3.08.02-1.43-.55-2.81-1.33-3.93-2.55-.74.41-1.43.9-2.16,1.31-1.2.69-2.48,1.24-3.81,1.61l-.16-.28c1.83-1.15,3.59-2.3,5.24-3.82-1.05-1.7-1.56-3.63-1.9-5.66h-6v2.51h2.25l.87-.83c.11-.12.27-.05.33.02.6.35,1.14.76,1.67,1.22.09.09.11.21,0,.3-.27.25-.62.44-.78.76-.27,1.77.27,4.05-1.63,4.94-.31.14-.74.3-1.07.37-.16-.6-.33-1.24-.94-1.59-.36-.21-.71-.34-1.12-.44,0-.16.04-.28.02-.41.67.09,1.34.18,2.03.18.92,0,.85-1.33.85-2.16,0-.53.07-1.1.04-1.63h-2.54c-.09,2.76-1.21,5.17-3.32,6.94-.31.21-.71.48-.96.64l-.2-.21c1.54-1.86,2.59-4,2.61-6.49l.02-3.79c0-.67-.07-1.31-.11-1.95.83.25,1.45.62,2.25.9h5.6c-.13-1.17-.25-2.23-.42-3.38.85.21,1.7.46,2.5.8.16.07.18.28.11.41-.22.25-.51.44-.62.76.02.48.02.92.11,1.4h2.9c-.58-.64-.54-1.86-1.76-3.01l.18-.23c.94.25,1.99.51,2.68,1.4.13.18.18.41.16.67-.07.69-.49,1.15-1.05,1.13l1.36.05,1.14-1.45c.09-.07.25-.09.33-.02.71.55,1.18,1.1,1.96,1.82.11.14.11.37-.13.37h-7.65c.25,1.54.71,3.06,1.52,4.35.92-1.06,1.83-2.18,2.61-3.33l1.99,1.49Zm-11.04,8.28h-1.96v4.23h1.96v-4.23Zm3.75,0h-1.96v4.23h1.96v-4.23Zm3.82,0h-2.05v4.23h2.05v-4.23Zm16-7.75c.16-2.3.09-4.9-.07-7.27,1,.18,2.01.39,2.99.64.11.07.2.23.11.37-.22.28-.69.3-.8.69l-.07,3.66-.13,1.91h5.78l.98-1.61c.04-.12.31-.12.47,0,.76.57,1.52,1.22,2.25,1.91.04.09.04.23,0,.32l-.11.07h-8.23c.25,2.12,1.07,4.69,2.68,6.55,1.83,2.09,3.99,3.63,6.29,4.69l-.07.34-1.05-.05c-.98-.05-1.74.51-2.45,1.15-3.86-3.33-6-7.7-6.22-12.69l-.29-.02c-.31,3.89-1.36,7.7-4.6,10.28-1.58,1.26-3.21,2.32-5.04,2.94l-.67.23-.2-.39c3.15-1.66,6.2-4.65,7.47-8.12.6-1.66.83-3.22.96-4.92h-5.96c-.58,0-1.18.09-1.94.23l-.6-.92h8.52Zm-104.62-100.89h-1v71.81h1v-71.81Z"/>
  </g>
</svg>