<?xml version="1.0" encoding="UTF-8"?>
<svg id="b" data-name="圖層 2" xmlns="http://www.w3.org/2000/svg" viewBox="0 0 425.1 212.84">
  <defs>
    <style>
      .d {
        fill: #ff4214;
        stroke-width: 0px;
      }
    </style>
  </defs>
  <g id="c" data-name="圖層 1">
    <path class="d" d="m176.73.3h2.29l5.18,10.2h.11l5.08-10.2h2.25v13.3h-2.25V2.7h-.07l-5.45,10.91h-.46l-5.51-10.82h-.15v10.82h-1V.3Zm27.83-.3l6.26,13.61h-2.28l-2.03-4.43h-5.71l-2.1,4.43h-1.12l6.41-13.61h.56Zm-3.36,8.31h4.91l-2.42-5.27-2.49,5.27ZM216.77.3h2.24v5.9l7-5.9h1.45l-6.64,5.6,8.43,7.71h-2.85l-7.39-6.75v6.75h-2.24V.3Zm27.68,0v.86h-7.01v4.76h4.7v.86h-4.7v5.96h7.01v.86h-9.25V.3h9.25ZM27.45,42.05v2h-11.14v28.77h-5.17v-28.77H0v-2h27.45Zm21.85-.7l14.48,31.46h-5.27l-4.69-10.26h-13.2l-4.85,10.26h-2.6l14.83-31.46h1.3Zm-7.77,19.21h11.35l-5.59-12.18-5.75,12.18Zm31.27-18.52h5.17v30.77h-5.17v-30.77Zm23.17,15.5c0,2.15.32,4.08.97,5.79.65,1.71,1.54,3.16,2.68,4.34,1.14,1.18,2.48,2.09,4.03,2.71s3.23.94,5.04.94c1.08,0,2.13-.21,3.13-.63,1-.42,1.94-.96,2.8-1.64.86-.67,1.63-1.43,2.31-2.27.68-.84,1.24-1.7,1.67-2.56l2.18,1.39c-.63,1.04-1.38,2.03-2.25,2.98-.87.95-1.87,1.79-3,2.53-1.14.73-2.42,1.32-3.85,1.75-1.43.43-3.03.65-4.79.65-2.55,0-4.87-.43-6.95-1.28-2.08-.85-3.86-2-5.35-3.46-1.48-1.45-2.63-3.15-3.45-5.09-.81-1.94-1.22-3.99-1.22-6.16,0-1.44.19-2.84.56-4.21.37-1.37.91-2.65,1.61-3.85.7-1.2,1.56-2.3,2.58-3.29,1.01-1,2.16-1.86,3.43-2.58,1.28-.72,2.67-1.28,4.19-1.67,1.52-.39,3.13-.59,4.85-.59s3.15.22,4.54.66c1.38.44,2.65,1.02,3.78,1.75s2.15,1.57,3.04,2.52c.89.95,1.65,1.95,2.29,2.98l-2.25,1.48c-1.28-2.49-2.72-4.31-4.32-5.46-1.59-1.15-3.43-1.73-5.5-1.73-1.78,0-3.44.32-4.99.97-1.55.65-2.9,1.58-4.05,2.78s-2.06,2.67-2.71,4.4c-.66,1.72-.99,3.67-.99,5.84Zm41.92.51v14.76h-5.17v-30.77h5.17v14.01h15.45v-14.01h5.17v30.77h-5.17v-14.76h-15.45Zm33.29-16.01h5.17v19.98c0,1.31.22,2.55.67,3.7.45,1.15,1.09,2.16,1.93,3.03.84.87,1.84,1.55,3.03,2.05,1.18.5,2.5.75,3.96.75s2.79-.25,3.97-.75c1.18-.5,2.18-1.19,3-2.05.83-.87,1.46-1.88,1.9-3.03.44-1.15.66-2.39.66-3.7v-19.98h2.27v19.98c0,1.58-.26,3.06-.77,4.45-.51,1.39-1.31,2.61-2.4,3.65-1.09,1.04-2.49,1.87-4.19,2.48-1.7.61-3.74.92-6.13.92-2.12,0-3.99-.31-5.63-.92-1.63-.61-3-1.44-4.11-2.49-1.11-1.05-1.94-2.29-2.51-3.7-.56-1.42-.85-2.93-.85-4.54v-19.84Zm39.18,0h2.9l20.16,22.51h.23v-22.51h2.27v31.49h-1.21l-21.85-25.01h-.19v24.29h-2.32v-30.77Zm56.17,1.51c-1.86,0-3.57.33-5.14.99-1.57.66-2.92,1.6-4.06,2.83-1.14,1.23-2.02,2.71-2.66,4.45-.63,1.74-.95,3.69-.95,5.84s.34,4.12,1.03,5.86c.69,1.74,1.63,3.22,2.83,4.44,1.2,1.22,2.61,2.16,4.23,2.82,1.62.66,3.36.99,5.22.99,1.35,0,2.56-.18,3.64-.55,1.08-.36,2.06-.89,2.92-1.57v-10.79h-5.82v-1.83h11v13.53c-.9.48-1.8.9-2.71,1.28-.91.37-1.9.68-2.96.93-1.06.25-2.22.44-3.49.57-1.27.13-2.71.2-4.32.2-1.7,0-3.32-.19-4.85-.57-1.53-.38-2.95-.92-4.26-1.61-1.31-.7-2.49-1.53-3.54-2.49-1.05-.97-1.95-2.04-2.68-3.21-.73-1.18-1.3-2.44-1.71-3.78s-.6-2.75-.6-4.2.19-2.84.57-4.21c.38-1.37.92-2.66,1.64-3.87.71-1.21,1.58-2.32,2.6-3.33,1.02-1.01,2.17-1.87,3.46-2.6,1.28-.73,2.68-1.29,4.2-1.69,1.52-.4,3.12-.6,4.83-.6s3.13.22,4.51.66c1.38.44,2.65,1.02,3.78,1.75s2.15,1.57,3.03,2.52c.88.95,1.64,1.95,2.27,2.98l-2.23,1.48c-1.3-2.49-2.74-4.31-4.33-5.46-1.59-1.15-3.41-1.73-5.46-1.73Zm44.26,13.99c0,2.15.32,4.08.97,5.79.65,1.71,1.54,3.16,2.68,4.34,1.14,1.18,2.48,2.09,4.03,2.71s3.23.94,5.04.94c1.08,0,2.13-.21,3.13-.63,1-.42,1.94-.96,2.8-1.64.86-.67,1.63-1.43,2.31-2.27.68-.84,1.24-1.7,1.67-2.56l2.18,1.39c-.63,1.04-1.38,2.03-2.25,2.98-.87.95-1.87,1.79-3,2.53-1.14.73-2.42,1.32-3.85,1.75-1.43.43-3.03.65-4.79.65-2.55,0-4.87-.43-6.95-1.28-2.08-.85-3.86-2-5.35-3.46-1.48-1.45-2.63-3.15-3.45-5.09-.81-1.94-1.22-3.99-1.22-6.16,0-1.44.19-2.84.56-4.21.37-1.37.91-2.65,1.61-3.85.7-1.2,1.56-2.3,2.58-3.29,1.01-1,2.16-1.86,3.43-2.58,1.28-.72,2.67-1.28,4.19-1.67,1.52-.39,3.13-.59,4.85-.59s3.15.22,4.54.66c1.38.44,2.65,1.02,3.78,1.75s2.15,1.57,3.04,2.52c.89.95,1.65,1.95,2.29,2.98l-2.25,1.48c-1.28-2.49-2.72-4.31-4.32-5.46-1.59-1.15-3.43-1.73-5.5-1.73-1.78,0-3.44.32-4.99.97-1.55.65-2.9,1.58-4.05,2.78s-2.06,2.67-2.71,4.4c-.66,1.72-.99,3.67-.99,5.84Zm36.75-15.5h5.17v30.77h-5.17v-30.77Zm42.48,0v2h-11.14v28.77h-5.17v-28.77h-11.14v-2h27.45Zm10.97,0l10.67,15.59,10.63-15.59h2.81l-11.93,17.47v13.29h-5.17v-12.81l-12.3-17.96h5.29Zm-232.87,59.07c-.8,0-1.54.14-2.22.43-.68.28-1.26.69-1.76,1.22s-.88,1.17-1.15,1.93c-.27.75-.41,1.59-.41,2.52s.15,1.78.45,2.53c.3.75.71,1.39,1.22,1.92.52.53,1.13.93,1.83,1.22.7.28,1.45.43,2.26.43.58,0,1.11-.08,1.58-.24s.89-.38,1.26-.68v-4.67h-2.52v-.79h4.76v5.85c-.39.21-.78.39-1.17.55-.39.16-.82.29-1.28.4-.46.11-.96.19-1.51.25-.55.06-1.17.09-1.87.09-.74,0-1.43-.08-2.1-.25-.66-.16-1.28-.4-1.84-.7-.57-.3-1.08-.66-1.53-1.08-.46-.42-.84-.88-1.16-1.39-.32-.51-.56-1.05-.74-1.64-.17-.58-.26-1.19-.26-1.82s.08-1.23.25-1.82c.16-.59.4-1.15.71-1.68s.68-1,1.12-1.44.94-.81,1.5-1.12c.55-.31,1.16-.56,1.82-.73.66-.17,1.35-.26,2.09-.26s1.35.1,1.95.29c.6.19,1.14.44,1.64.76.49.31.93.68,1.31,1.09s.71.84.98,1.29l-.96.64c-.56-1.08-1.19-1.86-1.87-2.36s-1.47-.75-2.36-.75Zm12.82-.65h2.24v12.44h6.7v.86h-8.94v-13.3Zm21.79,13.62c-1.03,0-1.99-.18-2.88-.55-.89-.37-1.67-.87-2.33-1.51s-1.18-1.38-1.56-2.24-.57-1.76-.57-2.73c0-.64.09-1.25.26-1.84.17-.59.41-1.14.73-1.65s.69-.97,1.14-1.39c.44-.42.94-.78,1.48-1.07.54-.3,1.13-.53,1.76-.69.63-.16,1.29-.25,1.98-.25s1.35.08,1.98.25c.63.16,1.22.39,1.76.69.55.3,1.04.66,1.48,1.07.44.42.82.88,1.14,1.39.32.51.56,1.06.73,1.65.17.59.26,1.2.26,1.84s-.08,1.26-.26,1.86c-.17.6-.41,1.16-.73,1.68-.32.52-.7,1-1.14,1.42-.44.43-.93.8-1.48,1.1-.54.31-1.13.55-1.76.71-.63.17-1.29.25-1.98.25Zm0-.65c.76,0,1.44-.16,2.02-.48.58-.32,1.08-.76,1.48-1.33s.7-1.24.91-2.02c.2-.78.31-1.63.31-2.55s-.1-1.76-.31-2.52-.51-1.42-.91-1.97c-.4-.55-.89-.98-1.48-1.29-.59-.3-1.26-.46-2.02-.46s-1.46.15-2.04.46c-.59.3-1.08.73-1.48,1.29-.4.55-.7,1.21-.9,1.97s-.3,1.6-.3,2.52.1,1.77.3,2.55c.2.78.5,1.45.9,2.02s.89,1.01,1.48,1.33c.58.32,1.27.48,2.04.48Zm14.46-12.96h5.36c.71,0,1.36.08,1.95.24s1.1.38,1.52.67.75.63.99,1.03c.23.4.35.84.35,1.32,0,.37-.04.7-.11.98-.07.29-.2.55-.39.8-.19.24-.44.48-.75.69s-.7.44-1.18.67v.04c.47.07.9.2,1.28.38.38.18.71.41.98.69.27.28.48.6.63.97.15.37.22.78.22,1.22,0,.5-.11.97-.33,1.41-.22.44-.53.82-.93,1.14-.4.32-.89.58-1.46.77-.57.19-1.21.28-1.92.28h-6.21v-13.3Zm2.24,5.99h2.85c.45,0,.85-.06,1.19-.19.35-.13.64-.3.88-.53.24-.22.42-.49.55-.8.12-.31.19-.65.19-1.01,0-.39-.07-.74-.22-1.06s-.38-.59-.69-.82c-.31-.23-.71-.4-1.18-.52-.48-.12-1.05-.18-1.72-.18h-1.85v5.11Zm0,6.34h2.42c.65,0,1.21-.06,1.69-.19.48-.12.87-.3,1.18-.52.31-.22.54-.49.69-.81.15-.31.23-.66.23-1.03,0-.42-.07-.81-.2-1.17-.13-.36-.35-.67-.66-.94-.3-.26-.7-.47-1.19-.63s-1.1-.23-1.81-.23h-2.35v5.52Zm20.66-12.63l6.26,13.61h-2.28l-2.03-4.43h-5.71l-2.1,4.43h-1.12l6.41-13.61h.56Zm-3.36,8.31h4.91l-2.42-5.27-2.49,5.27Zm15.58-8.01h2.24v12.44h6.7v.86h-8.94v-13.3Zm-39.53,39.42h-1v72.96h1v-72.96Z"/>
  </g>
</svg>