<?xml version="1.0" encoding="UTF-8"?>
<svg id="b" data-name="圖層 2" xmlns="http://www.w3.org/2000/svg" viewBox="0 0 335.77 30.04">
  <defs>
    <style>
      .d {
        fill: #ff4214;
        stroke-width: 0px;
      }
    </style>
  </defs>
  <g id="c" data-name="圖層 1">
    <g>
      <path class="d" d="m25.27,3.22c.13-.1.31-.03.44.06.94.8,1.76,1.57,2.48,2.62.03.16-.12.35-.28.35h-5.83v3.14c0,.74.66.64,2.41.64.5,0,.88-.35,1.25-.74.22-.32.72.22,1.1.7.41.48,1.13,1.12.75,1.57-.38.54-1.07.67-1.69.67-2.73,0-4.92.13-5.86-.86-.56-.83-.31-1.76-.31-3.04v-2.08h-2.29c-.03,1.86.03,3.74.03,5.57,0,.42-.72.67-1.13.86-.44.22-.91.38-1.19.22l-.09-.16v-1.86h-3.17v1.09c0,.19-.09.38-.25.48-.47.35-1.16.74-1.91.83-.35.06-.22-.7-.22-1.34v-5.7h-2.01c-.19,2.11-.97,4.16-2.95,5.25-1.35.74-2.7,1.38-4.11,1.86l-.44-.45c1.47-.96,2.63-1.79,3.95-3.26l.13-.1c.78-.93,1-2.11,1.16-3.3l-2.38.03c-.5,0-1.04.13-1.51.22l-.88-1.31h4.83c0-1.89-.03-3.46-.22-5.15,1.16.29,2.32.58,3.42,1.09.16.03.22.29.13.45-.28.42-.88.35-1,.86,0,.96,0,1.86-.06,2.75h1.94l-.03-4.99c1.13.32,2.23.67,3.17,1.09.38.22.16.51-.09.7-.28.19-.66.42-.66.77v2.43h3.23c-.06-1.57-.06-3.2-.13-4.86,1.1.29,2.29.61,3.32,1.06.13.1.19.22.09.42-.25.32-.97.67-.97.86v2.53h2.32V.5c1.1.22,2.04.58,3.04.99.16.1.22.32.13.48-.35.38-.88.83-.88,1.31v1.92h1.82l1.41-1.98Zm-9.97,22.27c0,.9.06,1.7.09,2.88.03.48-1.5,1.25-2.45,1.47-.19,0-.38-.1-.41-.26l.09-4.64v-5.79h-5.11l.03,5.76c0,.7.16,1.66-.09,1.86-.66.51-1.44.83-2.07.99-.19.1-.38-.06-.41-.26v-8.61l-.03-2.14c1,.29,2.01.83,2.95,1.34h4.7c0-1.6.03-2.14-.03-3.2,1.16.22,2.26.61,3.39.96.13.1.28.19.28.35-.03.61-.88.51-.94,1.09v.8h5.42l.88-1.06c.25-.32.56-.03,1.32.42.44-.99.69-1.92,1.03-2.85H4.64c-.09,1.7-.56,3.58-2.26,4.26-.6.13-1.44.35-1.94-.19-.25-.29-.38-.61-.38-.96.31-1.12,1.54-1.38,2.23-2.18.94-.9,1.44-1.92,1.69-3.14l.56.06c.09.35.13.7.09,1.09h19.03l1.03-.77c.19-.1.38-.19.63.03.97.58,1.66,1.18,2.51,1.95.09.1.13.38-.06.51-.28.13-.78.26-1.29.45l-.63.32-2.35,1.86c.78.54,1.22.8.88,1.12-.41.42-.66.51-1.13.96v5.25c0,1.44-2.29,2.02-3.67,2.4-.03-1.18-.94-2.18-1.94-2.62l-1.41-.42.09-.61,3.89.38c.25-.03.47-.16.53-.38.09-1.63.03-3.17.06-4.83h-5.52v6.34Zm-.22-19.23h-3.2v3.58h3.2v-3.58Z"/>
      <path class="d" d="m59.61,11.73h-7.02v7.07c0,1.15.09,2.3.13,3.42.03.16-.13.32-.25.42-.91.51-1.47.83-2.1.86-.5-.03-.44-.38-.44-1.5v-.99h-4.86v1.7c0,.29-.03.48-.38.61-.6.22-1.82.86-2.16.7l-.19-.22.16-6.14v-5.92h-4.14v15.2h15.36l1.79-2.4c.13-.1.35-.06.47.03,1.1.9,1.98,1.66,2.89,2.78.19.22.09.54-.16.54l-20.13-.03c-.16,0-.56.74-1.1,1.6-.28.22-1-.29-1.41-.54-.85-.54-1.04-.77-1.6-1.25-.16-.29.63-1.02.94-1.57.13-.22.19-.38.19-.8v-13.57h-2.01c-.63,0-1.44.22-2.04.38l-.82-1.31h4.83v-4.99l-.13-2.62c1.41.26,2.76.61,3.76.96.22.13.16.48.06.61-.35.35-.94.77-.94.96v5.09h4.17V3.8l-.16-3.17c1.29.22,2.57.45,3.67.96.13.16.16.42.03.51-.28.35-1.03.64-1.03.86v7.84h4.92V3.89l-.16-3.36c1.32.19,2.76.67,3.61.99.19.13.31.45.13.61-.34.29-.78.29-.94.8l.03,7.87h2.57l1.5-2.37c.16-.16.44-.13.63.03.47.48,1.98,1.95,2.57,2.59.22.26.12.67-.25.67Zm-9.69,0h-4.86v8.35h4.86v-8.35Z"/>
      <path class="d" d="m64.7,29.52c2.51-1.28,5.52-3.33,6.3-6.05.44-1.5.5-3.1.38-4.77l-.16.03c-2.7,1.7-5.58,2.82-8.62,3.68-.06-.19-.22-.32-.31-.51,1.66-.86,3.48-1.86,5.14-2.94,2.48-1.63,5.08-3.81,6.9-6.3h-5.02v1.54c0,.42-.28.64-1.32.99l-.97.32c-.16.03-.44-.03-.41-.26l.09-5.15v-3.94c0-1.6-.12-3.36-.22-4.96,1.07.42,1.91.9,2.95,1.44h13.83l1.35-1.38c.28-.29.6.06,2.45,1.44.38.26.03.61-.75,1.5l-.06.16v6.33l.13,2.88c.03.51-.66.77-1.69,1.09-.35.1-.6.16-.75.06-.19-.19-.22-.32-.22-.74v-1.34h-6.02c3.01,3.52,7.15,5.18,11.54,5.76l1.94.26v.48c-1.38.19-2.73.86-3.42,2.11-1.79-.58-3.7-1.31-5.33-2.27-.16.13-.28.22-.41.45l.03,5.92.13,3.17c.03.42-.63.61-.97.8-.47.22-.94.42-1.44.54-.19,0-.31-.19-.38-.35.13-4.19.13-7.62-.13-11.74.69.03,1.32.19,1.88.32-1.47-1.31-2.95-2.82-4.04-4.54l-.13.06c-1.25,1.47-2.7,2.85-4.2,4.06l2.07.67c.16.1.16.29.06.42-.28.38-.94.35-.97.93-.09,1.09-.13,2.02-.31,3.52-.22,1.82-1.38,3.58-3.1,4.42-1.69,1.09-3.57,1.73-5.49,2.27l-.31-.38Zm4.55-25.92v3.46h5.74v-3.46h-5.74Zm.06,4.42v3.65l5.71.03v-3.68h-5.71Zm8.25-4.42v3.46h6.11v-3.46h-6.11Zm6.15,4.42h-6.15v3.68l6.15-.03v-3.65Z"/>
      <path class="d" d="m120.73,4.25c-.53.45-1.6,1.09-1.6,1.47v9.92l.03,8.22.06,3.36c-.03.32-.25.48-.63.64l-1.35.54c-.16.06-.44.13-.56-.03-.09-.13-.19-.54-.19-.99v-2.46l-17.15-.03v2.27c0,.42-.88.93-1.32,1.12-.88.42-1.35.42-1.44.19l-.06-.48.13-5.15.03-7.23-.03-10.88c0-.96-.09-2.05-.06-3.04,1.29.48,2.57,1.12,3.76,1.73h15.49l1.57-1.47c.31-.29.53-.16.91.06.75.45,1.69,1.09,2.41,1.66.06.13.16.32.09.38l-.09.19Zm-4.23.19h-17.25l.03,8.42v11.04l17.21-.03V4.44Zm-3.54,6.56v7.9c0,.19-.09.45-.47.61-.69.29-1.13.45-1.69.58-.34.03-.41-.13-.41-.51v-1.25l-4.95-.03.03,1.54c0,.45-1.41.9-2.23,1.18-.22.06-.5-.03-.5-.26l.09-6.56-.09-6.02c.91.35,1.72.7,2.6,1.09l.28.13h4.52l1.07-1.28c.13-.16.35-.16.5-.03.97.64,1.47.99,2.32,1.6.09.13.09.32,0,.42-.35.35-1.07.58-1.07.9Zm-2.57-.58h-4.99v6.88h4.99v-6.88Z"/>
      <path class="d" d="m153.82,24.98c-1.54.06-3.07.38-4.05,1.73-3.79-2.46-5.74-6.62-6.21-10.97-.78.26-1.29.35-1.88.54,1.13,2.94,1.13,6.62.44,9.5-.41,1.76-1.76,3.71-3.57,4.03l-.53.1c-.12-1.6-1.63-2.85-3.07-3.26l-.88-.26.09-.7c1.32.26,2.67.45,4.01.48,1.47.06,1.41-1.5,1.63-3.3.16-1.09.25-2.05.19-3.17h-.16c-4.33,3.58-9.16,6.14-14.24,7.97l-.31-.54c.81-.54,1.72-.93,2.57-1.47l4.26-2.75c2.76-1.79,5.17-3.84,7.24-6.59-.13-.32-.16-.77-.41-1.02-1.07.74-2.04,1.7-3.07,2.43-2.85,2.05-5.99,3.42-9.25,4.54-.16-.13-.19-.38-.34-.54,4.04-2.34,8.12-4.77,11.29-8.67-.13-.29-.38-.48-.6-.74-1.35.83-2.76,1.7-4.2,2.34-2.04.86-4.04,1.76-6.21,2.37-.16-.13-.28-.32-.38-.54.34-.22.78-.38,1.19-.58,3.39-1.66,6.77-3.52,9.53-6.43h-2.6c-.63,0-1.41.1-2.41.29l-1.19-1.25h13.17l1.63-1.76c.16-.19.47-.16.6,0,.69.64,1.41,1.12,2.19,1.95.22.19.31.42.13.61l-.19.16h-7.62l-2.82,2.21c1.38.93,2.67,2.27,3.45,3.71,2.23-1.28,4.3-2.98,6.08-4.96.66.61,1.13,1.06,1.63,1.66.56.64.91,1.06.97,1.41.03.22-.28.35-.47.32-.53-.03-.94-.19-1.44.06-1.16.54-2.38.99-3.57,1.5.88,2.91,2.82,5.73,5.61,7.23,1.29.7,2.57,1.34,3.92,1.82l-.16.54Zm-.25-18.3l-.25.13c-1.57-.13-3.1-.16-4.36.8l-.63.48c-.19.03-.28-.22-.44-.32l.72-1.22.56-1.22h-18.91c-.09.9-.19,1.95-.5,2.82-.35.9-1.03,1.57-1.91,1.89-.72.1-1.6.1-2.07-.58-.16-.29-.22-.7-.06-1.02.25-.7,1-.77,1.54-1.15,1.44-1.02,1.88-2.75,2.16-4.48l.6.03c.09.51.19,1.02.22,1.54h8.94c-.85-1.34-1.79-2.46-3.29-3.55l.22-.64c1.72.22,3.42.48,4.92,1.22.41.32.91.67.91,1.25.03.7-.35,1.22-.72,1.73h7.81l.97-1.28c.19-.26.63-.13.72.03l.22.22c.85.86,1.6,1.47,2.67,2.85.06.13.06.35-.03.48Z"/>
      <path class="d" d="m206.53,18.71c.28-.19.47-.19.78.03.53.51.91.77,1.47,1.34.25.19.19.58-.35.58h-2.73c.63.58,1.47,1.12,2.07,1.79.16.26-.03.48-.25.51-.97.03-1.72.58-2.54.9-.53.22-.97.42-1.38.61,1.6.96,2.51,1.5,4.14,1.89l2.23.54-.09.51c-1.29.19-2.51.83-3.17,2.08l-.19-.03c-3.26-1.92-6.77-4.96-7.75-8.8h-.44c-.47.51-1,.99-1.57,1.44v4.19l.16-.06,3.29-1.25.34.48-4.95,3.74c-.38.19-.5.8-1,.58-.41-.74-.94-1.41-1.25-2.21-.19-.48,1.07-.54,1.07-1.18v-2.56l-.16.03c-1.35.86-2.92,1.54-4.36,2.18v.99c0,.29-.09.51-.28.67-.63.26-1.07.61-1.72.8-.16,0-.34-.06-.34-.26v-2.21h-2.38v1.86c0,.45-.66.7-1.54,1.12-.19.13-.41.26-.63.13l-.13-.22.03-5.79c0-1.95-.06-3.84-.22-5.82l.13-.06c.85.38,1.66.8,2.48,1.25l2.01-.03,1.1-1.15c.12-.16.41-.19.56-.06l1.69,1.34c.47.9-.78.77-.78,1.7v4.96c1.91-1.22,3.61-2.69,4.99-4.58-1.19,0-2.38.16-3.48.38l-.85-1.34h4.73v-1.82c-1.57,0-1.94.16-2.88.32l-.88-1.28h3.76v-1.89c-1.5,0-2.19.19-3.26.38-.22-.48-.56-.93-.85-1.34h4.11l-.03-2.27,1.51.38c-.06-.1,0-.29,0-.93h-2.54c0,.26.06.54-.38.77l-1.29.67c-.25.06-.47-.03-.47-.35,0-2.21.06-3.55-.03-5.57-.13.13-.28.16-.47.16h-7.9c-.75,0-1.22.19-2.13.42l-.94-1.34h7.21l1.22-1.66c.09-.22.47-.16.6-.03l2.38,2.05-.03-.38c.88.29,1.72.64,2.45.96h2.23l.78-.93c.09-.13.47-.1.6,0l1.5,1.28c.13.16.19.48-.06.61-.35.19-.63.29-.63.48v2.88c0,.45-.38.51-1.1.9-.13.06-.25.13-.38.16.56.16.88.19,1.07.51.09.32-.19.48-.41.54-.16.06-.38.06-.41.26v.45c1.07.03,2.23.03,3.32,0l-.06-1.57c-.25.1-.41.1-.56-.06l-.06-.19c.06-2.11.06-4.19-.06-6.4,1,.45,1.5.64,2.32,1.09h2.29c.75-.86.97-1.31,1.41-.99.63.48.88.7,1.54,1.28.22.51-.75.67-.75,1.02v3.23c0,.29-.31.45-.66.58-.41.16-1.38.51-1.38.13v-.93h-2.67c0,.32-.06.54-.35.7l-.47.26,2.35.54c.16.06.25.32.16.48-.16.32-.72.35-.66.83h1.91l1.03-1.15c.09-.16.35-.22.47-.1l1.85,1.47c.06.16.28.45.03.64l-.16.1h-5.11v1.89h1l1.07-1.28c.25-.32.53-.16.88.13l1.6,1.41c.22.19.16.45,0,.61l-.16.1h-4.42v1.86l2.07-.03,1.13-.99Zm-15.46-8.26c.16.19-.03.58-.31.58h-5.46c-.88,0-1.72.13-2.54.32l-.88-1.25h5.39l1.13-1.76c.12-.16.47-.16.63.03l2.04,2.08Zm-2.54,2.24c.09-.16.44-.1.56,0,.88.77,1.32,1.09,1.98,1.82.06.1.13.32-.09.45l-.19.1h-5.39c-.97,0-1.51.13-2.54.38-.28-.35-.5-.86-.78-1.15l-.09-.19h5.3l1.25-1.41Zm-1.94-7.23c-.16.16-.47.19-.6.1-.82-.35-.78-1.34-1.16-2.05-.44-.83-.82-1.76-1.47-2.5,0-.16.16-.32.22-.48,1.32.42,2.73.83,3.61,2.08.5.99.16,2.05-.6,2.85Zm.94,13.95h-2.32v5.7h2.32v-5.7Zm18.5-17.09c.16-.13.38-.19.63,0,.85.74,1.32,1.09,2.07,1.82.47.42.19.7.03.77l-.13.06h-15.02c-.82,0-1.63.16-2.41.32-.31-.32-.69-.9-.94-1.28h2.92l5.46.03v-.22c-.63-1.09-1.29-2.24-2.32-3.01l.28-.48c1.44.35,3.14.35,4.08,1.76.31.7-.13,1.41-.47,1.95l4.42-.03,1.41-1.7Zm-9.25,7.97v-2.4h-2.6v2.4h2.6Zm4.17,4.74h-3.32v1.89h3.29l.03-1.89Zm-3.32,2.85v1.82l3.32.03v-1.86h-3.32Zm7.15,2.78h-4.99c.56.93,1.85,2.43,3.01,3.23,1.03-.93,1.88-1.98,2.57-3.23h-.6Zm.16-12.8h-2.63v2.43h2.63v-2.43Z"/>
      <path class="d" d="m237.96,15.54c-.25.06-.53.03-.72-.16-.75-.99-1.22-2.14-2.04-3.1l-7.34.93c-4.01.51-8.03.83-11.01,1.73-.63.64-1.1.35-1.29-.1l-.91-2.21c-.06-.16.03-.32.09-.42.47-.22,1.1-.03,1.6-.22.56-.06,1.07-.29,1.5-.61,2.6-3.52,5.11-7.33,6.96-11.23,1.19.61,2.76,1.44,3.86,2.18.16.13.22.32.16.48l-.22.19c-.66.16-1.5-.06-1.91.61-2.41,2.91-5.05,5.95-7.87,8.42,2.38.03,4.39.03,7.12-.13l6.55-.42c.63-.03,1.32-.06,1.94-.19-1.69-2.11-3.76-3.87-5.86-5.47l.28-.45c2.6,1.02,5.02,2.37,7.43,3.81,1.07.86,2.35,1.66,2.67,3.42.06,1.44,0,2.37-1,2.94Zm-3.2,3.07l-.09.29v4.93c0,2.02.03,2.43.06,4.19,0,.26-.03.42-.31.61-.5.29-.94.45-1.76.7-.22.06-.6.13-.6-.29v-2.37h-11.51v1.95c0,.22-.09.45-.41.58-.47.26-1.16.61-1.69.8-.25.06-.53-.03-.56-.29l.06-5.34v-5.47l-.06-3.14c1.51.51,2.23.83,3.39,1.28h10.29l1.19-1.63c.13-.16.44-.16.69,0,.88.54,1.98,1.31,2.32,1.57.22.16.28.32.09.54-.44.42-.82.7-1.1,1.09Zm-2.73-.61h-11.45v7.71h11.45v-7.71Z"/>
      <path class="d" d="m267.31,5.72c.09-.22.31-.16.53,0,.47.32,1.88,1.31,2.7,1.98.16.16.22.38.13.58-.44.45-1.32.83-1.32,1.34,0,4.26.03,5.73.13,8.51.06.51-.94.8-1.44.99-.69.26-1.51.58-1.51-.06l.03-1.44h-7.34v10.62c0,.67-1.63,1.18-2.57,1.41-.19.06-.41-.13-.41-.35l.16-7.58v-4.1h-6.93v1.18c0,.54-1.57,1.09-2.35,1.34-.22.03-.47.06-.47-.22v-8.03c0-2.69,0-3.58-.13-5.95,1.35.54,2.07.83,3.23,1.5h6.68c0-3.84,0-4.96-.28-7.33-.06-.38,1.79.22,3.98,1.09.47.19.35.58.06.8-.19.22-1.07.61-1.07,1.18v4.26h7.12l1.07-1.73Zm-17.81,10.88h6.87v-8.13h-6.9l.03,8.13Zm17.06,0v-8.13h-7.4v8.13h7.4Z"/>
      <path class="d" d="m279.7,22.55c0-.67-.03-1.47-.06-2.14l-.06-1.38c1.13.29,2.13.83,3.26,1.15l12.54-.03.85-1.02c.19-.26.53-.29.82-.1.66.51,1.29,1.06,1.98,1.63.38.38.03.61-.35.86-.38.32-.53.48-.56.77v4.77l.75.03,1.5-1.79c.22-.26.53-.35.82-.03.94.83,1.54,1.41,2.35,2.21.25.32.06.58-.31.58h-24.27c-1.44,0-2.35.06-3.64.26l-.6-1.25h4.99v-4.51Zm20.79-12.9c.28.26.06.51-.28.61-.34.06-.82.1-1.03.22-1.22,1.31-2.41,2.53-3.73,3.65.97,1.09,2.16,1.86,3.45,2.27.44.13.66.03.88-.26.69-.93,1.07-2.05,1.6-3.07l.5-1.22.44.16c-.16,1.18-.44,2.46-.41,3.71.03,1.22.91,1.89,1.6,2.75.13.32-.03.58-.19.7-1.19.86-3.04.32-4.33.03-2.01-.77-3.95-1.86-5.52-3.55-1.03.58-2.01,1.25-3.04,1.82-1.69.96-3.48,1.73-5.36,2.24l-.22-.38c2.57-1.6,5.05-3.2,7.37-5.31-1.47-2.37-2.19-5.06-2.67-7.87h-8.44v3.49h3.17l1.22-1.15c.16-.16.38-.06.47.03.85.48,1.6,1.06,2.35,1.7.13.13.16.29,0,.42-.38.35-.88.61-1.1,1.06-.38,2.46.38,5.63-2.29,6.88-.44.19-1.04.42-1.51.51-.22-.83-.47-1.73-1.32-2.21-.5-.29-1-.48-1.57-.61,0-.22.06-.38.03-.58.94.13,1.88.26,2.85.26,1.29,0,1.19-1.86,1.19-3.01,0-.74.09-1.54.06-2.27h-3.57c-.13,3.84-1.69,7.2-4.67,9.66-.44.29-1,.67-1.35.9l-.28-.29c2.16-2.59,3.64-5.57,3.67-9.02l.03-5.28c0-.93-.09-1.82-.16-2.72,1.16.35,2.04.86,3.17,1.25h7.87c-.19-1.63-.35-3.1-.6-4.7,1.19.29,2.38.64,3.51,1.12.22.1.25.38.16.58-.31.35-.72.61-.88,1.06.03.67.03,1.28.16,1.95h4.08c-.82-.9-.75-2.59-2.48-4.19l.25-.32c1.32.35,2.79.7,3.76,1.95.19.26.25.58.22.93-.09.96-.69,1.6-1.47,1.57l1.91.06,1.6-2.02c.13-.1.34-.13.47-.03,1,.77,1.66,1.54,2.76,2.53.16.19.16.51-.19.51h-10.76c.35,2.14,1,4.25,2.13,6.05,1.29-1.47,2.57-3.04,3.67-4.64l2.79,2.08Zm-15.52,11.52h-2.76v5.89h2.76v-5.89Zm5.27,0h-2.76v5.89h2.76v-5.89Zm5.36,0h-2.88v5.89h2.88v-5.89Z"/>
      <path class="d" d="m318.71,10.39c.22-3.2.12-6.82-.09-10.11,1.41.26,2.82.54,4.2.9.16.1.28.32.16.51-.31.38-.97.42-1.13.96l-.09,5.09-.19,2.66h8.12l1.38-2.24c.06-.16.44-.16.66,0,1.07.8,2.13,1.7,3.17,2.66.06.13.06.32,0,.45l-.16.1h-11.57c.34,2.94,1.5,6.53,3.76,9.12,2.57,2.91,5.61,5.06,8.84,6.53l-.09.48-1.47-.06c-1.38-.06-2.45.7-3.45,1.6-5.42-4.64-8.44-10.72-8.75-17.66l-.41-.03c-.44,5.41-1.91,10.72-6.46,14.3-2.23,1.76-4.52,3.23-7.09,4.1l-.94.32-.28-.54c4.42-2.3,8.72-6.46,10.5-11.3.85-2.3,1.16-4.48,1.35-6.85h-8.37c-.82,0-1.66.13-2.73.32l-.85-1.28h11.98Z"/>
    </g>
  </g>
</svg>